%TF.GenerationSoftware,KiCad,Pcbnew,7.0.2-0*%
%TF.CreationDate,2023-10-04T13:32:30+02:00*%
%TF.ProjectId,FlukePodAdapterLarge68K,466c756b-6550-46f6-9441-646170746572,rev?*%
%TF.SameCoordinates,Original*%
%TF.FileFunction,Copper,L1,Top*%
%TF.FilePolarity,Positive*%
%FSLAX46Y46*%
G04 Gerber Fmt 4.6, Leading zero omitted, Abs format (unit mm)*
G04 Created by KiCad (PCBNEW 7.0.2-0) date 2023-10-04 13:32:30*
%MOMM*%
%LPD*%
G01*
G04 APERTURE LIST*
%TA.AperFunction,ComponentPad*%
%ADD10O,1.700000X1.700000*%
%TD*%
%TA.AperFunction,ComponentPad*%
%ADD11R,1.700000X1.700000*%
%TD*%
%TA.AperFunction,ComponentPad*%
%ADD12R,1.600000X1.600000*%
%TD*%
%TA.AperFunction,ComponentPad*%
%ADD13C,1.600000*%
%TD*%
%TA.AperFunction,Conductor*%
%ADD14C,0.000000*%
%TD*%
%TA.AperFunction,Conductor*%
%ADD15C,0.800000*%
%TD*%
%TA.AperFunction,Conductor*%
%ADD16C,0.250000*%
%TD*%
%TA.AperFunction,Conductor*%
%ADD17C,0.500000*%
%TD*%
G04 APERTURE END LIST*
D10*
%TO.P,A23-J1,1*%
%TO.N,N/C*%
X77500000Y-80720000D03*
%TO.P,A23-J1,2,+5V*%
%TO.N,+5V*%
X77500000Y-83260000D03*
%TO.P,A23-J1,3*%
%TO.N,N/C*%
X77500000Y-85800000D03*
%TO.P,A23-J1,4,+5RET*%
%TO.N,GND*%
X77500000Y-88340000D03*
%TO.P,A23-J1,5,POD6*%
%TO.N,POD6*%
X77500000Y-90880000D03*
%TO.P,A23-J1,6,POD4*%
%TO.N,POD4*%
X77500000Y-93420000D03*
%TO.P,A23-J1,7,POD2*%
%TO.N,POD2*%
X77500000Y-95960000D03*
%TO.P,A23-J1,8,POD0*%
%TO.N,POD0*%
X77500000Y-98500000D03*
%TO.P,A23-J1,9,~{PODprsnt}*%
%TO.N,GND*%
X77500000Y-101040000D03*
%TO.P,A23-J1,10,~{SYNC}*%
%TO.N,~{PODSYNC}*%
X77500000Y-103580000D03*
%TO.P,A23-J1,11,PWRFAIL*%
%TO.N,PODPWRFAIL*%
X77500000Y-106120000D03*
%TO.P,A23-J1,12,~{MAINSTAT}*%
%TO.N,~{MAINSTAT}*%
X77500000Y-108660000D03*
%TO.P,A23-J1,13,+12RET*%
%TO.N,GND*%
X77500000Y-111200000D03*
D11*
%TO.P,A23-J1,14,+12V*%
%TO.N,+12V*%
X74960000Y-80720000D03*
D10*
%TO.P,A23-J1,15,+5V*%
%TO.N,+5V*%
X74960000Y-83260000D03*
%TO.P,A23-J1,16,+5RET*%
%TO.N,GND*%
X74960000Y-85800000D03*
%TO.P,A23-J1,17,POD7*%
%TO.N,POD7*%
X74960000Y-88340000D03*
%TO.P,A23-J1,18,POD5*%
%TO.N,POD5*%
X74960000Y-90880000D03*
%TO.P,A23-J1,19,POD3*%
%TO.N,POD3*%
X74960000Y-93420000D03*
%TO.P,A23-J1,20,POD1*%
%TO.N,POD1*%
X74960000Y-95960000D03*
%TO.P,A23-J1,21,-5V*%
%TO.N,-5V*%
X74960000Y-98500000D03*
%TO.P,A23-J1,22,SncShld*%
%TO.N,GND*%
X74960000Y-101040000D03*
%TO.P,A23-J1,23,~{9010RST}*%
%TO.N,~{PODRESET}*%
X74960000Y-103580000D03*
%TO.P,A23-J1,24,~{PODSTAT}*%
%TO.N,~{PODSTAT}*%
X74960000Y-106120000D03*
%TO.P,A23-J1,25,-5RET*%
%TO.N,GND*%
X74960000Y-108660000D03*
%TO.P,A23-J1,26*%
%TO.N,N/C*%
X74960000Y-111200000D03*
%TD*%
D12*
%TO.P,J1,1,1*%
%TO.N,unconnected-(J1-Pad1)*%
X66330331Y-79275000D03*
D13*
%TO.P,J1,2,2*%
%TO.N,+5V*%
X66330331Y-82045000D03*
%TO.P,J1,3,3*%
%TO.N,GND*%
X66330331Y-84815000D03*
%TO.P,J1,4,4*%
X66330331Y-87585000D03*
%TO.P,J1,5,5*%
%TO.N,POD6*%
X66330331Y-90355000D03*
%TO.P,J1,6,6*%
%TO.N,POD4*%
X66330331Y-93125000D03*
%TO.P,J1,7,7*%
%TO.N,POD2*%
X66330331Y-95895000D03*
%TO.P,J1,8,8*%
%TO.N,POD0*%
X66330331Y-98665000D03*
%TO.P,J1,9,9*%
%TO.N,GND*%
X66330331Y-101435000D03*
%TO.P,J1,10,10*%
%TO.N,~{PODSYNC}*%
X66330331Y-104205000D03*
%TO.P,J1,11,11*%
%TO.N,PODPWRFAIL*%
X66330331Y-106975000D03*
%TO.P,J1,12,12*%
%TO.N,~{MAINSTAT}*%
X66330331Y-109745000D03*
%TO.P,J1,13,13*%
%TO.N,GND*%
X66330331Y-112515000D03*
%TO.P,J1,14,P14*%
%TO.N,+12V*%
X63790331Y-80660000D03*
%TO.P,J1,15,P15*%
%TO.N,+5V*%
X63790331Y-83430000D03*
%TO.P,J1,16,P16*%
%TO.N,GND*%
X63790331Y-86200000D03*
%TO.P,J1,17,P17*%
%TO.N,POD7*%
X63790331Y-88970000D03*
%TO.P,J1,18,P18*%
%TO.N,POD5*%
X63790331Y-91740000D03*
%TO.P,J1,19,P19*%
%TO.N,POD3*%
X63790331Y-94510000D03*
%TO.P,J1,20,P20*%
%TO.N,POD1*%
X63790331Y-97280000D03*
%TO.P,J1,21,P21*%
%TO.N,-5V*%
X63790331Y-100050000D03*
%TO.P,J1,22,P22*%
%TO.N,GND*%
X63790331Y-102820000D03*
%TO.P,J1,23,P23*%
%TO.N,~{PODRESET}*%
X63790331Y-105590000D03*
%TO.P,J1,24,P24*%
%TO.N,~{PODSTAT}*%
X63790331Y-108360000D03*
%TO.P,J1,25,P25*%
%TO.N,GND*%
X63790331Y-111130000D03*
%TD*%
D14*
%TO.N,*%
X94604700Y-80775000D02*
X94618888Y-80775000D01*
D15*
%TO.N,+5V*%
X66330331Y-82045000D02*
X65175331Y-82045000D01*
X66330331Y-82045000D02*
X71230331Y-82045000D01*
X65175331Y-82045000D02*
X63790331Y-83430000D01*
X74960000Y-83260000D02*
X77500000Y-83260000D01*
X72445331Y-83260000D02*
X74960000Y-83260000D01*
X71230331Y-82045000D02*
X72445331Y-83260000D01*
D16*
%TO.N,POD6*%
X71292666Y-90292666D02*
X71985331Y-89600000D01*
X71230332Y-90355000D02*
X66330331Y-90355000D01*
X71292666Y-90292666D02*
X71230332Y-90355000D01*
X71230331Y-90355000D02*
X71292666Y-90292666D01*
X71985331Y-89600000D02*
X76220000Y-89600000D01*
X76220000Y-89600000D02*
X77500000Y-90880000D01*
%TO.N,POD4*%
X71230331Y-93125000D02*
X72155331Y-92200000D01*
X76280000Y-92200000D02*
X77500000Y-93420000D01*
X72155331Y-92200000D02*
X76280000Y-92200000D01*
X71230331Y-93125000D02*
X66330331Y-93125000D01*
%TO.N,POD2*%
X77500000Y-95960000D02*
X76240000Y-94700000D01*
X76240000Y-94700000D02*
X74100000Y-94700000D01*
X74100000Y-94700000D02*
X72905000Y-95895000D01*
X72905000Y-95895000D02*
X66330331Y-95895000D01*
%TO.N,POD0*%
X76200000Y-97200000D02*
X74000000Y-97200000D01*
X72535000Y-98665000D02*
X66330331Y-98665000D01*
X74000000Y-97200000D02*
X72535000Y-98665000D01*
X77500000Y-98500000D02*
X76200000Y-97200000D01*
%TO.N,~{PODSYNC}*%
X76220000Y-102300000D02*
X77500000Y-103580000D01*
X73135331Y-102300000D02*
X76220000Y-102300000D01*
X71230331Y-104205000D02*
X66330331Y-104205000D01*
X71230331Y-104205000D02*
X73135331Y-102300000D01*
%TO.N,PODPWRFAIL*%
X73700000Y-104800000D02*
X71525000Y-106975000D01*
X77500000Y-106120000D02*
X76180000Y-104800000D01*
X71525000Y-106975000D02*
X66330331Y-106975000D01*
X76180000Y-104800000D02*
X73700000Y-104800000D01*
%TO.N,~{MAINSTAT}*%
X73575331Y-107400000D02*
X76240000Y-107400000D01*
X76240000Y-107400000D02*
X77500000Y-108660000D01*
X71230331Y-109745000D02*
X66330331Y-109745000D01*
X71230331Y-109745000D02*
X73575331Y-107400000D01*
D17*
%TO.N,+12V*%
X74960000Y-80720000D02*
X74900000Y-80660000D01*
X74900000Y-80660000D02*
X63790331Y-80660000D01*
D16*
%TO.N,POD7*%
X74960000Y-88340000D02*
X74330000Y-88970000D01*
X74330000Y-88970000D02*
X63790331Y-88970000D01*
%TO.N,POD5*%
X74960000Y-90880000D02*
X73420000Y-90880000D01*
X72560000Y-91740000D02*
X63790331Y-91740000D01*
X73420000Y-90880000D02*
X72560000Y-91740000D01*
%TO.N,POD3*%
X72764501Y-94335499D02*
X73680000Y-93420000D01*
X73680000Y-93420000D02*
X74960000Y-93420000D01*
X68864832Y-94335499D02*
X72764501Y-94335499D01*
X68690331Y-94510000D02*
X68864832Y-94335499D01*
X68690331Y-94510000D02*
X63790331Y-94510000D01*
%TO.N,POD1*%
X74960000Y-95960000D02*
X74604310Y-95960000D01*
X73284310Y-97280000D02*
X63790331Y-97280000D01*
X74604310Y-95960000D02*
X73284310Y-97280000D01*
D17*
%TO.N,-5V*%
X74960000Y-98500000D02*
X73410000Y-100050000D01*
X73410000Y-100050000D02*
X63790331Y-100050000D01*
D16*
%TO.N,~{PODRESET}*%
X71810000Y-105590000D02*
X63790331Y-105590000D01*
X73820000Y-103580000D02*
X71810000Y-105590000D01*
X74960000Y-103580000D02*
X73820000Y-103580000D01*
%TO.N,~{PODSTAT}*%
X74960000Y-106120000D02*
X73880000Y-106120000D01*
X73880000Y-106120000D02*
X71640000Y-108360000D01*
X71640000Y-108360000D02*
X63790331Y-108360000D01*
%TD*%
%TA.AperFunction,Conductor*%
%TO.N,GND*%
G36*
X65064210Y-100820185D02*
G01*
X65109965Y-100872989D01*
X65119909Y-100942147D01*
X65109552Y-100976906D01*
X65104065Y-100988672D01*
X65045189Y-101208397D01*
X65025364Y-101435000D01*
X65045189Y-101661602D01*
X65104064Y-101881326D01*
X65200197Y-102087484D01*
X65251303Y-102160471D01*
X65251304Y-102160472D01*
X65847253Y-101564522D01*
X65870838Y-101644844D01*
X65948570Y-101765798D01*
X66057231Y-101859952D01*
X66188016Y-101919680D01*
X66197797Y-101921086D01*
X65604857Y-102514025D01*
X65604857Y-102514026D01*
X65677846Y-102565133D01*
X65884004Y-102661266D01*
X66028432Y-102699966D01*
X66088092Y-102736331D01*
X66118621Y-102799178D01*
X66110326Y-102868554D01*
X66065841Y-102922432D01*
X66028432Y-102939516D01*
X65883833Y-102978261D01*
X65677595Y-103074432D01*
X65491190Y-103204953D01*
X65330284Y-103365859D01*
X65199763Y-103552264D01*
X65103592Y-103758502D01*
X65044695Y-103978310D01*
X65024862Y-104204999D01*
X65044695Y-104431689D01*
X65103592Y-104651497D01*
X65117865Y-104682105D01*
X65158130Y-104768453D01*
X65167290Y-104788095D01*
X65177782Y-104857172D01*
X65149263Y-104920956D01*
X65090786Y-104959196D01*
X65054908Y-104964500D01*
X65004519Y-104964500D01*
X64937480Y-104944815D01*
X64902944Y-104911623D01*
X64790377Y-104750859D01*
X64629471Y-104589953D01*
X64443066Y-104459432D01*
X64236828Y-104363261D01*
X64092229Y-104324516D01*
X64032569Y-104288151D01*
X64002040Y-104225304D01*
X64010335Y-104155928D01*
X64054820Y-104102050D01*
X64092229Y-104084966D01*
X64236658Y-104046266D01*
X64442811Y-103950134D01*
X64515803Y-103899025D01*
X63922865Y-103306086D01*
X63932646Y-103304680D01*
X64063431Y-103244952D01*
X64172092Y-103150798D01*
X64249824Y-103029844D01*
X64273407Y-102949524D01*
X64869356Y-103545472D01*
X64920465Y-103472480D01*
X65016597Y-103266326D01*
X65075472Y-103046602D01*
X65095297Y-102820000D01*
X65075472Y-102593397D01*
X65016597Y-102373673D01*
X64920464Y-102167515D01*
X64869356Y-102094526D01*
X64273407Y-102690474D01*
X64249824Y-102610156D01*
X64172092Y-102489202D01*
X64063431Y-102395048D01*
X63932646Y-102335320D01*
X63922864Y-102333913D01*
X64515803Y-101740974D01*
X64515802Y-101740972D01*
X64442815Y-101689866D01*
X64236657Y-101593733D01*
X64092229Y-101555033D01*
X64032568Y-101518667D01*
X64002040Y-101455820D01*
X64010335Y-101386445D01*
X64054821Y-101332567D01*
X64092227Y-101315484D01*
X64236827Y-101276739D01*
X64443065Y-101180568D01*
X64629470Y-101050047D01*
X64790378Y-100889139D01*
X64815417Y-100853377D01*
X64869995Y-100809752D01*
X64916994Y-100800500D01*
X64997171Y-100800500D01*
X65064210Y-100820185D01*
G37*
%TD.AperFunction*%
%TA.AperFunction,Conductor*%
G36*
X74500507Y-100830156D02*
G01*
X74460000Y-100968111D01*
X74460000Y-101111889D01*
X74500507Y-101249844D01*
X74526314Y-101290000D01*
X73629364Y-101290000D01*
X73689377Y-101513970D01*
X73686576Y-101514720D01*
X73694546Y-101567162D01*
X73666032Y-101630949D01*
X73607559Y-101669193D01*
X73571671Y-101674500D01*
X73218075Y-101674500D01*
X73197568Y-101672235D01*
X73127458Y-101674439D01*
X73123563Y-101674500D01*
X73095981Y-101674500D01*
X73092136Y-101674985D01*
X73092111Y-101674987D01*
X73091984Y-101675004D01*
X73080364Y-101675918D01*
X73036700Y-101677290D01*
X73017460Y-101682880D01*
X72998412Y-101686825D01*
X72978540Y-101689335D01*
X72937930Y-101705413D01*
X72926885Y-101709194D01*
X72884941Y-101721381D01*
X72867696Y-101731579D01*
X72850235Y-101740133D01*
X72831598Y-101747512D01*
X72796262Y-101773185D01*
X72786505Y-101779595D01*
X72748911Y-101801829D01*
X72734744Y-101815996D01*
X72719955Y-101828626D01*
X72703744Y-101840404D01*
X72675903Y-101874058D01*
X72668042Y-101882697D01*
X71007559Y-103543181D01*
X70946236Y-103576666D01*
X70919878Y-103579500D01*
X67544519Y-103579500D01*
X67477480Y-103559815D01*
X67442944Y-103526623D01*
X67330377Y-103365859D01*
X67169471Y-103204953D01*
X66983066Y-103074432D01*
X66776828Y-102978261D01*
X66632229Y-102939516D01*
X66572569Y-102903151D01*
X66542040Y-102840304D01*
X66550335Y-102770928D01*
X66594820Y-102717050D01*
X66632229Y-102699966D01*
X66776658Y-102661266D01*
X66982811Y-102565134D01*
X67055803Y-102514025D01*
X66462865Y-101921086D01*
X66472646Y-101919680D01*
X66603431Y-101859952D01*
X66712092Y-101765798D01*
X66789824Y-101644844D01*
X66813407Y-101564523D01*
X67409356Y-102160472D01*
X67460465Y-102087480D01*
X67556597Y-101881326D01*
X67615472Y-101661602D01*
X67635297Y-101435000D01*
X67615472Y-101208397D01*
X67556596Y-100988672D01*
X67551110Y-100976906D01*
X67540617Y-100907829D01*
X67569136Y-100844045D01*
X67627612Y-100805804D01*
X67663491Y-100800500D01*
X73346294Y-100800500D01*
X73364264Y-100801809D01*
X73368320Y-100802402D01*
X73388023Y-100805289D01*
X73437368Y-100800972D01*
X73448176Y-100800500D01*
X73450100Y-100800500D01*
X73453709Y-100800500D01*
X73484550Y-100796894D01*
X73488024Y-100796539D01*
X73557408Y-100790470D01*
X73568215Y-100792642D01*
X73568215Y-100790000D01*
X74526314Y-100790000D01*
X74500507Y-100830156D01*
G37*
%TD.AperFunction*%
%TA.AperFunction,Conductor*%
G36*
X77040507Y-100830156D02*
G01*
X77000000Y-100968111D01*
X77000000Y-101111889D01*
X77040507Y-101249844D01*
X77066314Y-101290000D01*
X75393686Y-101290000D01*
X75419493Y-101249844D01*
X75460000Y-101111889D01*
X75460000Y-100968111D01*
X75419493Y-100830156D01*
X75393686Y-100790000D01*
X77066314Y-100790000D01*
X77040507Y-100830156D01*
G37*
%TD.AperFunction*%
%TA.AperFunction,Conductor*%
G36*
X65523688Y-83072653D02*
G01*
X65551478Y-83087260D01*
X65677595Y-83175567D01*
X65677596Y-83175567D01*
X65677597Y-83175568D01*
X65883835Y-83271739D01*
X66028431Y-83310483D01*
X66088092Y-83346848D01*
X66118621Y-83409695D01*
X66110326Y-83479070D01*
X66065841Y-83532948D01*
X66028433Y-83550033D01*
X65884002Y-83588734D01*
X65677847Y-83684865D01*
X65604858Y-83735973D01*
X65604857Y-83735973D01*
X66197798Y-84328913D01*
X66188016Y-84330320D01*
X66057231Y-84390048D01*
X65948570Y-84484202D01*
X65870838Y-84605156D01*
X65847254Y-84685476D01*
X65251304Y-84089526D01*
X65251304Y-84089527D01*
X65200196Y-84162516D01*
X65104064Y-84368672D01*
X65045189Y-84588397D01*
X65025364Y-84814999D01*
X65045189Y-85041602D01*
X65104064Y-85261326D01*
X65200197Y-85467484D01*
X65251303Y-85540471D01*
X65251305Y-85540472D01*
X65847253Y-84944523D01*
X65870838Y-85024844D01*
X65948570Y-85145798D01*
X66057231Y-85239952D01*
X66188016Y-85299680D01*
X66197797Y-85301086D01*
X65604857Y-85894025D01*
X65604857Y-85894026D01*
X65677846Y-85945133D01*
X65884004Y-86041266D01*
X66029398Y-86080225D01*
X66089058Y-86116590D01*
X66119587Y-86179437D01*
X66111292Y-86248813D01*
X66066807Y-86302691D01*
X66029398Y-86319775D01*
X65884004Y-86358733D01*
X65677847Y-86454865D01*
X65604858Y-86505973D01*
X65604857Y-86505973D01*
X66197798Y-87098913D01*
X66188016Y-87100320D01*
X66057231Y-87160048D01*
X65948570Y-87254202D01*
X65870838Y-87375156D01*
X65847253Y-87455476D01*
X65251304Y-86859527D01*
X65200196Y-86932516D01*
X65104064Y-87138672D01*
X65045189Y-87358397D01*
X65025364Y-87585000D01*
X65045189Y-87811602D01*
X65104064Y-88031326D01*
X65167841Y-88168095D01*
X65178333Y-88237173D01*
X65149813Y-88300957D01*
X65091337Y-88339196D01*
X65055459Y-88344500D01*
X65004519Y-88344500D01*
X64937480Y-88324815D01*
X64902944Y-88291623D01*
X64790377Y-88130859D01*
X64629471Y-87969953D01*
X64443066Y-87839432D01*
X64236828Y-87743261D01*
X64092229Y-87704516D01*
X64032569Y-87668151D01*
X64002040Y-87605304D01*
X64010335Y-87535928D01*
X64054820Y-87482050D01*
X64092229Y-87464966D01*
X64236658Y-87426266D01*
X64442811Y-87330134D01*
X64515803Y-87279025D01*
X63922865Y-86686086D01*
X63932646Y-86684680D01*
X64063431Y-86624952D01*
X64172092Y-86530798D01*
X64249824Y-86409844D01*
X64273407Y-86329524D01*
X64869356Y-86925472D01*
X64920465Y-86852480D01*
X65016597Y-86646326D01*
X65075472Y-86426602D01*
X65095297Y-86200000D01*
X65075472Y-85973397D01*
X65016597Y-85753673D01*
X64920464Y-85547515D01*
X64869356Y-85474526D01*
X64273407Y-86070474D01*
X64249824Y-85990156D01*
X64172092Y-85869202D01*
X64063431Y-85775048D01*
X63932646Y-85715320D01*
X63922864Y-85713913D01*
X64515803Y-85120974D01*
X64515802Y-85120972D01*
X64442815Y-85069866D01*
X64236657Y-84973733D01*
X64092229Y-84935033D01*
X64032568Y-84898667D01*
X64002040Y-84835820D01*
X64010335Y-84766445D01*
X64054821Y-84712567D01*
X64092227Y-84695484D01*
X64236827Y-84656739D01*
X64443065Y-84560568D01*
X64629470Y-84430047D01*
X64790378Y-84269139D01*
X64920899Y-84082734D01*
X65017070Y-83876496D01*
X65075966Y-83656692D01*
X65091506Y-83479070D01*
X65094931Y-83439925D01*
X65120383Y-83374856D01*
X65130771Y-83363058D01*
X65392676Y-83101152D01*
X65453997Y-83067669D01*
X65523688Y-83072653D01*
G37*
%TD.AperFunction*%
%TA.AperFunction,Conductor*%
G36*
X70873009Y-82965185D02*
G01*
X70893651Y-82981819D01*
X71751566Y-83839734D01*
X71764204Y-83854531D01*
X71772442Y-83865871D01*
X71822847Y-83911255D01*
X71827556Y-83915724D01*
X71841951Y-83930119D01*
X71844473Y-83932161D01*
X71857773Y-83942932D01*
X71862686Y-83947127D01*
X71913115Y-83992533D01*
X71913117Y-83992534D01*
X71913118Y-83992535D01*
X71925247Y-83999537D01*
X71941289Y-84010562D01*
X71952181Y-84019383D01*
X71974676Y-84030844D01*
X72012623Y-84050178D01*
X72018280Y-84053249D01*
X72077047Y-84087179D01*
X72090372Y-84091508D01*
X72108358Y-84098958D01*
X72120845Y-84105321D01*
X72186346Y-84122871D01*
X72192575Y-84124716D01*
X72257073Y-84145674D01*
X72271015Y-84147139D01*
X72290149Y-84150685D01*
X72303685Y-84154312D01*
X72371417Y-84157861D01*
X72377874Y-84158370D01*
X72398139Y-84160500D01*
X72418511Y-84160500D01*
X72425000Y-84160669D01*
X72492719Y-84164219D01*
X72506558Y-84162027D01*
X72525957Y-84160500D01*
X73899242Y-84160500D01*
X73966281Y-84180185D01*
X73986923Y-84196819D01*
X74088599Y-84298495D01*
X74274596Y-84428732D01*
X74318219Y-84483307D01*
X74325412Y-84552806D01*
X74293890Y-84615160D01*
X74274595Y-84631880D01*
X74088919Y-84761892D01*
X73921890Y-84928921D01*
X73786400Y-85122421D01*
X73686569Y-85336507D01*
X73629364Y-85549999D01*
X73629364Y-85550000D01*
X74526314Y-85550000D01*
X74500507Y-85590156D01*
X74460000Y-85728111D01*
X74460000Y-85871889D01*
X74500507Y-86009844D01*
X74526314Y-86050000D01*
X73629364Y-86050000D01*
X73686569Y-86263492D01*
X73786399Y-86477576D01*
X73921893Y-86671081D01*
X74088918Y-86838106D01*
X74274595Y-86968119D01*
X74318219Y-87022696D01*
X74325412Y-87092195D01*
X74293890Y-87154549D01*
X74274595Y-87171269D01*
X74188654Y-87231446D01*
X74120703Y-87279026D01*
X74088595Y-87301508D01*
X73921505Y-87468598D01*
X73785965Y-87662170D01*
X73686097Y-87876336D01*
X73624936Y-88104592D01*
X73613850Y-88231308D01*
X73588397Y-88296376D01*
X73531807Y-88337355D01*
X73490322Y-88344500D01*
X67605203Y-88344500D01*
X67538164Y-88324815D01*
X67492409Y-88272011D01*
X67482465Y-88202853D01*
X67492821Y-88168095D01*
X67556597Y-88031326D01*
X67615472Y-87811602D01*
X67635297Y-87584999D01*
X67615472Y-87358397D01*
X67556597Y-87138673D01*
X67460464Y-86932515D01*
X67409356Y-86859526D01*
X66813407Y-87455474D01*
X66789824Y-87375156D01*
X66712092Y-87254202D01*
X66603431Y-87160048D01*
X66472646Y-87100320D01*
X66462864Y-87098913D01*
X67055803Y-86505974D01*
X67055802Y-86505972D01*
X66982815Y-86454866D01*
X66776657Y-86358733D01*
X66631263Y-86319775D01*
X66571603Y-86283410D01*
X66541074Y-86220563D01*
X66549369Y-86151187D01*
X66593854Y-86097309D01*
X66631263Y-86080225D01*
X66776657Y-86041266D01*
X66982811Y-85945134D01*
X67055803Y-85894025D01*
X66462865Y-85301086D01*
X66472646Y-85299680D01*
X66603431Y-85239952D01*
X66712092Y-85145798D01*
X66789824Y-85024844D01*
X66813407Y-84944523D01*
X67409356Y-85540472D01*
X67460465Y-85467480D01*
X67556597Y-85261326D01*
X67615472Y-85041602D01*
X67635297Y-84814999D01*
X67615472Y-84588397D01*
X67556597Y-84368673D01*
X67460464Y-84162515D01*
X67409356Y-84089526D01*
X66813407Y-84685475D01*
X66789824Y-84605156D01*
X66712092Y-84484202D01*
X66603431Y-84390048D01*
X66472646Y-84330320D01*
X66462864Y-84328913D01*
X67055803Y-83735974D01*
X67055802Y-83735972D01*
X66982815Y-83684866D01*
X66776657Y-83588733D01*
X66632229Y-83550033D01*
X66572568Y-83513667D01*
X66542040Y-83450820D01*
X66550335Y-83381445D01*
X66594821Y-83327567D01*
X66632227Y-83310484D01*
X66776827Y-83271739D01*
X66983065Y-83175568D01*
X67169470Y-83045047D01*
X67232699Y-82981817D01*
X67294020Y-82948334D01*
X67320379Y-82945500D01*
X70805970Y-82945500D01*
X70873009Y-82965185D01*
G37*
%TD.AperFunction*%
%TA.AperFunction,Conductor*%
G36*
X75442539Y-31220185D02*
G01*
X75488294Y-31272989D01*
X75499500Y-31324500D01*
X75499500Y-46075500D01*
X75479815Y-46142539D01*
X75427011Y-46188294D01*
X75375500Y-46199500D01*
X70524760Y-46199500D01*
X70524554Y-46199459D01*
X70499999Y-46199459D01*
X70499900Y-46199500D01*
X70499618Y-46199615D01*
X70499615Y-46199618D01*
X70499459Y-46199999D01*
X70499476Y-46224616D01*
X70499471Y-46224616D01*
X70499500Y-46224759D01*
X70499500Y-78675467D01*
X70499416Y-78675889D01*
X70499459Y-78700000D01*
X70499501Y-78700101D01*
X70499616Y-78700382D01*
X70499618Y-78700384D01*
X70499808Y-78700462D01*
X70500000Y-78700541D01*
X70500002Y-78700539D01*
X70524616Y-78700524D01*
X70524616Y-78700528D01*
X70524760Y-78700500D01*
X75499901Y-78700500D01*
X87575500Y-78700500D01*
X87642539Y-78720185D01*
X87688294Y-78772989D01*
X87699500Y-78824500D01*
X87699500Y-113075500D01*
X87679815Y-113142539D01*
X87627011Y-113188294D01*
X87575500Y-113199500D01*
X68524760Y-113199500D01*
X68524554Y-113199459D01*
X68499999Y-113199459D01*
X68499900Y-113199500D01*
X68499618Y-113199615D01*
X68499615Y-113199618D01*
X68499459Y-113199999D01*
X68499476Y-113224616D01*
X68499471Y-113224616D01*
X68499500Y-113224759D01*
X68499500Y-146975467D01*
X68499416Y-146975889D01*
X68499459Y-147000000D01*
X68499501Y-147000101D01*
X68499616Y-147000382D01*
X68499618Y-147000384D01*
X68499808Y-147000462D01*
X68500000Y-147000541D01*
X68500002Y-147000539D01*
X68524616Y-147000524D01*
X68524616Y-147000528D01*
X68524760Y-147000500D01*
X73375500Y-147000500D01*
X73442539Y-147020185D01*
X73488294Y-147072989D01*
X73499500Y-147124500D01*
X73499500Y-161881500D01*
X73479815Y-161948539D01*
X73427011Y-161994294D01*
X73375500Y-162005500D01*
X55224500Y-162005500D01*
X55157461Y-161985815D01*
X55111706Y-161933011D01*
X55100500Y-161881500D01*
X55100500Y-152099999D01*
X67787235Y-152099999D01*
X67806841Y-152361627D01*
X67865224Y-152617418D01*
X67960070Y-152859080D01*
X67961076Y-152861643D01*
X68092258Y-153088857D01*
X68255839Y-153293981D01*
X68255841Y-153293983D01*
X68255842Y-153293984D01*
X68448158Y-153472428D01*
X68448164Y-153472432D01*
X68448165Y-153472433D01*
X68664940Y-153620228D01*
X68901321Y-153734063D01*
X69152029Y-153811396D01*
X69411462Y-153850500D01*
X69673826Y-153850500D01*
X69933259Y-153811396D01*
X70183967Y-153734063D01*
X70420348Y-153620228D01*
X70637123Y-153472433D01*
X70637126Y-153472429D01*
X70637129Y-153472428D01*
X70722436Y-153393273D01*
X70829449Y-153293981D01*
X70993030Y-153088857D01*
X71124212Y-152861643D01*
X71220064Y-152617416D01*
X71278446Y-152361630D01*
X71298052Y-152100000D01*
X71278446Y-151838370D01*
X71220064Y-151582584D01*
X71124212Y-151338357D01*
X70993030Y-151111143D01*
X70829449Y-150906019D01*
X70829445Y-150906015D01*
X70637129Y-150727571D01*
X70619814Y-150715766D01*
X70420348Y-150579772D01*
X70183967Y-150465937D01*
X69933259Y-150388604D01*
X69673826Y-150349500D01*
X69411462Y-150349500D01*
X69152029Y-150388604D01*
X68901321Y-150465937D01*
X68664940Y-150579772D01*
X68657435Y-150584889D01*
X68448158Y-150727571D01*
X68255842Y-150906015D01*
X68092257Y-151111143D01*
X67961075Y-151338358D01*
X67865224Y-151582581D01*
X67806841Y-151838372D01*
X67787235Y-152099999D01*
X55100500Y-152099999D01*
X55100500Y-119600000D01*
X62544591Y-119600000D01*
X62564197Y-119861627D01*
X62622580Y-120117418D01*
X62717426Y-120359080D01*
X62718432Y-120361643D01*
X62849614Y-120588857D01*
X63013195Y-120793981D01*
X63013197Y-120793983D01*
X63013198Y-120793984D01*
X63205514Y-120972428D01*
X63205520Y-120972432D01*
X63205521Y-120972433D01*
X63422296Y-121120228D01*
X63658677Y-121234063D01*
X63909385Y-121311396D01*
X64168818Y-121350500D01*
X64431182Y-121350500D01*
X64690615Y-121311396D01*
X64941323Y-121234063D01*
X65177704Y-121120228D01*
X65394479Y-120972433D01*
X65394482Y-120972429D01*
X65394485Y-120972428D01*
X65479792Y-120893273D01*
X65586805Y-120793981D01*
X65750386Y-120588857D01*
X65881568Y-120361643D01*
X65977420Y-120117416D01*
X66035802Y-119861630D01*
X66055408Y-119600000D01*
X66035802Y-119338370D01*
X65977420Y-119082584D01*
X65881568Y-118838357D01*
X65750386Y-118611143D01*
X65586805Y-118406019D01*
X65586801Y-118406015D01*
X65394485Y-118227571D01*
X65377170Y-118215766D01*
X65177704Y-118079772D01*
X64941323Y-117965937D01*
X64690615Y-117888604D01*
X64431182Y-117849500D01*
X64168818Y-117849500D01*
X63909385Y-117888604D01*
X63658677Y-117965937D01*
X63422296Y-118079772D01*
X63414791Y-118084889D01*
X63205514Y-118227571D01*
X63013198Y-118406015D01*
X62849613Y-118611143D01*
X62718431Y-118838358D01*
X62622580Y-119082581D01*
X62564197Y-119338372D01*
X62544591Y-119600000D01*
X55100500Y-119600000D01*
X55100500Y-108360000D01*
X62484862Y-108360000D01*
X62504695Y-108586689D01*
X62563592Y-108806497D01*
X62659763Y-109012735D01*
X62790284Y-109199140D01*
X62951190Y-109360046D01*
X63137595Y-109490567D01*
X63137596Y-109490567D01*
X63137597Y-109490568D01*
X63343835Y-109586739D01*
X63488431Y-109625483D01*
X63548092Y-109661848D01*
X63578621Y-109724695D01*
X63570326Y-109794070D01*
X63525841Y-109847948D01*
X63488433Y-109865033D01*
X63344002Y-109903734D01*
X63137847Y-109999865D01*
X63064858Y-110050973D01*
X63064857Y-110050973D01*
X63657798Y-110643913D01*
X63648016Y-110645320D01*
X63517231Y-110705048D01*
X63408570Y-110799202D01*
X63330838Y-110920156D01*
X63307253Y-111000476D01*
X62711304Y-110404526D01*
X62711304Y-110404527D01*
X62660196Y-110477516D01*
X62564064Y-110683672D01*
X62505189Y-110903397D01*
X62485364Y-111130000D01*
X62505189Y-111356602D01*
X62564064Y-111576326D01*
X62660197Y-111782484D01*
X62711303Y-111855471D01*
X62711305Y-111855472D01*
X63307253Y-111259522D01*
X63330838Y-111339844D01*
X63408570Y-111460798D01*
X63517231Y-111554952D01*
X63648016Y-111614680D01*
X63657797Y-111616086D01*
X63064857Y-112209025D01*
X63064857Y-112209026D01*
X63137846Y-112260133D01*
X63344004Y-112356266D01*
X63563728Y-112415141D01*
X63790331Y-112434966D01*
X64016933Y-112415141D01*
X64236657Y-112356266D01*
X64442811Y-112260134D01*
X64515803Y-112209025D01*
X63922865Y-111616086D01*
X63932646Y-111614680D01*
X64063431Y-111554952D01*
X64172092Y-111460798D01*
X64249824Y-111339844D01*
X64273407Y-111259524D01*
X64869356Y-111855472D01*
X64920465Y-111782480D01*
X65016597Y-111576326D01*
X65075472Y-111356602D01*
X65095297Y-111130000D01*
X65075472Y-110903397D01*
X65016597Y-110683673D01*
X64920464Y-110477515D01*
X64869356Y-110404526D01*
X64273407Y-111000474D01*
X64249824Y-110920156D01*
X64172092Y-110799202D01*
X64063431Y-110705048D01*
X63932646Y-110645320D01*
X63922864Y-110643913D01*
X64515803Y-110050974D01*
X64515802Y-110050972D01*
X64442815Y-109999866D01*
X64236657Y-109903733D01*
X64092229Y-109865033D01*
X64032568Y-109828667D01*
X64002040Y-109765820D01*
X64010335Y-109696445D01*
X64054821Y-109642567D01*
X64092227Y-109625484D01*
X64236827Y-109586739D01*
X64443065Y-109490568D01*
X64629470Y-109360047D01*
X64790378Y-109199139D01*
X64870332Y-109084952D01*
X64902944Y-109038377D01*
X64957520Y-108994752D01*
X65004519Y-108985500D01*
X65054908Y-108985500D01*
X65121947Y-109005185D01*
X65167702Y-109057989D01*
X65177646Y-109127147D01*
X65167290Y-109161905D01*
X65103592Y-109298502D01*
X65044695Y-109518310D01*
X65024862Y-109745000D01*
X65044695Y-109971689D01*
X65103592Y-110191497D01*
X65199763Y-110397735D01*
X65330284Y-110584140D01*
X65491190Y-110745046D01*
X65677595Y-110875567D01*
X65677596Y-110875567D01*
X65677597Y-110875568D01*
X65883835Y-110971739D01*
X66028431Y-111010483D01*
X66088092Y-111046848D01*
X66118621Y-111109695D01*
X66110326Y-111179070D01*
X66065841Y-111232948D01*
X66028433Y-111250033D01*
X65884002Y-111288734D01*
X65677847Y-111384865D01*
X65604858Y-111435973D01*
X65604857Y-111435973D01*
X66197798Y-112028913D01*
X66188016Y-112030320D01*
X66057231Y-112090048D01*
X65948570Y-112184202D01*
X65870838Y-112305156D01*
X65847254Y-112385476D01*
X65251304Y-111789526D01*
X65251304Y-111789527D01*
X65200196Y-111862516D01*
X65104064Y-112068672D01*
X65045189Y-112288397D01*
X65025364Y-112515000D01*
X65045189Y-112741602D01*
X65104064Y-112961326D01*
X65200197Y-113167484D01*
X65251303Y-113240471D01*
X65251305Y-113240472D01*
X65847253Y-112644523D01*
X65870838Y-112724844D01*
X65948570Y-112845798D01*
X66057231Y-112939952D01*
X66188016Y-112999680D01*
X66197797Y-113001086D01*
X65604857Y-113594025D01*
X65604857Y-113594026D01*
X65677846Y-113645133D01*
X65884004Y-113741266D01*
X66103728Y-113800141D01*
X66330331Y-113819966D01*
X66556933Y-113800141D01*
X66776657Y-113741266D01*
X66982811Y-113645134D01*
X67055803Y-113594025D01*
X66462865Y-113001086D01*
X66472646Y-112999680D01*
X66603431Y-112939952D01*
X66712092Y-112845798D01*
X66789824Y-112724844D01*
X66813407Y-112644523D01*
X67409356Y-113240472D01*
X67460465Y-113167480D01*
X67556597Y-112961326D01*
X67615472Y-112741602D01*
X67635297Y-112515000D01*
X67615472Y-112288397D01*
X67556597Y-112068673D01*
X67460464Y-111862515D01*
X67409356Y-111789526D01*
X66813407Y-112385475D01*
X66789824Y-112305156D01*
X66712092Y-112184202D01*
X66603431Y-112090048D01*
X66472646Y-112030320D01*
X66462864Y-112028913D01*
X67055803Y-111435974D01*
X67055802Y-111435972D01*
X66982815Y-111384866D01*
X66776657Y-111288733D01*
X66632229Y-111250033D01*
X66572568Y-111213667D01*
X66542040Y-111150820D01*
X66550335Y-111081445D01*
X66594821Y-111027567D01*
X66632227Y-111010484D01*
X66776827Y-110971739D01*
X66983065Y-110875568D01*
X67169470Y-110745047D01*
X67330378Y-110584139D01*
X67442943Y-110423377D01*
X67497520Y-110379752D01*
X67544519Y-110370500D01*
X71147587Y-110370500D01*
X71168093Y-110372764D01*
X71170996Y-110372672D01*
X71170998Y-110372673D01*
X71238203Y-110370561D01*
X71242099Y-110370500D01*
X71265779Y-110370500D01*
X71269681Y-110370500D01*
X71273644Y-110369999D01*
X71285293Y-110369080D01*
X71328958Y-110367709D01*
X71348190Y-110362120D01*
X71367249Y-110358174D01*
X71373527Y-110357381D01*
X71387123Y-110355664D01*
X71427738Y-110339582D01*
X71438775Y-110335803D01*
X71480721Y-110323618D01*
X71497960Y-110313422D01*
X71515433Y-110304862D01*
X71534063Y-110297486D01*
X71569395Y-110271814D01*
X71579161Y-110265400D01*
X71616749Y-110243171D01*
X71616748Y-110243171D01*
X71616751Y-110243170D01*
X71630916Y-110229004D01*
X71645704Y-110216373D01*
X71661918Y-110204594D01*
X71689769Y-110170926D01*
X71697610Y-110162309D01*
X73451476Y-108408445D01*
X73512796Y-108374962D01*
X73582488Y-108379946D01*
X73623137Y-108410000D01*
X74526314Y-108410000D01*
X74500507Y-108450156D01*
X74460000Y-108588111D01*
X74460000Y-108731889D01*
X74500507Y-108869844D01*
X74526314Y-108910000D01*
X73629364Y-108910000D01*
X73686569Y-109123492D01*
X73786399Y-109337576D01*
X73921893Y-109531081D01*
X74088918Y-109698106D01*
X74274595Y-109828119D01*
X74318219Y-109882696D01*
X74325412Y-109952195D01*
X74293890Y-110014549D01*
X74274595Y-110031269D01*
X74088595Y-110161508D01*
X73921505Y-110328598D01*
X73785965Y-110522170D01*
X73686097Y-110736336D01*
X73624936Y-110964592D01*
X73604340Y-111200000D01*
X73624936Y-111435407D01*
X73631740Y-111460798D01*
X73686097Y-111663663D01*
X73785965Y-111877830D01*
X73921505Y-112071401D01*
X74088599Y-112238495D01*
X74282170Y-112374035D01*
X74496337Y-112473903D01*
X74708059Y-112530633D01*
X74724592Y-112535063D01*
X74959999Y-112555659D01*
X74959999Y-112555658D01*
X74960000Y-112555659D01*
X75195408Y-112535063D01*
X75423663Y-112473903D01*
X75637830Y-112374035D01*
X75831401Y-112238495D01*
X75998495Y-112071401D01*
X76128732Y-111885403D01*
X76183307Y-111841780D01*
X76252805Y-111834586D01*
X76315160Y-111866109D01*
X76331880Y-111885404D01*
X76461893Y-112071081D01*
X76628918Y-112238106D01*
X76822423Y-112373600D01*
X77036509Y-112473430D01*
X77250000Y-112530634D01*
X77250000Y-111635501D01*
X77357685Y-111684680D01*
X77464237Y-111700000D01*
X77535763Y-111700000D01*
X77642315Y-111684680D01*
X77750000Y-111635501D01*
X77750000Y-112530633D01*
X77963490Y-112473430D01*
X78177576Y-112373600D01*
X78371081Y-112238106D01*
X78538106Y-112071081D01*
X78673600Y-111877576D01*
X78773430Y-111663492D01*
X78830636Y-111450000D01*
X77933686Y-111450000D01*
X77959493Y-111409844D01*
X78000000Y-111271889D01*
X78000000Y-111128111D01*
X77959493Y-110990156D01*
X77933686Y-110950000D01*
X78830636Y-110950000D01*
X78830635Y-110949999D01*
X78773430Y-110736507D01*
X78673599Y-110522421D01*
X78538109Y-110328921D01*
X78371081Y-110161893D01*
X78185404Y-110031880D01*
X78141780Y-109977303D01*
X78134587Y-109907804D01*
X78166109Y-109845450D01*
X78185399Y-109828734D01*
X78371401Y-109698495D01*
X78538495Y-109531401D01*
X78674035Y-109337830D01*
X78773903Y-109123663D01*
X78835063Y-108895408D01*
X78855659Y-108660000D01*
X78835063Y-108424592D01*
X78773903Y-108196337D01*
X78674035Y-107982171D01*
X78538495Y-107788599D01*
X78371401Y-107621505D01*
X78185839Y-107491573D01*
X78142216Y-107436998D01*
X78135022Y-107367500D01*
X78166545Y-107305145D01*
X78185837Y-107288428D01*
X78371401Y-107158495D01*
X78538495Y-106991401D01*
X78674035Y-106797830D01*
X78773903Y-106583663D01*
X78835063Y-106355408D01*
X78855659Y-106120000D01*
X78835063Y-105884592D01*
X78773903Y-105656337D01*
X78674035Y-105442171D01*
X78538495Y-105248599D01*
X78371401Y-105081505D01*
X78185839Y-104951573D01*
X78142215Y-104896997D01*
X78135023Y-104827498D01*
X78166545Y-104765144D01*
X78185831Y-104748432D01*
X78371401Y-104618495D01*
X78538495Y-104451401D01*
X78674035Y-104257830D01*
X78773903Y-104043663D01*
X78835063Y-103815408D01*
X78855659Y-103580000D01*
X78835063Y-103344592D01*
X78773903Y-103116337D01*
X78674035Y-102902171D01*
X78538495Y-102708599D01*
X78371401Y-102541505D01*
X78185402Y-102411267D01*
X78141780Y-102356692D01*
X78134587Y-102287193D01*
X78166109Y-102224839D01*
X78185405Y-102208119D01*
X78371078Y-102078109D01*
X78538106Y-101911081D01*
X78673600Y-101717576D01*
X78773430Y-101503492D01*
X78830636Y-101290000D01*
X77933686Y-101290000D01*
X77959493Y-101249844D01*
X78000000Y-101111889D01*
X78000000Y-100968111D01*
X77959493Y-100830156D01*
X77933686Y-100790000D01*
X78830636Y-100790000D01*
X78830635Y-100789999D01*
X78773430Y-100576507D01*
X78673599Y-100362421D01*
X78538109Y-100168921D01*
X78371081Y-100001893D01*
X78185404Y-99871880D01*
X78141780Y-99817303D01*
X78134587Y-99747804D01*
X78166109Y-99685450D01*
X78185399Y-99668734D01*
X78371401Y-99538495D01*
X78538495Y-99371401D01*
X78674035Y-99177830D01*
X78773903Y-98963663D01*
X78835063Y-98735408D01*
X78855659Y-98500000D01*
X78847834Y-98410567D01*
X78835063Y-98264592D01*
X78822713Y-98218502D01*
X78773903Y-98036337D01*
X78674035Y-97822171D01*
X78538495Y-97628599D01*
X78371401Y-97461505D01*
X78185839Y-97331573D01*
X78142216Y-97276998D01*
X78135022Y-97207500D01*
X78166545Y-97145145D01*
X78185837Y-97128428D01*
X78371401Y-96998495D01*
X78538495Y-96831401D01*
X78674035Y-96637830D01*
X78773903Y-96423663D01*
X78835063Y-96195408D01*
X78855659Y-95960000D01*
X78835063Y-95724592D01*
X78773903Y-95496337D01*
X78674035Y-95282171D01*
X78538495Y-95088599D01*
X78371401Y-94921505D01*
X78185839Y-94791573D01*
X78142215Y-94736997D01*
X78135023Y-94667498D01*
X78166545Y-94605144D01*
X78185831Y-94588432D01*
X78371401Y-94458495D01*
X78538495Y-94291401D01*
X78674035Y-94097830D01*
X78773903Y-93883663D01*
X78835063Y-93655408D01*
X78855659Y-93420000D01*
X78835063Y-93184592D01*
X78773903Y-92956337D01*
X78674035Y-92742171D01*
X78538495Y-92548599D01*
X78371401Y-92381505D01*
X78185839Y-92251573D01*
X78142216Y-92196998D01*
X78135022Y-92127500D01*
X78166545Y-92065145D01*
X78185837Y-92048428D01*
X78371401Y-91918495D01*
X78538495Y-91751401D01*
X78674035Y-91557830D01*
X78773903Y-91343663D01*
X78835063Y-91115408D01*
X78855659Y-90880000D01*
X78835063Y-90644592D01*
X78773903Y-90416337D01*
X78674035Y-90202171D01*
X78538495Y-90008599D01*
X78371401Y-89841505D01*
X78185402Y-89711267D01*
X78141780Y-89656692D01*
X78134587Y-89587193D01*
X78166109Y-89524839D01*
X78185405Y-89508119D01*
X78371078Y-89378109D01*
X78538106Y-89211081D01*
X78673600Y-89017576D01*
X78773430Y-88803492D01*
X78830636Y-88590000D01*
X77933686Y-88590000D01*
X77959493Y-88549844D01*
X78000000Y-88411889D01*
X78000000Y-88268111D01*
X77959493Y-88130156D01*
X77933686Y-88090000D01*
X78830636Y-88090000D01*
X78830635Y-88089999D01*
X78773430Y-87876507D01*
X78673599Y-87662421D01*
X78538109Y-87468921D01*
X78371081Y-87301893D01*
X78185404Y-87171880D01*
X78141780Y-87117303D01*
X78134587Y-87047804D01*
X78166109Y-86985450D01*
X78185399Y-86968734D01*
X78371401Y-86838495D01*
X78538495Y-86671401D01*
X78674035Y-86477830D01*
X78773903Y-86263663D01*
X78835063Y-86035408D01*
X78855659Y-85800000D01*
X78835063Y-85564592D01*
X78773903Y-85336337D01*
X78674035Y-85122171D01*
X78538495Y-84928599D01*
X78371401Y-84761505D01*
X78185839Y-84631573D01*
X78142216Y-84576998D01*
X78135022Y-84507500D01*
X78166545Y-84445145D01*
X78185837Y-84428428D01*
X78371401Y-84298495D01*
X78538495Y-84131401D01*
X78674035Y-83937830D01*
X78773903Y-83723663D01*
X78835063Y-83495408D01*
X78855659Y-83260000D01*
X78835063Y-83024592D01*
X78773903Y-82796337D01*
X78674035Y-82582171D01*
X78538495Y-82388599D01*
X78371401Y-82221505D01*
X78185839Y-82091573D01*
X78142216Y-82036998D01*
X78135022Y-81967500D01*
X78166545Y-81905145D01*
X78185837Y-81888428D01*
X78371401Y-81758495D01*
X78538495Y-81591401D01*
X78674035Y-81397830D01*
X78773903Y-81183663D01*
X78835063Y-80955408D01*
X78855659Y-80720000D01*
X78850409Y-80659999D01*
X78835063Y-80484592D01*
X78821322Y-80433310D01*
X78773903Y-80256337D01*
X78674035Y-80042171D01*
X78538495Y-79848599D01*
X78371401Y-79681505D01*
X78177830Y-79545965D01*
X77963663Y-79446097D01*
X77902502Y-79429709D01*
X77735407Y-79384936D01*
X77499999Y-79364340D01*
X77264592Y-79384936D01*
X77036336Y-79446097D01*
X76822170Y-79545965D01*
X76628601Y-79681503D01*
X76506673Y-79803431D01*
X76445350Y-79836915D01*
X76375658Y-79831931D01*
X76319725Y-79790059D01*
X76302810Y-79759082D01*
X76295658Y-79739907D01*
X76253796Y-79627669D01*
X76167546Y-79512454D01*
X76052331Y-79426204D01*
X75917483Y-79375909D01*
X75857873Y-79369500D01*
X75854550Y-79369500D01*
X74065439Y-79369500D01*
X74065420Y-79369500D01*
X74062128Y-79369501D01*
X74058848Y-79369853D01*
X74058840Y-79369854D01*
X74002515Y-79375909D01*
X73867669Y-79426204D01*
X73752454Y-79512454D01*
X73666204Y-79627668D01*
X73615907Y-79762520D01*
X73612012Y-79798755D01*
X73585274Y-79863306D01*
X73527882Y-79903154D01*
X73488723Y-79909500D01*
X67754831Y-79909500D01*
X67687792Y-79889815D01*
X67642037Y-79837011D01*
X67630831Y-79785500D01*
X67630830Y-78430439D01*
X67630830Y-78427128D01*
X67624422Y-78367517D01*
X67574127Y-78232669D01*
X67487877Y-78117454D01*
X67372662Y-78031204D01*
X67237814Y-77980909D01*
X67178204Y-77974500D01*
X67174881Y-77974500D01*
X65485770Y-77974500D01*
X65485751Y-77974500D01*
X65482459Y-77974501D01*
X65479179Y-77974853D01*
X65479171Y-77974854D01*
X65422846Y-77980909D01*
X65288000Y-78031204D01*
X65172785Y-78117454D01*
X65086535Y-78232668D01*
X65036241Y-78367515D01*
X65036240Y-78367517D01*
X65029831Y-78427127D01*
X65029831Y-78430448D01*
X65029831Y-78430449D01*
X65029831Y-79769558D01*
X65010146Y-79836597D01*
X64957342Y-79882352D01*
X64888184Y-79892296D01*
X64824628Y-79863271D01*
X64804255Y-79840679D01*
X64790378Y-79820860D01*
X64629471Y-79659953D01*
X64443066Y-79529432D01*
X64236828Y-79433261D01*
X64017020Y-79374364D01*
X63790331Y-79354531D01*
X63563641Y-79374364D01*
X63343833Y-79433261D01*
X63137595Y-79529432D01*
X62951190Y-79659953D01*
X62790284Y-79820859D01*
X62659763Y-80007264D01*
X62563592Y-80213502D01*
X62504695Y-80433310D01*
X62484862Y-80659999D01*
X62504695Y-80886689D01*
X62563592Y-81106497D01*
X62659763Y-81312735D01*
X62790284Y-81499140D01*
X62951190Y-81660046D01*
X63137595Y-81790567D01*
X63137596Y-81790567D01*
X63137597Y-81790568D01*
X63343835Y-81886739D01*
X63457873Y-81917295D01*
X63487467Y-81925225D01*
X63547127Y-81961590D01*
X63577656Y-82024437D01*
X63569361Y-82093813D01*
X63524876Y-82147691D01*
X63487467Y-82164775D01*
X63343833Y-82203261D01*
X63137595Y-82299432D01*
X62951190Y-82429953D01*
X62790284Y-82590859D01*
X62659763Y-82777264D01*
X62563592Y-82983502D01*
X62504695Y-83203310D01*
X62484862Y-83429999D01*
X62504695Y-83656689D01*
X62563592Y-83876497D01*
X62659763Y-84082735D01*
X62790284Y-84269140D01*
X62951190Y-84430046D01*
X63137595Y-84560567D01*
X63137596Y-84560567D01*
X63137597Y-84560568D01*
X63343835Y-84656739D01*
X63488431Y-84695483D01*
X63548092Y-84731848D01*
X63578621Y-84794695D01*
X63570326Y-84864070D01*
X63525841Y-84917948D01*
X63488433Y-84935033D01*
X63344002Y-84973734D01*
X63137847Y-85069865D01*
X63064858Y-85120973D01*
X63064857Y-85120973D01*
X63657798Y-85713913D01*
X63648016Y-85715320D01*
X63517231Y-85775048D01*
X63408570Y-85869202D01*
X63330838Y-85990156D01*
X63307253Y-86070476D01*
X62711304Y-85474526D01*
X62711304Y-85474527D01*
X62660196Y-85547516D01*
X62564064Y-85753672D01*
X62505189Y-85973397D01*
X62485364Y-86200000D01*
X62505189Y-86426602D01*
X62564064Y-86646326D01*
X62660197Y-86852484D01*
X62711303Y-86925471D01*
X62711305Y-86925472D01*
X63307253Y-86329522D01*
X63330838Y-86409844D01*
X63408570Y-86530798D01*
X63517231Y-86624952D01*
X63648016Y-86684680D01*
X63657797Y-86686086D01*
X63064857Y-87279025D01*
X63064857Y-87279026D01*
X63137846Y-87330133D01*
X63344004Y-87426266D01*
X63488432Y-87464966D01*
X63548092Y-87501331D01*
X63578621Y-87564178D01*
X63570326Y-87633554D01*
X63525841Y-87687432D01*
X63488432Y-87704516D01*
X63343833Y-87743261D01*
X63137595Y-87839432D01*
X62951190Y-87969953D01*
X62790284Y-88130859D01*
X62659763Y-88317264D01*
X62563592Y-88523502D01*
X62504695Y-88743310D01*
X62484862Y-88970000D01*
X62504695Y-89196689D01*
X62563592Y-89416497D01*
X62659763Y-89622735D01*
X62790284Y-89809140D01*
X62951190Y-89970046D01*
X63137595Y-90100567D01*
X63137596Y-90100567D01*
X63137597Y-90100568D01*
X63343835Y-90196739D01*
X63451173Y-90225500D01*
X63487467Y-90235225D01*
X63547127Y-90271590D01*
X63577656Y-90334437D01*
X63569361Y-90403813D01*
X63524876Y-90457691D01*
X63487467Y-90474775D01*
X63343833Y-90513261D01*
X63137595Y-90609432D01*
X62951190Y-90739953D01*
X62790284Y-90900859D01*
X62659763Y-91087264D01*
X62563592Y-91293502D01*
X62504695Y-91513310D01*
X62484862Y-91740000D01*
X62504695Y-91966689D01*
X62563592Y-92186497D01*
X62659763Y-92392735D01*
X62790284Y-92579140D01*
X62951190Y-92740046D01*
X63137595Y-92870567D01*
X63137596Y-92870567D01*
X63137597Y-92870568D01*
X63343835Y-92966739D01*
X63457873Y-92997295D01*
X63487467Y-93005225D01*
X63547127Y-93041590D01*
X63577656Y-93104437D01*
X63569361Y-93173813D01*
X63524876Y-93227691D01*
X63487467Y-93244775D01*
X63343833Y-93283261D01*
X63137595Y-93379432D01*
X62951190Y-93509953D01*
X62790284Y-93670859D01*
X62659763Y-93857264D01*
X62563592Y-94063502D01*
X62504695Y-94283310D01*
X62484862Y-94510000D01*
X62504695Y-94736689D01*
X62563592Y-94956497D01*
X62659763Y-95162735D01*
X62790284Y-95349140D01*
X62951190Y-95510046D01*
X63137595Y-95640567D01*
X63137596Y-95640567D01*
X63137597Y-95640568D01*
X63343835Y-95736739D01*
X63457873Y-95767295D01*
X63487467Y-95775225D01*
X63547127Y-95811590D01*
X63577656Y-95874437D01*
X63569361Y-95943813D01*
X63524876Y-95997691D01*
X63487467Y-96014775D01*
X63343833Y-96053261D01*
X63137595Y-96149432D01*
X62951190Y-96279953D01*
X62790284Y-96440859D01*
X62659763Y-96627264D01*
X62563592Y-96833502D01*
X62504695Y-97053310D01*
X62484862Y-97280000D01*
X62504695Y-97506689D01*
X62563592Y-97726497D01*
X62659763Y-97932735D01*
X62790284Y-98119140D01*
X62951190Y-98280046D01*
X63137595Y-98410567D01*
X63137596Y-98410567D01*
X63137597Y-98410568D01*
X63343835Y-98506739D01*
X63457873Y-98537295D01*
X63487467Y-98545225D01*
X63547127Y-98581590D01*
X63577656Y-98644437D01*
X63569361Y-98713813D01*
X63524876Y-98767691D01*
X63487467Y-98784775D01*
X63343833Y-98823261D01*
X63137595Y-98919432D01*
X62951190Y-99049953D01*
X62790284Y-99210859D01*
X62659763Y-99397264D01*
X62563592Y-99603502D01*
X62504695Y-99823310D01*
X62484862Y-100049999D01*
X62504695Y-100276689D01*
X62563592Y-100496497D01*
X62659763Y-100702735D01*
X62790284Y-100889140D01*
X62951190Y-101050046D01*
X63137595Y-101180567D01*
X63137596Y-101180567D01*
X63137597Y-101180568D01*
X63343835Y-101276739D01*
X63488431Y-101315483D01*
X63548092Y-101351848D01*
X63578621Y-101414695D01*
X63570326Y-101484070D01*
X63525841Y-101537948D01*
X63488433Y-101555033D01*
X63344002Y-101593734D01*
X63137847Y-101689865D01*
X63064858Y-101740973D01*
X63064857Y-101740973D01*
X63657798Y-102333913D01*
X63648016Y-102335320D01*
X63517231Y-102395048D01*
X63408570Y-102489202D01*
X63330838Y-102610156D01*
X63307253Y-102690476D01*
X62711304Y-102094526D01*
X62711304Y-102094527D01*
X62660196Y-102167516D01*
X62564064Y-102373672D01*
X62505189Y-102593397D01*
X62485364Y-102820000D01*
X62505189Y-103046602D01*
X62564064Y-103266326D01*
X62660197Y-103472484D01*
X62711303Y-103545471D01*
X62711305Y-103545472D01*
X63307253Y-102949522D01*
X63330838Y-103029844D01*
X63408570Y-103150798D01*
X63517231Y-103244952D01*
X63648016Y-103304680D01*
X63657797Y-103306086D01*
X63064857Y-103899025D01*
X63064857Y-103899026D01*
X63137846Y-103950133D01*
X63344004Y-104046266D01*
X63488432Y-104084966D01*
X63548092Y-104121331D01*
X63578621Y-104184178D01*
X63570326Y-104253554D01*
X63525841Y-104307432D01*
X63488432Y-104324516D01*
X63343833Y-104363261D01*
X63137595Y-104459432D01*
X62951190Y-104589953D01*
X62790284Y-104750859D01*
X62659763Y-104937264D01*
X62563592Y-105143502D01*
X62504695Y-105363310D01*
X62484862Y-105589999D01*
X62504695Y-105816689D01*
X62563592Y-106036497D01*
X62659763Y-106242735D01*
X62790284Y-106429140D01*
X62951190Y-106590046D01*
X63137595Y-106720567D01*
X63137596Y-106720567D01*
X63137597Y-106720568D01*
X63343835Y-106816739D01*
X63457873Y-106847295D01*
X63487467Y-106855225D01*
X63547127Y-106891590D01*
X63577656Y-106954437D01*
X63569361Y-107023813D01*
X63524876Y-107077691D01*
X63487467Y-107094775D01*
X63343833Y-107133261D01*
X63137595Y-107229432D01*
X62951190Y-107359953D01*
X62790284Y-107520859D01*
X62659763Y-107707264D01*
X62563592Y-107913502D01*
X62504695Y-108133310D01*
X62484862Y-108360000D01*
X55100500Y-108360000D01*
X55100500Y-72300000D01*
X62644591Y-72300000D01*
X62664197Y-72561627D01*
X62722580Y-72817418D01*
X62817426Y-73059080D01*
X62818432Y-73061643D01*
X62949614Y-73288857D01*
X63113195Y-73493981D01*
X63113197Y-73493983D01*
X63113198Y-73493984D01*
X63305514Y-73672428D01*
X63305520Y-73672432D01*
X63305521Y-73672433D01*
X63522296Y-73820228D01*
X63758677Y-73934063D01*
X64009385Y-74011396D01*
X64268818Y-74050500D01*
X64531182Y-74050500D01*
X64790615Y-74011396D01*
X65041323Y-73934063D01*
X65277704Y-73820228D01*
X65494479Y-73672433D01*
X65494482Y-73672429D01*
X65494485Y-73672428D01*
X65579792Y-73593273D01*
X65686805Y-73493981D01*
X65850386Y-73288857D01*
X65981568Y-73061643D01*
X66077420Y-72817416D01*
X66135802Y-72561630D01*
X66155408Y-72300000D01*
X66135802Y-72038370D01*
X66077420Y-71782584D01*
X65981568Y-71538357D01*
X65850386Y-71311143D01*
X65686805Y-71106019D01*
X65686801Y-71106015D01*
X65494485Y-70927571D01*
X65477170Y-70915766D01*
X65277704Y-70779772D01*
X65041323Y-70665937D01*
X64790615Y-70588604D01*
X64531182Y-70549500D01*
X64268818Y-70549500D01*
X64009385Y-70588604D01*
X63758677Y-70665937D01*
X63522296Y-70779772D01*
X63514791Y-70784889D01*
X63305514Y-70927571D01*
X63113198Y-71106015D01*
X62949613Y-71311143D01*
X62818431Y-71538358D01*
X62722580Y-71782581D01*
X62664197Y-72038372D01*
X62644591Y-72300000D01*
X55100500Y-72300000D01*
X55100500Y-40086000D01*
X67787235Y-40086000D01*
X67806841Y-40347627D01*
X67865224Y-40603418D01*
X67960070Y-40845080D01*
X67961076Y-40847643D01*
X68092258Y-41074857D01*
X68255839Y-41279981D01*
X68255841Y-41279983D01*
X68255842Y-41279984D01*
X68448158Y-41458428D01*
X68448164Y-41458432D01*
X68448165Y-41458433D01*
X68664940Y-41606228D01*
X68901321Y-41720063D01*
X69152029Y-41797396D01*
X69411462Y-41836500D01*
X69673826Y-41836500D01*
X69933259Y-41797396D01*
X70183967Y-41720063D01*
X70420348Y-41606228D01*
X70637123Y-41458433D01*
X70637126Y-41458429D01*
X70637129Y-41458428D01*
X70722436Y-41379273D01*
X70829449Y-41279981D01*
X70993030Y-41074857D01*
X71124212Y-40847643D01*
X71220064Y-40603416D01*
X71278446Y-40347630D01*
X71298052Y-40086000D01*
X71278446Y-39824370D01*
X71220064Y-39568584D01*
X71124212Y-39324357D01*
X70993030Y-39097143D01*
X70829449Y-38892019D01*
X70829445Y-38892015D01*
X70637129Y-38713571D01*
X70619814Y-38701766D01*
X70420348Y-38565772D01*
X70183967Y-38451937D01*
X69933259Y-38374604D01*
X69673826Y-38335500D01*
X69411462Y-38335500D01*
X69152029Y-38374604D01*
X68901321Y-38451937D01*
X68664940Y-38565772D01*
X68657435Y-38570889D01*
X68448158Y-38713571D01*
X68255842Y-38892015D01*
X68092257Y-39097143D01*
X67961075Y-39324358D01*
X67865224Y-39568581D01*
X67806841Y-39824372D01*
X67787235Y-40086000D01*
X55100500Y-40086000D01*
X55100500Y-31324500D01*
X55120185Y-31257461D01*
X55172989Y-31211706D01*
X55224500Y-31200500D01*
X59999901Y-31200500D01*
X75375500Y-31200500D01*
X75442539Y-31220185D01*
G37*
%TD.AperFunction*%
%TD*%
M02*
