%TF.GenerationSoftware,KiCad,Pcbnew,7.0.2-0*%
%TF.CreationDate,2023-10-04T13:32:30+02:00*%
%TF.ProjectId,FlukePodAdapterLarge68K,466c756b-6550-46f6-9441-646170746572,rev?*%
%TF.SameCoordinates,Original*%
%TF.FileFunction,Profile,NP*%
%FSLAX46Y46*%
G04 Gerber Fmt 4.6, Leading zero omitted, Abs format (unit mm)*
G04 Created by KiCad (PCBNEW 7.0.2-0) date 2023-10-04 13:32:30*
%MOMM*%
%LPD*%
G01*
G04 APERTURE LIST*
%TA.AperFunction,Profile*%
%ADD10C,0.050000*%
%TD*%
%TA.AperFunction,Profile*%
%ADD11C,0.100000*%
%TD*%
G04 APERTURE END LIST*
D10*
X66050000Y-119600000D02*
G75*
G03*
X66050000Y-119600000I-1750000J0D01*
G01*
D11*
X73500000Y-162006000D02*
X73500000Y-147000000D01*
X55100000Y-51400000D02*
X55100000Y-31200000D01*
X73500000Y-147000000D02*
X68500000Y-147000000D01*
X68500000Y-147000000D02*
X68500000Y-139400000D01*
X68500000Y-113200000D02*
X73500000Y-113200000D01*
X73500000Y-162006000D02*
X60000000Y-162006000D01*
X87700000Y-113200000D02*
X87700000Y-78700000D01*
D10*
X66150000Y-72300000D02*
G75*
G03*
X66150000Y-72300000I-1750000J0D01*
G01*
D11*
X60000000Y-31200000D02*
X55100000Y-31200000D01*
X55100000Y-162006000D02*
X60000000Y-162006000D01*
X55100000Y-139400000D02*
X55100000Y-51400000D01*
D10*
X71292644Y-152100000D02*
G75*
G03*
X71292644Y-152100000I-1750000J0D01*
G01*
D11*
X60000000Y-31200000D02*
X75500000Y-31200000D01*
X75500000Y-78700000D02*
X87700000Y-78700000D01*
X55100000Y-162006000D02*
X55100000Y-139400000D01*
X75500000Y-78700000D02*
X70500000Y-78700000D01*
X75500000Y-31200000D02*
X75500000Y-46200000D01*
X68500000Y-113200000D02*
X68500000Y-139400000D01*
X70500000Y-78700000D02*
X70500000Y-46200000D01*
D10*
X71292644Y-40086000D02*
G75*
G03*
X71292644Y-40086000I-1750000J0D01*
G01*
D11*
X75500000Y-46200000D02*
X70500000Y-46200000D01*
X73500000Y-113200000D02*
X87700000Y-113200000D01*
M02*
