M48
; DRILL file {KiCad 7.0.2-0} date 2023 October 04, Wednesday 13:32:25
; FORMAT={-:-/ absolute / inch / decimal}
; #@! TF.CreationDate,2023-10-04T13:32:25+02:00
; #@! TF.GenerationSoftware,Kicad,Pcbnew,7.0.2-0
; #@! TF.FileFunction,Plated,1,2,PTH
FMAT,2
INCH
; #@! TA.AperFunction,Plated,PTH,ComponentDrill
T1C0.0394
%
G90
G05
T1
X2.5114Y-3.1756
X2.5114Y-3.2846
X2.5114Y-3.3937
X2.5114Y-3.5028
X2.5114Y-3.6118
X2.5114Y-3.7209
X2.5114Y-3.8299
X2.5114Y-3.939
X2.5114Y-4.048
X2.5114Y-4.1571
X2.5114Y-4.2661
X2.5114Y-4.3752
X2.6114Y-3.1211
X2.6114Y-3.2301
X2.6114Y-3.3392
X2.6114Y-3.4482
X2.6114Y-3.5573
X2.6114Y-3.6663
X2.6114Y-3.7754
X2.6114Y-3.8844
X2.6114Y-3.9935
X2.6114Y-4.1026
X2.6114Y-4.2116
X2.6114Y-4.3207
X2.6114Y-4.4297
X2.9512Y-3.178
X2.9512Y-3.278
X2.9512Y-3.378
X2.9512Y-3.478
X2.9512Y-3.578
X2.9512Y-3.678
X2.9512Y-3.778
X2.9512Y-3.878
X2.9512Y-3.978
X2.9512Y-4.078
X2.9512Y-4.178
X2.9512Y-4.278
X2.9512Y-4.378
X3.0512Y-3.178
X3.0512Y-3.278
X3.0512Y-3.378
X3.0512Y-3.478
X3.0512Y-3.578
X3.0512Y-3.678
X3.0512Y-3.778
X3.0512Y-3.878
X3.0512Y-3.978
X3.0512Y-4.078
X3.0512Y-4.178
X3.0512Y-4.278
X3.0512Y-4.378
T0
M30
