%TF.GenerationSoftware,KiCad,Pcbnew,7.0.2-0*%
%TF.CreationDate,2023-09-18T20:01:19+02:00*%
%TF.ProjectId,FlukePodAdapter,466c756b-6550-46f6-9441-646170746572,rev?*%
%TF.SameCoordinates,Original*%
%TF.FileFunction,Copper,L1,Top*%
%TF.FilePolarity,Positive*%
%FSLAX46Y46*%
G04 Gerber Fmt 4.6, Leading zero omitted, Abs format (unit mm)*
G04 Created by KiCad (PCBNEW 7.0.2-0) date 2023-09-18 20:01:19*
%MOMM*%
%LPD*%
G01*
G04 APERTURE LIST*
%TA.AperFunction,ComponentPad*%
%ADD10O,1.700000X1.700000*%
%TD*%
%TA.AperFunction,ComponentPad*%
%ADD11R,1.700000X1.700000*%
%TD*%
%TA.AperFunction,ComponentPad*%
%ADD12R,1.600000X1.600000*%
%TD*%
%TA.AperFunction,ComponentPad*%
%ADD13C,1.600000*%
%TD*%
%TA.AperFunction,Conductor*%
%ADD14C,0.250000*%
%TD*%
%TA.AperFunction,Conductor*%
%ADD15C,0.500000*%
%TD*%
%TA.AperFunction,Conductor*%
%ADD16C,0.000000*%
%TD*%
%TA.AperFunction,Conductor*%
%ADD17C,0.800000*%
%TD*%
G04 APERTURE END LIST*
D10*
%TO.P,A23-J1,1*%
%TO.N,N/C*%
X77500000Y-80720000D03*
%TO.P,A23-J1,2,+5V*%
%TO.N,+5V*%
X77500000Y-83260000D03*
%TO.P,A23-J1,3*%
%TO.N,N/C*%
X77500000Y-85800000D03*
%TO.P,A23-J1,4,+5RET*%
%TO.N,GND*%
X77500000Y-88340000D03*
%TO.P,A23-J1,5,POD6*%
%TO.N,POD6*%
X77500000Y-90880000D03*
%TO.P,A23-J1,6,POD4*%
%TO.N,POD4*%
X77500000Y-93420000D03*
%TO.P,A23-J1,7,POD2*%
%TO.N,POD2*%
X77500000Y-95960000D03*
%TO.P,A23-J1,8,POD0*%
%TO.N,POD0*%
X77500000Y-98500000D03*
%TO.P,A23-J1,9,~{PODprsnt}*%
%TO.N,GND*%
X77500000Y-101040000D03*
%TO.P,A23-J1,10,~{SYNC}*%
%TO.N,~{PODSYNC}*%
X77500000Y-103580000D03*
%TO.P,A23-J1,11,PWRFAIL*%
%TO.N,PODPWRFAIL*%
X77500000Y-106120000D03*
%TO.P,A23-J1,12,~{MAINSTAT}*%
%TO.N,~{MAINSTAT}*%
X77500000Y-108660000D03*
%TO.P,A23-J1,13,+12RET*%
%TO.N,GND*%
X77500000Y-111200000D03*
D11*
%TO.P,A23-J1,14,+12V*%
%TO.N,+12V*%
X74960000Y-80720000D03*
D10*
%TO.P,A23-J1,15,+5V*%
%TO.N,+5V*%
X74960000Y-83260000D03*
%TO.P,A23-J1,16,+5RET*%
%TO.N,GND*%
X74960000Y-85800000D03*
%TO.P,A23-J1,17,POD7*%
%TO.N,POD7*%
X74960000Y-88340000D03*
%TO.P,A23-J1,18,POD5*%
%TO.N,POD5*%
X74960000Y-90880000D03*
%TO.P,A23-J1,19,POD3*%
%TO.N,POD3*%
X74960000Y-93420000D03*
%TO.P,A23-J1,20,POD1*%
%TO.N,POD1*%
X74960000Y-95960000D03*
%TO.P,A23-J1,21,-5V*%
%TO.N,-5V*%
X74960000Y-98500000D03*
%TO.P,A23-J1,22,SncShld*%
%TO.N,GND*%
X74960000Y-101040000D03*
%TO.P,A23-J1,23,~{9010RST}*%
%TO.N,~{PODRESET}*%
X74960000Y-103580000D03*
%TO.P,A23-J1,24,~{PODSTAT}*%
%TO.N,~{PODSTAT}*%
X74960000Y-106120000D03*
%TO.P,A23-J1,25,-5RET*%
%TO.N,GND*%
X74960000Y-108660000D03*
%TO.P,A23-J1,26*%
%TO.N,N/C*%
X74960000Y-111200000D03*
%TD*%
D12*
%TO.P,J1,1,1*%
%TO.N,unconnected-(J1-Pad1)*%
X71230331Y-79275000D03*
D13*
%TO.P,J1,2,2*%
%TO.N,+5V*%
X71230331Y-82045000D03*
%TO.P,J1,3,3*%
%TO.N,GND*%
X71230331Y-84815000D03*
%TO.P,J1,4,4*%
X71230331Y-87585000D03*
%TO.P,J1,5,5*%
%TO.N,POD6*%
X71230331Y-90355000D03*
%TO.P,J1,6,6*%
%TO.N,POD4*%
X71230331Y-93125000D03*
%TO.P,J1,7,7*%
%TO.N,POD2*%
X71230331Y-95895000D03*
%TO.P,J1,8,8*%
%TO.N,POD0*%
X71230331Y-98665000D03*
%TO.P,J1,9,9*%
%TO.N,GND*%
X71230331Y-101435000D03*
%TO.P,J1,10,10*%
%TO.N,~{PODSYNC}*%
X71230331Y-104205000D03*
%TO.P,J1,11,11*%
%TO.N,PODPWRFAIL*%
X71230331Y-106975000D03*
%TO.P,J1,12,12*%
%TO.N,~{MAINSTAT}*%
X71230331Y-109745000D03*
%TO.P,J1,13,13*%
%TO.N,GND*%
X71230331Y-112515000D03*
%TO.P,J1,14,P14*%
%TO.N,+12V*%
X68690331Y-80660000D03*
%TO.P,J1,15,P15*%
%TO.N,+5V*%
X68690331Y-83430000D03*
%TO.P,J1,16,P16*%
%TO.N,GND*%
X68690331Y-86200000D03*
%TO.P,J1,17,P17*%
%TO.N,POD7*%
X68690331Y-88970000D03*
%TO.P,J1,18,P18*%
%TO.N,POD5*%
X68690331Y-91740000D03*
%TO.P,J1,19,P19*%
%TO.N,POD3*%
X68690331Y-94510000D03*
%TO.P,J1,20,P20*%
%TO.N,POD1*%
X68690331Y-97280000D03*
%TO.P,J1,21,P21*%
%TO.N,-5V*%
X68690331Y-100050000D03*
%TO.P,J1,22,P22*%
%TO.N,GND*%
X68690331Y-102820000D03*
%TO.P,J1,23,P23*%
%TO.N,~{PODRESET}*%
X68690331Y-105590000D03*
%TO.P,J1,24,P24*%
%TO.N,~{PODSTAT}*%
X68690331Y-108360000D03*
%TO.P,J1,25,P25*%
%TO.N,GND*%
X68690331Y-111130000D03*
%TD*%
D14*
%TO.N,POD6*%
X71230331Y-90355000D02*
X71985331Y-89600000D01*
X71985331Y-89600000D02*
X76220000Y-89600000D01*
X76220000Y-89600000D02*
X77500000Y-90880000D01*
%TO.N,POD4*%
X71230331Y-93125000D02*
X72155331Y-92200000D01*
X72155331Y-92200000D02*
X76280000Y-92200000D01*
X76280000Y-92200000D02*
X77500000Y-93420000D01*
%TO.N,POD2*%
X71230331Y-95895000D02*
X72905000Y-95895000D01*
X72905000Y-95895000D02*
X74100000Y-94700000D01*
X74100000Y-94700000D02*
X76240000Y-94700000D01*
X76240000Y-94700000D02*
X77500000Y-95960000D01*
%TO.N,POD0*%
X71230331Y-98665000D02*
X72535000Y-98665000D01*
X72535000Y-98665000D02*
X74000000Y-97200000D01*
X74000000Y-97200000D02*
X76200000Y-97200000D01*
X76200000Y-97200000D02*
X77500000Y-98500000D01*
%TO.N,PODPWRFAIL*%
X71230331Y-106975000D02*
X71525000Y-106975000D01*
X73700000Y-104800000D02*
X76180000Y-104800000D01*
X76180000Y-104800000D02*
X77500000Y-106120000D01*
X71525000Y-106975000D02*
X73700000Y-104800000D01*
%TO.N,~{MAINSTAT}*%
X71230331Y-109745000D02*
X73575331Y-107400000D01*
X73575331Y-107400000D02*
X76240000Y-107400000D01*
X76240000Y-107400000D02*
X77500000Y-108660000D01*
%TO.N,~{PODSTAT}*%
X68690331Y-108360000D02*
X71640000Y-108360000D01*
X73880000Y-106120000D02*
X74960000Y-106120000D01*
X71640000Y-108360000D02*
X73880000Y-106120000D01*
%TO.N,~{PODRESET}*%
X68690331Y-105590000D02*
X71810000Y-105590000D01*
X71810000Y-105590000D02*
X73820000Y-103580000D01*
X73820000Y-103580000D02*
X74960000Y-103580000D01*
%TO.N,POD5*%
X68690331Y-91740000D02*
X72560000Y-91740000D01*
X72560000Y-91740000D02*
X73420000Y-90880000D01*
X73420000Y-90880000D02*
X74960000Y-90880000D01*
%TO.N,POD3*%
X68690331Y-94510000D02*
X68864832Y-94335499D01*
X73680000Y-93420000D02*
X74960000Y-93420000D01*
X68864832Y-94335499D02*
X72764501Y-94335499D01*
X72764501Y-94335499D02*
X73680000Y-93420000D01*
%TO.N,POD1*%
X68690331Y-97280000D02*
X73284310Y-97280000D01*
X74604310Y-95960000D02*
X74960000Y-95960000D01*
X73284310Y-97280000D02*
X74604310Y-95960000D01*
%TO.N,~{PODSYNC}*%
X71230331Y-104205000D02*
X73135331Y-102300000D01*
X73135331Y-102300000D02*
X76220000Y-102300000D01*
X76220000Y-102300000D02*
X77500000Y-103580000D01*
%TO.N,POD7*%
X68690331Y-88970000D02*
X74330000Y-88970000D01*
X74330000Y-88970000D02*
X74960000Y-88340000D01*
D15*
%TO.N,-5V*%
X68690331Y-100050000D02*
X73410000Y-100050000D01*
X73410000Y-100050000D02*
X74960000Y-98500000D01*
%TO.N,+12V*%
X68690331Y-80660000D02*
X74900000Y-80660000D01*
X74900000Y-80660000D02*
X74960000Y-80720000D01*
D16*
%TO.N,*%
X94604700Y-80775000D02*
X94618888Y-80775000D01*
D17*
%TO.N,+5V*%
X69845331Y-83430000D02*
X71230331Y-82045000D01*
X72445331Y-83260000D02*
X74960000Y-83260000D01*
X71230331Y-82045000D02*
X72445331Y-83260000D01*
X74960000Y-83260000D02*
X77500000Y-83260000D01*
X68690331Y-83430000D02*
X69845331Y-83430000D01*
%TD*%
%TA.AperFunction,Conductor*%
%TO.N,GND*%
G36*
X69964210Y-100820185D02*
G01*
X70009965Y-100872989D01*
X70019909Y-100942147D01*
X70009552Y-100976906D01*
X70004065Y-100988672D01*
X69945189Y-101208397D01*
X69925364Y-101434999D01*
X69945189Y-101661602D01*
X70004064Y-101881326D01*
X70100197Y-102087484D01*
X70151303Y-102160471D01*
X70151304Y-102160472D01*
X70747253Y-101564522D01*
X70770838Y-101644844D01*
X70848570Y-101765798D01*
X70957231Y-101859952D01*
X71088016Y-101919680D01*
X71097795Y-101921086D01*
X70504857Y-102514025D01*
X70504857Y-102514026D01*
X70577846Y-102565133D01*
X70784004Y-102661266D01*
X70928432Y-102699966D01*
X70988092Y-102736331D01*
X71018621Y-102799178D01*
X71010326Y-102868554D01*
X70965841Y-102922432D01*
X70928432Y-102939516D01*
X70783833Y-102978261D01*
X70577595Y-103074432D01*
X70391190Y-103204953D01*
X70230284Y-103365859D01*
X70099763Y-103552264D01*
X70003592Y-103758502D01*
X69944695Y-103978310D01*
X69924862Y-104205000D01*
X69944695Y-104431689D01*
X69987101Y-104589953D01*
X70003592Y-104651496D01*
X70056587Y-104765144D01*
X70067290Y-104788095D01*
X70077782Y-104857172D01*
X70049263Y-104920956D01*
X69990786Y-104959196D01*
X69954908Y-104964500D01*
X69904519Y-104964500D01*
X69837480Y-104944815D01*
X69802944Y-104911623D01*
X69690377Y-104750859D01*
X69529471Y-104589953D01*
X69343066Y-104459432D01*
X69136828Y-104363261D01*
X68992229Y-104324516D01*
X68932569Y-104288151D01*
X68902040Y-104225304D01*
X68910335Y-104155928D01*
X68954820Y-104102050D01*
X68992229Y-104084966D01*
X69136658Y-104046266D01*
X69342811Y-103950134D01*
X69415803Y-103899025D01*
X68822865Y-103306086D01*
X68832646Y-103304680D01*
X68963431Y-103244952D01*
X69072092Y-103150798D01*
X69149824Y-103029844D01*
X69173407Y-102949523D01*
X69769356Y-103545472D01*
X69820465Y-103472480D01*
X69916597Y-103266326D01*
X69975472Y-103046602D01*
X69995297Y-102820000D01*
X69975472Y-102593397D01*
X69916597Y-102373673D01*
X69820464Y-102167515D01*
X69769356Y-102094526D01*
X69173407Y-102690475D01*
X69149824Y-102610156D01*
X69072092Y-102489202D01*
X68963431Y-102395048D01*
X68832646Y-102335320D01*
X68822864Y-102333913D01*
X69415803Y-101740974D01*
X69415802Y-101740972D01*
X69342815Y-101689866D01*
X69136657Y-101593733D01*
X68992229Y-101555033D01*
X68932568Y-101518667D01*
X68902040Y-101455820D01*
X68910335Y-101386445D01*
X68954821Y-101332567D01*
X68992227Y-101315484D01*
X69136827Y-101276739D01*
X69343065Y-101180568D01*
X69529470Y-101050047D01*
X69690378Y-100889139D01*
X69715417Y-100853377D01*
X69769995Y-100809752D01*
X69816994Y-100800500D01*
X69897171Y-100800500D01*
X69964210Y-100820185D01*
G37*
%TD.AperFunction*%
%TA.AperFunction,Conductor*%
G36*
X74500507Y-100830156D02*
G01*
X74460000Y-100968111D01*
X74460000Y-101111889D01*
X74500507Y-101249844D01*
X74526314Y-101290000D01*
X73629364Y-101290000D01*
X73689377Y-101513970D01*
X73686576Y-101514720D01*
X73694546Y-101567162D01*
X73666032Y-101630949D01*
X73607559Y-101669193D01*
X73571671Y-101674500D01*
X73218075Y-101674500D01*
X73197568Y-101672235D01*
X73127458Y-101674439D01*
X73123563Y-101674500D01*
X73095981Y-101674500D01*
X73092136Y-101674985D01*
X73092111Y-101674987D01*
X73091984Y-101675004D01*
X73080364Y-101675918D01*
X73036700Y-101677290D01*
X73017460Y-101682880D01*
X72998412Y-101686825D01*
X72978540Y-101689335D01*
X72937930Y-101705413D01*
X72926885Y-101709194D01*
X72884941Y-101721381D01*
X72867696Y-101731579D01*
X72850235Y-101740133D01*
X72831598Y-101747512D01*
X72796262Y-101773185D01*
X72786505Y-101779595D01*
X72748911Y-101801829D01*
X72734744Y-101815996D01*
X72719953Y-101828628D01*
X72693760Y-101847659D01*
X72627954Y-101871140D01*
X72559900Y-101855316D01*
X72511204Y-101805211D01*
X72497328Y-101736733D01*
X72501098Y-101715247D01*
X72515472Y-101661600D01*
X72535297Y-101434999D01*
X72515472Y-101208397D01*
X72456596Y-100988672D01*
X72451110Y-100976906D01*
X72440617Y-100907829D01*
X72469136Y-100844045D01*
X72527612Y-100805804D01*
X72563491Y-100800500D01*
X73346294Y-100800500D01*
X73364264Y-100801809D01*
X73368320Y-100802402D01*
X73388023Y-100805289D01*
X73437368Y-100800972D01*
X73448176Y-100800500D01*
X73450100Y-100800500D01*
X73453709Y-100800500D01*
X73484550Y-100796894D01*
X73488024Y-100796539D01*
X73557408Y-100790470D01*
X73568215Y-100792642D01*
X73568215Y-100790000D01*
X74526314Y-100790000D01*
X74500507Y-100830156D01*
G37*
%TD.AperFunction*%
%TA.AperFunction,Conductor*%
G36*
X77040507Y-100830156D02*
G01*
X77000000Y-100968111D01*
X77000000Y-101111889D01*
X77040507Y-101249844D01*
X77066314Y-101290000D01*
X75393686Y-101290000D01*
X75419493Y-101249844D01*
X75460000Y-101111889D01*
X75460000Y-100968111D01*
X75419493Y-100830156D01*
X75393686Y-100790000D01*
X77066314Y-100790000D01*
X77040507Y-100830156D01*
G37*
%TD.AperFunction*%
%TA.AperFunction,Conductor*%
G36*
X69784102Y-84332026D02*
G01*
X69797943Y-84334219D01*
X69845927Y-84331704D01*
X69913903Y-84347853D01*
X69962359Y-84398190D01*
X69975908Y-84466733D01*
X69972190Y-84487627D01*
X69945189Y-84588395D01*
X69925364Y-84815000D01*
X69945189Y-85041602D01*
X70004064Y-85261326D01*
X70100197Y-85467484D01*
X70151303Y-85540471D01*
X70151304Y-85540472D01*
X70747253Y-84944522D01*
X70770838Y-85024844D01*
X70848570Y-85145798D01*
X70957231Y-85239952D01*
X71088016Y-85299680D01*
X71097797Y-85301086D01*
X70504857Y-85894025D01*
X70504857Y-85894026D01*
X70577846Y-85945133D01*
X70784004Y-86041266D01*
X70929398Y-86080225D01*
X70989058Y-86116590D01*
X71019587Y-86179437D01*
X71011292Y-86248813D01*
X70966807Y-86302691D01*
X70929398Y-86319775D01*
X70784004Y-86358733D01*
X70577847Y-86454865D01*
X70504858Y-86505973D01*
X70504857Y-86505973D01*
X71097798Y-87098913D01*
X71088016Y-87100320D01*
X70957231Y-87160048D01*
X70848570Y-87254202D01*
X70770838Y-87375156D01*
X70747253Y-87455476D01*
X70151304Y-86859527D01*
X70100196Y-86932516D01*
X70004064Y-87138672D01*
X69945189Y-87358397D01*
X69925364Y-87584999D01*
X69945189Y-87811602D01*
X70004064Y-88031326D01*
X70067841Y-88168095D01*
X70078333Y-88237173D01*
X70049813Y-88300957D01*
X69991337Y-88339196D01*
X69955459Y-88344500D01*
X69904519Y-88344500D01*
X69837480Y-88324815D01*
X69802944Y-88291623D01*
X69690377Y-88130859D01*
X69529471Y-87969953D01*
X69343066Y-87839432D01*
X69136828Y-87743261D01*
X68992229Y-87704516D01*
X68932569Y-87668151D01*
X68902040Y-87605304D01*
X68910335Y-87535928D01*
X68954820Y-87482050D01*
X68992229Y-87464966D01*
X69136658Y-87426266D01*
X69342811Y-87330134D01*
X69415803Y-87279025D01*
X68822865Y-86686086D01*
X68832646Y-86684680D01*
X68963431Y-86624952D01*
X69072092Y-86530798D01*
X69149824Y-86409844D01*
X69173407Y-86329523D01*
X69769356Y-86925472D01*
X69820465Y-86852480D01*
X69916597Y-86646326D01*
X69975472Y-86426602D01*
X69995297Y-86200000D01*
X69975472Y-85973397D01*
X69916597Y-85753673D01*
X69820464Y-85547515D01*
X69769356Y-85474526D01*
X69173407Y-86070475D01*
X69149824Y-85990156D01*
X69072092Y-85869202D01*
X68963431Y-85775048D01*
X68832646Y-85715320D01*
X68822864Y-85713913D01*
X69415803Y-85120974D01*
X69415802Y-85120972D01*
X69342815Y-85069866D01*
X69136657Y-84973733D01*
X68992229Y-84935033D01*
X68932568Y-84898667D01*
X68902040Y-84835820D01*
X68910335Y-84766445D01*
X68954821Y-84712567D01*
X68992227Y-84695484D01*
X69136827Y-84656739D01*
X69343065Y-84560568D01*
X69529470Y-84430047D01*
X69592699Y-84366817D01*
X69654020Y-84333334D01*
X69680379Y-84330500D01*
X69764705Y-84330500D01*
X69784102Y-84332026D01*
G37*
%TD.AperFunction*%
%TA.AperFunction,Conductor*%
G36*
X73966281Y-84180185D02*
G01*
X73986923Y-84196819D01*
X74088599Y-84298495D01*
X74274596Y-84428732D01*
X74318219Y-84483307D01*
X74325412Y-84552806D01*
X74293890Y-84615160D01*
X74274595Y-84631880D01*
X74088919Y-84761892D01*
X73921890Y-84928921D01*
X73786400Y-85122421D01*
X73686569Y-85336507D01*
X73629364Y-85549999D01*
X73629364Y-85550000D01*
X74526314Y-85550000D01*
X74500507Y-85590156D01*
X74460000Y-85728111D01*
X74460000Y-85871889D01*
X74500507Y-86009844D01*
X74526314Y-86050000D01*
X73629364Y-86050000D01*
X73686569Y-86263492D01*
X73786399Y-86477576D01*
X73921893Y-86671081D01*
X74088918Y-86838106D01*
X74274595Y-86968119D01*
X74318219Y-87022696D01*
X74325412Y-87092195D01*
X74293890Y-87154549D01*
X74274595Y-87171269D01*
X74188654Y-87231446D01*
X74120703Y-87279026D01*
X74088595Y-87301508D01*
X73921505Y-87468598D01*
X73785965Y-87662170D01*
X73686097Y-87876336D01*
X73624936Y-88104592D01*
X73613850Y-88231308D01*
X73588397Y-88296376D01*
X73531807Y-88337355D01*
X73490322Y-88344500D01*
X72505203Y-88344500D01*
X72438164Y-88324815D01*
X72392409Y-88272011D01*
X72382465Y-88202853D01*
X72392821Y-88168095D01*
X72456597Y-88031326D01*
X72515472Y-87811602D01*
X72535297Y-87585000D01*
X72515472Y-87358397D01*
X72456597Y-87138673D01*
X72360464Y-86932515D01*
X72309356Y-86859526D01*
X71713407Y-87455474D01*
X71689824Y-87375156D01*
X71612092Y-87254202D01*
X71503431Y-87160048D01*
X71372646Y-87100320D01*
X71362864Y-87098913D01*
X71955803Y-86505974D01*
X71955802Y-86505972D01*
X71882815Y-86454866D01*
X71676657Y-86358733D01*
X71531263Y-86319775D01*
X71471603Y-86283410D01*
X71441074Y-86220563D01*
X71449369Y-86151187D01*
X71493854Y-86097309D01*
X71531263Y-86080225D01*
X71676657Y-86041266D01*
X71882811Y-85945134D01*
X71955803Y-85894025D01*
X71362865Y-85301086D01*
X71372646Y-85299680D01*
X71503431Y-85239952D01*
X71612092Y-85145798D01*
X71689824Y-85024844D01*
X71713407Y-84944523D01*
X72309356Y-85540472D01*
X72360465Y-85467480D01*
X72456597Y-85261326D01*
X72515472Y-85041602D01*
X72535297Y-84815000D01*
X72515472Y-84588397D01*
X72456597Y-84368675D01*
X72441783Y-84336904D01*
X72431292Y-84267826D01*
X72459812Y-84204043D01*
X72518289Y-84165804D01*
X72554166Y-84160500D01*
X73899242Y-84160500D01*
X73966281Y-84180185D01*
G37*
%TD.AperFunction*%
%TA.AperFunction,Conductor*%
G36*
X75442539Y-51420185D02*
G01*
X75488294Y-51472989D01*
X75499500Y-51524500D01*
X75499500Y-78675467D01*
X75499416Y-78675889D01*
X75499459Y-78700000D01*
X75499501Y-78700101D01*
X75499616Y-78700382D01*
X75499618Y-78700384D01*
X75499808Y-78700462D01*
X75500000Y-78700541D01*
X75500002Y-78700539D01*
X75524616Y-78700524D01*
X75524616Y-78700528D01*
X75524760Y-78700500D01*
X87575500Y-78700500D01*
X87642539Y-78720185D01*
X87688294Y-78772989D01*
X87699500Y-78824500D01*
X87699500Y-113075500D01*
X87679815Y-113142539D01*
X87627011Y-113188294D01*
X87575500Y-113199500D01*
X73524760Y-113199500D01*
X73524554Y-113199459D01*
X73499999Y-113199459D01*
X73499900Y-113199500D01*
X73499618Y-113199615D01*
X73499615Y-113199618D01*
X73499459Y-113199999D01*
X73499476Y-113224616D01*
X73499471Y-113224616D01*
X73499500Y-113224759D01*
X73499500Y-139275500D01*
X73479815Y-139342539D01*
X73427011Y-139388294D01*
X73375500Y-139399500D01*
X60124500Y-139399500D01*
X60057461Y-139379815D01*
X60011706Y-139327011D01*
X60000500Y-139275500D01*
X60000500Y-131250000D01*
X67840327Y-131250000D01*
X67846154Y-131327765D01*
X67844038Y-131337649D01*
X67848845Y-131368768D01*
X67849949Y-131378404D01*
X67850218Y-131381984D01*
X67850567Y-131391275D01*
X67850567Y-131417620D01*
X67853748Y-131429095D01*
X67859340Y-131503716D01*
X67877398Y-131582832D01*
X67876714Y-131593980D01*
X67886759Y-131625721D01*
X67889423Y-131635517D01*
X67890366Y-131639645D01*
X67892027Y-131648331D01*
X67895735Y-131672337D01*
X67900005Y-131681875D01*
X67915957Y-131751768D01*
X67946768Y-131830272D01*
X67947845Y-131842431D01*
X67963308Y-131873660D01*
X67967611Y-131883379D01*
X67969633Y-131888531D01*
X67972426Y-131896420D01*
X67979015Y-131917242D01*
X67983857Y-131924774D01*
X68008910Y-131988607D01*
X68028007Y-132021683D01*
X68052674Y-132064408D01*
X68055791Y-132077258D01*
X68076603Y-132106846D01*
X68082564Y-132116180D01*
X68086357Y-132122749D01*
X68090097Y-132129733D01*
X68098489Y-132146683D01*
X68103385Y-132152242D01*
X68136125Y-132208949D01*
X68162666Y-132242231D01*
X68192690Y-132279879D01*
X68198061Y-132293035D01*
X68223939Y-132319925D01*
X68231535Y-132328590D01*
X68238031Y-132336736D01*
X68242502Y-132342702D01*
X68251385Y-132355332D01*
X68255850Y-132359080D01*
X68294758Y-132407869D01*
X68294760Y-132407871D01*
X68294761Y-132407872D01*
X68363624Y-132471768D01*
X68371390Y-132484806D01*
X68401842Y-132508019D01*
X68411014Y-132515739D01*
X68421309Y-132525292D01*
X68426308Y-132530201D01*
X68434152Y-132538351D01*
X68437748Y-132540545D01*
X68481267Y-132580924D01*
X68561544Y-132635656D01*
X68571766Y-132648123D01*
X68606135Y-132666812D01*
X68616749Y-132673294D01*
X68632163Y-132683803D01*
X68637485Y-132687642D01*
X68642549Y-132691502D01*
X68644905Y-132692490D01*
X68691486Y-132724249D01*
X68781936Y-132767807D01*
X68794590Y-132779232D01*
X68832068Y-132792692D01*
X68843937Y-132797665D01*
X68865973Y-132808277D01*
X68871384Y-132811050D01*
X68871763Y-132811256D01*
X68872588Y-132811463D01*
X68920718Y-132834641D01*
X69019736Y-132865184D01*
X69034706Y-132875094D01*
X69074368Y-132882786D01*
X69087288Y-132886021D01*
X69163843Y-132909635D01*
X69269517Y-132925562D01*
X69286597Y-132933504D01*
X69327445Y-132935070D01*
X69341176Y-132936364D01*
X69415429Y-132947556D01*
X69525545Y-132947556D01*
X69544449Y-132953107D01*
X69585447Y-132948374D01*
X69599668Y-132947556D01*
X69669858Y-132947556D01*
X69781952Y-132930660D01*
X69802312Y-132933446D01*
X69842402Y-132922429D01*
X69856770Y-132919383D01*
X69921445Y-132909635D01*
X70032879Y-132875261D01*
X70054251Y-132874971D01*
X70092397Y-132857871D01*
X70106572Y-132852531D01*
X70107644Y-132852200D01*
X70164570Y-132834641D01*
X70272569Y-132782631D01*
X70294458Y-132779027D01*
X70329687Y-132756213D01*
X70343274Y-132748581D01*
X70393802Y-132724249D01*
X70495544Y-132654882D01*
X70517405Y-132647812D01*
X70548816Y-132619819D01*
X70561458Y-132609942D01*
X70604021Y-132580924D01*
X70696680Y-132494948D01*
X70717938Y-132484352D01*
X70744744Y-132451848D01*
X70756061Y-132439851D01*
X70790530Y-132407869D01*
X70871382Y-132306482D01*
X70891447Y-132292398D01*
X70912979Y-132256181D01*
X70922609Y-132242245D01*
X70949163Y-132208949D01*
X71015637Y-132093812D01*
X71033918Y-132076381D01*
X71049657Y-132037331D01*
X71057271Y-132021699D01*
X71076378Y-131988607D01*
X71169331Y-131751766D01*
X71225947Y-131503717D01*
X71244960Y-131250000D01*
X71225947Y-130996283D01*
X71169331Y-130748234D01*
X71076378Y-130511393D01*
X71057278Y-130478311D01*
X71049658Y-130462670D01*
X71037116Y-130431552D01*
X71015639Y-130406190D01*
X70949163Y-130291051D01*
X70922621Y-130257768D01*
X70912981Y-130243821D01*
X70895688Y-130214734D01*
X70871384Y-130193519D01*
X70853741Y-130171395D01*
X70790530Y-130092131D01*
X70756070Y-130060157D01*
X70744750Y-130048156D01*
X70723056Y-130021850D01*
X70696680Y-130005051D01*
X70604023Y-129919077D01*
X70561468Y-129890064D01*
X70548820Y-129880183D01*
X70523210Y-129857359D01*
X70495546Y-129845118D01*
X70401118Y-129780739D01*
X70393802Y-129775751D01*
X70343295Y-129751428D01*
X70329694Y-129743789D01*
X70300759Y-129725050D01*
X70272569Y-129717368D01*
X70164573Y-129665360D01*
X70106573Y-129647469D01*
X70092401Y-129642129D01*
X70060849Y-129627985D01*
X70032881Y-129624738D01*
X69921447Y-129590365D01*
X69856783Y-129580618D01*
X69842409Y-129577571D01*
X69809014Y-129568394D01*
X69781953Y-129569339D01*
X69669859Y-129552444D01*
X69669858Y-129552444D01*
X69599663Y-129552444D01*
X69585443Y-129551626D01*
X69551060Y-129547656D01*
X69525544Y-129552444D01*
X69415429Y-129552444D01*
X69341195Y-129563633D01*
X69327463Y-129564927D01*
X69292963Y-129566249D01*
X69269519Y-129574436D01*
X69163841Y-129590365D01*
X69087316Y-129613970D01*
X69074376Y-129617211D01*
X69040659Y-129623750D01*
X69019738Y-129634815D01*
X68920721Y-129665358D01*
X68920718Y-129665359D01*
X68872589Y-129688536D01*
X68871945Y-129688642D01*
X68871346Y-129688968D01*
X68865927Y-129691744D01*
X68843965Y-129702321D01*
X68832075Y-129707303D01*
X68800011Y-129718818D01*
X68781938Y-129732191D01*
X68691486Y-129775751D01*
X68644906Y-129807508D01*
X68643062Y-129808104D01*
X68637458Y-129812376D01*
X68632140Y-129816211D01*
X68616758Y-129826698D01*
X68606146Y-129833179D01*
X68576553Y-129849271D01*
X68561547Y-129864341D01*
X68481268Y-129919074D01*
X68437748Y-129959455D01*
X68434892Y-129960878D01*
X68426298Y-129969808D01*
X68421295Y-129974721D01*
X68411017Y-129984257D01*
X68401852Y-129991971D01*
X68375464Y-130012086D01*
X68363627Y-130028229D01*
X68294757Y-130092131D01*
X68255850Y-130140919D01*
X68252240Y-130143452D01*
X68242499Y-130157301D01*
X68238027Y-130163269D01*
X68231547Y-130171395D01*
X68223944Y-130180069D01*
X68201385Y-130203509D01*
X68192692Y-130220117D01*
X68136125Y-130291050D01*
X68103385Y-130347757D01*
X68099326Y-130351626D01*
X68090094Y-130370273D01*
X68086356Y-130377252D01*
X68082569Y-130383811D01*
X68076607Y-130393148D01*
X68058355Y-130419096D01*
X68052675Y-130435589D01*
X68008909Y-130511394D01*
X67983858Y-130575224D01*
X67979705Y-130580579D01*
X67972424Y-130603586D01*
X67969629Y-130611480D01*
X67967609Y-130616626D01*
X67963308Y-130626336D01*
X67949675Y-130653870D01*
X67946770Y-130669722D01*
X67915957Y-130748234D01*
X67915957Y-130748236D01*
X67900005Y-130818124D01*
X67896140Y-130825033D01*
X67892025Y-130851672D01*
X67890370Y-130860332D01*
X67889429Y-130864455D01*
X67886760Y-130874275D01*
X67877851Y-130902427D01*
X67877398Y-130917167D01*
X67859340Y-130996283D01*
X67853748Y-131070904D01*
X67850567Y-131079344D01*
X67850567Y-131108724D01*
X67850218Y-131118020D01*
X67849949Y-131121598D01*
X67848845Y-131131228D01*
X67844559Y-131158979D01*
X67846155Y-131172234D01*
X67840327Y-131250000D01*
X60000500Y-131250000D01*
X60000500Y-119600000D01*
X67544591Y-119600000D01*
X67564197Y-119861627D01*
X67622580Y-120117418D01*
X67717426Y-120359080D01*
X67718432Y-120361643D01*
X67849614Y-120588857D01*
X68013195Y-120793981D01*
X68013197Y-120793983D01*
X68013198Y-120793984D01*
X68205514Y-120972428D01*
X68205520Y-120972432D01*
X68205521Y-120972433D01*
X68422296Y-121120228D01*
X68658677Y-121234063D01*
X68909385Y-121311396D01*
X69168818Y-121350500D01*
X69431182Y-121350500D01*
X69690615Y-121311396D01*
X69941323Y-121234063D01*
X70177704Y-121120228D01*
X70394479Y-120972433D01*
X70394482Y-120972429D01*
X70394485Y-120972428D01*
X70479792Y-120893273D01*
X70586805Y-120793981D01*
X70750386Y-120588857D01*
X70881568Y-120361643D01*
X70977420Y-120117416D01*
X71035802Y-119861630D01*
X71055408Y-119600000D01*
X71035802Y-119338370D01*
X70977420Y-119082584D01*
X70881568Y-118838357D01*
X70750386Y-118611143D01*
X70586805Y-118406019D01*
X70586801Y-118406015D01*
X70394485Y-118227571D01*
X70377170Y-118215766D01*
X70177704Y-118079772D01*
X69941323Y-117965937D01*
X69690615Y-117888604D01*
X69431182Y-117849500D01*
X69168818Y-117849500D01*
X68909385Y-117888604D01*
X68658677Y-117965937D01*
X68422296Y-118079772D01*
X68414791Y-118084889D01*
X68205514Y-118227571D01*
X68013198Y-118406015D01*
X67849613Y-118611143D01*
X67718431Y-118838358D01*
X67622580Y-119082581D01*
X67564197Y-119338372D01*
X67544591Y-119600000D01*
X60000500Y-119600000D01*
X60000500Y-108360000D01*
X67384862Y-108360000D01*
X67404695Y-108586689D01*
X67463592Y-108806497D01*
X67559763Y-109012735D01*
X67690284Y-109199140D01*
X67851190Y-109360046D01*
X68037595Y-109490567D01*
X68037596Y-109490567D01*
X68037597Y-109490568D01*
X68243835Y-109586739D01*
X68388431Y-109625483D01*
X68448092Y-109661848D01*
X68478621Y-109724695D01*
X68470326Y-109794070D01*
X68425841Y-109847948D01*
X68388433Y-109865033D01*
X68244002Y-109903734D01*
X68037847Y-109999865D01*
X67964858Y-110050973D01*
X67964857Y-110050973D01*
X68557798Y-110643913D01*
X68548016Y-110645320D01*
X68417231Y-110705048D01*
X68308570Y-110799202D01*
X68230838Y-110920156D01*
X68207254Y-111000476D01*
X67611304Y-110404526D01*
X67611304Y-110404527D01*
X67560196Y-110477516D01*
X67464064Y-110683672D01*
X67405189Y-110903397D01*
X67385364Y-111130000D01*
X67405189Y-111356602D01*
X67464064Y-111576326D01*
X67560197Y-111782484D01*
X67611303Y-111855471D01*
X67611305Y-111855472D01*
X68207253Y-111259523D01*
X68230838Y-111339844D01*
X68308570Y-111460798D01*
X68417231Y-111554952D01*
X68548016Y-111614680D01*
X68557797Y-111616086D01*
X67964857Y-112209025D01*
X67964857Y-112209026D01*
X68037846Y-112260133D01*
X68244004Y-112356266D01*
X68463728Y-112415141D01*
X68690331Y-112434966D01*
X68916933Y-112415141D01*
X69136657Y-112356266D01*
X69342811Y-112260134D01*
X69415803Y-112209025D01*
X68822865Y-111616086D01*
X68832646Y-111614680D01*
X68963431Y-111554952D01*
X69072092Y-111460798D01*
X69149824Y-111339844D01*
X69173407Y-111259523D01*
X69769356Y-111855472D01*
X69820465Y-111782480D01*
X69916597Y-111576326D01*
X69975472Y-111356602D01*
X69995297Y-111130000D01*
X69975472Y-110903397D01*
X69916597Y-110683673D01*
X69820464Y-110477515D01*
X69769356Y-110404526D01*
X69173407Y-111000475D01*
X69149824Y-110920156D01*
X69072092Y-110799202D01*
X68963431Y-110705048D01*
X68832646Y-110645320D01*
X68822864Y-110643913D01*
X69415803Y-110050974D01*
X69415802Y-110050972D01*
X69342815Y-109999866D01*
X69136657Y-109903733D01*
X68992229Y-109865033D01*
X68932568Y-109828667D01*
X68902040Y-109765820D01*
X68910335Y-109696445D01*
X68954821Y-109642567D01*
X68992227Y-109625484D01*
X69136827Y-109586739D01*
X69343065Y-109490568D01*
X69529470Y-109360047D01*
X69690378Y-109199139D01*
X69770332Y-109084952D01*
X69802944Y-109038377D01*
X69857520Y-108994752D01*
X69904519Y-108985500D01*
X69954908Y-108985500D01*
X70021947Y-109005185D01*
X70067702Y-109057989D01*
X70077646Y-109127147D01*
X70067290Y-109161905D01*
X70003592Y-109298502D01*
X69944695Y-109518310D01*
X69924862Y-109745000D01*
X69944695Y-109971689D01*
X70003592Y-110191497D01*
X70099763Y-110397735D01*
X70230284Y-110584140D01*
X70391190Y-110745046D01*
X70577595Y-110875567D01*
X70577596Y-110875567D01*
X70577597Y-110875568D01*
X70783835Y-110971739D01*
X70928431Y-111010483D01*
X70988092Y-111046848D01*
X71018621Y-111109695D01*
X71010326Y-111179070D01*
X70965841Y-111232948D01*
X70928433Y-111250033D01*
X70784002Y-111288734D01*
X70577847Y-111384865D01*
X70504858Y-111435973D01*
X70504857Y-111435973D01*
X71097798Y-112028913D01*
X71088016Y-112030320D01*
X70957231Y-112090048D01*
X70848570Y-112184202D01*
X70770838Y-112305156D01*
X70747254Y-112385476D01*
X70151304Y-111789526D01*
X70151304Y-111789527D01*
X70100196Y-111862516D01*
X70004064Y-112068672D01*
X69945189Y-112288397D01*
X69925364Y-112514999D01*
X69945189Y-112741602D01*
X70004064Y-112961326D01*
X70100197Y-113167484D01*
X70151303Y-113240471D01*
X70151305Y-113240472D01*
X70747253Y-112644523D01*
X70770838Y-112724844D01*
X70848570Y-112845798D01*
X70957231Y-112939952D01*
X71088016Y-112999680D01*
X71097797Y-113001086D01*
X70504857Y-113594025D01*
X70504857Y-113594026D01*
X70577846Y-113645133D01*
X70784004Y-113741266D01*
X71003728Y-113800141D01*
X71230331Y-113819966D01*
X71456933Y-113800141D01*
X71676657Y-113741266D01*
X71882811Y-113645134D01*
X71955803Y-113594025D01*
X71362865Y-113001086D01*
X71372646Y-112999680D01*
X71503431Y-112939952D01*
X71612092Y-112845798D01*
X71689824Y-112724844D01*
X71713407Y-112644523D01*
X72309356Y-113240472D01*
X72360465Y-113167480D01*
X72456597Y-112961326D01*
X72515472Y-112741602D01*
X72535297Y-112514999D01*
X72515472Y-112288397D01*
X72456597Y-112068673D01*
X72360464Y-111862515D01*
X72309356Y-111789526D01*
X71713407Y-112385475D01*
X71689824Y-112305156D01*
X71612092Y-112184202D01*
X71503431Y-112090048D01*
X71372646Y-112030320D01*
X71362864Y-112028913D01*
X71955803Y-111435974D01*
X71955802Y-111435972D01*
X71882815Y-111384866D01*
X71676657Y-111288733D01*
X71532229Y-111250033D01*
X71472568Y-111213667D01*
X71442040Y-111150820D01*
X71450335Y-111081445D01*
X71494821Y-111027567D01*
X71532227Y-111010484D01*
X71676827Y-110971739D01*
X71883065Y-110875568D01*
X72069470Y-110745047D01*
X72230378Y-110584139D01*
X72360899Y-110397734D01*
X72457070Y-110191496D01*
X72515966Y-109971692D01*
X72535799Y-109745000D01*
X72515966Y-109518308D01*
X72497649Y-109449951D01*
X72499313Y-109380101D01*
X72529742Y-109330178D01*
X73451476Y-108408444D01*
X73512796Y-108374962D01*
X73582488Y-108379946D01*
X73623137Y-108410000D01*
X74526314Y-108410000D01*
X74500507Y-108450156D01*
X74460000Y-108588111D01*
X74460000Y-108731889D01*
X74500507Y-108869844D01*
X74526314Y-108910000D01*
X73629364Y-108910000D01*
X73686569Y-109123492D01*
X73786399Y-109337576D01*
X73921893Y-109531081D01*
X74088918Y-109698106D01*
X74274595Y-109828119D01*
X74318219Y-109882696D01*
X74325412Y-109952195D01*
X74293890Y-110014549D01*
X74274595Y-110031269D01*
X74088595Y-110161508D01*
X73921505Y-110328598D01*
X73785965Y-110522170D01*
X73686097Y-110736336D01*
X73624936Y-110964592D01*
X73604340Y-111200000D01*
X73624936Y-111435407D01*
X73631740Y-111460798D01*
X73686097Y-111663663D01*
X73785965Y-111877830D01*
X73921505Y-112071401D01*
X74088599Y-112238495D01*
X74282170Y-112374035D01*
X74496337Y-112473903D01*
X74708059Y-112530633D01*
X74724592Y-112535063D01*
X74959999Y-112555659D01*
X74959999Y-112555658D01*
X74960000Y-112555659D01*
X75195408Y-112535063D01*
X75423663Y-112473903D01*
X75637830Y-112374035D01*
X75831401Y-112238495D01*
X75998495Y-112071401D01*
X76128732Y-111885403D01*
X76183307Y-111841780D01*
X76252805Y-111834586D01*
X76315160Y-111866109D01*
X76331880Y-111885404D01*
X76461893Y-112071081D01*
X76628918Y-112238106D01*
X76822423Y-112373600D01*
X77036509Y-112473430D01*
X77250000Y-112530634D01*
X77250000Y-111635501D01*
X77357685Y-111684680D01*
X77464237Y-111700000D01*
X77535763Y-111700000D01*
X77642315Y-111684680D01*
X77750000Y-111635501D01*
X77750000Y-112530633D01*
X77963490Y-112473430D01*
X78177576Y-112373600D01*
X78371081Y-112238106D01*
X78538106Y-112071081D01*
X78673600Y-111877576D01*
X78773430Y-111663492D01*
X78830636Y-111450000D01*
X77933686Y-111450000D01*
X77959493Y-111409844D01*
X78000000Y-111271889D01*
X78000000Y-111128111D01*
X77959493Y-110990156D01*
X77933686Y-110950000D01*
X78830636Y-110950000D01*
X78830635Y-110949999D01*
X78773430Y-110736507D01*
X78673599Y-110522421D01*
X78538109Y-110328921D01*
X78371081Y-110161893D01*
X78185404Y-110031880D01*
X78141780Y-109977303D01*
X78134587Y-109907804D01*
X78166109Y-109845450D01*
X78185399Y-109828734D01*
X78371401Y-109698495D01*
X78538495Y-109531401D01*
X78674035Y-109337830D01*
X78773903Y-109123663D01*
X78835063Y-108895408D01*
X78855659Y-108660000D01*
X78835063Y-108424592D01*
X78773903Y-108196337D01*
X78674035Y-107982171D01*
X78538495Y-107788599D01*
X78371401Y-107621505D01*
X78185839Y-107491573D01*
X78142216Y-107436998D01*
X78135022Y-107367500D01*
X78166545Y-107305145D01*
X78185837Y-107288428D01*
X78371401Y-107158495D01*
X78538495Y-106991401D01*
X78674035Y-106797830D01*
X78773903Y-106583663D01*
X78835063Y-106355408D01*
X78855659Y-106120000D01*
X78835063Y-105884592D01*
X78773903Y-105656337D01*
X78674035Y-105442171D01*
X78538495Y-105248599D01*
X78371401Y-105081505D01*
X78185839Y-104951573D01*
X78142215Y-104896997D01*
X78135023Y-104827498D01*
X78166545Y-104765144D01*
X78185831Y-104748432D01*
X78371401Y-104618495D01*
X78538495Y-104451401D01*
X78674035Y-104257830D01*
X78773903Y-104043663D01*
X78835063Y-103815408D01*
X78855659Y-103580000D01*
X78835063Y-103344592D01*
X78773903Y-103116337D01*
X78674035Y-102902171D01*
X78538495Y-102708599D01*
X78371401Y-102541505D01*
X78185402Y-102411267D01*
X78141780Y-102356692D01*
X78134587Y-102287193D01*
X78166109Y-102224839D01*
X78185405Y-102208119D01*
X78371078Y-102078109D01*
X78538106Y-101911081D01*
X78673600Y-101717576D01*
X78773430Y-101503492D01*
X78830636Y-101290000D01*
X77933686Y-101290000D01*
X77959493Y-101249844D01*
X78000000Y-101111889D01*
X78000000Y-100968111D01*
X77959493Y-100830156D01*
X77933686Y-100790000D01*
X78830636Y-100790000D01*
X78830635Y-100789999D01*
X78773430Y-100576507D01*
X78673599Y-100362421D01*
X78538109Y-100168921D01*
X78371081Y-100001893D01*
X78185404Y-99871880D01*
X78141780Y-99817303D01*
X78134587Y-99747804D01*
X78166109Y-99685450D01*
X78185399Y-99668734D01*
X78371401Y-99538495D01*
X78538495Y-99371401D01*
X78674035Y-99177830D01*
X78773903Y-98963663D01*
X78835063Y-98735408D01*
X78855659Y-98500000D01*
X78847834Y-98410567D01*
X78835063Y-98264592D01*
X78822713Y-98218502D01*
X78773903Y-98036337D01*
X78674035Y-97822171D01*
X78538495Y-97628599D01*
X78371401Y-97461505D01*
X78185839Y-97331573D01*
X78142216Y-97276998D01*
X78135022Y-97207500D01*
X78166545Y-97145145D01*
X78185837Y-97128428D01*
X78371401Y-96998495D01*
X78538495Y-96831401D01*
X78674035Y-96637830D01*
X78773903Y-96423663D01*
X78835063Y-96195408D01*
X78855659Y-95960000D01*
X78835063Y-95724592D01*
X78773903Y-95496337D01*
X78674035Y-95282171D01*
X78538495Y-95088599D01*
X78371401Y-94921505D01*
X78185839Y-94791573D01*
X78142215Y-94736997D01*
X78135023Y-94667498D01*
X78166545Y-94605144D01*
X78185831Y-94588432D01*
X78371401Y-94458495D01*
X78538495Y-94291401D01*
X78674035Y-94097830D01*
X78773903Y-93883663D01*
X78835063Y-93655408D01*
X78855659Y-93420000D01*
X78835063Y-93184592D01*
X78773903Y-92956337D01*
X78674035Y-92742171D01*
X78538495Y-92548599D01*
X78371401Y-92381505D01*
X78185839Y-92251573D01*
X78142216Y-92196998D01*
X78135022Y-92127500D01*
X78166545Y-92065145D01*
X78185837Y-92048428D01*
X78371401Y-91918495D01*
X78538495Y-91751401D01*
X78674035Y-91557830D01*
X78773903Y-91343663D01*
X78835063Y-91115408D01*
X78855659Y-90880000D01*
X78835063Y-90644592D01*
X78773903Y-90416337D01*
X78674035Y-90202171D01*
X78538495Y-90008599D01*
X78371401Y-89841505D01*
X78185402Y-89711267D01*
X78141780Y-89656692D01*
X78134587Y-89587193D01*
X78166109Y-89524839D01*
X78185405Y-89508119D01*
X78371078Y-89378109D01*
X78538106Y-89211081D01*
X78673600Y-89017576D01*
X78773430Y-88803492D01*
X78830636Y-88590000D01*
X77933686Y-88590000D01*
X77959493Y-88549844D01*
X78000000Y-88411889D01*
X78000000Y-88268111D01*
X77959493Y-88130156D01*
X77933686Y-88090000D01*
X78830636Y-88090000D01*
X78830635Y-88089999D01*
X78773430Y-87876507D01*
X78673599Y-87662421D01*
X78538109Y-87468921D01*
X78371081Y-87301893D01*
X78185404Y-87171880D01*
X78141780Y-87117303D01*
X78134587Y-87047804D01*
X78166109Y-86985450D01*
X78185399Y-86968734D01*
X78371401Y-86838495D01*
X78538495Y-86671401D01*
X78674035Y-86477830D01*
X78773903Y-86263663D01*
X78835063Y-86035408D01*
X78855659Y-85800000D01*
X78835063Y-85564592D01*
X78773903Y-85336337D01*
X78674035Y-85122171D01*
X78538495Y-84928599D01*
X78371401Y-84761505D01*
X78185839Y-84631573D01*
X78142216Y-84576998D01*
X78135022Y-84507500D01*
X78166545Y-84445145D01*
X78185837Y-84428428D01*
X78371401Y-84298495D01*
X78538495Y-84131401D01*
X78674035Y-83937830D01*
X78773903Y-83723663D01*
X78835063Y-83495408D01*
X78855659Y-83260000D01*
X78835063Y-83024592D01*
X78773903Y-82796337D01*
X78674035Y-82582171D01*
X78538495Y-82388599D01*
X78371401Y-82221505D01*
X78185839Y-82091573D01*
X78142216Y-82036998D01*
X78135022Y-81967500D01*
X78166545Y-81905145D01*
X78185837Y-81888428D01*
X78371401Y-81758495D01*
X78538495Y-81591401D01*
X78674035Y-81397830D01*
X78773903Y-81183663D01*
X78835063Y-80955408D01*
X78855659Y-80720000D01*
X78850409Y-80659999D01*
X78835063Y-80484592D01*
X78821322Y-80433310D01*
X78773903Y-80256337D01*
X78674035Y-80042171D01*
X78538495Y-79848599D01*
X78371401Y-79681505D01*
X78177830Y-79545965D01*
X77963663Y-79446097D01*
X77902502Y-79429709D01*
X77735407Y-79384936D01*
X77499999Y-79364340D01*
X77264592Y-79384936D01*
X77036336Y-79446097D01*
X76822170Y-79545965D01*
X76628601Y-79681503D01*
X76506673Y-79803431D01*
X76445350Y-79836915D01*
X76375658Y-79831931D01*
X76319725Y-79790059D01*
X76302810Y-79759082D01*
X76295658Y-79739907D01*
X76253796Y-79627669D01*
X76167546Y-79512454D01*
X76052331Y-79426204D01*
X75917483Y-79375909D01*
X75857873Y-79369500D01*
X75854550Y-79369500D01*
X74065439Y-79369500D01*
X74065420Y-79369500D01*
X74062128Y-79369501D01*
X74058848Y-79369853D01*
X74058840Y-79369854D01*
X74002515Y-79375909D01*
X73867669Y-79426204D01*
X73752454Y-79512454D01*
X73666204Y-79627668D01*
X73615907Y-79762520D01*
X73612012Y-79798755D01*
X73585274Y-79863306D01*
X73527882Y-79903154D01*
X73488723Y-79909500D01*
X72654831Y-79909500D01*
X72587792Y-79889815D01*
X72542037Y-79837011D01*
X72530831Y-79785500D01*
X72530830Y-78430439D01*
X72530830Y-78427128D01*
X72524422Y-78367517D01*
X72474127Y-78232669D01*
X72387877Y-78117454D01*
X72272662Y-78031204D01*
X72137814Y-77980909D01*
X72078204Y-77974500D01*
X72074881Y-77974500D01*
X70385770Y-77974500D01*
X70385751Y-77974500D01*
X70382459Y-77974501D01*
X70379179Y-77974853D01*
X70379171Y-77974854D01*
X70322846Y-77980909D01*
X70188000Y-78031204D01*
X70072785Y-78117454D01*
X69986535Y-78232668D01*
X69936241Y-78367515D01*
X69936240Y-78367517D01*
X69929831Y-78427127D01*
X69929831Y-78430448D01*
X69929831Y-78430449D01*
X69929831Y-79769558D01*
X69910146Y-79836597D01*
X69857342Y-79882352D01*
X69788184Y-79892296D01*
X69724628Y-79863271D01*
X69704255Y-79840679D01*
X69690378Y-79820860D01*
X69529471Y-79659953D01*
X69343066Y-79529432D01*
X69136828Y-79433261D01*
X68917020Y-79374364D01*
X68690331Y-79354531D01*
X68463641Y-79374364D01*
X68243833Y-79433261D01*
X68037595Y-79529432D01*
X67851190Y-79659953D01*
X67690284Y-79820859D01*
X67559763Y-80007264D01*
X67463592Y-80213502D01*
X67404695Y-80433310D01*
X67384862Y-80659999D01*
X67404695Y-80886689D01*
X67463592Y-81106497D01*
X67559763Y-81312735D01*
X67690284Y-81499140D01*
X67851190Y-81660046D01*
X68037595Y-81790567D01*
X68037596Y-81790567D01*
X68037597Y-81790568D01*
X68243835Y-81886739D01*
X68357873Y-81917295D01*
X68387467Y-81925225D01*
X68447127Y-81961590D01*
X68477656Y-82024437D01*
X68469361Y-82093813D01*
X68424876Y-82147691D01*
X68387467Y-82164775D01*
X68243833Y-82203261D01*
X68037595Y-82299432D01*
X67851190Y-82429953D01*
X67690284Y-82590859D01*
X67559763Y-82777264D01*
X67463592Y-82983502D01*
X67404695Y-83203310D01*
X67384862Y-83430000D01*
X67404695Y-83656689D01*
X67463592Y-83876497D01*
X67559763Y-84082735D01*
X67690284Y-84269140D01*
X67851190Y-84430046D01*
X68037595Y-84560567D01*
X68037596Y-84560567D01*
X68037597Y-84560568D01*
X68243835Y-84656739D01*
X68388431Y-84695483D01*
X68448092Y-84731848D01*
X68478621Y-84794695D01*
X68470326Y-84864070D01*
X68425841Y-84917948D01*
X68388433Y-84935033D01*
X68244002Y-84973734D01*
X68037847Y-85069865D01*
X67964858Y-85120973D01*
X67964857Y-85120973D01*
X68557798Y-85713913D01*
X68548016Y-85715320D01*
X68417231Y-85775048D01*
X68308570Y-85869202D01*
X68230838Y-85990156D01*
X68207254Y-86070476D01*
X67611304Y-85474526D01*
X67611304Y-85474527D01*
X67560196Y-85547516D01*
X67464064Y-85753672D01*
X67405189Y-85973397D01*
X67385364Y-86200000D01*
X67405189Y-86426602D01*
X67464064Y-86646326D01*
X67560197Y-86852484D01*
X67611303Y-86925471D01*
X67611305Y-86925472D01*
X68207253Y-86329523D01*
X68230838Y-86409844D01*
X68308570Y-86530798D01*
X68417231Y-86624952D01*
X68548016Y-86684680D01*
X68557797Y-86686086D01*
X67964857Y-87279025D01*
X67964857Y-87279026D01*
X68037846Y-87330133D01*
X68244004Y-87426266D01*
X68388432Y-87464966D01*
X68448092Y-87501331D01*
X68478621Y-87564178D01*
X68470326Y-87633554D01*
X68425841Y-87687432D01*
X68388432Y-87704516D01*
X68243833Y-87743261D01*
X68037595Y-87839432D01*
X67851190Y-87969953D01*
X67690284Y-88130859D01*
X67559763Y-88317264D01*
X67463592Y-88523502D01*
X67404695Y-88743310D01*
X67384862Y-88969999D01*
X67404695Y-89196689D01*
X67463592Y-89416497D01*
X67559763Y-89622735D01*
X67690284Y-89809140D01*
X67851190Y-89970046D01*
X68037595Y-90100567D01*
X68037596Y-90100567D01*
X68037597Y-90100568D01*
X68243835Y-90196739D01*
X68351173Y-90225500D01*
X68387467Y-90235225D01*
X68447127Y-90271590D01*
X68477656Y-90334437D01*
X68469361Y-90403813D01*
X68424876Y-90457691D01*
X68387467Y-90474775D01*
X68243833Y-90513261D01*
X68037595Y-90609432D01*
X67851190Y-90739953D01*
X67690284Y-90900859D01*
X67559763Y-91087264D01*
X67463592Y-91293502D01*
X67404695Y-91513310D01*
X67384862Y-91740000D01*
X67404695Y-91966689D01*
X67463592Y-92186497D01*
X67559763Y-92392735D01*
X67690284Y-92579140D01*
X67851190Y-92740046D01*
X68037595Y-92870567D01*
X68037596Y-92870567D01*
X68037597Y-92870568D01*
X68243835Y-92966739D01*
X68357873Y-92997295D01*
X68387467Y-93005225D01*
X68447127Y-93041590D01*
X68477656Y-93104437D01*
X68469361Y-93173813D01*
X68424876Y-93227691D01*
X68387467Y-93244775D01*
X68243833Y-93283261D01*
X68037595Y-93379432D01*
X67851190Y-93509953D01*
X67690284Y-93670859D01*
X67559763Y-93857264D01*
X67463592Y-94063502D01*
X67404695Y-94283310D01*
X67384862Y-94509999D01*
X67404695Y-94736689D01*
X67463592Y-94956497D01*
X67559763Y-95162735D01*
X67690284Y-95349140D01*
X67851190Y-95510046D01*
X68037595Y-95640567D01*
X68037596Y-95640567D01*
X68037597Y-95640568D01*
X68243835Y-95736739D01*
X68357873Y-95767295D01*
X68387467Y-95775225D01*
X68447127Y-95811590D01*
X68477656Y-95874437D01*
X68469361Y-95943813D01*
X68424876Y-95997691D01*
X68387467Y-96014775D01*
X68243833Y-96053261D01*
X68037595Y-96149432D01*
X67851190Y-96279953D01*
X67690284Y-96440859D01*
X67559763Y-96627264D01*
X67463592Y-96833502D01*
X67404695Y-97053310D01*
X67384862Y-97280000D01*
X67404695Y-97506689D01*
X67463592Y-97726497D01*
X67559763Y-97932735D01*
X67690284Y-98119140D01*
X67851190Y-98280046D01*
X68037595Y-98410567D01*
X68037596Y-98410567D01*
X68037597Y-98410568D01*
X68243835Y-98506739D01*
X68357873Y-98537295D01*
X68387467Y-98545225D01*
X68447127Y-98581590D01*
X68477656Y-98644437D01*
X68469361Y-98713813D01*
X68424876Y-98767691D01*
X68387467Y-98784775D01*
X68243833Y-98823261D01*
X68037595Y-98919432D01*
X67851190Y-99049953D01*
X67690284Y-99210859D01*
X67559763Y-99397264D01*
X67463592Y-99603502D01*
X67404695Y-99823310D01*
X67384862Y-100049999D01*
X67404695Y-100276689D01*
X67463592Y-100496497D01*
X67559763Y-100702735D01*
X67690284Y-100889140D01*
X67851190Y-101050046D01*
X68037595Y-101180567D01*
X68037596Y-101180567D01*
X68037597Y-101180568D01*
X68243835Y-101276739D01*
X68388431Y-101315483D01*
X68448092Y-101351848D01*
X68478621Y-101414695D01*
X68470326Y-101484070D01*
X68425841Y-101537948D01*
X68388433Y-101555033D01*
X68244002Y-101593734D01*
X68037847Y-101689865D01*
X67964858Y-101740973D01*
X67964857Y-101740973D01*
X68557798Y-102333913D01*
X68548016Y-102335320D01*
X68417231Y-102395048D01*
X68308570Y-102489202D01*
X68230838Y-102610156D01*
X68207254Y-102690476D01*
X67611304Y-102094526D01*
X67611304Y-102094527D01*
X67560196Y-102167516D01*
X67464064Y-102373672D01*
X67405189Y-102593397D01*
X67385364Y-102820000D01*
X67405189Y-103046602D01*
X67464064Y-103266326D01*
X67560197Y-103472484D01*
X67611303Y-103545471D01*
X67611305Y-103545472D01*
X68207253Y-102949523D01*
X68230838Y-103029844D01*
X68308570Y-103150798D01*
X68417231Y-103244952D01*
X68548016Y-103304680D01*
X68557797Y-103306086D01*
X67964857Y-103899025D01*
X67964857Y-103899026D01*
X68037846Y-103950133D01*
X68244004Y-104046266D01*
X68388432Y-104084966D01*
X68448092Y-104121331D01*
X68478621Y-104184178D01*
X68470326Y-104253554D01*
X68425841Y-104307432D01*
X68388432Y-104324516D01*
X68243833Y-104363261D01*
X68037595Y-104459432D01*
X67851190Y-104589953D01*
X67690284Y-104750859D01*
X67559763Y-104937264D01*
X67463592Y-105143502D01*
X67404695Y-105363310D01*
X67384862Y-105590000D01*
X67404695Y-105816689D01*
X67463592Y-106036497D01*
X67559763Y-106242735D01*
X67690284Y-106429140D01*
X67851190Y-106590046D01*
X68037595Y-106720567D01*
X68037596Y-106720567D01*
X68037597Y-106720568D01*
X68243835Y-106816739D01*
X68357873Y-106847295D01*
X68387467Y-106855225D01*
X68447127Y-106891590D01*
X68477656Y-106954437D01*
X68469361Y-107023813D01*
X68424876Y-107077691D01*
X68387467Y-107094775D01*
X68243833Y-107133261D01*
X68037595Y-107229432D01*
X67851190Y-107359953D01*
X67690284Y-107520859D01*
X67559763Y-107707264D01*
X67463592Y-107913502D01*
X67404695Y-108133310D01*
X67384862Y-108360000D01*
X60000500Y-108360000D01*
X60000500Y-72299999D01*
X67644591Y-72299999D01*
X67664197Y-72561627D01*
X67722580Y-72817418D01*
X67817426Y-73059080D01*
X67818432Y-73061643D01*
X67949614Y-73288857D01*
X68113195Y-73493981D01*
X68113197Y-73493983D01*
X68113198Y-73493984D01*
X68305514Y-73672428D01*
X68305520Y-73672432D01*
X68305521Y-73672433D01*
X68522296Y-73820228D01*
X68758677Y-73934063D01*
X69009385Y-74011396D01*
X69268818Y-74050500D01*
X69531182Y-74050500D01*
X69790615Y-74011396D01*
X70041323Y-73934063D01*
X70277704Y-73820228D01*
X70494479Y-73672433D01*
X70494482Y-73672429D01*
X70494485Y-73672428D01*
X70579792Y-73593273D01*
X70686805Y-73493981D01*
X70850386Y-73288857D01*
X70981568Y-73061643D01*
X71077420Y-72817416D01*
X71135802Y-72561630D01*
X71155408Y-72300000D01*
X71135802Y-72038370D01*
X71077420Y-71782584D01*
X70981568Y-71538357D01*
X70850386Y-71311143D01*
X70686805Y-71106019D01*
X70686801Y-71106015D01*
X70494485Y-70927571D01*
X70477170Y-70915766D01*
X70277704Y-70779772D01*
X70041323Y-70665937D01*
X69790615Y-70588604D01*
X69531182Y-70549500D01*
X69268818Y-70549500D01*
X69009385Y-70588604D01*
X68758677Y-70665937D01*
X68522296Y-70779772D01*
X68514791Y-70784889D01*
X68305514Y-70927571D01*
X68113198Y-71106015D01*
X67949613Y-71311143D01*
X67818431Y-71538358D01*
X67722580Y-71782581D01*
X67664197Y-72038372D01*
X67644591Y-72299999D01*
X60000500Y-72299999D01*
X60000500Y-67500000D01*
X69790327Y-67500000D01*
X69796154Y-67577765D01*
X69794038Y-67587649D01*
X69798845Y-67618768D01*
X69799949Y-67628404D01*
X69800218Y-67631984D01*
X69800567Y-67641275D01*
X69800567Y-67667620D01*
X69803748Y-67679095D01*
X69809340Y-67753716D01*
X69827398Y-67832832D01*
X69826714Y-67843980D01*
X69836759Y-67875721D01*
X69839423Y-67885517D01*
X69840366Y-67889645D01*
X69842027Y-67898331D01*
X69845735Y-67922337D01*
X69850005Y-67931875D01*
X69865957Y-68001768D01*
X69896768Y-68080272D01*
X69897845Y-68092431D01*
X69913308Y-68123660D01*
X69917611Y-68133379D01*
X69919633Y-68138531D01*
X69922426Y-68146420D01*
X69929015Y-68167242D01*
X69933857Y-68174774D01*
X69958910Y-68238607D01*
X69978007Y-68271683D01*
X70002674Y-68314408D01*
X70005791Y-68327258D01*
X70026603Y-68356846D01*
X70032564Y-68366180D01*
X70036357Y-68372749D01*
X70040097Y-68379733D01*
X70048489Y-68396683D01*
X70053385Y-68402242D01*
X70086125Y-68458949D01*
X70112666Y-68492231D01*
X70142690Y-68529879D01*
X70148061Y-68543035D01*
X70173939Y-68569925D01*
X70181535Y-68578590D01*
X70188031Y-68586736D01*
X70192502Y-68592702D01*
X70201385Y-68605332D01*
X70205850Y-68609080D01*
X70244758Y-68657869D01*
X70244760Y-68657871D01*
X70244761Y-68657872D01*
X70313624Y-68721768D01*
X70321390Y-68734806D01*
X70351842Y-68758019D01*
X70361014Y-68765739D01*
X70371309Y-68775292D01*
X70376308Y-68780201D01*
X70384152Y-68788351D01*
X70387748Y-68790545D01*
X70431267Y-68830924D01*
X70511544Y-68885656D01*
X70521766Y-68898123D01*
X70556135Y-68916812D01*
X70566749Y-68923294D01*
X70582163Y-68933803D01*
X70587485Y-68937642D01*
X70592549Y-68941502D01*
X70594905Y-68942490D01*
X70641486Y-68974249D01*
X70731936Y-69017807D01*
X70744590Y-69029232D01*
X70782068Y-69042692D01*
X70793937Y-69047665D01*
X70815973Y-69058277D01*
X70821384Y-69061050D01*
X70821763Y-69061256D01*
X70822588Y-69061463D01*
X70870718Y-69084641D01*
X70969736Y-69115184D01*
X70984706Y-69125094D01*
X71024368Y-69132786D01*
X71037288Y-69136021D01*
X71113843Y-69159635D01*
X71219517Y-69175562D01*
X71236597Y-69183504D01*
X71277445Y-69185070D01*
X71291176Y-69186364D01*
X71365429Y-69197556D01*
X71475545Y-69197556D01*
X71494449Y-69203107D01*
X71535447Y-69198374D01*
X71549668Y-69197556D01*
X71619858Y-69197556D01*
X71731952Y-69180660D01*
X71752312Y-69183446D01*
X71792402Y-69172429D01*
X71806770Y-69169383D01*
X71871445Y-69159635D01*
X71982879Y-69125261D01*
X72004251Y-69124971D01*
X72042397Y-69107871D01*
X72056572Y-69102531D01*
X72057644Y-69102200D01*
X72114570Y-69084641D01*
X72222569Y-69032631D01*
X72244458Y-69029027D01*
X72279687Y-69006213D01*
X72293274Y-68998581D01*
X72343802Y-68974249D01*
X72445544Y-68904882D01*
X72467405Y-68897812D01*
X72498816Y-68869819D01*
X72511458Y-68859942D01*
X72554021Y-68830924D01*
X72646680Y-68744948D01*
X72667938Y-68734352D01*
X72694744Y-68701848D01*
X72706061Y-68689851D01*
X72740530Y-68657869D01*
X72821382Y-68556482D01*
X72841447Y-68542398D01*
X72862979Y-68506181D01*
X72872609Y-68492245D01*
X72899163Y-68458949D01*
X72965637Y-68343812D01*
X72983918Y-68326381D01*
X72999657Y-68287331D01*
X73007271Y-68271699D01*
X73026378Y-68238607D01*
X73119331Y-68001766D01*
X73175947Y-67753717D01*
X73194960Y-67500000D01*
X73175947Y-67246283D01*
X73119331Y-66998234D01*
X73026378Y-66761393D01*
X73007278Y-66728311D01*
X72999658Y-66712670D01*
X72987116Y-66681552D01*
X72965639Y-66656190D01*
X72899163Y-66541051D01*
X72872621Y-66507768D01*
X72862981Y-66493821D01*
X72845688Y-66464734D01*
X72821384Y-66443519D01*
X72803741Y-66421395D01*
X72740530Y-66342131D01*
X72706070Y-66310157D01*
X72694750Y-66298156D01*
X72673056Y-66271850D01*
X72646680Y-66255051D01*
X72554023Y-66169077D01*
X72511468Y-66140064D01*
X72498820Y-66130183D01*
X72473210Y-66107359D01*
X72445546Y-66095118D01*
X72351118Y-66030739D01*
X72343802Y-66025751D01*
X72293295Y-66001428D01*
X72279694Y-65993789D01*
X72250759Y-65975050D01*
X72222569Y-65967368D01*
X72114573Y-65915360D01*
X72056573Y-65897469D01*
X72042401Y-65892129D01*
X72010849Y-65877985D01*
X71982881Y-65874738D01*
X71871447Y-65840365D01*
X71806783Y-65830618D01*
X71792409Y-65827571D01*
X71759014Y-65818394D01*
X71731953Y-65819339D01*
X71619859Y-65802444D01*
X71619858Y-65802444D01*
X71549663Y-65802444D01*
X71535443Y-65801626D01*
X71501060Y-65797656D01*
X71475544Y-65802444D01*
X71365429Y-65802444D01*
X71291195Y-65813633D01*
X71277463Y-65814927D01*
X71242963Y-65816249D01*
X71219519Y-65824436D01*
X71113841Y-65840365D01*
X71037316Y-65863970D01*
X71024376Y-65867211D01*
X70990659Y-65873750D01*
X70969738Y-65884815D01*
X70870721Y-65915358D01*
X70870718Y-65915359D01*
X70822589Y-65938536D01*
X70821945Y-65938642D01*
X70821346Y-65938968D01*
X70815927Y-65941744D01*
X70793965Y-65952321D01*
X70782075Y-65957303D01*
X70750011Y-65968818D01*
X70731938Y-65982191D01*
X70641486Y-66025751D01*
X70594906Y-66057508D01*
X70593062Y-66058104D01*
X70587458Y-66062376D01*
X70582140Y-66066211D01*
X70566758Y-66076698D01*
X70556146Y-66083179D01*
X70526553Y-66099271D01*
X70511547Y-66114341D01*
X70431268Y-66169074D01*
X70387748Y-66209455D01*
X70384892Y-66210878D01*
X70376298Y-66219808D01*
X70371295Y-66224721D01*
X70361017Y-66234257D01*
X70351852Y-66241971D01*
X70325464Y-66262086D01*
X70313627Y-66278229D01*
X70244757Y-66342131D01*
X70205850Y-66390919D01*
X70202240Y-66393452D01*
X70192499Y-66407301D01*
X70188027Y-66413269D01*
X70181547Y-66421395D01*
X70173944Y-66430069D01*
X70151385Y-66453509D01*
X70142692Y-66470117D01*
X70086125Y-66541050D01*
X70053385Y-66597757D01*
X70049326Y-66601626D01*
X70040094Y-66620273D01*
X70036356Y-66627252D01*
X70032569Y-66633811D01*
X70026607Y-66643148D01*
X70008355Y-66669096D01*
X70002675Y-66685589D01*
X69958909Y-66761394D01*
X69933858Y-66825224D01*
X69929705Y-66830579D01*
X69922424Y-66853586D01*
X69919629Y-66861480D01*
X69917609Y-66866626D01*
X69913308Y-66876336D01*
X69899675Y-66903870D01*
X69896770Y-66919722D01*
X69865957Y-66998234D01*
X69865957Y-66998236D01*
X69850005Y-67068124D01*
X69846140Y-67075033D01*
X69842025Y-67101672D01*
X69840370Y-67110332D01*
X69839429Y-67114455D01*
X69836760Y-67124275D01*
X69827851Y-67152427D01*
X69827398Y-67167167D01*
X69809340Y-67246283D01*
X69803748Y-67320904D01*
X69800567Y-67329344D01*
X69800567Y-67358724D01*
X69800218Y-67368020D01*
X69799949Y-67371598D01*
X69798845Y-67381228D01*
X69794559Y-67408979D01*
X69796155Y-67422234D01*
X69790327Y-67500000D01*
X60000500Y-67500000D01*
X60000500Y-60100000D01*
X67890327Y-60100000D01*
X67896154Y-60177765D01*
X67894038Y-60187649D01*
X67898845Y-60218768D01*
X67899949Y-60228404D01*
X67900218Y-60231984D01*
X67900567Y-60241275D01*
X67900567Y-60267620D01*
X67903748Y-60279095D01*
X67909340Y-60353716D01*
X67927398Y-60432832D01*
X67926714Y-60443980D01*
X67936759Y-60475721D01*
X67939423Y-60485517D01*
X67940366Y-60489645D01*
X67942027Y-60498331D01*
X67945735Y-60522337D01*
X67950005Y-60531875D01*
X67965957Y-60601768D01*
X67996768Y-60680272D01*
X67997845Y-60692431D01*
X68013308Y-60723660D01*
X68017611Y-60733379D01*
X68019633Y-60738531D01*
X68022426Y-60746420D01*
X68029015Y-60767242D01*
X68033857Y-60774774D01*
X68058910Y-60838607D01*
X68078007Y-60871683D01*
X68102674Y-60914408D01*
X68105791Y-60927258D01*
X68126603Y-60956846D01*
X68132564Y-60966180D01*
X68136357Y-60972749D01*
X68140097Y-60979733D01*
X68148489Y-60996683D01*
X68153385Y-61002242D01*
X68186125Y-61058949D01*
X68212666Y-61092231D01*
X68242690Y-61129879D01*
X68248061Y-61143035D01*
X68273939Y-61169925D01*
X68281535Y-61178590D01*
X68288031Y-61186736D01*
X68292502Y-61192702D01*
X68301385Y-61205332D01*
X68305850Y-61209080D01*
X68344758Y-61257869D01*
X68344760Y-61257871D01*
X68344761Y-61257872D01*
X68413624Y-61321768D01*
X68421390Y-61334806D01*
X68451842Y-61358019D01*
X68461014Y-61365739D01*
X68471309Y-61375292D01*
X68476308Y-61380201D01*
X68484152Y-61388351D01*
X68487748Y-61390545D01*
X68531267Y-61430924D01*
X68611544Y-61485656D01*
X68621766Y-61498123D01*
X68656135Y-61516812D01*
X68666749Y-61523294D01*
X68682163Y-61533803D01*
X68687485Y-61537642D01*
X68692549Y-61541502D01*
X68694905Y-61542490D01*
X68741486Y-61574249D01*
X68831936Y-61617807D01*
X68844590Y-61629232D01*
X68882068Y-61642692D01*
X68893937Y-61647665D01*
X68915973Y-61658277D01*
X68921384Y-61661050D01*
X68921763Y-61661256D01*
X68922588Y-61661463D01*
X68970718Y-61684641D01*
X69069736Y-61715184D01*
X69084706Y-61725094D01*
X69124368Y-61732786D01*
X69137288Y-61736021D01*
X69213843Y-61759635D01*
X69319517Y-61775562D01*
X69336597Y-61783504D01*
X69377445Y-61785070D01*
X69391176Y-61786364D01*
X69465429Y-61797556D01*
X69575545Y-61797556D01*
X69594449Y-61803107D01*
X69635447Y-61798374D01*
X69649668Y-61797556D01*
X69719858Y-61797556D01*
X69831952Y-61780660D01*
X69852312Y-61783446D01*
X69892402Y-61772429D01*
X69906770Y-61769383D01*
X69971445Y-61759635D01*
X70082879Y-61725261D01*
X70104251Y-61724971D01*
X70142397Y-61707871D01*
X70156572Y-61702531D01*
X70157644Y-61702200D01*
X70214570Y-61684641D01*
X70322569Y-61632631D01*
X70344458Y-61629027D01*
X70379687Y-61606213D01*
X70393274Y-61598581D01*
X70443802Y-61574249D01*
X70545544Y-61504882D01*
X70567405Y-61497812D01*
X70598816Y-61469819D01*
X70611458Y-61459942D01*
X70654021Y-61430924D01*
X70746680Y-61344948D01*
X70767938Y-61334352D01*
X70794744Y-61301848D01*
X70806061Y-61289851D01*
X70840530Y-61257869D01*
X70921382Y-61156482D01*
X70941447Y-61142398D01*
X70962979Y-61106181D01*
X70972609Y-61092245D01*
X70999163Y-61058949D01*
X71065637Y-60943812D01*
X71083918Y-60926381D01*
X71099657Y-60887331D01*
X71107271Y-60871699D01*
X71126378Y-60838607D01*
X71219331Y-60601766D01*
X71275947Y-60353717D01*
X71294960Y-60100000D01*
X71275947Y-59846283D01*
X71219331Y-59598234D01*
X71126378Y-59361393D01*
X71107278Y-59328311D01*
X71099658Y-59312670D01*
X71087116Y-59281552D01*
X71065639Y-59256190D01*
X70999163Y-59141051D01*
X70972621Y-59107768D01*
X70962981Y-59093821D01*
X70945688Y-59064734D01*
X70921384Y-59043519D01*
X70903741Y-59021395D01*
X70840530Y-58942131D01*
X70806070Y-58910157D01*
X70794750Y-58898156D01*
X70773056Y-58871850D01*
X70746680Y-58855051D01*
X70654023Y-58769077D01*
X70611468Y-58740064D01*
X70598820Y-58730183D01*
X70573210Y-58707359D01*
X70545546Y-58695118D01*
X70451118Y-58630739D01*
X70443802Y-58625751D01*
X70393295Y-58601428D01*
X70379694Y-58593789D01*
X70350759Y-58575050D01*
X70322569Y-58567368D01*
X70214573Y-58515360D01*
X70156573Y-58497469D01*
X70142401Y-58492129D01*
X70110849Y-58477985D01*
X70082881Y-58474738D01*
X69971447Y-58440365D01*
X69906783Y-58430618D01*
X69892409Y-58427571D01*
X69859014Y-58418394D01*
X69831953Y-58419339D01*
X69719859Y-58402444D01*
X69719858Y-58402444D01*
X69649663Y-58402444D01*
X69635443Y-58401626D01*
X69601060Y-58397656D01*
X69575544Y-58402444D01*
X69465429Y-58402444D01*
X69391195Y-58413633D01*
X69377463Y-58414927D01*
X69342963Y-58416249D01*
X69319519Y-58424436D01*
X69213841Y-58440365D01*
X69137316Y-58463970D01*
X69124376Y-58467211D01*
X69090659Y-58473750D01*
X69069738Y-58484815D01*
X68970721Y-58515358D01*
X68970718Y-58515359D01*
X68922589Y-58538536D01*
X68921945Y-58538642D01*
X68921346Y-58538968D01*
X68915927Y-58541744D01*
X68893965Y-58552321D01*
X68882075Y-58557303D01*
X68850011Y-58568818D01*
X68831938Y-58582191D01*
X68741486Y-58625751D01*
X68694906Y-58657508D01*
X68693062Y-58658104D01*
X68687458Y-58662376D01*
X68682140Y-58666211D01*
X68666758Y-58676698D01*
X68656146Y-58683179D01*
X68626553Y-58699271D01*
X68611547Y-58714341D01*
X68531268Y-58769074D01*
X68487748Y-58809455D01*
X68484892Y-58810878D01*
X68476298Y-58819808D01*
X68471295Y-58824721D01*
X68461017Y-58834257D01*
X68451852Y-58841971D01*
X68425464Y-58862086D01*
X68413627Y-58878229D01*
X68344757Y-58942131D01*
X68305850Y-58990919D01*
X68302240Y-58993452D01*
X68292499Y-59007301D01*
X68288027Y-59013269D01*
X68281547Y-59021395D01*
X68273944Y-59030069D01*
X68251385Y-59053509D01*
X68242692Y-59070117D01*
X68186125Y-59141050D01*
X68153385Y-59197757D01*
X68149326Y-59201626D01*
X68140094Y-59220273D01*
X68136356Y-59227252D01*
X68132569Y-59233811D01*
X68126607Y-59243148D01*
X68108355Y-59269096D01*
X68102675Y-59285589D01*
X68058909Y-59361394D01*
X68033858Y-59425224D01*
X68029705Y-59430579D01*
X68022424Y-59453586D01*
X68019629Y-59461480D01*
X68017609Y-59466626D01*
X68013308Y-59476336D01*
X67999675Y-59503870D01*
X67996770Y-59519722D01*
X67965957Y-59598234D01*
X67965957Y-59598236D01*
X67950005Y-59668124D01*
X67946140Y-59675033D01*
X67942025Y-59701672D01*
X67940370Y-59710332D01*
X67939429Y-59714455D01*
X67936760Y-59724275D01*
X67927851Y-59752427D01*
X67927398Y-59767167D01*
X67909340Y-59846283D01*
X67903748Y-59920904D01*
X67900567Y-59929344D01*
X67900567Y-59958724D01*
X67900218Y-59968020D01*
X67899949Y-59971598D01*
X67898845Y-59981228D01*
X67894559Y-60008979D01*
X67896155Y-60022234D01*
X67890327Y-60100000D01*
X60000500Y-60100000D01*
X60000500Y-51524500D01*
X60020185Y-51457461D01*
X60072989Y-51411706D01*
X60124500Y-51400500D01*
X75375500Y-51400500D01*
X75442539Y-51420185D01*
G37*
%TD.AperFunction*%
%TD*%
M02*
