%TF.GenerationSoftware,KiCad,Pcbnew,7.0.2-0*%
%TF.CreationDate,2023-09-18T20:01:19+02:00*%
%TF.ProjectId,FlukePodAdapter,466c756b-6550-46f6-9441-646170746572,rev?*%
%TF.SameCoordinates,Original*%
%TF.FileFunction,Copper,L2,Bot*%
%TF.FilePolarity,Positive*%
%FSLAX46Y46*%
G04 Gerber Fmt 4.6, Leading zero omitted, Abs format (unit mm)*
G04 Created by KiCad (PCBNEW 7.0.2-0) date 2023-09-18 20:01:19*
%MOMM*%
%LPD*%
G01*
G04 APERTURE LIST*
%TA.AperFunction,ComponentPad*%
%ADD10O,1.700000X1.700000*%
%TD*%
%TA.AperFunction,ComponentPad*%
%ADD11R,1.700000X1.700000*%
%TD*%
%TA.AperFunction,ComponentPad*%
%ADD12R,1.600000X1.600000*%
%TD*%
%TA.AperFunction,ComponentPad*%
%ADD13C,1.600000*%
%TD*%
G04 APERTURE END LIST*
D10*
%TO.P,A23-J1,1*%
%TO.N,N/C*%
X77500000Y-80720000D03*
%TO.P,A23-J1,2,+5V*%
%TO.N,+5V*%
X77500000Y-83260000D03*
%TO.P,A23-J1,3*%
%TO.N,N/C*%
X77500000Y-85800000D03*
%TO.P,A23-J1,4,+5RET*%
%TO.N,GND*%
X77500000Y-88340000D03*
%TO.P,A23-J1,5,POD6*%
%TO.N,POD6*%
X77500000Y-90880000D03*
%TO.P,A23-J1,6,POD4*%
%TO.N,POD4*%
X77500000Y-93420000D03*
%TO.P,A23-J1,7,POD2*%
%TO.N,POD2*%
X77500000Y-95960000D03*
%TO.P,A23-J1,8,POD0*%
%TO.N,POD0*%
X77500000Y-98500000D03*
%TO.P,A23-J1,9,~{PODprsnt}*%
%TO.N,GND*%
X77500000Y-101040000D03*
%TO.P,A23-J1,10,~{SYNC}*%
%TO.N,~{PODSYNC}*%
X77500000Y-103580000D03*
%TO.P,A23-J1,11,PWRFAIL*%
%TO.N,PODPWRFAIL*%
X77500000Y-106120000D03*
%TO.P,A23-J1,12,~{MAINSTAT}*%
%TO.N,~{MAINSTAT}*%
X77500000Y-108660000D03*
%TO.P,A23-J1,13,+12RET*%
%TO.N,GND*%
X77500000Y-111200000D03*
D11*
%TO.P,A23-J1,14,+12V*%
%TO.N,+12V*%
X74960000Y-80720000D03*
D10*
%TO.P,A23-J1,15,+5V*%
%TO.N,+5V*%
X74960000Y-83260000D03*
%TO.P,A23-J1,16,+5RET*%
%TO.N,GND*%
X74960000Y-85800000D03*
%TO.P,A23-J1,17,POD7*%
%TO.N,POD7*%
X74960000Y-88340000D03*
%TO.P,A23-J1,18,POD5*%
%TO.N,POD5*%
X74960000Y-90880000D03*
%TO.P,A23-J1,19,POD3*%
%TO.N,POD3*%
X74960000Y-93420000D03*
%TO.P,A23-J1,20,POD1*%
%TO.N,POD1*%
X74960000Y-95960000D03*
%TO.P,A23-J1,21,-5V*%
%TO.N,-5V*%
X74960000Y-98500000D03*
%TO.P,A23-J1,22,SncShld*%
%TO.N,GND*%
X74960000Y-101040000D03*
%TO.P,A23-J1,23,~{9010RST}*%
%TO.N,~{PODRESET}*%
X74960000Y-103580000D03*
%TO.P,A23-J1,24,~{PODSTAT}*%
%TO.N,~{PODSTAT}*%
X74960000Y-106120000D03*
%TO.P,A23-J1,25,-5RET*%
%TO.N,GND*%
X74960000Y-108660000D03*
%TO.P,A23-J1,26*%
%TO.N,N/C*%
X74960000Y-111200000D03*
%TD*%
D12*
%TO.P,J1,1,1*%
%TO.N,unconnected-(J1-Pad1)*%
X71230331Y-79275000D03*
D13*
%TO.P,J1,2,2*%
%TO.N,+5V*%
X71230331Y-82045000D03*
%TO.P,J1,3,3*%
%TO.N,GND*%
X71230331Y-84815000D03*
%TO.P,J1,4,4*%
X71230331Y-87585000D03*
%TO.P,J1,5,5*%
%TO.N,POD6*%
X71230331Y-90355000D03*
%TO.P,J1,6,6*%
%TO.N,POD4*%
X71230331Y-93125000D03*
%TO.P,J1,7,7*%
%TO.N,POD2*%
X71230331Y-95895000D03*
%TO.P,J1,8,8*%
%TO.N,POD0*%
X71230331Y-98665000D03*
%TO.P,J1,9,9*%
%TO.N,GND*%
X71230331Y-101435000D03*
%TO.P,J1,10,10*%
%TO.N,~{PODSYNC}*%
X71230331Y-104205000D03*
%TO.P,J1,11,11*%
%TO.N,PODPWRFAIL*%
X71230331Y-106975000D03*
%TO.P,J1,12,12*%
%TO.N,~{MAINSTAT}*%
X71230331Y-109745000D03*
%TO.P,J1,13,13*%
%TO.N,GND*%
X71230331Y-112515000D03*
%TO.P,J1,14,P14*%
%TO.N,+12V*%
X68690331Y-80660000D03*
%TO.P,J1,15,P15*%
%TO.N,+5V*%
X68690331Y-83430000D03*
%TO.P,J1,16,P16*%
%TO.N,GND*%
X68690331Y-86200000D03*
%TO.P,J1,17,P17*%
%TO.N,POD7*%
X68690331Y-88970000D03*
%TO.P,J1,18,P18*%
%TO.N,POD5*%
X68690331Y-91740000D03*
%TO.P,J1,19,P19*%
%TO.N,POD3*%
X68690331Y-94510000D03*
%TO.P,J1,20,P20*%
%TO.N,POD1*%
X68690331Y-97280000D03*
%TO.P,J1,21,P21*%
%TO.N,-5V*%
X68690331Y-100050000D03*
%TO.P,J1,22,P22*%
%TO.N,GND*%
X68690331Y-102820000D03*
%TO.P,J1,23,P23*%
%TO.N,~{PODRESET}*%
X68690331Y-105590000D03*
%TO.P,J1,24,P24*%
%TO.N,~{PODSTAT}*%
X68690331Y-108360000D03*
%TO.P,J1,25,P25*%
%TO.N,GND*%
X68690331Y-111130000D03*
%TD*%
M02*
