%TF.GenerationSoftware,KiCad,Pcbnew,7.0.2-0*%
%TF.CreationDate,2023-09-18T20:01:19+02:00*%
%TF.ProjectId,FlukePodAdapter,466c756b-6550-46f6-9441-646170746572,rev?*%
%TF.SameCoordinates,Original*%
%TF.FileFunction,Legend,Top*%
%TF.FilePolarity,Positive*%
%FSLAX46Y46*%
G04 Gerber Fmt 4.6, Leading zero omitted, Abs format (unit mm)*
G04 Created by KiCad (PCBNEW 7.0.2-0) date 2023-09-18 20:01:19*
%MOMM*%
%LPD*%
G01*
G04 APERTURE LIST*
%ADD10C,0.150000*%
%ADD11C,0.120000*%
G04 APERTURE END LIST*
D10*
%TO.C,A23-J1*%
X80576904Y-100066666D02*
X80576904Y-99590476D01*
X80862619Y-100161904D02*
X79862619Y-99828571D01*
X79862619Y-99828571D02*
X80862619Y-99495238D01*
X79957857Y-99209523D02*
X79910238Y-99161904D01*
X79910238Y-99161904D02*
X79862619Y-99066666D01*
X79862619Y-99066666D02*
X79862619Y-98828571D01*
X79862619Y-98828571D02*
X79910238Y-98733333D01*
X79910238Y-98733333D02*
X79957857Y-98685714D01*
X79957857Y-98685714D02*
X80053095Y-98638095D01*
X80053095Y-98638095D02*
X80148333Y-98638095D01*
X80148333Y-98638095D02*
X80291190Y-98685714D01*
X80291190Y-98685714D02*
X80862619Y-99257142D01*
X80862619Y-99257142D02*
X80862619Y-98638095D01*
X79862619Y-98304761D02*
X79862619Y-97685714D01*
X79862619Y-97685714D02*
X80243571Y-98019047D01*
X80243571Y-98019047D02*
X80243571Y-97876190D01*
X80243571Y-97876190D02*
X80291190Y-97780952D01*
X80291190Y-97780952D02*
X80338809Y-97733333D01*
X80338809Y-97733333D02*
X80434047Y-97685714D01*
X80434047Y-97685714D02*
X80672142Y-97685714D01*
X80672142Y-97685714D02*
X80767380Y-97733333D01*
X80767380Y-97733333D02*
X80815000Y-97780952D01*
X80815000Y-97780952D02*
X80862619Y-97876190D01*
X80862619Y-97876190D02*
X80862619Y-98161904D01*
X80862619Y-98161904D02*
X80815000Y-98257142D01*
X80815000Y-98257142D02*
X80767380Y-98304761D01*
X80481666Y-97257142D02*
X80481666Y-96495238D01*
X79862619Y-95733333D02*
X80576904Y-95733333D01*
X80576904Y-95733333D02*
X80719761Y-95780952D01*
X80719761Y-95780952D02*
X80815000Y-95876190D01*
X80815000Y-95876190D02*
X80862619Y-96019047D01*
X80862619Y-96019047D02*
X80862619Y-96114285D01*
X80862619Y-94733333D02*
X80862619Y-95304761D01*
X80862619Y-95019047D02*
X79862619Y-95019047D01*
X79862619Y-95019047D02*
X80005476Y-95114285D01*
X80005476Y-95114285D02*
X80100714Y-95209523D01*
X80100714Y-95209523D02*
X80148333Y-95304761D01*
%TO.C,J1*%
X72492950Y-96228333D02*
X73207235Y-96228333D01*
X73207235Y-96228333D02*
X73350092Y-96275952D01*
X73350092Y-96275952D02*
X73445331Y-96371190D01*
X73445331Y-96371190D02*
X73492950Y-96514047D01*
X73492950Y-96514047D02*
X73492950Y-96609285D01*
X73492950Y-95228333D02*
X73492950Y-95799761D01*
X73492950Y-95514047D02*
X72492950Y-95514047D01*
X72492950Y-95514047D02*
X72635807Y-95609285D01*
X72635807Y-95609285D02*
X72731045Y-95704523D01*
X72731045Y-95704523D02*
X72778664Y-95799761D01*
D11*
%TO.C,A23-J1*%
X73630000Y-79390000D02*
X74960000Y-79390000D01*
X73630000Y-80720000D02*
X73630000Y-79390000D01*
X73630000Y-81990000D02*
X73630000Y-112530000D01*
X73630000Y-81990000D02*
X76230000Y-81990000D01*
X73630000Y-112530000D02*
X78830000Y-112530000D01*
X76230000Y-79390000D02*
X78830000Y-79390000D01*
X76230000Y-81990000D02*
X76230000Y-79390000D01*
X78830000Y-79390000D02*
X78830000Y-112530000D01*
%TO.C,J1*%
X63450331Y-76285000D02*
X63450331Y-78215000D01*
X59350331Y-76285000D02*
X63450331Y-76285000D01*
X72290331Y-78215000D02*
X72290331Y-113575000D01*
X63450331Y-78215000D02*
X72290331Y-78215000D01*
X72984669Y-79025000D02*
X72984669Y-79525000D01*
X72551656Y-79275000D02*
X72984669Y-79025000D01*
X72984669Y-79525000D02*
X72551656Y-79275000D01*
X72290331Y-113575000D02*
X63450331Y-113575000D01*
X63450331Y-113575000D02*
X63450331Y-115505000D01*
X63450331Y-115505000D02*
X59350331Y-115505000D01*
%TD*%
M02*
