M48
; DRILL file {KiCad (7.0.0-0)} date Saturday, 11 March 2023 at 12:41:49
; FORMAT={-:-/ absolute / inch / decimal}
; #@! TF.CreationDate,2023-03-11T12:41:49+01:00
; #@! TF.GenerationSoftware,Kicad,Pcbnew,(7.0.0-0)
; #@! TF.FileFunction,Plated,1,2,PTH
FMAT,2
INCH
; #@! TA.AperFunction,Plated,PTH,ComponentDrill
T1C0.0315
; #@! TA.AperFunction,Plated,PTH,ComponentDrill
T2C0.0394
%
G90
G05
T1
X4.8507Y-2.315
X4.8507Y-2.415
X4.8507Y-2.515
X4.8507Y-2.615
X4.8507Y-2.715
X4.8507Y-2.815
X4.8507Y-2.915
X4.8507Y-3.015
X4.8507Y-3.115
X4.8507Y-3.215
X4.8507Y-3.315
X4.8507Y-3.415
X4.8507Y-3.515
X4.8507Y-3.615
X4.8507Y-3.715
X4.8507Y-3.815
X4.8507Y-3.915
X4.8507Y-4.015
X4.8507Y-4.115
X4.8507Y-4.215
X4.8507Y-4.315
X4.8507Y-4.415
X4.8507Y-4.515
X4.8507Y-4.615
X4.8507Y-4.715
X4.8507Y-4.815
X4.8507Y-4.915
X4.8507Y-5.015
X4.8507Y-5.115
X4.8507Y-5.215
X4.8507Y-5.315
X4.8507Y-5.415
X5.7507Y-2.315
X5.7507Y-2.415
X5.7507Y-2.515
X5.7507Y-2.615
X5.7507Y-2.715
X5.7507Y-2.815
X5.7507Y-2.915
X5.7507Y-3.015
X5.7507Y-3.115
X5.7507Y-3.215
X5.7507Y-3.315
X5.7507Y-3.415
X5.7507Y-3.515
X5.7507Y-3.615
X5.7507Y-3.715
X5.7507Y-3.815
X5.7507Y-3.915
X5.7507Y-4.015
X5.7507Y-4.115
X5.7507Y-4.215
X5.7507Y-4.315
X5.7507Y-4.415
X5.7507Y-4.515
X5.7507Y-4.615
X5.7507Y-4.715
X5.7507Y-4.815
X5.7507Y-4.915
X5.7507Y-5.015
X5.7507Y-5.115
X5.7507Y-5.215
X5.7507Y-5.315
X5.7507Y-5.415
T2
X5.0323Y-2.315
X5.0323Y-2.415
X5.0323Y-2.515
X5.0323Y-2.615
X5.0323Y-2.715
X5.0323Y-2.815
X5.0323Y-2.915
X5.0323Y-3.015
X5.0323Y-3.115
X5.0323Y-3.215
X5.0323Y-3.315
X5.0323Y-3.415
X5.0323Y-3.515
X5.0323Y-3.615
X5.0323Y-3.715
X5.0323Y-3.815
X5.0323Y-3.915
X5.0323Y-4.015
X5.0323Y-4.115
X5.0323Y-4.215
X5.0323Y-4.315
X5.0323Y-4.415
X5.0323Y-4.515
X5.0323Y-4.615
X5.0323Y-4.715
X5.0323Y-4.815
X5.0323Y-4.915
X5.0323Y-5.015
X5.0323Y-5.115
X5.0323Y-5.215
X5.0323Y-5.315
X5.0323Y-5.415
X5.1323Y-2.315
X5.1323Y-2.415
X5.1323Y-2.515
X5.1323Y-2.615
X5.1323Y-2.715
X5.1323Y-2.815
X5.1323Y-2.915
X5.1323Y-3.015
X5.1323Y-3.115
X5.1323Y-3.215
X5.1323Y-3.315
X5.1323Y-3.415
X5.1323Y-3.515
X5.1323Y-3.615
X5.1323Y-3.715
X5.1323Y-3.815
X5.1323Y-3.915
X5.1323Y-4.015
X5.1323Y-4.115
X5.1323Y-4.215
X5.1323Y-4.315
X5.1323Y-4.415
X5.1323Y-4.515
X5.1323Y-4.615
X5.1323Y-4.715
X5.1323Y-4.815
X5.1323Y-4.915
X5.1323Y-5.015
X5.1323Y-5.115
X5.1323Y-5.215
X5.1323Y-5.315
X5.1323Y-5.415
X5.4906Y-2.315
X5.4906Y-2.415
X5.4906Y-2.515
X5.4906Y-2.615
X5.4906Y-2.715
X5.4906Y-2.815
X5.4906Y-2.915
X5.4906Y-3.015
X5.4906Y-3.115
X5.4906Y-3.215
X5.4906Y-3.315
X5.4906Y-3.415
X5.4906Y-3.515
X5.4906Y-3.615
X5.4906Y-3.715
X5.4906Y-3.815
X5.4906Y-3.915
X5.4906Y-4.015
X5.4906Y-4.115
X5.4906Y-4.215
X5.4906Y-4.315
X5.4906Y-4.415
X5.4906Y-4.515
X5.4906Y-4.615
X5.4906Y-4.715
X5.4906Y-4.815
X5.4906Y-4.915
X5.4906Y-5.015
X5.4906Y-5.115
X5.4906Y-5.215
X5.4906Y-5.315
X5.4906Y-5.415
X5.5906Y-2.315
X5.5906Y-2.415
X5.5906Y-2.515
X5.5906Y-2.615
X5.5906Y-2.715
X5.5906Y-2.815
X5.5906Y-2.915
X5.5906Y-3.015
X5.5906Y-3.115
X5.5906Y-3.215
X5.5906Y-3.315
X5.5906Y-3.415
X5.5906Y-3.515
X5.5906Y-3.615
X5.5906Y-3.715
X5.5906Y-3.815
X5.5906Y-3.915
X5.5906Y-4.015
X5.5906Y-4.115
X5.5906Y-4.215
X5.5906Y-4.315
X5.5906Y-4.415
X5.5906Y-4.515
X5.5906Y-4.615
X5.5906Y-4.715
X5.5906Y-4.815
X5.5906Y-4.915
X5.5906Y-5.015
X5.5906Y-5.115
X5.5906Y-5.215
X5.5906Y-5.315
X5.5906Y-5.415
T0
M30
