M48
; DRILL file {KiCad 7.0.2-0} date 2023 October 04, Wednesday 23:27:49
; FORMAT={-:-/ absolute / inch / decimal}
; #@! TF.CreationDate,2023-10-04T23:27:49+02:00
; #@! TF.GenerationSoftware,Kicad,Pcbnew,7.0.2-0
; #@! TF.FileFunction,Plated,1,2,PTH
FMAT,2
INCH
; #@! TA.AperFunction,Plated,PTH,ComponentDrill
T1C0.0197
; #@! TA.AperFunction,Plated,PTH,ComponentDrill
T2C0.0394
%
G90
G05
T1
X3.0906Y-5.2067
X3.1004Y-2.3819
T2
X2.8071Y-2.815
X2.8071Y-2.915
X2.8071Y-3.015
X2.8071Y-3.115
X2.8071Y-3.215
X2.8071Y-3.315
X2.8071Y-3.415
X2.8071Y-3.515
X2.8071Y-3.615
X2.8071Y-3.715
X2.8071Y-3.815
X2.8071Y-3.915
X2.8071Y-4.015
X2.8071Y-4.115
X2.8071Y-4.215
X2.8071Y-4.315
X2.8071Y-4.415
X2.8071Y-4.515
X2.8071Y-4.615
X2.8071Y-4.715
X2.9071Y-2.815
X2.9071Y-2.915
X2.9071Y-3.015
X2.9071Y-3.115
X2.9071Y-3.215
X2.9071Y-3.315
X2.9071Y-3.415
X2.9071Y-3.515
X2.9071Y-3.615
X2.9071Y-3.715
X2.9071Y-3.815
X2.9071Y-3.915
X2.9071Y-4.015
X2.9071Y-4.115
X2.9071Y-4.215
X2.9071Y-4.315
X2.9071Y-4.415
X2.9071Y-4.515
X2.9071Y-4.615
X2.9071Y-4.715
X3.124Y-2.815
X3.124Y-2.915
X3.124Y-3.015
X3.124Y-3.115
X3.124Y-3.215
X3.124Y-3.315
X3.124Y-3.415
X3.124Y-3.515
X3.124Y-3.615
X3.124Y-3.715
X3.124Y-3.815
X3.124Y-3.915
X3.124Y-4.015
X3.124Y-4.115
X3.124Y-4.215
X3.124Y-4.315
X3.124Y-4.415
X3.124Y-4.515
X3.124Y-4.615
X3.124Y-4.715
X3.224Y-2.815
X3.224Y-2.915
X3.224Y-3.015
X3.224Y-3.115
X3.224Y-3.215
X3.224Y-3.315
X3.224Y-3.415
X3.224Y-3.515
X3.224Y-3.615
X3.224Y-3.715
X3.224Y-3.815
X3.224Y-3.915
X3.224Y-4.015
X3.224Y-4.115
X3.224Y-4.215
X3.224Y-4.315
X3.224Y-4.415
X3.224Y-4.515
X3.224Y-4.615
X3.224Y-4.715
X3.439Y-2.815
X3.439Y-2.915
X3.439Y-3.015
X3.439Y-3.115
X3.439Y-3.215
X3.439Y-3.315
X3.439Y-3.415
X3.439Y-3.515
X3.439Y-3.615
X3.439Y-3.715
X3.439Y-3.815
X3.439Y-3.915
X3.439Y-4.015
X3.439Y-4.115
X3.439Y-4.215
X3.439Y-4.315
X3.439Y-4.415
X3.439Y-4.515
X3.439Y-4.615
X3.439Y-4.715
X3.539Y-2.815
X3.539Y-2.915
X3.539Y-3.015
X3.539Y-3.115
X3.539Y-3.215
X3.539Y-3.315
X3.539Y-3.415
X3.539Y-3.515
X3.539Y-3.615
X3.539Y-3.715
X3.539Y-3.815
X3.539Y-3.915
X3.539Y-4.015
X3.539Y-4.115
X3.539Y-4.215
X3.539Y-4.315
X3.539Y-4.415
X3.539Y-4.515
X3.539Y-4.615
X3.539Y-4.715
T0
M30
