G04 #@! TF.GenerationSoftware,KiCad,Pcbnew,(5.1.5-0-10_14)*
G04 #@! TF.CreationDate,2021-04-13T14:10:52+02:00*
G04 #@! TF.ProjectId,UUT_Cable_Header,5555545f-4361-4626-9c65-5f4865616465,rev?*
G04 #@! TF.SameCoordinates,Original*
G04 #@! TF.FileFunction,Legend,Top*
G04 #@! TF.FilePolarity,Positive*
%FSLAX46Y46*%
G04 Gerber Fmt 4.6, Leading zero omitted, Abs format (unit mm)*
G04 Created by KiCad (PCBNEW (5.1.5-0-10_14)) date 2021-04-13 14:10:52*
%MOMM*%
%LPD*%
G04 APERTURE LIST*
%ADD10C,0.200000*%
%ADD11C,0.120000*%
G04 APERTURE END LIST*
D10*
X122466285Y-54443380D02*
X122237714Y-54443380D01*
X122123428Y-54491000D01*
X122066285Y-54538619D01*
X121952000Y-54681476D01*
X121894857Y-54871952D01*
X121894857Y-55252904D01*
X121952000Y-55348142D01*
X122009142Y-55395761D01*
X122123428Y-55443380D01*
X122352000Y-55443380D01*
X122466285Y-55395761D01*
X122523428Y-55348142D01*
X122580571Y-55252904D01*
X122580571Y-55014809D01*
X122523428Y-54919571D01*
X122466285Y-54871952D01*
X122352000Y-54824333D01*
X122123428Y-54824333D01*
X122009142Y-54871952D01*
X121952000Y-54919571D01*
X121894857Y-55014809D01*
X123266285Y-54871952D02*
X123152000Y-54824333D01*
X123094857Y-54776714D01*
X123037714Y-54681476D01*
X123037714Y-54633857D01*
X123094857Y-54538619D01*
X123152000Y-54491000D01*
X123266285Y-54443380D01*
X123494857Y-54443380D01*
X123609142Y-54491000D01*
X123666285Y-54538619D01*
X123723428Y-54633857D01*
X123723428Y-54681476D01*
X123666285Y-54776714D01*
X123609142Y-54824333D01*
X123494857Y-54871952D01*
X123266285Y-54871952D01*
X123152000Y-54919571D01*
X123094857Y-54967190D01*
X123037714Y-55062428D01*
X123037714Y-55252904D01*
X123094857Y-55348142D01*
X123152000Y-55395761D01*
X123266285Y-55443380D01*
X123494857Y-55443380D01*
X123609142Y-55395761D01*
X123666285Y-55348142D01*
X123723428Y-55252904D01*
X123723428Y-55062428D01*
X123666285Y-54967190D01*
X123609142Y-54919571D01*
X123494857Y-54871952D01*
X124466285Y-54443380D02*
X124580571Y-54443380D01*
X124694857Y-54491000D01*
X124752000Y-54538619D01*
X124809142Y-54633857D01*
X124866285Y-54824333D01*
X124866285Y-55062428D01*
X124809142Y-55252904D01*
X124752000Y-55348142D01*
X124694857Y-55395761D01*
X124580571Y-55443380D01*
X124466285Y-55443380D01*
X124352000Y-55395761D01*
X124294857Y-55348142D01*
X124237714Y-55252904D01*
X124180571Y-55062428D01*
X124180571Y-54824333D01*
X124237714Y-54633857D01*
X124294857Y-54538619D01*
X124352000Y-54491000D01*
X124466285Y-54443380D01*
X125437714Y-55443380D02*
X125666285Y-55443380D01*
X125780571Y-55395761D01*
X125837714Y-55348142D01*
X125952000Y-55205285D01*
X126009142Y-55014809D01*
X126009142Y-54633857D01*
X125952000Y-54538619D01*
X125894857Y-54491000D01*
X125780571Y-54443380D01*
X125552000Y-54443380D01*
X125437714Y-54491000D01*
X125380571Y-54538619D01*
X125323428Y-54633857D01*
X125323428Y-54871952D01*
X125380571Y-54967190D01*
X125437714Y-55014809D01*
X125552000Y-55062428D01*
X125780571Y-55062428D01*
X125894857Y-55014809D01*
X125952000Y-54967190D01*
X126009142Y-54871952D01*
D11*
X136127000Y-56582000D02*
X130667000Y-56582000D01*
X136127000Y-107502000D02*
X136127000Y-56582000D01*
X123207000Y-107502000D02*
X136127000Y-107502000D01*
X123207000Y-56582000D02*
X123207000Y-107502000D01*
X128667000Y-56582000D02*
X123207000Y-56582000D01*
X130667000Y-56582000D02*
G75*
G02X128667000Y-56582000I-1000000J0D01*
G01*
X123003000Y-56582000D02*
X125603000Y-56582000D01*
X123003000Y-56582000D02*
X123003000Y-107502000D01*
X123003000Y-107502000D02*
X128203000Y-107502000D01*
X128203000Y-59182000D02*
X128203000Y-107502000D01*
X125603000Y-59182000D02*
X128203000Y-59182000D01*
X125603000Y-56582000D02*
X125603000Y-59182000D01*
X128203000Y-56582000D02*
X128203000Y-57912000D01*
X126873000Y-56582000D02*
X128203000Y-56582000D01*
X135001000Y-56582000D02*
X136331000Y-56582000D01*
X136331000Y-56582000D02*
X136331000Y-57912000D01*
X133731000Y-56582000D02*
X133731000Y-59182000D01*
X133731000Y-59182000D02*
X136331000Y-59182000D01*
X136331000Y-59182000D02*
X136331000Y-107502000D01*
X131131000Y-107502000D02*
X136331000Y-107502000D01*
X131131000Y-56582000D02*
X131131000Y-107502000D01*
X131131000Y-56582000D02*
X133731000Y-56582000D01*
M02*
