M48
; DRILL file {KiCad (5.1.5-0-10_14)} date Tuesday, 13 April 2021 at 14:10:49
; FORMAT={-:-/ absolute / inch / decimal}
; #@! TF.CreationDate,2021-04-13T14:10:49+02:00
; #@! TF.GenerationSoftware,Kicad,Pcbnew,(5.1.5-0-10_14)
; #@! TF.FileFunction,Plated,1,2,PTH
FMAT,2
INCH
T1C0.0315
T2C0.0394
%
G90
G05
T1
X4.805Y-2.28
X4.805Y-2.38
X4.805Y-2.48
X4.805Y-2.58
X4.805Y-2.68
X4.805Y-2.78
X4.805Y-2.88
X4.805Y-2.98
X4.805Y-3.08
X4.805Y-3.18
X4.805Y-3.28
X4.805Y-3.38
X4.805Y-3.48
X4.805Y-3.58
X4.805Y-3.68
X4.805Y-3.78
X4.805Y-3.88
X4.805Y-3.98
X4.805Y-4.08
X4.805Y-4.18
X5.405Y-2.28
X5.405Y-2.38
X5.405Y-2.48
X5.405Y-2.58
X5.405Y-2.68
X5.405Y-2.78
X5.405Y-2.88
X5.405Y-2.98
X5.405Y-3.08
X5.405Y-3.18
X5.405Y-3.28
X5.405Y-3.38
X5.405Y-3.48
X5.405Y-3.58
X5.405Y-3.68
X5.405Y-3.78
X5.405Y-3.88
X5.405Y-3.98
X5.405Y-4.08
X5.405Y-4.18
T2
X5.215Y-2.28
X5.215Y-2.38
X5.215Y-2.48
X5.215Y-2.58
X5.215Y-2.68
X5.215Y-2.78
X5.215Y-2.88
X5.215Y-2.98
X5.215Y-3.08
X5.215Y-3.18
X5.215Y-3.28
X5.215Y-3.38
X5.215Y-3.48
X5.215Y-3.58
X5.215Y-3.68
X5.215Y-3.78
X5.215Y-3.88
X5.215Y-3.98
X5.215Y-4.08
X5.215Y-4.18
X5.315Y-2.28
X5.315Y-2.38
X5.315Y-2.48
X5.315Y-2.58
X5.315Y-2.68
X5.315Y-2.78
X5.315Y-2.88
X5.315Y-2.98
X5.315Y-3.08
X5.315Y-3.18
X5.315Y-3.28
X5.315Y-3.38
X5.315Y-3.48
X5.315Y-3.58
X5.315Y-3.68
X5.315Y-3.78
X5.315Y-3.88
X5.315Y-3.98
X5.315Y-4.08
X5.315Y-4.18
X4.895Y-2.28
X4.895Y-2.38
X4.895Y-2.48
X4.895Y-2.58
X4.895Y-2.68
X4.895Y-2.78
X4.895Y-2.88
X4.895Y-2.98
X4.895Y-3.08
X4.895Y-3.18
X4.895Y-3.28
X4.895Y-3.38
X4.895Y-3.48
X4.895Y-3.58
X4.895Y-3.68
X4.895Y-3.78
X4.895Y-3.88
X4.895Y-3.98
X4.895Y-4.08
X4.895Y-4.18
X4.995Y-2.28
X4.995Y-2.38
X4.995Y-2.48
X4.995Y-2.58
X4.995Y-2.68
X4.995Y-2.78
X4.995Y-2.88
X4.995Y-2.98
X4.995Y-3.08
X4.995Y-3.18
X4.995Y-3.28
X4.995Y-3.38
X4.995Y-3.48
X4.995Y-3.58
X4.995Y-3.68
X4.995Y-3.78
X4.995Y-3.88
X4.995Y-3.98
X4.995Y-4.08
X4.995Y-4.18
T0
M30
