G04 #@! TF.GenerationSoftware,KiCad,Pcbnew,(5.1.5-0-10_14)*
G04 #@! TF.CreationDate,2021-04-13T14:10:52+02:00*
G04 #@! TF.ProjectId,UUT_Cable_Header,5555545f-4361-4626-9c65-5f4865616465,rev?*
G04 #@! TF.SameCoordinates,Original*
G04 #@! TF.FileFunction,Copper,L1,Top*
G04 #@! TF.FilePolarity,Positive*
%FSLAX46Y46*%
G04 Gerber Fmt 4.6, Leading zero omitted, Abs format (unit mm)*
G04 Created by KiCad (PCBNEW (5.1.5-0-10_14)) date 2021-04-13 14:10:52*
%MOMM*%
%LPD*%
G04 APERTURE LIST*
%ADD10O,1.600000X1.600000*%
%ADD11R,1.600000X1.600000*%
%ADD12R,1.700000X1.700000*%
%ADD13O,1.700000X1.700000*%
%ADD14C,0.254000*%
G04 APERTURE END LIST*
D10*
X137287000Y-57912000D03*
X122047000Y-106172000D03*
X137287000Y-60452000D03*
X122047000Y-103632000D03*
X137287000Y-62992000D03*
X122047000Y-101092000D03*
X137287000Y-65532000D03*
X122047000Y-98552000D03*
X137287000Y-68072000D03*
X122047000Y-96012000D03*
X137287000Y-70612000D03*
X122047000Y-93472000D03*
X137287000Y-73152000D03*
X122047000Y-90932000D03*
X137287000Y-75692000D03*
X122047000Y-88392000D03*
X137287000Y-78232000D03*
X122047000Y-85852000D03*
X137287000Y-80772000D03*
X122047000Y-83312000D03*
X137287000Y-83312000D03*
X122047000Y-80772000D03*
X137287000Y-85852000D03*
X122047000Y-78232000D03*
X137287000Y-88392000D03*
X122047000Y-75692000D03*
X137287000Y-90932000D03*
X122047000Y-73152000D03*
X137287000Y-93472000D03*
X122047000Y-70612000D03*
X137287000Y-96012000D03*
X122047000Y-68072000D03*
X137287000Y-98552000D03*
X122047000Y-65532000D03*
X137287000Y-101092000D03*
X122047000Y-62992000D03*
X137287000Y-103632000D03*
X122047000Y-60452000D03*
X137287000Y-106172000D03*
D11*
X122047000Y-57912000D03*
D12*
X126873000Y-57912000D03*
D13*
X124333000Y-57912000D03*
X126873000Y-60452000D03*
X124333000Y-60452000D03*
X126873000Y-62992000D03*
X124333000Y-62992000D03*
X126873000Y-65532000D03*
X124333000Y-65532000D03*
X126873000Y-68072000D03*
X124333000Y-68072000D03*
X126873000Y-70612000D03*
X124333000Y-70612000D03*
X126873000Y-73152000D03*
X124333000Y-73152000D03*
X126873000Y-75692000D03*
X124333000Y-75692000D03*
X126873000Y-78232000D03*
X124333000Y-78232000D03*
X126873000Y-80772000D03*
X124333000Y-80772000D03*
X126873000Y-83312000D03*
X124333000Y-83312000D03*
X126873000Y-85852000D03*
X124333000Y-85852000D03*
X126873000Y-88392000D03*
X124333000Y-88392000D03*
X126873000Y-90932000D03*
X124333000Y-90932000D03*
X126873000Y-93472000D03*
X124333000Y-93472000D03*
X126873000Y-96012000D03*
X124333000Y-96012000D03*
X126873000Y-98552000D03*
X124333000Y-98552000D03*
X126873000Y-101092000D03*
X124333000Y-101092000D03*
X126873000Y-103632000D03*
X124333000Y-103632000D03*
X126873000Y-106172000D03*
X124333000Y-106172000D03*
X132461000Y-106172000D03*
X135001000Y-106172000D03*
X132461000Y-103632000D03*
X135001000Y-103632000D03*
X132461000Y-101092000D03*
X135001000Y-101092000D03*
X132461000Y-98552000D03*
X135001000Y-98552000D03*
X132461000Y-96012000D03*
X135001000Y-96012000D03*
X132461000Y-93472000D03*
X135001000Y-93472000D03*
X132461000Y-90932000D03*
X135001000Y-90932000D03*
X132461000Y-88392000D03*
X135001000Y-88392000D03*
X132461000Y-85852000D03*
X135001000Y-85852000D03*
X132461000Y-83312000D03*
X135001000Y-83312000D03*
X132461000Y-80772000D03*
X135001000Y-80772000D03*
X132461000Y-78232000D03*
X135001000Y-78232000D03*
X132461000Y-75692000D03*
X135001000Y-75692000D03*
X132461000Y-73152000D03*
X135001000Y-73152000D03*
X132461000Y-70612000D03*
X135001000Y-70612000D03*
X132461000Y-68072000D03*
X135001000Y-68072000D03*
X132461000Y-65532000D03*
X135001000Y-65532000D03*
X132461000Y-62992000D03*
X135001000Y-62992000D03*
X132461000Y-60452000D03*
X135001000Y-60452000D03*
X132461000Y-57912000D03*
D12*
X135001000Y-57912000D03*
D14*
G36*
X126638661Y-55617128D02*
G01*
X126641290Y-55625793D01*
X126667685Y-55675174D01*
X126678176Y-55696157D01*
X126682975Y-55703780D01*
X126702575Y-55740450D01*
X126717525Y-55758666D01*
X126730081Y-55778613D01*
X126758674Y-55808807D01*
X126785052Y-55840948D01*
X126803271Y-55855900D01*
X126819475Y-55873011D01*
X126853402Y-55897042D01*
X126885550Y-55923425D01*
X126906336Y-55934535D01*
X126925566Y-55948156D01*
X126963532Y-55965107D01*
X127000207Y-55984710D01*
X127022765Y-55991553D01*
X127044280Y-56001159D01*
X127084815Y-56010376D01*
X127124617Y-56022450D01*
X127148076Y-56024761D01*
X127171053Y-56029985D01*
X127212613Y-56031117D01*
X127221581Y-56032000D01*
X127245048Y-56032000D01*
X127301012Y-56033524D01*
X127309937Y-56032000D01*
X132278063Y-56032000D01*
X132286988Y-56033524D01*
X132342952Y-56032000D01*
X132366419Y-56032000D01*
X132375387Y-56031117D01*
X132416946Y-56029985D01*
X132439922Y-56024761D01*
X132463383Y-56022450D01*
X132503188Y-56010375D01*
X132543719Y-56001159D01*
X132565232Y-55991554D01*
X132587793Y-55984710D01*
X132624473Y-55965104D01*
X132662433Y-55948156D01*
X132681660Y-55934537D01*
X132702450Y-55923425D01*
X132734604Y-55897037D01*
X132768524Y-55873011D01*
X132784724Y-55855904D01*
X132802948Y-55840948D01*
X132829332Y-55808799D01*
X132857918Y-55778613D01*
X132870471Y-55758672D01*
X132885425Y-55740450D01*
X132905031Y-55703770D01*
X132909823Y-55696157D01*
X132920300Y-55675202D01*
X132946710Y-55625793D01*
X132949340Y-55617123D01*
X133503902Y-54508000D01*
X137182486Y-54508000D01*
X138024001Y-55181213D01*
X138024001Y-56678589D01*
X137966727Y-56640320D01*
X137705574Y-56532147D01*
X137428335Y-56477000D01*
X137145665Y-56477000D01*
X136868426Y-56532147D01*
X136607273Y-56640320D01*
X136414481Y-56769139D01*
X136381537Y-56707506D01*
X136302185Y-56610815D01*
X136205494Y-56531463D01*
X136095180Y-56472498D01*
X135975482Y-56436188D01*
X135851000Y-56423928D01*
X135286750Y-56427000D01*
X135128000Y-56585750D01*
X135128000Y-57785000D01*
X135148000Y-57785000D01*
X135148000Y-58039000D01*
X135128000Y-58039000D01*
X135128000Y-60325000D01*
X135148000Y-60325000D01*
X135148000Y-60579000D01*
X135128000Y-60579000D01*
X135128000Y-62865000D01*
X135148000Y-62865000D01*
X135148000Y-63119000D01*
X135128000Y-63119000D01*
X135128000Y-65405000D01*
X135148000Y-65405000D01*
X135148000Y-65659000D01*
X135128000Y-65659000D01*
X135128000Y-67945000D01*
X135148000Y-67945000D01*
X135148000Y-68199000D01*
X135128000Y-68199000D01*
X135128000Y-70485000D01*
X135148000Y-70485000D01*
X135148000Y-70739000D01*
X135128000Y-70739000D01*
X135128000Y-73025000D01*
X135148000Y-73025000D01*
X135148000Y-73279000D01*
X135128000Y-73279000D01*
X135128000Y-75565000D01*
X135148000Y-75565000D01*
X135148000Y-75819000D01*
X135128000Y-75819000D01*
X135128000Y-78105000D01*
X135148000Y-78105000D01*
X135148000Y-78359000D01*
X135128000Y-78359000D01*
X135128000Y-80645000D01*
X135148000Y-80645000D01*
X135148000Y-80899000D01*
X135128000Y-80899000D01*
X135128000Y-83185000D01*
X135148000Y-83185000D01*
X135148000Y-83439000D01*
X135128000Y-83439000D01*
X135128000Y-85725000D01*
X135148000Y-85725000D01*
X135148000Y-85979000D01*
X135128000Y-85979000D01*
X135128000Y-88265000D01*
X135148000Y-88265000D01*
X135148000Y-88519000D01*
X135128000Y-88519000D01*
X135128000Y-90805000D01*
X135148000Y-90805000D01*
X135148000Y-91059000D01*
X135128000Y-91059000D01*
X135128000Y-93345000D01*
X135148000Y-93345000D01*
X135148000Y-93599000D01*
X135128000Y-93599000D01*
X135128000Y-95885000D01*
X135148000Y-95885000D01*
X135148000Y-96139000D01*
X135128000Y-96139000D01*
X135128000Y-98425000D01*
X135148000Y-98425000D01*
X135148000Y-98679000D01*
X135128000Y-98679000D01*
X135128000Y-100965000D01*
X135148000Y-100965000D01*
X135148000Y-101219000D01*
X135128000Y-101219000D01*
X135128000Y-103505000D01*
X135148000Y-103505000D01*
X135148000Y-103759000D01*
X135128000Y-103759000D01*
X135128000Y-106045000D01*
X135148000Y-106045000D01*
X135148000Y-106299000D01*
X135128000Y-106299000D01*
X135128000Y-107492814D01*
X135357891Y-107613481D01*
X135632252Y-107516157D01*
X135882355Y-107367178D01*
X136098588Y-107172269D01*
X136167641Y-107079692D01*
X136172363Y-107086759D01*
X136372241Y-107286637D01*
X136607273Y-107443680D01*
X136868426Y-107551853D01*
X137145665Y-107607000D01*
X137428335Y-107607000D01*
X137705574Y-107551853D01*
X137966727Y-107443680D01*
X138024000Y-107405411D01*
X138024000Y-108902788D01*
X137182486Y-109576000D01*
X132995902Y-109576000D01*
X132441340Y-108466877D01*
X132438710Y-108458207D01*
X132412300Y-108408798D01*
X132401823Y-108387843D01*
X132397031Y-108380230D01*
X132377425Y-108343550D01*
X132362471Y-108325328D01*
X132349918Y-108305387D01*
X132321332Y-108275201D01*
X132294948Y-108243052D01*
X132276724Y-108228096D01*
X132260524Y-108210989D01*
X132226604Y-108186963D01*
X132194450Y-108160575D01*
X132173660Y-108149463D01*
X132154433Y-108135844D01*
X132116473Y-108118896D01*
X132079793Y-108099290D01*
X132057232Y-108092446D01*
X132035719Y-108082841D01*
X131995188Y-108073625D01*
X131955383Y-108061550D01*
X131931922Y-108059239D01*
X131908946Y-108054015D01*
X131867387Y-108052883D01*
X131858419Y-108052000D01*
X131834952Y-108052000D01*
X131778988Y-108050476D01*
X131770063Y-108052000D01*
X127309937Y-108052000D01*
X127301012Y-108050476D01*
X127245048Y-108052000D01*
X127221581Y-108052000D01*
X127212613Y-108052883D01*
X127171053Y-108054015D01*
X127148076Y-108059239D01*
X127124617Y-108061550D01*
X127084815Y-108073624D01*
X127044280Y-108082841D01*
X127022765Y-108092447D01*
X127000207Y-108099290D01*
X126963532Y-108118893D01*
X126925566Y-108135844D01*
X126906336Y-108149465D01*
X126885550Y-108160575D01*
X126853402Y-108186958D01*
X126819475Y-108210989D01*
X126803271Y-108228100D01*
X126785052Y-108243052D01*
X126758674Y-108275193D01*
X126730081Y-108305387D01*
X126717525Y-108325334D01*
X126702575Y-108343550D01*
X126682975Y-108380220D01*
X126678176Y-108387843D01*
X126667685Y-108408826D01*
X126641290Y-108458207D01*
X126638661Y-108466872D01*
X126084098Y-109576000D01*
X122151516Y-109576000D01*
X121310000Y-108902788D01*
X121310000Y-107405411D01*
X121367273Y-107443680D01*
X121628426Y-107551853D01*
X121905665Y-107607000D01*
X122188335Y-107607000D01*
X122465574Y-107551853D01*
X122726727Y-107443680D01*
X122961759Y-107286637D01*
X123159594Y-107088802D01*
X123179525Y-107118632D01*
X123386368Y-107325475D01*
X123629589Y-107487990D01*
X123899842Y-107599932D01*
X124186740Y-107657000D01*
X124479260Y-107657000D01*
X124766158Y-107599932D01*
X125036411Y-107487990D01*
X125279632Y-107325475D01*
X125486475Y-107118632D01*
X125604100Y-106942594D01*
X125775412Y-107172269D01*
X125991645Y-107367178D01*
X126241748Y-107516157D01*
X126516109Y-107613481D01*
X126746000Y-107492814D01*
X126746000Y-106299000D01*
X127000000Y-106299000D01*
X127000000Y-107492814D01*
X127229891Y-107613481D01*
X127504252Y-107516157D01*
X127754355Y-107367178D01*
X127970588Y-107172269D01*
X128144641Y-106938920D01*
X128269825Y-106676099D01*
X128314476Y-106528890D01*
X128193155Y-106299000D01*
X127000000Y-106299000D01*
X126746000Y-106299000D01*
X126726000Y-106299000D01*
X126726000Y-106045000D01*
X126746000Y-106045000D01*
X126746000Y-103759000D01*
X127000000Y-103759000D01*
X127000000Y-106045000D01*
X128193155Y-106045000D01*
X128314476Y-105815110D01*
X128269825Y-105667901D01*
X128144641Y-105405080D01*
X127970588Y-105171731D01*
X127754355Y-104976822D01*
X127628745Y-104902000D01*
X127754355Y-104827178D01*
X127970588Y-104632269D01*
X128144641Y-104398920D01*
X128269825Y-104136099D01*
X128314476Y-103988890D01*
X128193155Y-103759000D01*
X127000000Y-103759000D01*
X126746000Y-103759000D01*
X126726000Y-103759000D01*
X126726000Y-103505000D01*
X126746000Y-103505000D01*
X126746000Y-101219000D01*
X127000000Y-101219000D01*
X127000000Y-103505000D01*
X128193155Y-103505000D01*
X128314476Y-103275110D01*
X128269825Y-103127901D01*
X128144641Y-102865080D01*
X127970588Y-102631731D01*
X127754355Y-102436822D01*
X127628745Y-102362000D01*
X127754355Y-102287178D01*
X127970588Y-102092269D01*
X128144641Y-101858920D01*
X128269825Y-101596099D01*
X128314476Y-101448890D01*
X128193155Y-101219000D01*
X127000000Y-101219000D01*
X126746000Y-101219000D01*
X126726000Y-101219000D01*
X126726000Y-100965000D01*
X126746000Y-100965000D01*
X126746000Y-98679000D01*
X127000000Y-98679000D01*
X127000000Y-100965000D01*
X128193155Y-100965000D01*
X128314476Y-100735110D01*
X128269825Y-100587901D01*
X128144641Y-100325080D01*
X127970588Y-100091731D01*
X127754355Y-99896822D01*
X127628745Y-99822000D01*
X127754355Y-99747178D01*
X127970588Y-99552269D01*
X128144641Y-99318920D01*
X128269825Y-99056099D01*
X128314476Y-98908890D01*
X128193155Y-98679000D01*
X127000000Y-98679000D01*
X126746000Y-98679000D01*
X126726000Y-98679000D01*
X126726000Y-98425000D01*
X126746000Y-98425000D01*
X126746000Y-96139000D01*
X127000000Y-96139000D01*
X127000000Y-98425000D01*
X128193155Y-98425000D01*
X128314476Y-98195110D01*
X128269825Y-98047901D01*
X128144641Y-97785080D01*
X127970588Y-97551731D01*
X127754355Y-97356822D01*
X127628745Y-97282000D01*
X127754355Y-97207178D01*
X127970588Y-97012269D01*
X128144641Y-96778920D01*
X128269825Y-96516099D01*
X128314476Y-96368890D01*
X128193155Y-96139000D01*
X127000000Y-96139000D01*
X126746000Y-96139000D01*
X126726000Y-96139000D01*
X126726000Y-95885000D01*
X126746000Y-95885000D01*
X126746000Y-93599000D01*
X127000000Y-93599000D01*
X127000000Y-95885000D01*
X128193155Y-95885000D01*
X128314476Y-95655110D01*
X128269825Y-95507901D01*
X128144641Y-95245080D01*
X127970588Y-95011731D01*
X127754355Y-94816822D01*
X127628745Y-94742000D01*
X127754355Y-94667178D01*
X127970588Y-94472269D01*
X128144641Y-94238920D01*
X128269825Y-93976099D01*
X128314476Y-93828890D01*
X128193155Y-93599000D01*
X127000000Y-93599000D01*
X126746000Y-93599000D01*
X126726000Y-93599000D01*
X126726000Y-93345000D01*
X126746000Y-93345000D01*
X126746000Y-91059000D01*
X127000000Y-91059000D01*
X127000000Y-93345000D01*
X128193155Y-93345000D01*
X128314476Y-93115110D01*
X128269825Y-92967901D01*
X128144641Y-92705080D01*
X127970588Y-92471731D01*
X127754355Y-92276822D01*
X127628745Y-92202000D01*
X127754355Y-92127178D01*
X127970588Y-91932269D01*
X128144641Y-91698920D01*
X128269825Y-91436099D01*
X128314476Y-91288890D01*
X128193155Y-91059000D01*
X127000000Y-91059000D01*
X126746000Y-91059000D01*
X126726000Y-91059000D01*
X126726000Y-90805000D01*
X126746000Y-90805000D01*
X126746000Y-88519000D01*
X127000000Y-88519000D01*
X127000000Y-90805000D01*
X128193155Y-90805000D01*
X128314476Y-90575110D01*
X128269825Y-90427901D01*
X128144641Y-90165080D01*
X127970588Y-89931731D01*
X127754355Y-89736822D01*
X127628745Y-89662000D01*
X127754355Y-89587178D01*
X127970588Y-89392269D01*
X128144641Y-89158920D01*
X128269825Y-88896099D01*
X128314476Y-88748890D01*
X128193155Y-88519000D01*
X127000000Y-88519000D01*
X126746000Y-88519000D01*
X126726000Y-88519000D01*
X126726000Y-88265000D01*
X126746000Y-88265000D01*
X126746000Y-85979000D01*
X127000000Y-85979000D01*
X127000000Y-88265000D01*
X128193155Y-88265000D01*
X128314476Y-88035110D01*
X128269825Y-87887901D01*
X128144641Y-87625080D01*
X127970588Y-87391731D01*
X127754355Y-87196822D01*
X127628745Y-87122000D01*
X127754355Y-87047178D01*
X127970588Y-86852269D01*
X128144641Y-86618920D01*
X128269825Y-86356099D01*
X128314476Y-86208890D01*
X128193155Y-85979000D01*
X127000000Y-85979000D01*
X126746000Y-85979000D01*
X126726000Y-85979000D01*
X126726000Y-85725000D01*
X126746000Y-85725000D01*
X126746000Y-83439000D01*
X127000000Y-83439000D01*
X127000000Y-85725000D01*
X128193155Y-85725000D01*
X128314476Y-85495110D01*
X128269825Y-85347901D01*
X128144641Y-85085080D01*
X127970588Y-84851731D01*
X127754355Y-84656822D01*
X127628745Y-84582000D01*
X127754355Y-84507178D01*
X127970588Y-84312269D01*
X128144641Y-84078920D01*
X128269825Y-83816099D01*
X128314476Y-83668890D01*
X128193155Y-83439000D01*
X127000000Y-83439000D01*
X126746000Y-83439000D01*
X126726000Y-83439000D01*
X126726000Y-83185000D01*
X126746000Y-83185000D01*
X126746000Y-80899000D01*
X127000000Y-80899000D01*
X127000000Y-83185000D01*
X128193155Y-83185000D01*
X128314476Y-82955110D01*
X128269825Y-82807901D01*
X128144641Y-82545080D01*
X127970588Y-82311731D01*
X127754355Y-82116822D01*
X127628745Y-82042000D01*
X127754355Y-81967178D01*
X127970588Y-81772269D01*
X128144641Y-81538920D01*
X128269825Y-81276099D01*
X128314476Y-81128890D01*
X128193155Y-80899000D01*
X127000000Y-80899000D01*
X126746000Y-80899000D01*
X126726000Y-80899000D01*
X126726000Y-80645000D01*
X126746000Y-80645000D01*
X126746000Y-78359000D01*
X127000000Y-78359000D01*
X127000000Y-80645000D01*
X128193155Y-80645000D01*
X128314476Y-80415110D01*
X128269825Y-80267901D01*
X128144641Y-80005080D01*
X127970588Y-79771731D01*
X127754355Y-79576822D01*
X127628745Y-79502000D01*
X127754355Y-79427178D01*
X127970588Y-79232269D01*
X128144641Y-78998920D01*
X128269825Y-78736099D01*
X128314476Y-78588890D01*
X128193155Y-78359000D01*
X127000000Y-78359000D01*
X126746000Y-78359000D01*
X126726000Y-78359000D01*
X126726000Y-78105000D01*
X126746000Y-78105000D01*
X126746000Y-75819000D01*
X127000000Y-75819000D01*
X127000000Y-78105000D01*
X128193155Y-78105000D01*
X128314476Y-77875110D01*
X128269825Y-77727901D01*
X128144641Y-77465080D01*
X127970588Y-77231731D01*
X127754355Y-77036822D01*
X127628745Y-76962000D01*
X127754355Y-76887178D01*
X127970588Y-76692269D01*
X128144641Y-76458920D01*
X128269825Y-76196099D01*
X128314476Y-76048890D01*
X128193155Y-75819000D01*
X127000000Y-75819000D01*
X126746000Y-75819000D01*
X126726000Y-75819000D01*
X126726000Y-75565000D01*
X126746000Y-75565000D01*
X126746000Y-73279000D01*
X127000000Y-73279000D01*
X127000000Y-75565000D01*
X128193155Y-75565000D01*
X128314476Y-75335110D01*
X128269825Y-75187901D01*
X128144641Y-74925080D01*
X127970588Y-74691731D01*
X127754355Y-74496822D01*
X127628745Y-74422000D01*
X127754355Y-74347178D01*
X127970588Y-74152269D01*
X128144641Y-73918920D01*
X128269825Y-73656099D01*
X128314476Y-73508890D01*
X128193155Y-73279000D01*
X127000000Y-73279000D01*
X126746000Y-73279000D01*
X126726000Y-73279000D01*
X126726000Y-73025000D01*
X126746000Y-73025000D01*
X126746000Y-70739000D01*
X127000000Y-70739000D01*
X127000000Y-73025000D01*
X128193155Y-73025000D01*
X128314476Y-72795110D01*
X128269825Y-72647901D01*
X128144641Y-72385080D01*
X127970588Y-72151731D01*
X127754355Y-71956822D01*
X127628745Y-71882000D01*
X127754355Y-71807178D01*
X127970588Y-71612269D01*
X128144641Y-71378920D01*
X128269825Y-71116099D01*
X128314476Y-70968890D01*
X128193155Y-70739000D01*
X127000000Y-70739000D01*
X126746000Y-70739000D01*
X126726000Y-70739000D01*
X126726000Y-70485000D01*
X126746000Y-70485000D01*
X126746000Y-68199000D01*
X127000000Y-68199000D01*
X127000000Y-70485000D01*
X128193155Y-70485000D01*
X128314476Y-70255110D01*
X128269825Y-70107901D01*
X128144641Y-69845080D01*
X127970588Y-69611731D01*
X127754355Y-69416822D01*
X127628745Y-69342000D01*
X127754355Y-69267178D01*
X127970588Y-69072269D01*
X128144641Y-68838920D01*
X128269825Y-68576099D01*
X128314476Y-68428890D01*
X128193155Y-68199000D01*
X127000000Y-68199000D01*
X126746000Y-68199000D01*
X126726000Y-68199000D01*
X126726000Y-67945000D01*
X126746000Y-67945000D01*
X126746000Y-65659000D01*
X127000000Y-65659000D01*
X127000000Y-67945000D01*
X128193155Y-67945000D01*
X128314476Y-67715110D01*
X128269825Y-67567901D01*
X128144641Y-67305080D01*
X127970588Y-67071731D01*
X127754355Y-66876822D01*
X127628745Y-66802000D01*
X127754355Y-66727178D01*
X127970588Y-66532269D01*
X128144641Y-66298920D01*
X128269825Y-66036099D01*
X128314476Y-65888890D01*
X128193155Y-65659000D01*
X127000000Y-65659000D01*
X126746000Y-65659000D01*
X126726000Y-65659000D01*
X126726000Y-65405000D01*
X126746000Y-65405000D01*
X126746000Y-63119000D01*
X127000000Y-63119000D01*
X127000000Y-65405000D01*
X128193155Y-65405000D01*
X128314476Y-65175110D01*
X128269825Y-65027901D01*
X128144641Y-64765080D01*
X127970588Y-64531731D01*
X127754355Y-64336822D01*
X127628745Y-64262000D01*
X127754355Y-64187178D01*
X127970588Y-63992269D01*
X128144641Y-63758920D01*
X128269825Y-63496099D01*
X128314476Y-63348890D01*
X128193155Y-63119000D01*
X127000000Y-63119000D01*
X126746000Y-63119000D01*
X126726000Y-63119000D01*
X126726000Y-62865000D01*
X126746000Y-62865000D01*
X126746000Y-60579000D01*
X127000000Y-60579000D01*
X127000000Y-62865000D01*
X128193155Y-62865000D01*
X128314476Y-62635110D01*
X128269825Y-62487901D01*
X128144641Y-62225080D01*
X127970588Y-61991731D01*
X127754355Y-61796822D01*
X127628745Y-61722000D01*
X127754355Y-61647178D01*
X127970588Y-61452269D01*
X128144641Y-61218920D01*
X128269825Y-60956099D01*
X128314476Y-60808890D01*
X128193155Y-60579000D01*
X127000000Y-60579000D01*
X126746000Y-60579000D01*
X126726000Y-60579000D01*
X126726000Y-60325000D01*
X126746000Y-60325000D01*
X126746000Y-58039000D01*
X127000000Y-58039000D01*
X127000000Y-60325000D01*
X128193155Y-60325000D01*
X128314476Y-60095110D01*
X128269825Y-59947901D01*
X128144641Y-59685080D01*
X127970588Y-59451731D01*
X127886534Y-59375966D01*
X127967180Y-59351502D01*
X128077494Y-59292537D01*
X128174185Y-59213185D01*
X128253537Y-59116494D01*
X128312502Y-59006180D01*
X128348812Y-58886482D01*
X128361072Y-58762000D01*
X128358000Y-58197750D01*
X128199250Y-58039000D01*
X127000000Y-58039000D01*
X126746000Y-58039000D01*
X124460000Y-58039000D01*
X124460000Y-58059000D01*
X124206000Y-58059000D01*
X124206000Y-58039000D01*
X122174000Y-58039000D01*
X122174000Y-58059000D01*
X121920000Y-58059000D01*
X121920000Y-58039000D01*
X121900000Y-58039000D01*
X121900000Y-57785000D01*
X121920000Y-57785000D01*
X121920000Y-56635750D01*
X122174000Y-56635750D01*
X122174000Y-57785000D01*
X124206000Y-57785000D01*
X124206000Y-56591186D01*
X124460000Y-56591186D01*
X124460000Y-57785000D01*
X126746000Y-57785000D01*
X126746000Y-56585750D01*
X127000000Y-56585750D01*
X127000000Y-57785000D01*
X128199250Y-57785000D01*
X128218510Y-57765740D01*
X130976000Y-57765740D01*
X130976000Y-58058260D01*
X131033068Y-58345158D01*
X131145010Y-58615411D01*
X131307525Y-58858632D01*
X131514368Y-59065475D01*
X131688760Y-59182000D01*
X131514368Y-59298525D01*
X131307525Y-59505368D01*
X131145010Y-59748589D01*
X131033068Y-60018842D01*
X130976000Y-60305740D01*
X130976000Y-60598260D01*
X131033068Y-60885158D01*
X131145010Y-61155411D01*
X131307525Y-61398632D01*
X131514368Y-61605475D01*
X131688760Y-61722000D01*
X131514368Y-61838525D01*
X131307525Y-62045368D01*
X131145010Y-62288589D01*
X131033068Y-62558842D01*
X130976000Y-62845740D01*
X130976000Y-63138260D01*
X131033068Y-63425158D01*
X131145010Y-63695411D01*
X131307525Y-63938632D01*
X131514368Y-64145475D01*
X131688760Y-64262000D01*
X131514368Y-64378525D01*
X131307525Y-64585368D01*
X131145010Y-64828589D01*
X131033068Y-65098842D01*
X130976000Y-65385740D01*
X130976000Y-65678260D01*
X131033068Y-65965158D01*
X131145010Y-66235411D01*
X131307525Y-66478632D01*
X131514368Y-66685475D01*
X131688760Y-66802000D01*
X131514368Y-66918525D01*
X131307525Y-67125368D01*
X131145010Y-67368589D01*
X131033068Y-67638842D01*
X130976000Y-67925740D01*
X130976000Y-68218260D01*
X131033068Y-68505158D01*
X131145010Y-68775411D01*
X131307525Y-69018632D01*
X131514368Y-69225475D01*
X131688760Y-69342000D01*
X131514368Y-69458525D01*
X131307525Y-69665368D01*
X131145010Y-69908589D01*
X131033068Y-70178842D01*
X130976000Y-70465740D01*
X130976000Y-70758260D01*
X131033068Y-71045158D01*
X131145010Y-71315411D01*
X131307525Y-71558632D01*
X131514368Y-71765475D01*
X131688760Y-71882000D01*
X131514368Y-71998525D01*
X131307525Y-72205368D01*
X131145010Y-72448589D01*
X131033068Y-72718842D01*
X130976000Y-73005740D01*
X130976000Y-73298260D01*
X131033068Y-73585158D01*
X131145010Y-73855411D01*
X131307525Y-74098632D01*
X131514368Y-74305475D01*
X131688760Y-74422000D01*
X131514368Y-74538525D01*
X131307525Y-74745368D01*
X131145010Y-74988589D01*
X131033068Y-75258842D01*
X130976000Y-75545740D01*
X130976000Y-75838260D01*
X131033068Y-76125158D01*
X131145010Y-76395411D01*
X131307525Y-76638632D01*
X131514368Y-76845475D01*
X131688760Y-76962000D01*
X131514368Y-77078525D01*
X131307525Y-77285368D01*
X131145010Y-77528589D01*
X131033068Y-77798842D01*
X130976000Y-78085740D01*
X130976000Y-78378260D01*
X131033068Y-78665158D01*
X131145010Y-78935411D01*
X131307525Y-79178632D01*
X131514368Y-79385475D01*
X131688760Y-79502000D01*
X131514368Y-79618525D01*
X131307525Y-79825368D01*
X131145010Y-80068589D01*
X131033068Y-80338842D01*
X130976000Y-80625740D01*
X130976000Y-80918260D01*
X131033068Y-81205158D01*
X131145010Y-81475411D01*
X131307525Y-81718632D01*
X131514368Y-81925475D01*
X131688760Y-82042000D01*
X131514368Y-82158525D01*
X131307525Y-82365368D01*
X131145010Y-82608589D01*
X131033068Y-82878842D01*
X130976000Y-83165740D01*
X130976000Y-83458260D01*
X131033068Y-83745158D01*
X131145010Y-84015411D01*
X131307525Y-84258632D01*
X131514368Y-84465475D01*
X131688760Y-84582000D01*
X131514368Y-84698525D01*
X131307525Y-84905368D01*
X131145010Y-85148589D01*
X131033068Y-85418842D01*
X130976000Y-85705740D01*
X130976000Y-85998260D01*
X131033068Y-86285158D01*
X131145010Y-86555411D01*
X131307525Y-86798632D01*
X131514368Y-87005475D01*
X131688760Y-87122000D01*
X131514368Y-87238525D01*
X131307525Y-87445368D01*
X131145010Y-87688589D01*
X131033068Y-87958842D01*
X130976000Y-88245740D01*
X130976000Y-88538260D01*
X131033068Y-88825158D01*
X131145010Y-89095411D01*
X131307525Y-89338632D01*
X131514368Y-89545475D01*
X131688760Y-89662000D01*
X131514368Y-89778525D01*
X131307525Y-89985368D01*
X131145010Y-90228589D01*
X131033068Y-90498842D01*
X130976000Y-90785740D01*
X130976000Y-91078260D01*
X131033068Y-91365158D01*
X131145010Y-91635411D01*
X131307525Y-91878632D01*
X131514368Y-92085475D01*
X131688760Y-92202000D01*
X131514368Y-92318525D01*
X131307525Y-92525368D01*
X131145010Y-92768589D01*
X131033068Y-93038842D01*
X130976000Y-93325740D01*
X130976000Y-93618260D01*
X131033068Y-93905158D01*
X131145010Y-94175411D01*
X131307525Y-94418632D01*
X131514368Y-94625475D01*
X131688760Y-94742000D01*
X131514368Y-94858525D01*
X131307525Y-95065368D01*
X131145010Y-95308589D01*
X131033068Y-95578842D01*
X130976000Y-95865740D01*
X130976000Y-96158260D01*
X131033068Y-96445158D01*
X131145010Y-96715411D01*
X131307525Y-96958632D01*
X131514368Y-97165475D01*
X131688760Y-97282000D01*
X131514368Y-97398525D01*
X131307525Y-97605368D01*
X131145010Y-97848589D01*
X131033068Y-98118842D01*
X130976000Y-98405740D01*
X130976000Y-98698260D01*
X131033068Y-98985158D01*
X131145010Y-99255411D01*
X131307525Y-99498632D01*
X131514368Y-99705475D01*
X131688760Y-99822000D01*
X131514368Y-99938525D01*
X131307525Y-100145368D01*
X131145010Y-100388589D01*
X131033068Y-100658842D01*
X130976000Y-100945740D01*
X130976000Y-101238260D01*
X131033068Y-101525158D01*
X131145010Y-101795411D01*
X131307525Y-102038632D01*
X131514368Y-102245475D01*
X131688760Y-102362000D01*
X131514368Y-102478525D01*
X131307525Y-102685368D01*
X131145010Y-102928589D01*
X131033068Y-103198842D01*
X130976000Y-103485740D01*
X130976000Y-103778260D01*
X131033068Y-104065158D01*
X131145010Y-104335411D01*
X131307525Y-104578632D01*
X131514368Y-104785475D01*
X131688760Y-104902000D01*
X131514368Y-105018525D01*
X131307525Y-105225368D01*
X131145010Y-105468589D01*
X131033068Y-105738842D01*
X130976000Y-106025740D01*
X130976000Y-106318260D01*
X131033068Y-106605158D01*
X131145010Y-106875411D01*
X131307525Y-107118632D01*
X131514368Y-107325475D01*
X131757589Y-107487990D01*
X132027842Y-107599932D01*
X132314740Y-107657000D01*
X132607260Y-107657000D01*
X132894158Y-107599932D01*
X133164411Y-107487990D01*
X133407632Y-107325475D01*
X133614475Y-107118632D01*
X133732100Y-106942594D01*
X133903412Y-107172269D01*
X134119645Y-107367178D01*
X134369748Y-107516157D01*
X134644109Y-107613481D01*
X134874000Y-107492814D01*
X134874000Y-106299000D01*
X134854000Y-106299000D01*
X134854000Y-106045000D01*
X134874000Y-106045000D01*
X134874000Y-103759000D01*
X134854000Y-103759000D01*
X134854000Y-103505000D01*
X134874000Y-103505000D01*
X134874000Y-101219000D01*
X134854000Y-101219000D01*
X134854000Y-100965000D01*
X134874000Y-100965000D01*
X134874000Y-98679000D01*
X134854000Y-98679000D01*
X134854000Y-98425000D01*
X134874000Y-98425000D01*
X134874000Y-96139000D01*
X134854000Y-96139000D01*
X134854000Y-95885000D01*
X134874000Y-95885000D01*
X134874000Y-93599000D01*
X134854000Y-93599000D01*
X134854000Y-93345000D01*
X134874000Y-93345000D01*
X134874000Y-91059000D01*
X134854000Y-91059000D01*
X134854000Y-90805000D01*
X134874000Y-90805000D01*
X134874000Y-88519000D01*
X134854000Y-88519000D01*
X134854000Y-88265000D01*
X134874000Y-88265000D01*
X134874000Y-85979000D01*
X134854000Y-85979000D01*
X134854000Y-85725000D01*
X134874000Y-85725000D01*
X134874000Y-83439000D01*
X134854000Y-83439000D01*
X134854000Y-83185000D01*
X134874000Y-83185000D01*
X134874000Y-80899000D01*
X134854000Y-80899000D01*
X134854000Y-80645000D01*
X134874000Y-80645000D01*
X134874000Y-78359000D01*
X134854000Y-78359000D01*
X134854000Y-78105000D01*
X134874000Y-78105000D01*
X134874000Y-75819000D01*
X134854000Y-75819000D01*
X134854000Y-75565000D01*
X134874000Y-75565000D01*
X134874000Y-73279000D01*
X134854000Y-73279000D01*
X134854000Y-73025000D01*
X134874000Y-73025000D01*
X134874000Y-70739000D01*
X134854000Y-70739000D01*
X134854000Y-70485000D01*
X134874000Y-70485000D01*
X134874000Y-68199000D01*
X134854000Y-68199000D01*
X134854000Y-67945000D01*
X134874000Y-67945000D01*
X134874000Y-65659000D01*
X134854000Y-65659000D01*
X134854000Y-65405000D01*
X134874000Y-65405000D01*
X134874000Y-63119000D01*
X134854000Y-63119000D01*
X134854000Y-62865000D01*
X134874000Y-62865000D01*
X134874000Y-60579000D01*
X134854000Y-60579000D01*
X134854000Y-60325000D01*
X134874000Y-60325000D01*
X134874000Y-58039000D01*
X134854000Y-58039000D01*
X134854000Y-57785000D01*
X134874000Y-57785000D01*
X134874000Y-56585750D01*
X134715250Y-56427000D01*
X134151000Y-56423928D01*
X134026518Y-56436188D01*
X133906820Y-56472498D01*
X133796506Y-56531463D01*
X133699815Y-56610815D01*
X133620463Y-56707506D01*
X133561498Y-56817820D01*
X133539487Y-56890380D01*
X133407632Y-56758525D01*
X133164411Y-56596010D01*
X132894158Y-56484068D01*
X132607260Y-56427000D01*
X132314740Y-56427000D01*
X132027842Y-56484068D01*
X131757589Y-56596010D01*
X131514368Y-56758525D01*
X131307525Y-56965368D01*
X131145010Y-57208589D01*
X131033068Y-57478842D01*
X130976000Y-57765740D01*
X128218510Y-57765740D01*
X128358000Y-57626250D01*
X128361072Y-57062000D01*
X128348812Y-56937518D01*
X128312502Y-56817820D01*
X128253537Y-56707506D01*
X128174185Y-56610815D01*
X128077494Y-56531463D01*
X127967180Y-56472498D01*
X127847482Y-56436188D01*
X127723000Y-56423928D01*
X127158750Y-56427000D01*
X127000000Y-56585750D01*
X126746000Y-56585750D01*
X126587250Y-56427000D01*
X126023000Y-56423928D01*
X125898518Y-56436188D01*
X125778820Y-56472498D01*
X125668506Y-56531463D01*
X125571815Y-56610815D01*
X125492463Y-56707506D01*
X125433498Y-56817820D01*
X125410502Y-56893626D01*
X125214355Y-56716822D01*
X124964252Y-56567843D01*
X124689891Y-56470519D01*
X124460000Y-56591186D01*
X124206000Y-56591186D01*
X123976109Y-56470519D01*
X123701748Y-56567843D01*
X123451645Y-56716822D01*
X123386958Y-56775130D01*
X123377537Y-56757506D01*
X123298185Y-56660815D01*
X123201494Y-56581463D01*
X123091180Y-56522498D01*
X122971482Y-56486188D01*
X122847000Y-56473928D01*
X122332750Y-56477000D01*
X122174000Y-56635750D01*
X121920000Y-56635750D01*
X121761250Y-56477000D01*
X121310000Y-56474304D01*
X121310000Y-55181212D01*
X122151516Y-54508000D01*
X126084098Y-54508000D01*
X126638661Y-55617128D01*
G37*
X126638661Y-55617128D02*
X126641290Y-55625793D01*
X126667685Y-55675174D01*
X126678176Y-55696157D01*
X126682975Y-55703780D01*
X126702575Y-55740450D01*
X126717525Y-55758666D01*
X126730081Y-55778613D01*
X126758674Y-55808807D01*
X126785052Y-55840948D01*
X126803271Y-55855900D01*
X126819475Y-55873011D01*
X126853402Y-55897042D01*
X126885550Y-55923425D01*
X126906336Y-55934535D01*
X126925566Y-55948156D01*
X126963532Y-55965107D01*
X127000207Y-55984710D01*
X127022765Y-55991553D01*
X127044280Y-56001159D01*
X127084815Y-56010376D01*
X127124617Y-56022450D01*
X127148076Y-56024761D01*
X127171053Y-56029985D01*
X127212613Y-56031117D01*
X127221581Y-56032000D01*
X127245048Y-56032000D01*
X127301012Y-56033524D01*
X127309937Y-56032000D01*
X132278063Y-56032000D01*
X132286988Y-56033524D01*
X132342952Y-56032000D01*
X132366419Y-56032000D01*
X132375387Y-56031117D01*
X132416946Y-56029985D01*
X132439922Y-56024761D01*
X132463383Y-56022450D01*
X132503188Y-56010375D01*
X132543719Y-56001159D01*
X132565232Y-55991554D01*
X132587793Y-55984710D01*
X132624473Y-55965104D01*
X132662433Y-55948156D01*
X132681660Y-55934537D01*
X132702450Y-55923425D01*
X132734604Y-55897037D01*
X132768524Y-55873011D01*
X132784724Y-55855904D01*
X132802948Y-55840948D01*
X132829332Y-55808799D01*
X132857918Y-55778613D01*
X132870471Y-55758672D01*
X132885425Y-55740450D01*
X132905031Y-55703770D01*
X132909823Y-55696157D01*
X132920300Y-55675202D01*
X132946710Y-55625793D01*
X132949340Y-55617123D01*
X133503902Y-54508000D01*
X137182486Y-54508000D01*
X138024001Y-55181213D01*
X138024001Y-56678589D01*
X137966727Y-56640320D01*
X137705574Y-56532147D01*
X137428335Y-56477000D01*
X137145665Y-56477000D01*
X136868426Y-56532147D01*
X136607273Y-56640320D01*
X136414481Y-56769139D01*
X136381537Y-56707506D01*
X136302185Y-56610815D01*
X136205494Y-56531463D01*
X136095180Y-56472498D01*
X135975482Y-56436188D01*
X135851000Y-56423928D01*
X135286750Y-56427000D01*
X135128000Y-56585750D01*
X135128000Y-57785000D01*
X135148000Y-57785000D01*
X135148000Y-58039000D01*
X135128000Y-58039000D01*
X135128000Y-60325000D01*
X135148000Y-60325000D01*
X135148000Y-60579000D01*
X135128000Y-60579000D01*
X135128000Y-62865000D01*
X135148000Y-62865000D01*
X135148000Y-63119000D01*
X135128000Y-63119000D01*
X135128000Y-65405000D01*
X135148000Y-65405000D01*
X135148000Y-65659000D01*
X135128000Y-65659000D01*
X135128000Y-67945000D01*
X135148000Y-67945000D01*
X135148000Y-68199000D01*
X135128000Y-68199000D01*
X135128000Y-70485000D01*
X135148000Y-70485000D01*
X135148000Y-70739000D01*
X135128000Y-70739000D01*
X135128000Y-73025000D01*
X135148000Y-73025000D01*
X135148000Y-73279000D01*
X135128000Y-73279000D01*
X135128000Y-75565000D01*
X135148000Y-75565000D01*
X135148000Y-75819000D01*
X135128000Y-75819000D01*
X135128000Y-78105000D01*
X135148000Y-78105000D01*
X135148000Y-78359000D01*
X135128000Y-78359000D01*
X135128000Y-80645000D01*
X135148000Y-80645000D01*
X135148000Y-80899000D01*
X135128000Y-80899000D01*
X135128000Y-83185000D01*
X135148000Y-83185000D01*
X135148000Y-83439000D01*
X135128000Y-83439000D01*
X135128000Y-85725000D01*
X135148000Y-85725000D01*
X135148000Y-85979000D01*
X135128000Y-85979000D01*
X135128000Y-88265000D01*
X135148000Y-88265000D01*
X135148000Y-88519000D01*
X135128000Y-88519000D01*
X135128000Y-90805000D01*
X135148000Y-90805000D01*
X135148000Y-91059000D01*
X135128000Y-91059000D01*
X135128000Y-93345000D01*
X135148000Y-93345000D01*
X135148000Y-93599000D01*
X135128000Y-93599000D01*
X135128000Y-95885000D01*
X135148000Y-95885000D01*
X135148000Y-96139000D01*
X135128000Y-96139000D01*
X135128000Y-98425000D01*
X135148000Y-98425000D01*
X135148000Y-98679000D01*
X135128000Y-98679000D01*
X135128000Y-100965000D01*
X135148000Y-100965000D01*
X135148000Y-101219000D01*
X135128000Y-101219000D01*
X135128000Y-103505000D01*
X135148000Y-103505000D01*
X135148000Y-103759000D01*
X135128000Y-103759000D01*
X135128000Y-106045000D01*
X135148000Y-106045000D01*
X135148000Y-106299000D01*
X135128000Y-106299000D01*
X135128000Y-107492814D01*
X135357891Y-107613481D01*
X135632252Y-107516157D01*
X135882355Y-107367178D01*
X136098588Y-107172269D01*
X136167641Y-107079692D01*
X136172363Y-107086759D01*
X136372241Y-107286637D01*
X136607273Y-107443680D01*
X136868426Y-107551853D01*
X137145665Y-107607000D01*
X137428335Y-107607000D01*
X137705574Y-107551853D01*
X137966727Y-107443680D01*
X138024000Y-107405411D01*
X138024000Y-108902788D01*
X137182486Y-109576000D01*
X132995902Y-109576000D01*
X132441340Y-108466877D01*
X132438710Y-108458207D01*
X132412300Y-108408798D01*
X132401823Y-108387843D01*
X132397031Y-108380230D01*
X132377425Y-108343550D01*
X132362471Y-108325328D01*
X132349918Y-108305387D01*
X132321332Y-108275201D01*
X132294948Y-108243052D01*
X132276724Y-108228096D01*
X132260524Y-108210989D01*
X132226604Y-108186963D01*
X132194450Y-108160575D01*
X132173660Y-108149463D01*
X132154433Y-108135844D01*
X132116473Y-108118896D01*
X132079793Y-108099290D01*
X132057232Y-108092446D01*
X132035719Y-108082841D01*
X131995188Y-108073625D01*
X131955383Y-108061550D01*
X131931922Y-108059239D01*
X131908946Y-108054015D01*
X131867387Y-108052883D01*
X131858419Y-108052000D01*
X131834952Y-108052000D01*
X131778988Y-108050476D01*
X131770063Y-108052000D01*
X127309937Y-108052000D01*
X127301012Y-108050476D01*
X127245048Y-108052000D01*
X127221581Y-108052000D01*
X127212613Y-108052883D01*
X127171053Y-108054015D01*
X127148076Y-108059239D01*
X127124617Y-108061550D01*
X127084815Y-108073624D01*
X127044280Y-108082841D01*
X127022765Y-108092447D01*
X127000207Y-108099290D01*
X126963532Y-108118893D01*
X126925566Y-108135844D01*
X126906336Y-108149465D01*
X126885550Y-108160575D01*
X126853402Y-108186958D01*
X126819475Y-108210989D01*
X126803271Y-108228100D01*
X126785052Y-108243052D01*
X126758674Y-108275193D01*
X126730081Y-108305387D01*
X126717525Y-108325334D01*
X126702575Y-108343550D01*
X126682975Y-108380220D01*
X126678176Y-108387843D01*
X126667685Y-108408826D01*
X126641290Y-108458207D01*
X126638661Y-108466872D01*
X126084098Y-109576000D01*
X122151516Y-109576000D01*
X121310000Y-108902788D01*
X121310000Y-107405411D01*
X121367273Y-107443680D01*
X121628426Y-107551853D01*
X121905665Y-107607000D01*
X122188335Y-107607000D01*
X122465574Y-107551853D01*
X122726727Y-107443680D01*
X122961759Y-107286637D01*
X123159594Y-107088802D01*
X123179525Y-107118632D01*
X123386368Y-107325475D01*
X123629589Y-107487990D01*
X123899842Y-107599932D01*
X124186740Y-107657000D01*
X124479260Y-107657000D01*
X124766158Y-107599932D01*
X125036411Y-107487990D01*
X125279632Y-107325475D01*
X125486475Y-107118632D01*
X125604100Y-106942594D01*
X125775412Y-107172269D01*
X125991645Y-107367178D01*
X126241748Y-107516157D01*
X126516109Y-107613481D01*
X126746000Y-107492814D01*
X126746000Y-106299000D01*
X127000000Y-106299000D01*
X127000000Y-107492814D01*
X127229891Y-107613481D01*
X127504252Y-107516157D01*
X127754355Y-107367178D01*
X127970588Y-107172269D01*
X128144641Y-106938920D01*
X128269825Y-106676099D01*
X128314476Y-106528890D01*
X128193155Y-106299000D01*
X127000000Y-106299000D01*
X126746000Y-106299000D01*
X126726000Y-106299000D01*
X126726000Y-106045000D01*
X126746000Y-106045000D01*
X126746000Y-103759000D01*
X127000000Y-103759000D01*
X127000000Y-106045000D01*
X128193155Y-106045000D01*
X128314476Y-105815110D01*
X128269825Y-105667901D01*
X128144641Y-105405080D01*
X127970588Y-105171731D01*
X127754355Y-104976822D01*
X127628745Y-104902000D01*
X127754355Y-104827178D01*
X127970588Y-104632269D01*
X128144641Y-104398920D01*
X128269825Y-104136099D01*
X128314476Y-103988890D01*
X128193155Y-103759000D01*
X127000000Y-103759000D01*
X126746000Y-103759000D01*
X126726000Y-103759000D01*
X126726000Y-103505000D01*
X126746000Y-103505000D01*
X126746000Y-101219000D01*
X127000000Y-101219000D01*
X127000000Y-103505000D01*
X128193155Y-103505000D01*
X128314476Y-103275110D01*
X128269825Y-103127901D01*
X128144641Y-102865080D01*
X127970588Y-102631731D01*
X127754355Y-102436822D01*
X127628745Y-102362000D01*
X127754355Y-102287178D01*
X127970588Y-102092269D01*
X128144641Y-101858920D01*
X128269825Y-101596099D01*
X128314476Y-101448890D01*
X128193155Y-101219000D01*
X127000000Y-101219000D01*
X126746000Y-101219000D01*
X126726000Y-101219000D01*
X126726000Y-100965000D01*
X126746000Y-100965000D01*
X126746000Y-98679000D01*
X127000000Y-98679000D01*
X127000000Y-100965000D01*
X128193155Y-100965000D01*
X128314476Y-100735110D01*
X128269825Y-100587901D01*
X128144641Y-100325080D01*
X127970588Y-100091731D01*
X127754355Y-99896822D01*
X127628745Y-99822000D01*
X127754355Y-99747178D01*
X127970588Y-99552269D01*
X128144641Y-99318920D01*
X128269825Y-99056099D01*
X128314476Y-98908890D01*
X128193155Y-98679000D01*
X127000000Y-98679000D01*
X126746000Y-98679000D01*
X126726000Y-98679000D01*
X126726000Y-98425000D01*
X126746000Y-98425000D01*
X126746000Y-96139000D01*
X127000000Y-96139000D01*
X127000000Y-98425000D01*
X128193155Y-98425000D01*
X128314476Y-98195110D01*
X128269825Y-98047901D01*
X128144641Y-97785080D01*
X127970588Y-97551731D01*
X127754355Y-97356822D01*
X127628745Y-97282000D01*
X127754355Y-97207178D01*
X127970588Y-97012269D01*
X128144641Y-96778920D01*
X128269825Y-96516099D01*
X128314476Y-96368890D01*
X128193155Y-96139000D01*
X127000000Y-96139000D01*
X126746000Y-96139000D01*
X126726000Y-96139000D01*
X126726000Y-95885000D01*
X126746000Y-95885000D01*
X126746000Y-93599000D01*
X127000000Y-93599000D01*
X127000000Y-95885000D01*
X128193155Y-95885000D01*
X128314476Y-95655110D01*
X128269825Y-95507901D01*
X128144641Y-95245080D01*
X127970588Y-95011731D01*
X127754355Y-94816822D01*
X127628745Y-94742000D01*
X127754355Y-94667178D01*
X127970588Y-94472269D01*
X128144641Y-94238920D01*
X128269825Y-93976099D01*
X128314476Y-93828890D01*
X128193155Y-93599000D01*
X127000000Y-93599000D01*
X126746000Y-93599000D01*
X126726000Y-93599000D01*
X126726000Y-93345000D01*
X126746000Y-93345000D01*
X126746000Y-91059000D01*
X127000000Y-91059000D01*
X127000000Y-93345000D01*
X128193155Y-93345000D01*
X128314476Y-93115110D01*
X128269825Y-92967901D01*
X128144641Y-92705080D01*
X127970588Y-92471731D01*
X127754355Y-92276822D01*
X127628745Y-92202000D01*
X127754355Y-92127178D01*
X127970588Y-91932269D01*
X128144641Y-91698920D01*
X128269825Y-91436099D01*
X128314476Y-91288890D01*
X128193155Y-91059000D01*
X127000000Y-91059000D01*
X126746000Y-91059000D01*
X126726000Y-91059000D01*
X126726000Y-90805000D01*
X126746000Y-90805000D01*
X126746000Y-88519000D01*
X127000000Y-88519000D01*
X127000000Y-90805000D01*
X128193155Y-90805000D01*
X128314476Y-90575110D01*
X128269825Y-90427901D01*
X128144641Y-90165080D01*
X127970588Y-89931731D01*
X127754355Y-89736822D01*
X127628745Y-89662000D01*
X127754355Y-89587178D01*
X127970588Y-89392269D01*
X128144641Y-89158920D01*
X128269825Y-88896099D01*
X128314476Y-88748890D01*
X128193155Y-88519000D01*
X127000000Y-88519000D01*
X126746000Y-88519000D01*
X126726000Y-88519000D01*
X126726000Y-88265000D01*
X126746000Y-88265000D01*
X126746000Y-85979000D01*
X127000000Y-85979000D01*
X127000000Y-88265000D01*
X128193155Y-88265000D01*
X128314476Y-88035110D01*
X128269825Y-87887901D01*
X128144641Y-87625080D01*
X127970588Y-87391731D01*
X127754355Y-87196822D01*
X127628745Y-87122000D01*
X127754355Y-87047178D01*
X127970588Y-86852269D01*
X128144641Y-86618920D01*
X128269825Y-86356099D01*
X128314476Y-86208890D01*
X128193155Y-85979000D01*
X127000000Y-85979000D01*
X126746000Y-85979000D01*
X126726000Y-85979000D01*
X126726000Y-85725000D01*
X126746000Y-85725000D01*
X126746000Y-83439000D01*
X127000000Y-83439000D01*
X127000000Y-85725000D01*
X128193155Y-85725000D01*
X128314476Y-85495110D01*
X128269825Y-85347901D01*
X128144641Y-85085080D01*
X127970588Y-84851731D01*
X127754355Y-84656822D01*
X127628745Y-84582000D01*
X127754355Y-84507178D01*
X127970588Y-84312269D01*
X128144641Y-84078920D01*
X128269825Y-83816099D01*
X128314476Y-83668890D01*
X128193155Y-83439000D01*
X127000000Y-83439000D01*
X126746000Y-83439000D01*
X126726000Y-83439000D01*
X126726000Y-83185000D01*
X126746000Y-83185000D01*
X126746000Y-80899000D01*
X127000000Y-80899000D01*
X127000000Y-83185000D01*
X128193155Y-83185000D01*
X128314476Y-82955110D01*
X128269825Y-82807901D01*
X128144641Y-82545080D01*
X127970588Y-82311731D01*
X127754355Y-82116822D01*
X127628745Y-82042000D01*
X127754355Y-81967178D01*
X127970588Y-81772269D01*
X128144641Y-81538920D01*
X128269825Y-81276099D01*
X128314476Y-81128890D01*
X128193155Y-80899000D01*
X127000000Y-80899000D01*
X126746000Y-80899000D01*
X126726000Y-80899000D01*
X126726000Y-80645000D01*
X126746000Y-80645000D01*
X126746000Y-78359000D01*
X127000000Y-78359000D01*
X127000000Y-80645000D01*
X128193155Y-80645000D01*
X128314476Y-80415110D01*
X128269825Y-80267901D01*
X128144641Y-80005080D01*
X127970588Y-79771731D01*
X127754355Y-79576822D01*
X127628745Y-79502000D01*
X127754355Y-79427178D01*
X127970588Y-79232269D01*
X128144641Y-78998920D01*
X128269825Y-78736099D01*
X128314476Y-78588890D01*
X128193155Y-78359000D01*
X127000000Y-78359000D01*
X126746000Y-78359000D01*
X126726000Y-78359000D01*
X126726000Y-78105000D01*
X126746000Y-78105000D01*
X126746000Y-75819000D01*
X127000000Y-75819000D01*
X127000000Y-78105000D01*
X128193155Y-78105000D01*
X128314476Y-77875110D01*
X128269825Y-77727901D01*
X128144641Y-77465080D01*
X127970588Y-77231731D01*
X127754355Y-77036822D01*
X127628745Y-76962000D01*
X127754355Y-76887178D01*
X127970588Y-76692269D01*
X128144641Y-76458920D01*
X128269825Y-76196099D01*
X128314476Y-76048890D01*
X128193155Y-75819000D01*
X127000000Y-75819000D01*
X126746000Y-75819000D01*
X126726000Y-75819000D01*
X126726000Y-75565000D01*
X126746000Y-75565000D01*
X126746000Y-73279000D01*
X127000000Y-73279000D01*
X127000000Y-75565000D01*
X128193155Y-75565000D01*
X128314476Y-75335110D01*
X128269825Y-75187901D01*
X128144641Y-74925080D01*
X127970588Y-74691731D01*
X127754355Y-74496822D01*
X127628745Y-74422000D01*
X127754355Y-74347178D01*
X127970588Y-74152269D01*
X128144641Y-73918920D01*
X128269825Y-73656099D01*
X128314476Y-73508890D01*
X128193155Y-73279000D01*
X127000000Y-73279000D01*
X126746000Y-73279000D01*
X126726000Y-73279000D01*
X126726000Y-73025000D01*
X126746000Y-73025000D01*
X126746000Y-70739000D01*
X127000000Y-70739000D01*
X127000000Y-73025000D01*
X128193155Y-73025000D01*
X128314476Y-72795110D01*
X128269825Y-72647901D01*
X128144641Y-72385080D01*
X127970588Y-72151731D01*
X127754355Y-71956822D01*
X127628745Y-71882000D01*
X127754355Y-71807178D01*
X127970588Y-71612269D01*
X128144641Y-71378920D01*
X128269825Y-71116099D01*
X128314476Y-70968890D01*
X128193155Y-70739000D01*
X127000000Y-70739000D01*
X126746000Y-70739000D01*
X126726000Y-70739000D01*
X126726000Y-70485000D01*
X126746000Y-70485000D01*
X126746000Y-68199000D01*
X127000000Y-68199000D01*
X127000000Y-70485000D01*
X128193155Y-70485000D01*
X128314476Y-70255110D01*
X128269825Y-70107901D01*
X128144641Y-69845080D01*
X127970588Y-69611731D01*
X127754355Y-69416822D01*
X127628745Y-69342000D01*
X127754355Y-69267178D01*
X127970588Y-69072269D01*
X128144641Y-68838920D01*
X128269825Y-68576099D01*
X128314476Y-68428890D01*
X128193155Y-68199000D01*
X127000000Y-68199000D01*
X126746000Y-68199000D01*
X126726000Y-68199000D01*
X126726000Y-67945000D01*
X126746000Y-67945000D01*
X126746000Y-65659000D01*
X127000000Y-65659000D01*
X127000000Y-67945000D01*
X128193155Y-67945000D01*
X128314476Y-67715110D01*
X128269825Y-67567901D01*
X128144641Y-67305080D01*
X127970588Y-67071731D01*
X127754355Y-66876822D01*
X127628745Y-66802000D01*
X127754355Y-66727178D01*
X127970588Y-66532269D01*
X128144641Y-66298920D01*
X128269825Y-66036099D01*
X128314476Y-65888890D01*
X128193155Y-65659000D01*
X127000000Y-65659000D01*
X126746000Y-65659000D01*
X126726000Y-65659000D01*
X126726000Y-65405000D01*
X126746000Y-65405000D01*
X126746000Y-63119000D01*
X127000000Y-63119000D01*
X127000000Y-65405000D01*
X128193155Y-65405000D01*
X128314476Y-65175110D01*
X128269825Y-65027901D01*
X128144641Y-64765080D01*
X127970588Y-64531731D01*
X127754355Y-64336822D01*
X127628745Y-64262000D01*
X127754355Y-64187178D01*
X127970588Y-63992269D01*
X128144641Y-63758920D01*
X128269825Y-63496099D01*
X128314476Y-63348890D01*
X128193155Y-63119000D01*
X127000000Y-63119000D01*
X126746000Y-63119000D01*
X126726000Y-63119000D01*
X126726000Y-62865000D01*
X126746000Y-62865000D01*
X126746000Y-60579000D01*
X127000000Y-60579000D01*
X127000000Y-62865000D01*
X128193155Y-62865000D01*
X128314476Y-62635110D01*
X128269825Y-62487901D01*
X128144641Y-62225080D01*
X127970588Y-61991731D01*
X127754355Y-61796822D01*
X127628745Y-61722000D01*
X127754355Y-61647178D01*
X127970588Y-61452269D01*
X128144641Y-61218920D01*
X128269825Y-60956099D01*
X128314476Y-60808890D01*
X128193155Y-60579000D01*
X127000000Y-60579000D01*
X126746000Y-60579000D01*
X126726000Y-60579000D01*
X126726000Y-60325000D01*
X126746000Y-60325000D01*
X126746000Y-58039000D01*
X127000000Y-58039000D01*
X127000000Y-60325000D01*
X128193155Y-60325000D01*
X128314476Y-60095110D01*
X128269825Y-59947901D01*
X128144641Y-59685080D01*
X127970588Y-59451731D01*
X127886534Y-59375966D01*
X127967180Y-59351502D01*
X128077494Y-59292537D01*
X128174185Y-59213185D01*
X128253537Y-59116494D01*
X128312502Y-59006180D01*
X128348812Y-58886482D01*
X128361072Y-58762000D01*
X128358000Y-58197750D01*
X128199250Y-58039000D01*
X127000000Y-58039000D01*
X126746000Y-58039000D01*
X124460000Y-58039000D01*
X124460000Y-58059000D01*
X124206000Y-58059000D01*
X124206000Y-58039000D01*
X122174000Y-58039000D01*
X122174000Y-58059000D01*
X121920000Y-58059000D01*
X121920000Y-58039000D01*
X121900000Y-58039000D01*
X121900000Y-57785000D01*
X121920000Y-57785000D01*
X121920000Y-56635750D01*
X122174000Y-56635750D01*
X122174000Y-57785000D01*
X124206000Y-57785000D01*
X124206000Y-56591186D01*
X124460000Y-56591186D01*
X124460000Y-57785000D01*
X126746000Y-57785000D01*
X126746000Y-56585750D01*
X127000000Y-56585750D01*
X127000000Y-57785000D01*
X128199250Y-57785000D01*
X128218510Y-57765740D01*
X130976000Y-57765740D01*
X130976000Y-58058260D01*
X131033068Y-58345158D01*
X131145010Y-58615411D01*
X131307525Y-58858632D01*
X131514368Y-59065475D01*
X131688760Y-59182000D01*
X131514368Y-59298525D01*
X131307525Y-59505368D01*
X131145010Y-59748589D01*
X131033068Y-60018842D01*
X130976000Y-60305740D01*
X130976000Y-60598260D01*
X131033068Y-60885158D01*
X131145010Y-61155411D01*
X131307525Y-61398632D01*
X131514368Y-61605475D01*
X131688760Y-61722000D01*
X131514368Y-61838525D01*
X131307525Y-62045368D01*
X131145010Y-62288589D01*
X131033068Y-62558842D01*
X130976000Y-62845740D01*
X130976000Y-63138260D01*
X131033068Y-63425158D01*
X131145010Y-63695411D01*
X131307525Y-63938632D01*
X131514368Y-64145475D01*
X131688760Y-64262000D01*
X131514368Y-64378525D01*
X131307525Y-64585368D01*
X131145010Y-64828589D01*
X131033068Y-65098842D01*
X130976000Y-65385740D01*
X130976000Y-65678260D01*
X131033068Y-65965158D01*
X131145010Y-66235411D01*
X131307525Y-66478632D01*
X131514368Y-66685475D01*
X131688760Y-66802000D01*
X131514368Y-66918525D01*
X131307525Y-67125368D01*
X131145010Y-67368589D01*
X131033068Y-67638842D01*
X130976000Y-67925740D01*
X130976000Y-68218260D01*
X131033068Y-68505158D01*
X131145010Y-68775411D01*
X131307525Y-69018632D01*
X131514368Y-69225475D01*
X131688760Y-69342000D01*
X131514368Y-69458525D01*
X131307525Y-69665368D01*
X131145010Y-69908589D01*
X131033068Y-70178842D01*
X130976000Y-70465740D01*
X130976000Y-70758260D01*
X131033068Y-71045158D01*
X131145010Y-71315411D01*
X131307525Y-71558632D01*
X131514368Y-71765475D01*
X131688760Y-71882000D01*
X131514368Y-71998525D01*
X131307525Y-72205368D01*
X131145010Y-72448589D01*
X131033068Y-72718842D01*
X130976000Y-73005740D01*
X130976000Y-73298260D01*
X131033068Y-73585158D01*
X131145010Y-73855411D01*
X131307525Y-74098632D01*
X131514368Y-74305475D01*
X131688760Y-74422000D01*
X131514368Y-74538525D01*
X131307525Y-74745368D01*
X131145010Y-74988589D01*
X131033068Y-75258842D01*
X130976000Y-75545740D01*
X130976000Y-75838260D01*
X131033068Y-76125158D01*
X131145010Y-76395411D01*
X131307525Y-76638632D01*
X131514368Y-76845475D01*
X131688760Y-76962000D01*
X131514368Y-77078525D01*
X131307525Y-77285368D01*
X131145010Y-77528589D01*
X131033068Y-77798842D01*
X130976000Y-78085740D01*
X130976000Y-78378260D01*
X131033068Y-78665158D01*
X131145010Y-78935411D01*
X131307525Y-79178632D01*
X131514368Y-79385475D01*
X131688760Y-79502000D01*
X131514368Y-79618525D01*
X131307525Y-79825368D01*
X131145010Y-80068589D01*
X131033068Y-80338842D01*
X130976000Y-80625740D01*
X130976000Y-80918260D01*
X131033068Y-81205158D01*
X131145010Y-81475411D01*
X131307525Y-81718632D01*
X131514368Y-81925475D01*
X131688760Y-82042000D01*
X131514368Y-82158525D01*
X131307525Y-82365368D01*
X131145010Y-82608589D01*
X131033068Y-82878842D01*
X130976000Y-83165740D01*
X130976000Y-83458260D01*
X131033068Y-83745158D01*
X131145010Y-84015411D01*
X131307525Y-84258632D01*
X131514368Y-84465475D01*
X131688760Y-84582000D01*
X131514368Y-84698525D01*
X131307525Y-84905368D01*
X131145010Y-85148589D01*
X131033068Y-85418842D01*
X130976000Y-85705740D01*
X130976000Y-85998260D01*
X131033068Y-86285158D01*
X131145010Y-86555411D01*
X131307525Y-86798632D01*
X131514368Y-87005475D01*
X131688760Y-87122000D01*
X131514368Y-87238525D01*
X131307525Y-87445368D01*
X131145010Y-87688589D01*
X131033068Y-87958842D01*
X130976000Y-88245740D01*
X130976000Y-88538260D01*
X131033068Y-88825158D01*
X131145010Y-89095411D01*
X131307525Y-89338632D01*
X131514368Y-89545475D01*
X131688760Y-89662000D01*
X131514368Y-89778525D01*
X131307525Y-89985368D01*
X131145010Y-90228589D01*
X131033068Y-90498842D01*
X130976000Y-90785740D01*
X130976000Y-91078260D01*
X131033068Y-91365158D01*
X131145010Y-91635411D01*
X131307525Y-91878632D01*
X131514368Y-92085475D01*
X131688760Y-92202000D01*
X131514368Y-92318525D01*
X131307525Y-92525368D01*
X131145010Y-92768589D01*
X131033068Y-93038842D01*
X130976000Y-93325740D01*
X130976000Y-93618260D01*
X131033068Y-93905158D01*
X131145010Y-94175411D01*
X131307525Y-94418632D01*
X131514368Y-94625475D01*
X131688760Y-94742000D01*
X131514368Y-94858525D01*
X131307525Y-95065368D01*
X131145010Y-95308589D01*
X131033068Y-95578842D01*
X130976000Y-95865740D01*
X130976000Y-96158260D01*
X131033068Y-96445158D01*
X131145010Y-96715411D01*
X131307525Y-96958632D01*
X131514368Y-97165475D01*
X131688760Y-97282000D01*
X131514368Y-97398525D01*
X131307525Y-97605368D01*
X131145010Y-97848589D01*
X131033068Y-98118842D01*
X130976000Y-98405740D01*
X130976000Y-98698260D01*
X131033068Y-98985158D01*
X131145010Y-99255411D01*
X131307525Y-99498632D01*
X131514368Y-99705475D01*
X131688760Y-99822000D01*
X131514368Y-99938525D01*
X131307525Y-100145368D01*
X131145010Y-100388589D01*
X131033068Y-100658842D01*
X130976000Y-100945740D01*
X130976000Y-101238260D01*
X131033068Y-101525158D01*
X131145010Y-101795411D01*
X131307525Y-102038632D01*
X131514368Y-102245475D01*
X131688760Y-102362000D01*
X131514368Y-102478525D01*
X131307525Y-102685368D01*
X131145010Y-102928589D01*
X131033068Y-103198842D01*
X130976000Y-103485740D01*
X130976000Y-103778260D01*
X131033068Y-104065158D01*
X131145010Y-104335411D01*
X131307525Y-104578632D01*
X131514368Y-104785475D01*
X131688760Y-104902000D01*
X131514368Y-105018525D01*
X131307525Y-105225368D01*
X131145010Y-105468589D01*
X131033068Y-105738842D01*
X130976000Y-106025740D01*
X130976000Y-106318260D01*
X131033068Y-106605158D01*
X131145010Y-106875411D01*
X131307525Y-107118632D01*
X131514368Y-107325475D01*
X131757589Y-107487990D01*
X132027842Y-107599932D01*
X132314740Y-107657000D01*
X132607260Y-107657000D01*
X132894158Y-107599932D01*
X133164411Y-107487990D01*
X133407632Y-107325475D01*
X133614475Y-107118632D01*
X133732100Y-106942594D01*
X133903412Y-107172269D01*
X134119645Y-107367178D01*
X134369748Y-107516157D01*
X134644109Y-107613481D01*
X134874000Y-107492814D01*
X134874000Y-106299000D01*
X134854000Y-106299000D01*
X134854000Y-106045000D01*
X134874000Y-106045000D01*
X134874000Y-103759000D01*
X134854000Y-103759000D01*
X134854000Y-103505000D01*
X134874000Y-103505000D01*
X134874000Y-101219000D01*
X134854000Y-101219000D01*
X134854000Y-100965000D01*
X134874000Y-100965000D01*
X134874000Y-98679000D01*
X134854000Y-98679000D01*
X134854000Y-98425000D01*
X134874000Y-98425000D01*
X134874000Y-96139000D01*
X134854000Y-96139000D01*
X134854000Y-95885000D01*
X134874000Y-95885000D01*
X134874000Y-93599000D01*
X134854000Y-93599000D01*
X134854000Y-93345000D01*
X134874000Y-93345000D01*
X134874000Y-91059000D01*
X134854000Y-91059000D01*
X134854000Y-90805000D01*
X134874000Y-90805000D01*
X134874000Y-88519000D01*
X134854000Y-88519000D01*
X134854000Y-88265000D01*
X134874000Y-88265000D01*
X134874000Y-85979000D01*
X134854000Y-85979000D01*
X134854000Y-85725000D01*
X134874000Y-85725000D01*
X134874000Y-83439000D01*
X134854000Y-83439000D01*
X134854000Y-83185000D01*
X134874000Y-83185000D01*
X134874000Y-80899000D01*
X134854000Y-80899000D01*
X134854000Y-80645000D01*
X134874000Y-80645000D01*
X134874000Y-78359000D01*
X134854000Y-78359000D01*
X134854000Y-78105000D01*
X134874000Y-78105000D01*
X134874000Y-75819000D01*
X134854000Y-75819000D01*
X134854000Y-75565000D01*
X134874000Y-75565000D01*
X134874000Y-73279000D01*
X134854000Y-73279000D01*
X134854000Y-73025000D01*
X134874000Y-73025000D01*
X134874000Y-70739000D01*
X134854000Y-70739000D01*
X134854000Y-70485000D01*
X134874000Y-70485000D01*
X134874000Y-68199000D01*
X134854000Y-68199000D01*
X134854000Y-67945000D01*
X134874000Y-67945000D01*
X134874000Y-65659000D01*
X134854000Y-65659000D01*
X134854000Y-65405000D01*
X134874000Y-65405000D01*
X134874000Y-63119000D01*
X134854000Y-63119000D01*
X134854000Y-62865000D01*
X134874000Y-62865000D01*
X134874000Y-60579000D01*
X134854000Y-60579000D01*
X134854000Y-60325000D01*
X134874000Y-60325000D01*
X134874000Y-58039000D01*
X134854000Y-58039000D01*
X134854000Y-57785000D01*
X134874000Y-57785000D01*
X134874000Y-56585750D01*
X134715250Y-56427000D01*
X134151000Y-56423928D01*
X134026518Y-56436188D01*
X133906820Y-56472498D01*
X133796506Y-56531463D01*
X133699815Y-56610815D01*
X133620463Y-56707506D01*
X133561498Y-56817820D01*
X133539487Y-56890380D01*
X133407632Y-56758525D01*
X133164411Y-56596010D01*
X132894158Y-56484068D01*
X132607260Y-56427000D01*
X132314740Y-56427000D01*
X132027842Y-56484068D01*
X131757589Y-56596010D01*
X131514368Y-56758525D01*
X131307525Y-56965368D01*
X131145010Y-57208589D01*
X131033068Y-57478842D01*
X130976000Y-57765740D01*
X128218510Y-57765740D01*
X128358000Y-57626250D01*
X128361072Y-57062000D01*
X128348812Y-56937518D01*
X128312502Y-56817820D01*
X128253537Y-56707506D01*
X128174185Y-56610815D01*
X128077494Y-56531463D01*
X127967180Y-56472498D01*
X127847482Y-56436188D01*
X127723000Y-56423928D01*
X127158750Y-56427000D01*
X127000000Y-56585750D01*
X126746000Y-56585750D01*
X126587250Y-56427000D01*
X126023000Y-56423928D01*
X125898518Y-56436188D01*
X125778820Y-56472498D01*
X125668506Y-56531463D01*
X125571815Y-56610815D01*
X125492463Y-56707506D01*
X125433498Y-56817820D01*
X125410502Y-56893626D01*
X125214355Y-56716822D01*
X124964252Y-56567843D01*
X124689891Y-56470519D01*
X124460000Y-56591186D01*
X124206000Y-56591186D01*
X123976109Y-56470519D01*
X123701748Y-56567843D01*
X123451645Y-56716822D01*
X123386958Y-56775130D01*
X123377537Y-56757506D01*
X123298185Y-56660815D01*
X123201494Y-56581463D01*
X123091180Y-56522498D01*
X122971482Y-56486188D01*
X122847000Y-56473928D01*
X122332750Y-56477000D01*
X122174000Y-56635750D01*
X121920000Y-56635750D01*
X121761250Y-56477000D01*
X121310000Y-56474304D01*
X121310000Y-55181212D01*
X122151516Y-54508000D01*
X126084098Y-54508000D01*
X126638661Y-55617128D01*
M02*
