G04 #@! TF.GenerationSoftware,KiCad,Pcbnew,(5.1.5-0-10_14)*
G04 #@! TF.CreationDate,2021-04-13T14:10:52+02:00*
G04 #@! TF.ProjectId,UUT_Cable_Header,5555545f-4361-4626-9c65-5f4865616465,rev?*
G04 #@! TF.SameCoordinates,Original*
G04 #@! TF.FileFunction,Soldermask,Top*
G04 #@! TF.FilePolarity,Negative*
%FSLAX46Y46*%
G04 Gerber Fmt 4.6, Leading zero omitted, Abs format (unit mm)*
G04 Created by KiCad (PCBNEW (5.1.5-0-10_14)) date 2021-04-13 14:10:52*
%MOMM*%
%LPD*%
G04 APERTURE LIST*
%ADD10C,0.100000*%
G04 APERTURE END LIST*
D10*
G36*
X135114512Y-105275927D02*
G01*
X135263812Y-105305624D01*
X135427784Y-105373544D01*
X135575354Y-105472147D01*
X135700853Y-105597646D01*
X135799456Y-105745216D01*
X135867376Y-105909188D01*
X135902000Y-106083259D01*
X135902000Y-106260741D01*
X135867376Y-106434812D01*
X135799456Y-106598784D01*
X135700853Y-106746354D01*
X135575354Y-106871853D01*
X135427784Y-106970456D01*
X135263812Y-107038376D01*
X135114512Y-107068073D01*
X135089742Y-107073000D01*
X134912258Y-107073000D01*
X134887488Y-107068073D01*
X134738188Y-107038376D01*
X134574216Y-106970456D01*
X134426646Y-106871853D01*
X134301147Y-106746354D01*
X134202544Y-106598784D01*
X134134624Y-106434812D01*
X134100000Y-106260741D01*
X134100000Y-106083259D01*
X134134624Y-105909188D01*
X134202544Y-105745216D01*
X134301147Y-105597646D01*
X134426646Y-105472147D01*
X134574216Y-105373544D01*
X134738188Y-105305624D01*
X134887488Y-105275927D01*
X134912258Y-105271000D01*
X135089742Y-105271000D01*
X135114512Y-105275927D01*
G37*
G36*
X132574512Y-105275927D02*
G01*
X132723812Y-105305624D01*
X132887784Y-105373544D01*
X133035354Y-105472147D01*
X133160853Y-105597646D01*
X133259456Y-105745216D01*
X133327376Y-105909188D01*
X133362000Y-106083259D01*
X133362000Y-106260741D01*
X133327376Y-106434812D01*
X133259456Y-106598784D01*
X133160853Y-106746354D01*
X133035354Y-106871853D01*
X132887784Y-106970456D01*
X132723812Y-107038376D01*
X132574512Y-107068073D01*
X132549742Y-107073000D01*
X132372258Y-107073000D01*
X132347488Y-107068073D01*
X132198188Y-107038376D01*
X132034216Y-106970456D01*
X131886646Y-106871853D01*
X131761147Y-106746354D01*
X131662544Y-106598784D01*
X131594624Y-106434812D01*
X131560000Y-106260741D01*
X131560000Y-106083259D01*
X131594624Y-105909188D01*
X131662544Y-105745216D01*
X131761147Y-105597646D01*
X131886646Y-105472147D01*
X132034216Y-105373544D01*
X132198188Y-105305624D01*
X132347488Y-105275927D01*
X132372258Y-105271000D01*
X132549742Y-105271000D01*
X132574512Y-105275927D01*
G37*
G36*
X126986512Y-105275927D02*
G01*
X127135812Y-105305624D01*
X127299784Y-105373544D01*
X127447354Y-105472147D01*
X127572853Y-105597646D01*
X127671456Y-105745216D01*
X127739376Y-105909188D01*
X127774000Y-106083259D01*
X127774000Y-106260741D01*
X127739376Y-106434812D01*
X127671456Y-106598784D01*
X127572853Y-106746354D01*
X127447354Y-106871853D01*
X127299784Y-106970456D01*
X127135812Y-107038376D01*
X126986512Y-107068073D01*
X126961742Y-107073000D01*
X126784258Y-107073000D01*
X126759488Y-107068073D01*
X126610188Y-107038376D01*
X126446216Y-106970456D01*
X126298646Y-106871853D01*
X126173147Y-106746354D01*
X126074544Y-106598784D01*
X126006624Y-106434812D01*
X125972000Y-106260741D01*
X125972000Y-106083259D01*
X126006624Y-105909188D01*
X126074544Y-105745216D01*
X126173147Y-105597646D01*
X126298646Y-105472147D01*
X126446216Y-105373544D01*
X126610188Y-105305624D01*
X126759488Y-105275927D01*
X126784258Y-105271000D01*
X126961742Y-105271000D01*
X126986512Y-105275927D01*
G37*
G36*
X124446512Y-105275927D02*
G01*
X124595812Y-105305624D01*
X124759784Y-105373544D01*
X124907354Y-105472147D01*
X125032853Y-105597646D01*
X125131456Y-105745216D01*
X125199376Y-105909188D01*
X125234000Y-106083259D01*
X125234000Y-106260741D01*
X125199376Y-106434812D01*
X125131456Y-106598784D01*
X125032853Y-106746354D01*
X124907354Y-106871853D01*
X124759784Y-106970456D01*
X124595812Y-107038376D01*
X124446512Y-107068073D01*
X124421742Y-107073000D01*
X124244258Y-107073000D01*
X124219488Y-107068073D01*
X124070188Y-107038376D01*
X123906216Y-106970456D01*
X123758646Y-106871853D01*
X123633147Y-106746354D01*
X123534544Y-106598784D01*
X123466624Y-106434812D01*
X123432000Y-106260741D01*
X123432000Y-106083259D01*
X123466624Y-105909188D01*
X123534544Y-105745216D01*
X123633147Y-105597646D01*
X123758646Y-105472147D01*
X123906216Y-105373544D01*
X124070188Y-105305624D01*
X124219488Y-105275927D01*
X124244258Y-105271000D01*
X124421742Y-105271000D01*
X124446512Y-105275927D01*
G37*
G36*
X137535228Y-105353703D02*
G01*
X137690100Y-105417853D01*
X137829481Y-105510985D01*
X137948015Y-105629519D01*
X138041147Y-105768900D01*
X138105297Y-105923772D01*
X138138000Y-106088184D01*
X138138000Y-106255816D01*
X138105297Y-106420228D01*
X138041147Y-106575100D01*
X137948015Y-106714481D01*
X137829481Y-106833015D01*
X137690100Y-106926147D01*
X137535228Y-106990297D01*
X137370816Y-107023000D01*
X137203184Y-107023000D01*
X137038772Y-106990297D01*
X136883900Y-106926147D01*
X136744519Y-106833015D01*
X136625985Y-106714481D01*
X136532853Y-106575100D01*
X136468703Y-106420228D01*
X136436000Y-106255816D01*
X136436000Y-106088184D01*
X136468703Y-105923772D01*
X136532853Y-105768900D01*
X136625985Y-105629519D01*
X136744519Y-105510985D01*
X136883900Y-105417853D01*
X137038772Y-105353703D01*
X137203184Y-105321000D01*
X137370816Y-105321000D01*
X137535228Y-105353703D01*
G37*
G36*
X122295228Y-105353703D02*
G01*
X122450100Y-105417853D01*
X122589481Y-105510985D01*
X122708015Y-105629519D01*
X122801147Y-105768900D01*
X122865297Y-105923772D01*
X122898000Y-106088184D01*
X122898000Y-106255816D01*
X122865297Y-106420228D01*
X122801147Y-106575100D01*
X122708015Y-106714481D01*
X122589481Y-106833015D01*
X122450100Y-106926147D01*
X122295228Y-106990297D01*
X122130816Y-107023000D01*
X121963184Y-107023000D01*
X121798772Y-106990297D01*
X121643900Y-106926147D01*
X121504519Y-106833015D01*
X121385985Y-106714481D01*
X121292853Y-106575100D01*
X121228703Y-106420228D01*
X121196000Y-106255816D01*
X121196000Y-106088184D01*
X121228703Y-105923772D01*
X121292853Y-105768900D01*
X121385985Y-105629519D01*
X121504519Y-105510985D01*
X121643900Y-105417853D01*
X121798772Y-105353703D01*
X121963184Y-105321000D01*
X122130816Y-105321000D01*
X122295228Y-105353703D01*
G37*
G36*
X135114512Y-102735927D02*
G01*
X135263812Y-102765624D01*
X135427784Y-102833544D01*
X135575354Y-102932147D01*
X135700853Y-103057646D01*
X135799456Y-103205216D01*
X135867376Y-103369188D01*
X135902000Y-103543259D01*
X135902000Y-103720741D01*
X135867376Y-103894812D01*
X135799456Y-104058784D01*
X135700853Y-104206354D01*
X135575354Y-104331853D01*
X135427784Y-104430456D01*
X135263812Y-104498376D01*
X135114512Y-104528073D01*
X135089742Y-104533000D01*
X134912258Y-104533000D01*
X134887488Y-104528073D01*
X134738188Y-104498376D01*
X134574216Y-104430456D01*
X134426646Y-104331853D01*
X134301147Y-104206354D01*
X134202544Y-104058784D01*
X134134624Y-103894812D01*
X134100000Y-103720741D01*
X134100000Y-103543259D01*
X134134624Y-103369188D01*
X134202544Y-103205216D01*
X134301147Y-103057646D01*
X134426646Y-102932147D01*
X134574216Y-102833544D01*
X134738188Y-102765624D01*
X134887488Y-102735927D01*
X134912258Y-102731000D01*
X135089742Y-102731000D01*
X135114512Y-102735927D01*
G37*
G36*
X132574512Y-102735927D02*
G01*
X132723812Y-102765624D01*
X132887784Y-102833544D01*
X133035354Y-102932147D01*
X133160853Y-103057646D01*
X133259456Y-103205216D01*
X133327376Y-103369188D01*
X133362000Y-103543259D01*
X133362000Y-103720741D01*
X133327376Y-103894812D01*
X133259456Y-104058784D01*
X133160853Y-104206354D01*
X133035354Y-104331853D01*
X132887784Y-104430456D01*
X132723812Y-104498376D01*
X132574512Y-104528073D01*
X132549742Y-104533000D01*
X132372258Y-104533000D01*
X132347488Y-104528073D01*
X132198188Y-104498376D01*
X132034216Y-104430456D01*
X131886646Y-104331853D01*
X131761147Y-104206354D01*
X131662544Y-104058784D01*
X131594624Y-103894812D01*
X131560000Y-103720741D01*
X131560000Y-103543259D01*
X131594624Y-103369188D01*
X131662544Y-103205216D01*
X131761147Y-103057646D01*
X131886646Y-102932147D01*
X132034216Y-102833544D01*
X132198188Y-102765624D01*
X132347488Y-102735927D01*
X132372258Y-102731000D01*
X132549742Y-102731000D01*
X132574512Y-102735927D01*
G37*
G36*
X126986512Y-102735927D02*
G01*
X127135812Y-102765624D01*
X127299784Y-102833544D01*
X127447354Y-102932147D01*
X127572853Y-103057646D01*
X127671456Y-103205216D01*
X127739376Y-103369188D01*
X127774000Y-103543259D01*
X127774000Y-103720741D01*
X127739376Y-103894812D01*
X127671456Y-104058784D01*
X127572853Y-104206354D01*
X127447354Y-104331853D01*
X127299784Y-104430456D01*
X127135812Y-104498376D01*
X126986512Y-104528073D01*
X126961742Y-104533000D01*
X126784258Y-104533000D01*
X126759488Y-104528073D01*
X126610188Y-104498376D01*
X126446216Y-104430456D01*
X126298646Y-104331853D01*
X126173147Y-104206354D01*
X126074544Y-104058784D01*
X126006624Y-103894812D01*
X125972000Y-103720741D01*
X125972000Y-103543259D01*
X126006624Y-103369188D01*
X126074544Y-103205216D01*
X126173147Y-103057646D01*
X126298646Y-102932147D01*
X126446216Y-102833544D01*
X126610188Y-102765624D01*
X126759488Y-102735927D01*
X126784258Y-102731000D01*
X126961742Y-102731000D01*
X126986512Y-102735927D01*
G37*
G36*
X124446512Y-102735927D02*
G01*
X124595812Y-102765624D01*
X124759784Y-102833544D01*
X124907354Y-102932147D01*
X125032853Y-103057646D01*
X125131456Y-103205216D01*
X125199376Y-103369188D01*
X125234000Y-103543259D01*
X125234000Y-103720741D01*
X125199376Y-103894812D01*
X125131456Y-104058784D01*
X125032853Y-104206354D01*
X124907354Y-104331853D01*
X124759784Y-104430456D01*
X124595812Y-104498376D01*
X124446512Y-104528073D01*
X124421742Y-104533000D01*
X124244258Y-104533000D01*
X124219488Y-104528073D01*
X124070188Y-104498376D01*
X123906216Y-104430456D01*
X123758646Y-104331853D01*
X123633147Y-104206354D01*
X123534544Y-104058784D01*
X123466624Y-103894812D01*
X123432000Y-103720741D01*
X123432000Y-103543259D01*
X123466624Y-103369188D01*
X123534544Y-103205216D01*
X123633147Y-103057646D01*
X123758646Y-102932147D01*
X123906216Y-102833544D01*
X124070188Y-102765624D01*
X124219488Y-102735927D01*
X124244258Y-102731000D01*
X124421742Y-102731000D01*
X124446512Y-102735927D01*
G37*
G36*
X137535228Y-102813703D02*
G01*
X137690100Y-102877853D01*
X137829481Y-102970985D01*
X137948015Y-103089519D01*
X138041147Y-103228900D01*
X138105297Y-103383772D01*
X138138000Y-103548184D01*
X138138000Y-103715816D01*
X138105297Y-103880228D01*
X138041147Y-104035100D01*
X137948015Y-104174481D01*
X137829481Y-104293015D01*
X137690100Y-104386147D01*
X137535228Y-104450297D01*
X137370816Y-104483000D01*
X137203184Y-104483000D01*
X137038772Y-104450297D01*
X136883900Y-104386147D01*
X136744519Y-104293015D01*
X136625985Y-104174481D01*
X136532853Y-104035100D01*
X136468703Y-103880228D01*
X136436000Y-103715816D01*
X136436000Y-103548184D01*
X136468703Y-103383772D01*
X136532853Y-103228900D01*
X136625985Y-103089519D01*
X136744519Y-102970985D01*
X136883900Y-102877853D01*
X137038772Y-102813703D01*
X137203184Y-102781000D01*
X137370816Y-102781000D01*
X137535228Y-102813703D01*
G37*
G36*
X122295228Y-102813703D02*
G01*
X122450100Y-102877853D01*
X122589481Y-102970985D01*
X122708015Y-103089519D01*
X122801147Y-103228900D01*
X122865297Y-103383772D01*
X122898000Y-103548184D01*
X122898000Y-103715816D01*
X122865297Y-103880228D01*
X122801147Y-104035100D01*
X122708015Y-104174481D01*
X122589481Y-104293015D01*
X122450100Y-104386147D01*
X122295228Y-104450297D01*
X122130816Y-104483000D01*
X121963184Y-104483000D01*
X121798772Y-104450297D01*
X121643900Y-104386147D01*
X121504519Y-104293015D01*
X121385985Y-104174481D01*
X121292853Y-104035100D01*
X121228703Y-103880228D01*
X121196000Y-103715816D01*
X121196000Y-103548184D01*
X121228703Y-103383772D01*
X121292853Y-103228900D01*
X121385985Y-103089519D01*
X121504519Y-102970985D01*
X121643900Y-102877853D01*
X121798772Y-102813703D01*
X121963184Y-102781000D01*
X122130816Y-102781000D01*
X122295228Y-102813703D01*
G37*
G36*
X135114512Y-100195927D02*
G01*
X135263812Y-100225624D01*
X135427784Y-100293544D01*
X135575354Y-100392147D01*
X135700853Y-100517646D01*
X135799456Y-100665216D01*
X135867376Y-100829188D01*
X135902000Y-101003259D01*
X135902000Y-101180741D01*
X135867376Y-101354812D01*
X135799456Y-101518784D01*
X135700853Y-101666354D01*
X135575354Y-101791853D01*
X135427784Y-101890456D01*
X135263812Y-101958376D01*
X135114512Y-101988073D01*
X135089742Y-101993000D01*
X134912258Y-101993000D01*
X134887488Y-101988073D01*
X134738188Y-101958376D01*
X134574216Y-101890456D01*
X134426646Y-101791853D01*
X134301147Y-101666354D01*
X134202544Y-101518784D01*
X134134624Y-101354812D01*
X134100000Y-101180741D01*
X134100000Y-101003259D01*
X134134624Y-100829188D01*
X134202544Y-100665216D01*
X134301147Y-100517646D01*
X134426646Y-100392147D01*
X134574216Y-100293544D01*
X134738188Y-100225624D01*
X134887488Y-100195927D01*
X134912258Y-100191000D01*
X135089742Y-100191000D01*
X135114512Y-100195927D01*
G37*
G36*
X132574512Y-100195927D02*
G01*
X132723812Y-100225624D01*
X132887784Y-100293544D01*
X133035354Y-100392147D01*
X133160853Y-100517646D01*
X133259456Y-100665216D01*
X133327376Y-100829188D01*
X133362000Y-101003259D01*
X133362000Y-101180741D01*
X133327376Y-101354812D01*
X133259456Y-101518784D01*
X133160853Y-101666354D01*
X133035354Y-101791853D01*
X132887784Y-101890456D01*
X132723812Y-101958376D01*
X132574512Y-101988073D01*
X132549742Y-101993000D01*
X132372258Y-101993000D01*
X132347488Y-101988073D01*
X132198188Y-101958376D01*
X132034216Y-101890456D01*
X131886646Y-101791853D01*
X131761147Y-101666354D01*
X131662544Y-101518784D01*
X131594624Y-101354812D01*
X131560000Y-101180741D01*
X131560000Y-101003259D01*
X131594624Y-100829188D01*
X131662544Y-100665216D01*
X131761147Y-100517646D01*
X131886646Y-100392147D01*
X132034216Y-100293544D01*
X132198188Y-100225624D01*
X132347488Y-100195927D01*
X132372258Y-100191000D01*
X132549742Y-100191000D01*
X132574512Y-100195927D01*
G37*
G36*
X124446512Y-100195927D02*
G01*
X124595812Y-100225624D01*
X124759784Y-100293544D01*
X124907354Y-100392147D01*
X125032853Y-100517646D01*
X125131456Y-100665216D01*
X125199376Y-100829188D01*
X125234000Y-101003259D01*
X125234000Y-101180741D01*
X125199376Y-101354812D01*
X125131456Y-101518784D01*
X125032853Y-101666354D01*
X124907354Y-101791853D01*
X124759784Y-101890456D01*
X124595812Y-101958376D01*
X124446512Y-101988073D01*
X124421742Y-101993000D01*
X124244258Y-101993000D01*
X124219488Y-101988073D01*
X124070188Y-101958376D01*
X123906216Y-101890456D01*
X123758646Y-101791853D01*
X123633147Y-101666354D01*
X123534544Y-101518784D01*
X123466624Y-101354812D01*
X123432000Y-101180741D01*
X123432000Y-101003259D01*
X123466624Y-100829188D01*
X123534544Y-100665216D01*
X123633147Y-100517646D01*
X123758646Y-100392147D01*
X123906216Y-100293544D01*
X124070188Y-100225624D01*
X124219488Y-100195927D01*
X124244258Y-100191000D01*
X124421742Y-100191000D01*
X124446512Y-100195927D01*
G37*
G36*
X126986512Y-100195927D02*
G01*
X127135812Y-100225624D01*
X127299784Y-100293544D01*
X127447354Y-100392147D01*
X127572853Y-100517646D01*
X127671456Y-100665216D01*
X127739376Y-100829188D01*
X127774000Y-101003259D01*
X127774000Y-101180741D01*
X127739376Y-101354812D01*
X127671456Y-101518784D01*
X127572853Y-101666354D01*
X127447354Y-101791853D01*
X127299784Y-101890456D01*
X127135812Y-101958376D01*
X126986512Y-101988073D01*
X126961742Y-101993000D01*
X126784258Y-101993000D01*
X126759488Y-101988073D01*
X126610188Y-101958376D01*
X126446216Y-101890456D01*
X126298646Y-101791853D01*
X126173147Y-101666354D01*
X126074544Y-101518784D01*
X126006624Y-101354812D01*
X125972000Y-101180741D01*
X125972000Y-101003259D01*
X126006624Y-100829188D01*
X126074544Y-100665216D01*
X126173147Y-100517646D01*
X126298646Y-100392147D01*
X126446216Y-100293544D01*
X126610188Y-100225624D01*
X126759488Y-100195927D01*
X126784258Y-100191000D01*
X126961742Y-100191000D01*
X126986512Y-100195927D01*
G37*
G36*
X122295228Y-100273703D02*
G01*
X122450100Y-100337853D01*
X122589481Y-100430985D01*
X122708015Y-100549519D01*
X122801147Y-100688900D01*
X122865297Y-100843772D01*
X122898000Y-101008184D01*
X122898000Y-101175816D01*
X122865297Y-101340228D01*
X122801147Y-101495100D01*
X122708015Y-101634481D01*
X122589481Y-101753015D01*
X122450100Y-101846147D01*
X122295228Y-101910297D01*
X122130816Y-101943000D01*
X121963184Y-101943000D01*
X121798772Y-101910297D01*
X121643900Y-101846147D01*
X121504519Y-101753015D01*
X121385985Y-101634481D01*
X121292853Y-101495100D01*
X121228703Y-101340228D01*
X121196000Y-101175816D01*
X121196000Y-101008184D01*
X121228703Y-100843772D01*
X121292853Y-100688900D01*
X121385985Y-100549519D01*
X121504519Y-100430985D01*
X121643900Y-100337853D01*
X121798772Y-100273703D01*
X121963184Y-100241000D01*
X122130816Y-100241000D01*
X122295228Y-100273703D01*
G37*
G36*
X137535228Y-100273703D02*
G01*
X137690100Y-100337853D01*
X137829481Y-100430985D01*
X137948015Y-100549519D01*
X138041147Y-100688900D01*
X138105297Y-100843772D01*
X138138000Y-101008184D01*
X138138000Y-101175816D01*
X138105297Y-101340228D01*
X138041147Y-101495100D01*
X137948015Y-101634481D01*
X137829481Y-101753015D01*
X137690100Y-101846147D01*
X137535228Y-101910297D01*
X137370816Y-101943000D01*
X137203184Y-101943000D01*
X137038772Y-101910297D01*
X136883900Y-101846147D01*
X136744519Y-101753015D01*
X136625985Y-101634481D01*
X136532853Y-101495100D01*
X136468703Y-101340228D01*
X136436000Y-101175816D01*
X136436000Y-101008184D01*
X136468703Y-100843772D01*
X136532853Y-100688900D01*
X136625985Y-100549519D01*
X136744519Y-100430985D01*
X136883900Y-100337853D01*
X137038772Y-100273703D01*
X137203184Y-100241000D01*
X137370816Y-100241000D01*
X137535228Y-100273703D01*
G37*
G36*
X124446512Y-97655927D02*
G01*
X124595812Y-97685624D01*
X124759784Y-97753544D01*
X124907354Y-97852147D01*
X125032853Y-97977646D01*
X125131456Y-98125216D01*
X125199376Y-98289188D01*
X125234000Y-98463259D01*
X125234000Y-98640741D01*
X125199376Y-98814812D01*
X125131456Y-98978784D01*
X125032853Y-99126354D01*
X124907354Y-99251853D01*
X124759784Y-99350456D01*
X124595812Y-99418376D01*
X124446512Y-99448073D01*
X124421742Y-99453000D01*
X124244258Y-99453000D01*
X124219488Y-99448073D01*
X124070188Y-99418376D01*
X123906216Y-99350456D01*
X123758646Y-99251853D01*
X123633147Y-99126354D01*
X123534544Y-98978784D01*
X123466624Y-98814812D01*
X123432000Y-98640741D01*
X123432000Y-98463259D01*
X123466624Y-98289188D01*
X123534544Y-98125216D01*
X123633147Y-97977646D01*
X123758646Y-97852147D01*
X123906216Y-97753544D01*
X124070188Y-97685624D01*
X124219488Y-97655927D01*
X124244258Y-97651000D01*
X124421742Y-97651000D01*
X124446512Y-97655927D01*
G37*
G36*
X135114512Y-97655927D02*
G01*
X135263812Y-97685624D01*
X135427784Y-97753544D01*
X135575354Y-97852147D01*
X135700853Y-97977646D01*
X135799456Y-98125216D01*
X135867376Y-98289188D01*
X135902000Y-98463259D01*
X135902000Y-98640741D01*
X135867376Y-98814812D01*
X135799456Y-98978784D01*
X135700853Y-99126354D01*
X135575354Y-99251853D01*
X135427784Y-99350456D01*
X135263812Y-99418376D01*
X135114512Y-99448073D01*
X135089742Y-99453000D01*
X134912258Y-99453000D01*
X134887488Y-99448073D01*
X134738188Y-99418376D01*
X134574216Y-99350456D01*
X134426646Y-99251853D01*
X134301147Y-99126354D01*
X134202544Y-98978784D01*
X134134624Y-98814812D01*
X134100000Y-98640741D01*
X134100000Y-98463259D01*
X134134624Y-98289188D01*
X134202544Y-98125216D01*
X134301147Y-97977646D01*
X134426646Y-97852147D01*
X134574216Y-97753544D01*
X134738188Y-97685624D01*
X134887488Y-97655927D01*
X134912258Y-97651000D01*
X135089742Y-97651000D01*
X135114512Y-97655927D01*
G37*
G36*
X126986512Y-97655927D02*
G01*
X127135812Y-97685624D01*
X127299784Y-97753544D01*
X127447354Y-97852147D01*
X127572853Y-97977646D01*
X127671456Y-98125216D01*
X127739376Y-98289188D01*
X127774000Y-98463259D01*
X127774000Y-98640741D01*
X127739376Y-98814812D01*
X127671456Y-98978784D01*
X127572853Y-99126354D01*
X127447354Y-99251853D01*
X127299784Y-99350456D01*
X127135812Y-99418376D01*
X126986512Y-99448073D01*
X126961742Y-99453000D01*
X126784258Y-99453000D01*
X126759488Y-99448073D01*
X126610188Y-99418376D01*
X126446216Y-99350456D01*
X126298646Y-99251853D01*
X126173147Y-99126354D01*
X126074544Y-98978784D01*
X126006624Y-98814812D01*
X125972000Y-98640741D01*
X125972000Y-98463259D01*
X126006624Y-98289188D01*
X126074544Y-98125216D01*
X126173147Y-97977646D01*
X126298646Y-97852147D01*
X126446216Y-97753544D01*
X126610188Y-97685624D01*
X126759488Y-97655927D01*
X126784258Y-97651000D01*
X126961742Y-97651000D01*
X126986512Y-97655927D01*
G37*
G36*
X132574512Y-97655927D02*
G01*
X132723812Y-97685624D01*
X132887784Y-97753544D01*
X133035354Y-97852147D01*
X133160853Y-97977646D01*
X133259456Y-98125216D01*
X133327376Y-98289188D01*
X133362000Y-98463259D01*
X133362000Y-98640741D01*
X133327376Y-98814812D01*
X133259456Y-98978784D01*
X133160853Y-99126354D01*
X133035354Y-99251853D01*
X132887784Y-99350456D01*
X132723812Y-99418376D01*
X132574512Y-99448073D01*
X132549742Y-99453000D01*
X132372258Y-99453000D01*
X132347488Y-99448073D01*
X132198188Y-99418376D01*
X132034216Y-99350456D01*
X131886646Y-99251853D01*
X131761147Y-99126354D01*
X131662544Y-98978784D01*
X131594624Y-98814812D01*
X131560000Y-98640741D01*
X131560000Y-98463259D01*
X131594624Y-98289188D01*
X131662544Y-98125216D01*
X131761147Y-97977646D01*
X131886646Y-97852147D01*
X132034216Y-97753544D01*
X132198188Y-97685624D01*
X132347488Y-97655927D01*
X132372258Y-97651000D01*
X132549742Y-97651000D01*
X132574512Y-97655927D01*
G37*
G36*
X122295228Y-97733703D02*
G01*
X122450100Y-97797853D01*
X122589481Y-97890985D01*
X122708015Y-98009519D01*
X122801147Y-98148900D01*
X122865297Y-98303772D01*
X122898000Y-98468184D01*
X122898000Y-98635816D01*
X122865297Y-98800228D01*
X122801147Y-98955100D01*
X122708015Y-99094481D01*
X122589481Y-99213015D01*
X122450100Y-99306147D01*
X122295228Y-99370297D01*
X122130816Y-99403000D01*
X121963184Y-99403000D01*
X121798772Y-99370297D01*
X121643900Y-99306147D01*
X121504519Y-99213015D01*
X121385985Y-99094481D01*
X121292853Y-98955100D01*
X121228703Y-98800228D01*
X121196000Y-98635816D01*
X121196000Y-98468184D01*
X121228703Y-98303772D01*
X121292853Y-98148900D01*
X121385985Y-98009519D01*
X121504519Y-97890985D01*
X121643900Y-97797853D01*
X121798772Y-97733703D01*
X121963184Y-97701000D01*
X122130816Y-97701000D01*
X122295228Y-97733703D01*
G37*
G36*
X137535228Y-97733703D02*
G01*
X137690100Y-97797853D01*
X137829481Y-97890985D01*
X137948015Y-98009519D01*
X138041147Y-98148900D01*
X138105297Y-98303772D01*
X138138000Y-98468184D01*
X138138000Y-98635816D01*
X138105297Y-98800228D01*
X138041147Y-98955100D01*
X137948015Y-99094481D01*
X137829481Y-99213015D01*
X137690100Y-99306147D01*
X137535228Y-99370297D01*
X137370816Y-99403000D01*
X137203184Y-99403000D01*
X137038772Y-99370297D01*
X136883900Y-99306147D01*
X136744519Y-99213015D01*
X136625985Y-99094481D01*
X136532853Y-98955100D01*
X136468703Y-98800228D01*
X136436000Y-98635816D01*
X136436000Y-98468184D01*
X136468703Y-98303772D01*
X136532853Y-98148900D01*
X136625985Y-98009519D01*
X136744519Y-97890985D01*
X136883900Y-97797853D01*
X137038772Y-97733703D01*
X137203184Y-97701000D01*
X137370816Y-97701000D01*
X137535228Y-97733703D01*
G37*
G36*
X132574512Y-95115927D02*
G01*
X132723812Y-95145624D01*
X132887784Y-95213544D01*
X133035354Y-95312147D01*
X133160853Y-95437646D01*
X133259456Y-95585216D01*
X133327376Y-95749188D01*
X133362000Y-95923259D01*
X133362000Y-96100741D01*
X133327376Y-96274812D01*
X133259456Y-96438784D01*
X133160853Y-96586354D01*
X133035354Y-96711853D01*
X132887784Y-96810456D01*
X132723812Y-96878376D01*
X132574512Y-96908073D01*
X132549742Y-96913000D01*
X132372258Y-96913000D01*
X132347488Y-96908073D01*
X132198188Y-96878376D01*
X132034216Y-96810456D01*
X131886646Y-96711853D01*
X131761147Y-96586354D01*
X131662544Y-96438784D01*
X131594624Y-96274812D01*
X131560000Y-96100741D01*
X131560000Y-95923259D01*
X131594624Y-95749188D01*
X131662544Y-95585216D01*
X131761147Y-95437646D01*
X131886646Y-95312147D01*
X132034216Y-95213544D01*
X132198188Y-95145624D01*
X132347488Y-95115927D01*
X132372258Y-95111000D01*
X132549742Y-95111000D01*
X132574512Y-95115927D01*
G37*
G36*
X124446512Y-95115927D02*
G01*
X124595812Y-95145624D01*
X124759784Y-95213544D01*
X124907354Y-95312147D01*
X125032853Y-95437646D01*
X125131456Y-95585216D01*
X125199376Y-95749188D01*
X125234000Y-95923259D01*
X125234000Y-96100741D01*
X125199376Y-96274812D01*
X125131456Y-96438784D01*
X125032853Y-96586354D01*
X124907354Y-96711853D01*
X124759784Y-96810456D01*
X124595812Y-96878376D01*
X124446512Y-96908073D01*
X124421742Y-96913000D01*
X124244258Y-96913000D01*
X124219488Y-96908073D01*
X124070188Y-96878376D01*
X123906216Y-96810456D01*
X123758646Y-96711853D01*
X123633147Y-96586354D01*
X123534544Y-96438784D01*
X123466624Y-96274812D01*
X123432000Y-96100741D01*
X123432000Y-95923259D01*
X123466624Y-95749188D01*
X123534544Y-95585216D01*
X123633147Y-95437646D01*
X123758646Y-95312147D01*
X123906216Y-95213544D01*
X124070188Y-95145624D01*
X124219488Y-95115927D01*
X124244258Y-95111000D01*
X124421742Y-95111000D01*
X124446512Y-95115927D01*
G37*
G36*
X126986512Y-95115927D02*
G01*
X127135812Y-95145624D01*
X127299784Y-95213544D01*
X127447354Y-95312147D01*
X127572853Y-95437646D01*
X127671456Y-95585216D01*
X127739376Y-95749188D01*
X127774000Y-95923259D01*
X127774000Y-96100741D01*
X127739376Y-96274812D01*
X127671456Y-96438784D01*
X127572853Y-96586354D01*
X127447354Y-96711853D01*
X127299784Y-96810456D01*
X127135812Y-96878376D01*
X126986512Y-96908073D01*
X126961742Y-96913000D01*
X126784258Y-96913000D01*
X126759488Y-96908073D01*
X126610188Y-96878376D01*
X126446216Y-96810456D01*
X126298646Y-96711853D01*
X126173147Y-96586354D01*
X126074544Y-96438784D01*
X126006624Y-96274812D01*
X125972000Y-96100741D01*
X125972000Y-95923259D01*
X126006624Y-95749188D01*
X126074544Y-95585216D01*
X126173147Y-95437646D01*
X126298646Y-95312147D01*
X126446216Y-95213544D01*
X126610188Y-95145624D01*
X126759488Y-95115927D01*
X126784258Y-95111000D01*
X126961742Y-95111000D01*
X126986512Y-95115927D01*
G37*
G36*
X135114512Y-95115927D02*
G01*
X135263812Y-95145624D01*
X135427784Y-95213544D01*
X135575354Y-95312147D01*
X135700853Y-95437646D01*
X135799456Y-95585216D01*
X135867376Y-95749188D01*
X135902000Y-95923259D01*
X135902000Y-96100741D01*
X135867376Y-96274812D01*
X135799456Y-96438784D01*
X135700853Y-96586354D01*
X135575354Y-96711853D01*
X135427784Y-96810456D01*
X135263812Y-96878376D01*
X135114512Y-96908073D01*
X135089742Y-96913000D01*
X134912258Y-96913000D01*
X134887488Y-96908073D01*
X134738188Y-96878376D01*
X134574216Y-96810456D01*
X134426646Y-96711853D01*
X134301147Y-96586354D01*
X134202544Y-96438784D01*
X134134624Y-96274812D01*
X134100000Y-96100741D01*
X134100000Y-95923259D01*
X134134624Y-95749188D01*
X134202544Y-95585216D01*
X134301147Y-95437646D01*
X134426646Y-95312147D01*
X134574216Y-95213544D01*
X134738188Y-95145624D01*
X134887488Y-95115927D01*
X134912258Y-95111000D01*
X135089742Y-95111000D01*
X135114512Y-95115927D01*
G37*
G36*
X122295228Y-95193703D02*
G01*
X122450100Y-95257853D01*
X122589481Y-95350985D01*
X122708015Y-95469519D01*
X122801147Y-95608900D01*
X122865297Y-95763772D01*
X122898000Y-95928184D01*
X122898000Y-96095816D01*
X122865297Y-96260228D01*
X122801147Y-96415100D01*
X122708015Y-96554481D01*
X122589481Y-96673015D01*
X122450100Y-96766147D01*
X122295228Y-96830297D01*
X122130816Y-96863000D01*
X121963184Y-96863000D01*
X121798772Y-96830297D01*
X121643900Y-96766147D01*
X121504519Y-96673015D01*
X121385985Y-96554481D01*
X121292853Y-96415100D01*
X121228703Y-96260228D01*
X121196000Y-96095816D01*
X121196000Y-95928184D01*
X121228703Y-95763772D01*
X121292853Y-95608900D01*
X121385985Y-95469519D01*
X121504519Y-95350985D01*
X121643900Y-95257853D01*
X121798772Y-95193703D01*
X121963184Y-95161000D01*
X122130816Y-95161000D01*
X122295228Y-95193703D01*
G37*
G36*
X137535228Y-95193703D02*
G01*
X137690100Y-95257853D01*
X137829481Y-95350985D01*
X137948015Y-95469519D01*
X138041147Y-95608900D01*
X138105297Y-95763772D01*
X138138000Y-95928184D01*
X138138000Y-96095816D01*
X138105297Y-96260228D01*
X138041147Y-96415100D01*
X137948015Y-96554481D01*
X137829481Y-96673015D01*
X137690100Y-96766147D01*
X137535228Y-96830297D01*
X137370816Y-96863000D01*
X137203184Y-96863000D01*
X137038772Y-96830297D01*
X136883900Y-96766147D01*
X136744519Y-96673015D01*
X136625985Y-96554481D01*
X136532853Y-96415100D01*
X136468703Y-96260228D01*
X136436000Y-96095816D01*
X136436000Y-95928184D01*
X136468703Y-95763772D01*
X136532853Y-95608900D01*
X136625985Y-95469519D01*
X136744519Y-95350985D01*
X136883900Y-95257853D01*
X137038772Y-95193703D01*
X137203184Y-95161000D01*
X137370816Y-95161000D01*
X137535228Y-95193703D01*
G37*
G36*
X124446512Y-92575927D02*
G01*
X124595812Y-92605624D01*
X124759784Y-92673544D01*
X124907354Y-92772147D01*
X125032853Y-92897646D01*
X125131456Y-93045216D01*
X125199376Y-93209188D01*
X125234000Y-93383259D01*
X125234000Y-93560741D01*
X125199376Y-93734812D01*
X125131456Y-93898784D01*
X125032853Y-94046354D01*
X124907354Y-94171853D01*
X124759784Y-94270456D01*
X124595812Y-94338376D01*
X124446512Y-94368073D01*
X124421742Y-94373000D01*
X124244258Y-94373000D01*
X124219488Y-94368073D01*
X124070188Y-94338376D01*
X123906216Y-94270456D01*
X123758646Y-94171853D01*
X123633147Y-94046354D01*
X123534544Y-93898784D01*
X123466624Y-93734812D01*
X123432000Y-93560741D01*
X123432000Y-93383259D01*
X123466624Y-93209188D01*
X123534544Y-93045216D01*
X123633147Y-92897646D01*
X123758646Y-92772147D01*
X123906216Y-92673544D01*
X124070188Y-92605624D01*
X124219488Y-92575927D01*
X124244258Y-92571000D01*
X124421742Y-92571000D01*
X124446512Y-92575927D01*
G37*
G36*
X126986512Y-92575927D02*
G01*
X127135812Y-92605624D01*
X127299784Y-92673544D01*
X127447354Y-92772147D01*
X127572853Y-92897646D01*
X127671456Y-93045216D01*
X127739376Y-93209188D01*
X127774000Y-93383259D01*
X127774000Y-93560741D01*
X127739376Y-93734812D01*
X127671456Y-93898784D01*
X127572853Y-94046354D01*
X127447354Y-94171853D01*
X127299784Y-94270456D01*
X127135812Y-94338376D01*
X126986512Y-94368073D01*
X126961742Y-94373000D01*
X126784258Y-94373000D01*
X126759488Y-94368073D01*
X126610188Y-94338376D01*
X126446216Y-94270456D01*
X126298646Y-94171853D01*
X126173147Y-94046354D01*
X126074544Y-93898784D01*
X126006624Y-93734812D01*
X125972000Y-93560741D01*
X125972000Y-93383259D01*
X126006624Y-93209188D01*
X126074544Y-93045216D01*
X126173147Y-92897646D01*
X126298646Y-92772147D01*
X126446216Y-92673544D01*
X126610188Y-92605624D01*
X126759488Y-92575927D01*
X126784258Y-92571000D01*
X126961742Y-92571000D01*
X126986512Y-92575927D01*
G37*
G36*
X132574512Y-92575927D02*
G01*
X132723812Y-92605624D01*
X132887784Y-92673544D01*
X133035354Y-92772147D01*
X133160853Y-92897646D01*
X133259456Y-93045216D01*
X133327376Y-93209188D01*
X133362000Y-93383259D01*
X133362000Y-93560741D01*
X133327376Y-93734812D01*
X133259456Y-93898784D01*
X133160853Y-94046354D01*
X133035354Y-94171853D01*
X132887784Y-94270456D01*
X132723812Y-94338376D01*
X132574512Y-94368073D01*
X132549742Y-94373000D01*
X132372258Y-94373000D01*
X132347488Y-94368073D01*
X132198188Y-94338376D01*
X132034216Y-94270456D01*
X131886646Y-94171853D01*
X131761147Y-94046354D01*
X131662544Y-93898784D01*
X131594624Y-93734812D01*
X131560000Y-93560741D01*
X131560000Y-93383259D01*
X131594624Y-93209188D01*
X131662544Y-93045216D01*
X131761147Y-92897646D01*
X131886646Y-92772147D01*
X132034216Y-92673544D01*
X132198188Y-92605624D01*
X132347488Y-92575927D01*
X132372258Y-92571000D01*
X132549742Y-92571000D01*
X132574512Y-92575927D01*
G37*
G36*
X135114512Y-92575927D02*
G01*
X135263812Y-92605624D01*
X135427784Y-92673544D01*
X135575354Y-92772147D01*
X135700853Y-92897646D01*
X135799456Y-93045216D01*
X135867376Y-93209188D01*
X135902000Y-93383259D01*
X135902000Y-93560741D01*
X135867376Y-93734812D01*
X135799456Y-93898784D01*
X135700853Y-94046354D01*
X135575354Y-94171853D01*
X135427784Y-94270456D01*
X135263812Y-94338376D01*
X135114512Y-94368073D01*
X135089742Y-94373000D01*
X134912258Y-94373000D01*
X134887488Y-94368073D01*
X134738188Y-94338376D01*
X134574216Y-94270456D01*
X134426646Y-94171853D01*
X134301147Y-94046354D01*
X134202544Y-93898784D01*
X134134624Y-93734812D01*
X134100000Y-93560741D01*
X134100000Y-93383259D01*
X134134624Y-93209188D01*
X134202544Y-93045216D01*
X134301147Y-92897646D01*
X134426646Y-92772147D01*
X134574216Y-92673544D01*
X134738188Y-92605624D01*
X134887488Y-92575927D01*
X134912258Y-92571000D01*
X135089742Y-92571000D01*
X135114512Y-92575927D01*
G37*
G36*
X122295228Y-92653703D02*
G01*
X122450100Y-92717853D01*
X122589481Y-92810985D01*
X122708015Y-92929519D01*
X122801147Y-93068900D01*
X122865297Y-93223772D01*
X122898000Y-93388184D01*
X122898000Y-93555816D01*
X122865297Y-93720228D01*
X122801147Y-93875100D01*
X122708015Y-94014481D01*
X122589481Y-94133015D01*
X122450100Y-94226147D01*
X122295228Y-94290297D01*
X122130816Y-94323000D01*
X121963184Y-94323000D01*
X121798772Y-94290297D01*
X121643900Y-94226147D01*
X121504519Y-94133015D01*
X121385985Y-94014481D01*
X121292853Y-93875100D01*
X121228703Y-93720228D01*
X121196000Y-93555816D01*
X121196000Y-93388184D01*
X121228703Y-93223772D01*
X121292853Y-93068900D01*
X121385985Y-92929519D01*
X121504519Y-92810985D01*
X121643900Y-92717853D01*
X121798772Y-92653703D01*
X121963184Y-92621000D01*
X122130816Y-92621000D01*
X122295228Y-92653703D01*
G37*
G36*
X137535228Y-92653703D02*
G01*
X137690100Y-92717853D01*
X137829481Y-92810985D01*
X137948015Y-92929519D01*
X138041147Y-93068900D01*
X138105297Y-93223772D01*
X138138000Y-93388184D01*
X138138000Y-93555816D01*
X138105297Y-93720228D01*
X138041147Y-93875100D01*
X137948015Y-94014481D01*
X137829481Y-94133015D01*
X137690100Y-94226147D01*
X137535228Y-94290297D01*
X137370816Y-94323000D01*
X137203184Y-94323000D01*
X137038772Y-94290297D01*
X136883900Y-94226147D01*
X136744519Y-94133015D01*
X136625985Y-94014481D01*
X136532853Y-93875100D01*
X136468703Y-93720228D01*
X136436000Y-93555816D01*
X136436000Y-93388184D01*
X136468703Y-93223772D01*
X136532853Y-93068900D01*
X136625985Y-92929519D01*
X136744519Y-92810985D01*
X136883900Y-92717853D01*
X137038772Y-92653703D01*
X137203184Y-92621000D01*
X137370816Y-92621000D01*
X137535228Y-92653703D01*
G37*
G36*
X132574512Y-90035927D02*
G01*
X132723812Y-90065624D01*
X132887784Y-90133544D01*
X133035354Y-90232147D01*
X133160853Y-90357646D01*
X133259456Y-90505216D01*
X133327376Y-90669188D01*
X133362000Y-90843259D01*
X133362000Y-91020741D01*
X133327376Y-91194812D01*
X133259456Y-91358784D01*
X133160853Y-91506354D01*
X133035354Y-91631853D01*
X132887784Y-91730456D01*
X132723812Y-91798376D01*
X132574512Y-91828073D01*
X132549742Y-91833000D01*
X132372258Y-91833000D01*
X132347488Y-91828073D01*
X132198188Y-91798376D01*
X132034216Y-91730456D01*
X131886646Y-91631853D01*
X131761147Y-91506354D01*
X131662544Y-91358784D01*
X131594624Y-91194812D01*
X131560000Y-91020741D01*
X131560000Y-90843259D01*
X131594624Y-90669188D01*
X131662544Y-90505216D01*
X131761147Y-90357646D01*
X131886646Y-90232147D01*
X132034216Y-90133544D01*
X132198188Y-90065624D01*
X132347488Y-90035927D01*
X132372258Y-90031000D01*
X132549742Y-90031000D01*
X132574512Y-90035927D01*
G37*
G36*
X124446512Y-90035927D02*
G01*
X124595812Y-90065624D01*
X124759784Y-90133544D01*
X124907354Y-90232147D01*
X125032853Y-90357646D01*
X125131456Y-90505216D01*
X125199376Y-90669188D01*
X125234000Y-90843259D01*
X125234000Y-91020741D01*
X125199376Y-91194812D01*
X125131456Y-91358784D01*
X125032853Y-91506354D01*
X124907354Y-91631853D01*
X124759784Y-91730456D01*
X124595812Y-91798376D01*
X124446512Y-91828073D01*
X124421742Y-91833000D01*
X124244258Y-91833000D01*
X124219488Y-91828073D01*
X124070188Y-91798376D01*
X123906216Y-91730456D01*
X123758646Y-91631853D01*
X123633147Y-91506354D01*
X123534544Y-91358784D01*
X123466624Y-91194812D01*
X123432000Y-91020741D01*
X123432000Y-90843259D01*
X123466624Y-90669188D01*
X123534544Y-90505216D01*
X123633147Y-90357646D01*
X123758646Y-90232147D01*
X123906216Y-90133544D01*
X124070188Y-90065624D01*
X124219488Y-90035927D01*
X124244258Y-90031000D01*
X124421742Y-90031000D01*
X124446512Y-90035927D01*
G37*
G36*
X126986512Y-90035927D02*
G01*
X127135812Y-90065624D01*
X127299784Y-90133544D01*
X127447354Y-90232147D01*
X127572853Y-90357646D01*
X127671456Y-90505216D01*
X127739376Y-90669188D01*
X127774000Y-90843259D01*
X127774000Y-91020741D01*
X127739376Y-91194812D01*
X127671456Y-91358784D01*
X127572853Y-91506354D01*
X127447354Y-91631853D01*
X127299784Y-91730456D01*
X127135812Y-91798376D01*
X126986512Y-91828073D01*
X126961742Y-91833000D01*
X126784258Y-91833000D01*
X126759488Y-91828073D01*
X126610188Y-91798376D01*
X126446216Y-91730456D01*
X126298646Y-91631853D01*
X126173147Y-91506354D01*
X126074544Y-91358784D01*
X126006624Y-91194812D01*
X125972000Y-91020741D01*
X125972000Y-90843259D01*
X126006624Y-90669188D01*
X126074544Y-90505216D01*
X126173147Y-90357646D01*
X126298646Y-90232147D01*
X126446216Y-90133544D01*
X126610188Y-90065624D01*
X126759488Y-90035927D01*
X126784258Y-90031000D01*
X126961742Y-90031000D01*
X126986512Y-90035927D01*
G37*
G36*
X135114512Y-90035927D02*
G01*
X135263812Y-90065624D01*
X135427784Y-90133544D01*
X135575354Y-90232147D01*
X135700853Y-90357646D01*
X135799456Y-90505216D01*
X135867376Y-90669188D01*
X135902000Y-90843259D01*
X135902000Y-91020741D01*
X135867376Y-91194812D01*
X135799456Y-91358784D01*
X135700853Y-91506354D01*
X135575354Y-91631853D01*
X135427784Y-91730456D01*
X135263812Y-91798376D01*
X135114512Y-91828073D01*
X135089742Y-91833000D01*
X134912258Y-91833000D01*
X134887488Y-91828073D01*
X134738188Y-91798376D01*
X134574216Y-91730456D01*
X134426646Y-91631853D01*
X134301147Y-91506354D01*
X134202544Y-91358784D01*
X134134624Y-91194812D01*
X134100000Y-91020741D01*
X134100000Y-90843259D01*
X134134624Y-90669188D01*
X134202544Y-90505216D01*
X134301147Y-90357646D01*
X134426646Y-90232147D01*
X134574216Y-90133544D01*
X134738188Y-90065624D01*
X134887488Y-90035927D01*
X134912258Y-90031000D01*
X135089742Y-90031000D01*
X135114512Y-90035927D01*
G37*
G36*
X122295228Y-90113703D02*
G01*
X122450100Y-90177853D01*
X122589481Y-90270985D01*
X122708015Y-90389519D01*
X122801147Y-90528900D01*
X122865297Y-90683772D01*
X122898000Y-90848184D01*
X122898000Y-91015816D01*
X122865297Y-91180228D01*
X122801147Y-91335100D01*
X122708015Y-91474481D01*
X122589481Y-91593015D01*
X122450100Y-91686147D01*
X122295228Y-91750297D01*
X122130816Y-91783000D01*
X121963184Y-91783000D01*
X121798772Y-91750297D01*
X121643900Y-91686147D01*
X121504519Y-91593015D01*
X121385985Y-91474481D01*
X121292853Y-91335100D01*
X121228703Y-91180228D01*
X121196000Y-91015816D01*
X121196000Y-90848184D01*
X121228703Y-90683772D01*
X121292853Y-90528900D01*
X121385985Y-90389519D01*
X121504519Y-90270985D01*
X121643900Y-90177853D01*
X121798772Y-90113703D01*
X121963184Y-90081000D01*
X122130816Y-90081000D01*
X122295228Y-90113703D01*
G37*
G36*
X137535228Y-90113703D02*
G01*
X137690100Y-90177853D01*
X137829481Y-90270985D01*
X137948015Y-90389519D01*
X138041147Y-90528900D01*
X138105297Y-90683772D01*
X138138000Y-90848184D01*
X138138000Y-91015816D01*
X138105297Y-91180228D01*
X138041147Y-91335100D01*
X137948015Y-91474481D01*
X137829481Y-91593015D01*
X137690100Y-91686147D01*
X137535228Y-91750297D01*
X137370816Y-91783000D01*
X137203184Y-91783000D01*
X137038772Y-91750297D01*
X136883900Y-91686147D01*
X136744519Y-91593015D01*
X136625985Y-91474481D01*
X136532853Y-91335100D01*
X136468703Y-91180228D01*
X136436000Y-91015816D01*
X136436000Y-90848184D01*
X136468703Y-90683772D01*
X136532853Y-90528900D01*
X136625985Y-90389519D01*
X136744519Y-90270985D01*
X136883900Y-90177853D01*
X137038772Y-90113703D01*
X137203184Y-90081000D01*
X137370816Y-90081000D01*
X137535228Y-90113703D01*
G37*
G36*
X135114512Y-87495927D02*
G01*
X135263812Y-87525624D01*
X135427784Y-87593544D01*
X135575354Y-87692147D01*
X135700853Y-87817646D01*
X135799456Y-87965216D01*
X135867376Y-88129188D01*
X135902000Y-88303259D01*
X135902000Y-88480741D01*
X135867376Y-88654812D01*
X135799456Y-88818784D01*
X135700853Y-88966354D01*
X135575354Y-89091853D01*
X135427784Y-89190456D01*
X135263812Y-89258376D01*
X135114512Y-89288073D01*
X135089742Y-89293000D01*
X134912258Y-89293000D01*
X134887488Y-89288073D01*
X134738188Y-89258376D01*
X134574216Y-89190456D01*
X134426646Y-89091853D01*
X134301147Y-88966354D01*
X134202544Y-88818784D01*
X134134624Y-88654812D01*
X134100000Y-88480741D01*
X134100000Y-88303259D01*
X134134624Y-88129188D01*
X134202544Y-87965216D01*
X134301147Y-87817646D01*
X134426646Y-87692147D01*
X134574216Y-87593544D01*
X134738188Y-87525624D01*
X134887488Y-87495927D01*
X134912258Y-87491000D01*
X135089742Y-87491000D01*
X135114512Y-87495927D01*
G37*
G36*
X132574512Y-87495927D02*
G01*
X132723812Y-87525624D01*
X132887784Y-87593544D01*
X133035354Y-87692147D01*
X133160853Y-87817646D01*
X133259456Y-87965216D01*
X133327376Y-88129188D01*
X133362000Y-88303259D01*
X133362000Y-88480741D01*
X133327376Y-88654812D01*
X133259456Y-88818784D01*
X133160853Y-88966354D01*
X133035354Y-89091853D01*
X132887784Y-89190456D01*
X132723812Y-89258376D01*
X132574512Y-89288073D01*
X132549742Y-89293000D01*
X132372258Y-89293000D01*
X132347488Y-89288073D01*
X132198188Y-89258376D01*
X132034216Y-89190456D01*
X131886646Y-89091853D01*
X131761147Y-88966354D01*
X131662544Y-88818784D01*
X131594624Y-88654812D01*
X131560000Y-88480741D01*
X131560000Y-88303259D01*
X131594624Y-88129188D01*
X131662544Y-87965216D01*
X131761147Y-87817646D01*
X131886646Y-87692147D01*
X132034216Y-87593544D01*
X132198188Y-87525624D01*
X132347488Y-87495927D01*
X132372258Y-87491000D01*
X132549742Y-87491000D01*
X132574512Y-87495927D01*
G37*
G36*
X126986512Y-87495927D02*
G01*
X127135812Y-87525624D01*
X127299784Y-87593544D01*
X127447354Y-87692147D01*
X127572853Y-87817646D01*
X127671456Y-87965216D01*
X127739376Y-88129188D01*
X127774000Y-88303259D01*
X127774000Y-88480741D01*
X127739376Y-88654812D01*
X127671456Y-88818784D01*
X127572853Y-88966354D01*
X127447354Y-89091853D01*
X127299784Y-89190456D01*
X127135812Y-89258376D01*
X126986512Y-89288073D01*
X126961742Y-89293000D01*
X126784258Y-89293000D01*
X126759488Y-89288073D01*
X126610188Y-89258376D01*
X126446216Y-89190456D01*
X126298646Y-89091853D01*
X126173147Y-88966354D01*
X126074544Y-88818784D01*
X126006624Y-88654812D01*
X125972000Y-88480741D01*
X125972000Y-88303259D01*
X126006624Y-88129188D01*
X126074544Y-87965216D01*
X126173147Y-87817646D01*
X126298646Y-87692147D01*
X126446216Y-87593544D01*
X126610188Y-87525624D01*
X126759488Y-87495927D01*
X126784258Y-87491000D01*
X126961742Y-87491000D01*
X126986512Y-87495927D01*
G37*
G36*
X124446512Y-87495927D02*
G01*
X124595812Y-87525624D01*
X124759784Y-87593544D01*
X124907354Y-87692147D01*
X125032853Y-87817646D01*
X125131456Y-87965216D01*
X125199376Y-88129188D01*
X125234000Y-88303259D01*
X125234000Y-88480741D01*
X125199376Y-88654812D01*
X125131456Y-88818784D01*
X125032853Y-88966354D01*
X124907354Y-89091853D01*
X124759784Y-89190456D01*
X124595812Y-89258376D01*
X124446512Y-89288073D01*
X124421742Y-89293000D01*
X124244258Y-89293000D01*
X124219488Y-89288073D01*
X124070188Y-89258376D01*
X123906216Y-89190456D01*
X123758646Y-89091853D01*
X123633147Y-88966354D01*
X123534544Y-88818784D01*
X123466624Y-88654812D01*
X123432000Y-88480741D01*
X123432000Y-88303259D01*
X123466624Y-88129188D01*
X123534544Y-87965216D01*
X123633147Y-87817646D01*
X123758646Y-87692147D01*
X123906216Y-87593544D01*
X124070188Y-87525624D01*
X124219488Y-87495927D01*
X124244258Y-87491000D01*
X124421742Y-87491000D01*
X124446512Y-87495927D01*
G37*
G36*
X137535228Y-87573703D02*
G01*
X137690100Y-87637853D01*
X137829481Y-87730985D01*
X137948015Y-87849519D01*
X138041147Y-87988900D01*
X138105297Y-88143772D01*
X138138000Y-88308184D01*
X138138000Y-88475816D01*
X138105297Y-88640228D01*
X138041147Y-88795100D01*
X137948015Y-88934481D01*
X137829481Y-89053015D01*
X137690100Y-89146147D01*
X137535228Y-89210297D01*
X137370816Y-89243000D01*
X137203184Y-89243000D01*
X137038772Y-89210297D01*
X136883900Y-89146147D01*
X136744519Y-89053015D01*
X136625985Y-88934481D01*
X136532853Y-88795100D01*
X136468703Y-88640228D01*
X136436000Y-88475816D01*
X136436000Y-88308184D01*
X136468703Y-88143772D01*
X136532853Y-87988900D01*
X136625985Y-87849519D01*
X136744519Y-87730985D01*
X136883900Y-87637853D01*
X137038772Y-87573703D01*
X137203184Y-87541000D01*
X137370816Y-87541000D01*
X137535228Y-87573703D01*
G37*
G36*
X122295228Y-87573703D02*
G01*
X122450100Y-87637853D01*
X122589481Y-87730985D01*
X122708015Y-87849519D01*
X122801147Y-87988900D01*
X122865297Y-88143772D01*
X122898000Y-88308184D01*
X122898000Y-88475816D01*
X122865297Y-88640228D01*
X122801147Y-88795100D01*
X122708015Y-88934481D01*
X122589481Y-89053015D01*
X122450100Y-89146147D01*
X122295228Y-89210297D01*
X122130816Y-89243000D01*
X121963184Y-89243000D01*
X121798772Y-89210297D01*
X121643900Y-89146147D01*
X121504519Y-89053015D01*
X121385985Y-88934481D01*
X121292853Y-88795100D01*
X121228703Y-88640228D01*
X121196000Y-88475816D01*
X121196000Y-88308184D01*
X121228703Y-88143772D01*
X121292853Y-87988900D01*
X121385985Y-87849519D01*
X121504519Y-87730985D01*
X121643900Y-87637853D01*
X121798772Y-87573703D01*
X121963184Y-87541000D01*
X122130816Y-87541000D01*
X122295228Y-87573703D01*
G37*
G36*
X124446512Y-84955927D02*
G01*
X124595812Y-84985624D01*
X124759784Y-85053544D01*
X124907354Y-85152147D01*
X125032853Y-85277646D01*
X125131456Y-85425216D01*
X125199376Y-85589188D01*
X125234000Y-85763259D01*
X125234000Y-85940741D01*
X125199376Y-86114812D01*
X125131456Y-86278784D01*
X125032853Y-86426354D01*
X124907354Y-86551853D01*
X124759784Y-86650456D01*
X124595812Y-86718376D01*
X124446512Y-86748073D01*
X124421742Y-86753000D01*
X124244258Y-86753000D01*
X124219488Y-86748073D01*
X124070188Y-86718376D01*
X123906216Y-86650456D01*
X123758646Y-86551853D01*
X123633147Y-86426354D01*
X123534544Y-86278784D01*
X123466624Y-86114812D01*
X123432000Y-85940741D01*
X123432000Y-85763259D01*
X123466624Y-85589188D01*
X123534544Y-85425216D01*
X123633147Y-85277646D01*
X123758646Y-85152147D01*
X123906216Y-85053544D01*
X124070188Y-84985624D01*
X124219488Y-84955927D01*
X124244258Y-84951000D01*
X124421742Y-84951000D01*
X124446512Y-84955927D01*
G37*
G36*
X135114512Y-84955927D02*
G01*
X135263812Y-84985624D01*
X135427784Y-85053544D01*
X135575354Y-85152147D01*
X135700853Y-85277646D01*
X135799456Y-85425216D01*
X135867376Y-85589188D01*
X135902000Y-85763259D01*
X135902000Y-85940741D01*
X135867376Y-86114812D01*
X135799456Y-86278784D01*
X135700853Y-86426354D01*
X135575354Y-86551853D01*
X135427784Y-86650456D01*
X135263812Y-86718376D01*
X135114512Y-86748073D01*
X135089742Y-86753000D01*
X134912258Y-86753000D01*
X134887488Y-86748073D01*
X134738188Y-86718376D01*
X134574216Y-86650456D01*
X134426646Y-86551853D01*
X134301147Y-86426354D01*
X134202544Y-86278784D01*
X134134624Y-86114812D01*
X134100000Y-85940741D01*
X134100000Y-85763259D01*
X134134624Y-85589188D01*
X134202544Y-85425216D01*
X134301147Y-85277646D01*
X134426646Y-85152147D01*
X134574216Y-85053544D01*
X134738188Y-84985624D01*
X134887488Y-84955927D01*
X134912258Y-84951000D01*
X135089742Y-84951000D01*
X135114512Y-84955927D01*
G37*
G36*
X132574512Y-84955927D02*
G01*
X132723812Y-84985624D01*
X132887784Y-85053544D01*
X133035354Y-85152147D01*
X133160853Y-85277646D01*
X133259456Y-85425216D01*
X133327376Y-85589188D01*
X133362000Y-85763259D01*
X133362000Y-85940741D01*
X133327376Y-86114812D01*
X133259456Y-86278784D01*
X133160853Y-86426354D01*
X133035354Y-86551853D01*
X132887784Y-86650456D01*
X132723812Y-86718376D01*
X132574512Y-86748073D01*
X132549742Y-86753000D01*
X132372258Y-86753000D01*
X132347488Y-86748073D01*
X132198188Y-86718376D01*
X132034216Y-86650456D01*
X131886646Y-86551853D01*
X131761147Y-86426354D01*
X131662544Y-86278784D01*
X131594624Y-86114812D01*
X131560000Y-85940741D01*
X131560000Y-85763259D01*
X131594624Y-85589188D01*
X131662544Y-85425216D01*
X131761147Y-85277646D01*
X131886646Y-85152147D01*
X132034216Y-85053544D01*
X132198188Y-84985624D01*
X132347488Y-84955927D01*
X132372258Y-84951000D01*
X132549742Y-84951000D01*
X132574512Y-84955927D01*
G37*
G36*
X126986512Y-84955927D02*
G01*
X127135812Y-84985624D01*
X127299784Y-85053544D01*
X127447354Y-85152147D01*
X127572853Y-85277646D01*
X127671456Y-85425216D01*
X127739376Y-85589188D01*
X127774000Y-85763259D01*
X127774000Y-85940741D01*
X127739376Y-86114812D01*
X127671456Y-86278784D01*
X127572853Y-86426354D01*
X127447354Y-86551853D01*
X127299784Y-86650456D01*
X127135812Y-86718376D01*
X126986512Y-86748073D01*
X126961742Y-86753000D01*
X126784258Y-86753000D01*
X126759488Y-86748073D01*
X126610188Y-86718376D01*
X126446216Y-86650456D01*
X126298646Y-86551853D01*
X126173147Y-86426354D01*
X126074544Y-86278784D01*
X126006624Y-86114812D01*
X125972000Y-85940741D01*
X125972000Y-85763259D01*
X126006624Y-85589188D01*
X126074544Y-85425216D01*
X126173147Y-85277646D01*
X126298646Y-85152147D01*
X126446216Y-85053544D01*
X126610188Y-84985624D01*
X126759488Y-84955927D01*
X126784258Y-84951000D01*
X126961742Y-84951000D01*
X126986512Y-84955927D01*
G37*
G36*
X137535228Y-85033703D02*
G01*
X137690100Y-85097853D01*
X137829481Y-85190985D01*
X137948015Y-85309519D01*
X138041147Y-85448900D01*
X138105297Y-85603772D01*
X138138000Y-85768184D01*
X138138000Y-85935816D01*
X138105297Y-86100228D01*
X138041147Y-86255100D01*
X137948015Y-86394481D01*
X137829481Y-86513015D01*
X137690100Y-86606147D01*
X137535228Y-86670297D01*
X137370816Y-86703000D01*
X137203184Y-86703000D01*
X137038772Y-86670297D01*
X136883900Y-86606147D01*
X136744519Y-86513015D01*
X136625985Y-86394481D01*
X136532853Y-86255100D01*
X136468703Y-86100228D01*
X136436000Y-85935816D01*
X136436000Y-85768184D01*
X136468703Y-85603772D01*
X136532853Y-85448900D01*
X136625985Y-85309519D01*
X136744519Y-85190985D01*
X136883900Y-85097853D01*
X137038772Y-85033703D01*
X137203184Y-85001000D01*
X137370816Y-85001000D01*
X137535228Y-85033703D01*
G37*
G36*
X122295228Y-85033703D02*
G01*
X122450100Y-85097853D01*
X122589481Y-85190985D01*
X122708015Y-85309519D01*
X122801147Y-85448900D01*
X122865297Y-85603772D01*
X122898000Y-85768184D01*
X122898000Y-85935816D01*
X122865297Y-86100228D01*
X122801147Y-86255100D01*
X122708015Y-86394481D01*
X122589481Y-86513015D01*
X122450100Y-86606147D01*
X122295228Y-86670297D01*
X122130816Y-86703000D01*
X121963184Y-86703000D01*
X121798772Y-86670297D01*
X121643900Y-86606147D01*
X121504519Y-86513015D01*
X121385985Y-86394481D01*
X121292853Y-86255100D01*
X121228703Y-86100228D01*
X121196000Y-85935816D01*
X121196000Y-85768184D01*
X121228703Y-85603772D01*
X121292853Y-85448900D01*
X121385985Y-85309519D01*
X121504519Y-85190985D01*
X121643900Y-85097853D01*
X121798772Y-85033703D01*
X121963184Y-85001000D01*
X122130816Y-85001000D01*
X122295228Y-85033703D01*
G37*
G36*
X132574512Y-82415927D02*
G01*
X132723812Y-82445624D01*
X132887784Y-82513544D01*
X133035354Y-82612147D01*
X133160853Y-82737646D01*
X133259456Y-82885216D01*
X133327376Y-83049188D01*
X133362000Y-83223259D01*
X133362000Y-83400741D01*
X133327376Y-83574812D01*
X133259456Y-83738784D01*
X133160853Y-83886354D01*
X133035354Y-84011853D01*
X132887784Y-84110456D01*
X132723812Y-84178376D01*
X132574512Y-84208073D01*
X132549742Y-84213000D01*
X132372258Y-84213000D01*
X132347488Y-84208073D01*
X132198188Y-84178376D01*
X132034216Y-84110456D01*
X131886646Y-84011853D01*
X131761147Y-83886354D01*
X131662544Y-83738784D01*
X131594624Y-83574812D01*
X131560000Y-83400741D01*
X131560000Y-83223259D01*
X131594624Y-83049188D01*
X131662544Y-82885216D01*
X131761147Y-82737646D01*
X131886646Y-82612147D01*
X132034216Y-82513544D01*
X132198188Y-82445624D01*
X132347488Y-82415927D01*
X132372258Y-82411000D01*
X132549742Y-82411000D01*
X132574512Y-82415927D01*
G37*
G36*
X124446512Y-82415927D02*
G01*
X124595812Y-82445624D01*
X124759784Y-82513544D01*
X124907354Y-82612147D01*
X125032853Y-82737646D01*
X125131456Y-82885216D01*
X125199376Y-83049188D01*
X125234000Y-83223259D01*
X125234000Y-83400741D01*
X125199376Y-83574812D01*
X125131456Y-83738784D01*
X125032853Y-83886354D01*
X124907354Y-84011853D01*
X124759784Y-84110456D01*
X124595812Y-84178376D01*
X124446512Y-84208073D01*
X124421742Y-84213000D01*
X124244258Y-84213000D01*
X124219488Y-84208073D01*
X124070188Y-84178376D01*
X123906216Y-84110456D01*
X123758646Y-84011853D01*
X123633147Y-83886354D01*
X123534544Y-83738784D01*
X123466624Y-83574812D01*
X123432000Y-83400741D01*
X123432000Y-83223259D01*
X123466624Y-83049188D01*
X123534544Y-82885216D01*
X123633147Y-82737646D01*
X123758646Y-82612147D01*
X123906216Y-82513544D01*
X124070188Y-82445624D01*
X124219488Y-82415927D01*
X124244258Y-82411000D01*
X124421742Y-82411000D01*
X124446512Y-82415927D01*
G37*
G36*
X126986512Y-82415927D02*
G01*
X127135812Y-82445624D01*
X127299784Y-82513544D01*
X127447354Y-82612147D01*
X127572853Y-82737646D01*
X127671456Y-82885216D01*
X127739376Y-83049188D01*
X127774000Y-83223259D01*
X127774000Y-83400741D01*
X127739376Y-83574812D01*
X127671456Y-83738784D01*
X127572853Y-83886354D01*
X127447354Y-84011853D01*
X127299784Y-84110456D01*
X127135812Y-84178376D01*
X126986512Y-84208073D01*
X126961742Y-84213000D01*
X126784258Y-84213000D01*
X126759488Y-84208073D01*
X126610188Y-84178376D01*
X126446216Y-84110456D01*
X126298646Y-84011853D01*
X126173147Y-83886354D01*
X126074544Y-83738784D01*
X126006624Y-83574812D01*
X125972000Y-83400741D01*
X125972000Y-83223259D01*
X126006624Y-83049188D01*
X126074544Y-82885216D01*
X126173147Y-82737646D01*
X126298646Y-82612147D01*
X126446216Y-82513544D01*
X126610188Y-82445624D01*
X126759488Y-82415927D01*
X126784258Y-82411000D01*
X126961742Y-82411000D01*
X126986512Y-82415927D01*
G37*
G36*
X135114512Y-82415927D02*
G01*
X135263812Y-82445624D01*
X135427784Y-82513544D01*
X135575354Y-82612147D01*
X135700853Y-82737646D01*
X135799456Y-82885216D01*
X135867376Y-83049188D01*
X135902000Y-83223259D01*
X135902000Y-83400741D01*
X135867376Y-83574812D01*
X135799456Y-83738784D01*
X135700853Y-83886354D01*
X135575354Y-84011853D01*
X135427784Y-84110456D01*
X135263812Y-84178376D01*
X135114512Y-84208073D01*
X135089742Y-84213000D01*
X134912258Y-84213000D01*
X134887488Y-84208073D01*
X134738188Y-84178376D01*
X134574216Y-84110456D01*
X134426646Y-84011853D01*
X134301147Y-83886354D01*
X134202544Y-83738784D01*
X134134624Y-83574812D01*
X134100000Y-83400741D01*
X134100000Y-83223259D01*
X134134624Y-83049188D01*
X134202544Y-82885216D01*
X134301147Y-82737646D01*
X134426646Y-82612147D01*
X134574216Y-82513544D01*
X134738188Y-82445624D01*
X134887488Y-82415927D01*
X134912258Y-82411000D01*
X135089742Y-82411000D01*
X135114512Y-82415927D01*
G37*
G36*
X122295228Y-82493703D02*
G01*
X122450100Y-82557853D01*
X122589481Y-82650985D01*
X122708015Y-82769519D01*
X122801147Y-82908900D01*
X122865297Y-83063772D01*
X122898000Y-83228184D01*
X122898000Y-83395816D01*
X122865297Y-83560228D01*
X122801147Y-83715100D01*
X122708015Y-83854481D01*
X122589481Y-83973015D01*
X122450100Y-84066147D01*
X122295228Y-84130297D01*
X122130816Y-84163000D01*
X121963184Y-84163000D01*
X121798772Y-84130297D01*
X121643900Y-84066147D01*
X121504519Y-83973015D01*
X121385985Y-83854481D01*
X121292853Y-83715100D01*
X121228703Y-83560228D01*
X121196000Y-83395816D01*
X121196000Y-83228184D01*
X121228703Y-83063772D01*
X121292853Y-82908900D01*
X121385985Y-82769519D01*
X121504519Y-82650985D01*
X121643900Y-82557853D01*
X121798772Y-82493703D01*
X121963184Y-82461000D01*
X122130816Y-82461000D01*
X122295228Y-82493703D01*
G37*
G36*
X137535228Y-82493703D02*
G01*
X137690100Y-82557853D01*
X137829481Y-82650985D01*
X137948015Y-82769519D01*
X138041147Y-82908900D01*
X138105297Y-83063772D01*
X138138000Y-83228184D01*
X138138000Y-83395816D01*
X138105297Y-83560228D01*
X138041147Y-83715100D01*
X137948015Y-83854481D01*
X137829481Y-83973015D01*
X137690100Y-84066147D01*
X137535228Y-84130297D01*
X137370816Y-84163000D01*
X137203184Y-84163000D01*
X137038772Y-84130297D01*
X136883900Y-84066147D01*
X136744519Y-83973015D01*
X136625985Y-83854481D01*
X136532853Y-83715100D01*
X136468703Y-83560228D01*
X136436000Y-83395816D01*
X136436000Y-83228184D01*
X136468703Y-83063772D01*
X136532853Y-82908900D01*
X136625985Y-82769519D01*
X136744519Y-82650985D01*
X136883900Y-82557853D01*
X137038772Y-82493703D01*
X137203184Y-82461000D01*
X137370816Y-82461000D01*
X137535228Y-82493703D01*
G37*
G36*
X124446512Y-79875927D02*
G01*
X124595812Y-79905624D01*
X124759784Y-79973544D01*
X124907354Y-80072147D01*
X125032853Y-80197646D01*
X125131456Y-80345216D01*
X125199376Y-80509188D01*
X125234000Y-80683259D01*
X125234000Y-80860741D01*
X125199376Y-81034812D01*
X125131456Y-81198784D01*
X125032853Y-81346354D01*
X124907354Y-81471853D01*
X124759784Y-81570456D01*
X124595812Y-81638376D01*
X124446512Y-81668073D01*
X124421742Y-81673000D01*
X124244258Y-81673000D01*
X124219488Y-81668073D01*
X124070188Y-81638376D01*
X123906216Y-81570456D01*
X123758646Y-81471853D01*
X123633147Y-81346354D01*
X123534544Y-81198784D01*
X123466624Y-81034812D01*
X123432000Y-80860741D01*
X123432000Y-80683259D01*
X123466624Y-80509188D01*
X123534544Y-80345216D01*
X123633147Y-80197646D01*
X123758646Y-80072147D01*
X123906216Y-79973544D01*
X124070188Y-79905624D01*
X124219488Y-79875927D01*
X124244258Y-79871000D01*
X124421742Y-79871000D01*
X124446512Y-79875927D01*
G37*
G36*
X126986512Y-79875927D02*
G01*
X127135812Y-79905624D01*
X127299784Y-79973544D01*
X127447354Y-80072147D01*
X127572853Y-80197646D01*
X127671456Y-80345216D01*
X127739376Y-80509188D01*
X127774000Y-80683259D01*
X127774000Y-80860741D01*
X127739376Y-81034812D01*
X127671456Y-81198784D01*
X127572853Y-81346354D01*
X127447354Y-81471853D01*
X127299784Y-81570456D01*
X127135812Y-81638376D01*
X126986512Y-81668073D01*
X126961742Y-81673000D01*
X126784258Y-81673000D01*
X126759488Y-81668073D01*
X126610188Y-81638376D01*
X126446216Y-81570456D01*
X126298646Y-81471853D01*
X126173147Y-81346354D01*
X126074544Y-81198784D01*
X126006624Y-81034812D01*
X125972000Y-80860741D01*
X125972000Y-80683259D01*
X126006624Y-80509188D01*
X126074544Y-80345216D01*
X126173147Y-80197646D01*
X126298646Y-80072147D01*
X126446216Y-79973544D01*
X126610188Y-79905624D01*
X126759488Y-79875927D01*
X126784258Y-79871000D01*
X126961742Y-79871000D01*
X126986512Y-79875927D01*
G37*
G36*
X132574512Y-79875927D02*
G01*
X132723812Y-79905624D01*
X132887784Y-79973544D01*
X133035354Y-80072147D01*
X133160853Y-80197646D01*
X133259456Y-80345216D01*
X133327376Y-80509188D01*
X133362000Y-80683259D01*
X133362000Y-80860741D01*
X133327376Y-81034812D01*
X133259456Y-81198784D01*
X133160853Y-81346354D01*
X133035354Y-81471853D01*
X132887784Y-81570456D01*
X132723812Y-81638376D01*
X132574512Y-81668073D01*
X132549742Y-81673000D01*
X132372258Y-81673000D01*
X132347488Y-81668073D01*
X132198188Y-81638376D01*
X132034216Y-81570456D01*
X131886646Y-81471853D01*
X131761147Y-81346354D01*
X131662544Y-81198784D01*
X131594624Y-81034812D01*
X131560000Y-80860741D01*
X131560000Y-80683259D01*
X131594624Y-80509188D01*
X131662544Y-80345216D01*
X131761147Y-80197646D01*
X131886646Y-80072147D01*
X132034216Y-79973544D01*
X132198188Y-79905624D01*
X132347488Y-79875927D01*
X132372258Y-79871000D01*
X132549742Y-79871000D01*
X132574512Y-79875927D01*
G37*
G36*
X135114512Y-79875927D02*
G01*
X135263812Y-79905624D01*
X135427784Y-79973544D01*
X135575354Y-80072147D01*
X135700853Y-80197646D01*
X135799456Y-80345216D01*
X135867376Y-80509188D01*
X135902000Y-80683259D01*
X135902000Y-80860741D01*
X135867376Y-81034812D01*
X135799456Y-81198784D01*
X135700853Y-81346354D01*
X135575354Y-81471853D01*
X135427784Y-81570456D01*
X135263812Y-81638376D01*
X135114512Y-81668073D01*
X135089742Y-81673000D01*
X134912258Y-81673000D01*
X134887488Y-81668073D01*
X134738188Y-81638376D01*
X134574216Y-81570456D01*
X134426646Y-81471853D01*
X134301147Y-81346354D01*
X134202544Y-81198784D01*
X134134624Y-81034812D01*
X134100000Y-80860741D01*
X134100000Y-80683259D01*
X134134624Y-80509188D01*
X134202544Y-80345216D01*
X134301147Y-80197646D01*
X134426646Y-80072147D01*
X134574216Y-79973544D01*
X134738188Y-79905624D01*
X134887488Y-79875927D01*
X134912258Y-79871000D01*
X135089742Y-79871000D01*
X135114512Y-79875927D01*
G37*
G36*
X122295228Y-79953703D02*
G01*
X122450100Y-80017853D01*
X122589481Y-80110985D01*
X122708015Y-80229519D01*
X122801147Y-80368900D01*
X122865297Y-80523772D01*
X122898000Y-80688184D01*
X122898000Y-80855816D01*
X122865297Y-81020228D01*
X122801147Y-81175100D01*
X122708015Y-81314481D01*
X122589481Y-81433015D01*
X122450100Y-81526147D01*
X122295228Y-81590297D01*
X122130816Y-81623000D01*
X121963184Y-81623000D01*
X121798772Y-81590297D01*
X121643900Y-81526147D01*
X121504519Y-81433015D01*
X121385985Y-81314481D01*
X121292853Y-81175100D01*
X121228703Y-81020228D01*
X121196000Y-80855816D01*
X121196000Y-80688184D01*
X121228703Y-80523772D01*
X121292853Y-80368900D01*
X121385985Y-80229519D01*
X121504519Y-80110985D01*
X121643900Y-80017853D01*
X121798772Y-79953703D01*
X121963184Y-79921000D01*
X122130816Y-79921000D01*
X122295228Y-79953703D01*
G37*
G36*
X137535228Y-79953703D02*
G01*
X137690100Y-80017853D01*
X137829481Y-80110985D01*
X137948015Y-80229519D01*
X138041147Y-80368900D01*
X138105297Y-80523772D01*
X138138000Y-80688184D01*
X138138000Y-80855816D01*
X138105297Y-81020228D01*
X138041147Y-81175100D01*
X137948015Y-81314481D01*
X137829481Y-81433015D01*
X137690100Y-81526147D01*
X137535228Y-81590297D01*
X137370816Y-81623000D01*
X137203184Y-81623000D01*
X137038772Y-81590297D01*
X136883900Y-81526147D01*
X136744519Y-81433015D01*
X136625985Y-81314481D01*
X136532853Y-81175100D01*
X136468703Y-81020228D01*
X136436000Y-80855816D01*
X136436000Y-80688184D01*
X136468703Y-80523772D01*
X136532853Y-80368900D01*
X136625985Y-80229519D01*
X136744519Y-80110985D01*
X136883900Y-80017853D01*
X137038772Y-79953703D01*
X137203184Y-79921000D01*
X137370816Y-79921000D01*
X137535228Y-79953703D01*
G37*
G36*
X124446512Y-77335927D02*
G01*
X124595812Y-77365624D01*
X124759784Y-77433544D01*
X124907354Y-77532147D01*
X125032853Y-77657646D01*
X125131456Y-77805216D01*
X125199376Y-77969188D01*
X125234000Y-78143259D01*
X125234000Y-78320741D01*
X125199376Y-78494812D01*
X125131456Y-78658784D01*
X125032853Y-78806354D01*
X124907354Y-78931853D01*
X124759784Y-79030456D01*
X124595812Y-79098376D01*
X124446512Y-79128073D01*
X124421742Y-79133000D01*
X124244258Y-79133000D01*
X124219488Y-79128073D01*
X124070188Y-79098376D01*
X123906216Y-79030456D01*
X123758646Y-78931853D01*
X123633147Y-78806354D01*
X123534544Y-78658784D01*
X123466624Y-78494812D01*
X123432000Y-78320741D01*
X123432000Y-78143259D01*
X123466624Y-77969188D01*
X123534544Y-77805216D01*
X123633147Y-77657646D01*
X123758646Y-77532147D01*
X123906216Y-77433544D01*
X124070188Y-77365624D01*
X124219488Y-77335927D01*
X124244258Y-77331000D01*
X124421742Y-77331000D01*
X124446512Y-77335927D01*
G37*
G36*
X126986512Y-77335927D02*
G01*
X127135812Y-77365624D01*
X127299784Y-77433544D01*
X127447354Y-77532147D01*
X127572853Y-77657646D01*
X127671456Y-77805216D01*
X127739376Y-77969188D01*
X127774000Y-78143259D01*
X127774000Y-78320741D01*
X127739376Y-78494812D01*
X127671456Y-78658784D01*
X127572853Y-78806354D01*
X127447354Y-78931853D01*
X127299784Y-79030456D01*
X127135812Y-79098376D01*
X126986512Y-79128073D01*
X126961742Y-79133000D01*
X126784258Y-79133000D01*
X126759488Y-79128073D01*
X126610188Y-79098376D01*
X126446216Y-79030456D01*
X126298646Y-78931853D01*
X126173147Y-78806354D01*
X126074544Y-78658784D01*
X126006624Y-78494812D01*
X125972000Y-78320741D01*
X125972000Y-78143259D01*
X126006624Y-77969188D01*
X126074544Y-77805216D01*
X126173147Y-77657646D01*
X126298646Y-77532147D01*
X126446216Y-77433544D01*
X126610188Y-77365624D01*
X126759488Y-77335927D01*
X126784258Y-77331000D01*
X126961742Y-77331000D01*
X126986512Y-77335927D01*
G37*
G36*
X135114512Y-77335927D02*
G01*
X135263812Y-77365624D01*
X135427784Y-77433544D01*
X135575354Y-77532147D01*
X135700853Y-77657646D01*
X135799456Y-77805216D01*
X135867376Y-77969188D01*
X135902000Y-78143259D01*
X135902000Y-78320741D01*
X135867376Y-78494812D01*
X135799456Y-78658784D01*
X135700853Y-78806354D01*
X135575354Y-78931853D01*
X135427784Y-79030456D01*
X135263812Y-79098376D01*
X135114512Y-79128073D01*
X135089742Y-79133000D01*
X134912258Y-79133000D01*
X134887488Y-79128073D01*
X134738188Y-79098376D01*
X134574216Y-79030456D01*
X134426646Y-78931853D01*
X134301147Y-78806354D01*
X134202544Y-78658784D01*
X134134624Y-78494812D01*
X134100000Y-78320741D01*
X134100000Y-78143259D01*
X134134624Y-77969188D01*
X134202544Y-77805216D01*
X134301147Y-77657646D01*
X134426646Y-77532147D01*
X134574216Y-77433544D01*
X134738188Y-77365624D01*
X134887488Y-77335927D01*
X134912258Y-77331000D01*
X135089742Y-77331000D01*
X135114512Y-77335927D01*
G37*
G36*
X132574512Y-77335927D02*
G01*
X132723812Y-77365624D01*
X132887784Y-77433544D01*
X133035354Y-77532147D01*
X133160853Y-77657646D01*
X133259456Y-77805216D01*
X133327376Y-77969188D01*
X133362000Y-78143259D01*
X133362000Y-78320741D01*
X133327376Y-78494812D01*
X133259456Y-78658784D01*
X133160853Y-78806354D01*
X133035354Y-78931853D01*
X132887784Y-79030456D01*
X132723812Y-79098376D01*
X132574512Y-79128073D01*
X132549742Y-79133000D01*
X132372258Y-79133000D01*
X132347488Y-79128073D01*
X132198188Y-79098376D01*
X132034216Y-79030456D01*
X131886646Y-78931853D01*
X131761147Y-78806354D01*
X131662544Y-78658784D01*
X131594624Y-78494812D01*
X131560000Y-78320741D01*
X131560000Y-78143259D01*
X131594624Y-77969188D01*
X131662544Y-77805216D01*
X131761147Y-77657646D01*
X131886646Y-77532147D01*
X132034216Y-77433544D01*
X132198188Y-77365624D01*
X132347488Y-77335927D01*
X132372258Y-77331000D01*
X132549742Y-77331000D01*
X132574512Y-77335927D01*
G37*
G36*
X137535228Y-77413703D02*
G01*
X137690100Y-77477853D01*
X137829481Y-77570985D01*
X137948015Y-77689519D01*
X138041147Y-77828900D01*
X138105297Y-77983772D01*
X138138000Y-78148184D01*
X138138000Y-78315816D01*
X138105297Y-78480228D01*
X138041147Y-78635100D01*
X137948015Y-78774481D01*
X137829481Y-78893015D01*
X137690100Y-78986147D01*
X137535228Y-79050297D01*
X137370816Y-79083000D01*
X137203184Y-79083000D01*
X137038772Y-79050297D01*
X136883900Y-78986147D01*
X136744519Y-78893015D01*
X136625985Y-78774481D01*
X136532853Y-78635100D01*
X136468703Y-78480228D01*
X136436000Y-78315816D01*
X136436000Y-78148184D01*
X136468703Y-77983772D01*
X136532853Y-77828900D01*
X136625985Y-77689519D01*
X136744519Y-77570985D01*
X136883900Y-77477853D01*
X137038772Y-77413703D01*
X137203184Y-77381000D01*
X137370816Y-77381000D01*
X137535228Y-77413703D01*
G37*
G36*
X122295228Y-77413703D02*
G01*
X122450100Y-77477853D01*
X122589481Y-77570985D01*
X122708015Y-77689519D01*
X122801147Y-77828900D01*
X122865297Y-77983772D01*
X122898000Y-78148184D01*
X122898000Y-78315816D01*
X122865297Y-78480228D01*
X122801147Y-78635100D01*
X122708015Y-78774481D01*
X122589481Y-78893015D01*
X122450100Y-78986147D01*
X122295228Y-79050297D01*
X122130816Y-79083000D01*
X121963184Y-79083000D01*
X121798772Y-79050297D01*
X121643900Y-78986147D01*
X121504519Y-78893015D01*
X121385985Y-78774481D01*
X121292853Y-78635100D01*
X121228703Y-78480228D01*
X121196000Y-78315816D01*
X121196000Y-78148184D01*
X121228703Y-77983772D01*
X121292853Y-77828900D01*
X121385985Y-77689519D01*
X121504519Y-77570985D01*
X121643900Y-77477853D01*
X121798772Y-77413703D01*
X121963184Y-77381000D01*
X122130816Y-77381000D01*
X122295228Y-77413703D01*
G37*
G36*
X132574512Y-74795927D02*
G01*
X132723812Y-74825624D01*
X132887784Y-74893544D01*
X133035354Y-74992147D01*
X133160853Y-75117646D01*
X133259456Y-75265216D01*
X133327376Y-75429188D01*
X133362000Y-75603259D01*
X133362000Y-75780741D01*
X133327376Y-75954812D01*
X133259456Y-76118784D01*
X133160853Y-76266354D01*
X133035354Y-76391853D01*
X132887784Y-76490456D01*
X132723812Y-76558376D01*
X132574512Y-76588073D01*
X132549742Y-76593000D01*
X132372258Y-76593000D01*
X132347488Y-76588073D01*
X132198188Y-76558376D01*
X132034216Y-76490456D01*
X131886646Y-76391853D01*
X131761147Y-76266354D01*
X131662544Y-76118784D01*
X131594624Y-75954812D01*
X131560000Y-75780741D01*
X131560000Y-75603259D01*
X131594624Y-75429188D01*
X131662544Y-75265216D01*
X131761147Y-75117646D01*
X131886646Y-74992147D01*
X132034216Y-74893544D01*
X132198188Y-74825624D01*
X132347488Y-74795927D01*
X132372258Y-74791000D01*
X132549742Y-74791000D01*
X132574512Y-74795927D01*
G37*
G36*
X126986512Y-74795927D02*
G01*
X127135812Y-74825624D01*
X127299784Y-74893544D01*
X127447354Y-74992147D01*
X127572853Y-75117646D01*
X127671456Y-75265216D01*
X127739376Y-75429188D01*
X127774000Y-75603259D01*
X127774000Y-75780741D01*
X127739376Y-75954812D01*
X127671456Y-76118784D01*
X127572853Y-76266354D01*
X127447354Y-76391853D01*
X127299784Y-76490456D01*
X127135812Y-76558376D01*
X126986512Y-76588073D01*
X126961742Y-76593000D01*
X126784258Y-76593000D01*
X126759488Y-76588073D01*
X126610188Y-76558376D01*
X126446216Y-76490456D01*
X126298646Y-76391853D01*
X126173147Y-76266354D01*
X126074544Y-76118784D01*
X126006624Y-75954812D01*
X125972000Y-75780741D01*
X125972000Y-75603259D01*
X126006624Y-75429188D01*
X126074544Y-75265216D01*
X126173147Y-75117646D01*
X126298646Y-74992147D01*
X126446216Y-74893544D01*
X126610188Y-74825624D01*
X126759488Y-74795927D01*
X126784258Y-74791000D01*
X126961742Y-74791000D01*
X126986512Y-74795927D01*
G37*
G36*
X124446512Y-74795927D02*
G01*
X124595812Y-74825624D01*
X124759784Y-74893544D01*
X124907354Y-74992147D01*
X125032853Y-75117646D01*
X125131456Y-75265216D01*
X125199376Y-75429188D01*
X125234000Y-75603259D01*
X125234000Y-75780741D01*
X125199376Y-75954812D01*
X125131456Y-76118784D01*
X125032853Y-76266354D01*
X124907354Y-76391853D01*
X124759784Y-76490456D01*
X124595812Y-76558376D01*
X124446512Y-76588073D01*
X124421742Y-76593000D01*
X124244258Y-76593000D01*
X124219488Y-76588073D01*
X124070188Y-76558376D01*
X123906216Y-76490456D01*
X123758646Y-76391853D01*
X123633147Y-76266354D01*
X123534544Y-76118784D01*
X123466624Y-75954812D01*
X123432000Y-75780741D01*
X123432000Y-75603259D01*
X123466624Y-75429188D01*
X123534544Y-75265216D01*
X123633147Y-75117646D01*
X123758646Y-74992147D01*
X123906216Y-74893544D01*
X124070188Y-74825624D01*
X124219488Y-74795927D01*
X124244258Y-74791000D01*
X124421742Y-74791000D01*
X124446512Y-74795927D01*
G37*
G36*
X135114512Y-74795927D02*
G01*
X135263812Y-74825624D01*
X135427784Y-74893544D01*
X135575354Y-74992147D01*
X135700853Y-75117646D01*
X135799456Y-75265216D01*
X135867376Y-75429188D01*
X135902000Y-75603259D01*
X135902000Y-75780741D01*
X135867376Y-75954812D01*
X135799456Y-76118784D01*
X135700853Y-76266354D01*
X135575354Y-76391853D01*
X135427784Y-76490456D01*
X135263812Y-76558376D01*
X135114512Y-76588073D01*
X135089742Y-76593000D01*
X134912258Y-76593000D01*
X134887488Y-76588073D01*
X134738188Y-76558376D01*
X134574216Y-76490456D01*
X134426646Y-76391853D01*
X134301147Y-76266354D01*
X134202544Y-76118784D01*
X134134624Y-75954812D01*
X134100000Y-75780741D01*
X134100000Y-75603259D01*
X134134624Y-75429188D01*
X134202544Y-75265216D01*
X134301147Y-75117646D01*
X134426646Y-74992147D01*
X134574216Y-74893544D01*
X134738188Y-74825624D01*
X134887488Y-74795927D01*
X134912258Y-74791000D01*
X135089742Y-74791000D01*
X135114512Y-74795927D01*
G37*
G36*
X137535228Y-74873703D02*
G01*
X137690100Y-74937853D01*
X137829481Y-75030985D01*
X137948015Y-75149519D01*
X138041147Y-75288900D01*
X138105297Y-75443772D01*
X138138000Y-75608184D01*
X138138000Y-75775816D01*
X138105297Y-75940228D01*
X138041147Y-76095100D01*
X137948015Y-76234481D01*
X137829481Y-76353015D01*
X137690100Y-76446147D01*
X137535228Y-76510297D01*
X137370816Y-76543000D01*
X137203184Y-76543000D01*
X137038772Y-76510297D01*
X136883900Y-76446147D01*
X136744519Y-76353015D01*
X136625985Y-76234481D01*
X136532853Y-76095100D01*
X136468703Y-75940228D01*
X136436000Y-75775816D01*
X136436000Y-75608184D01*
X136468703Y-75443772D01*
X136532853Y-75288900D01*
X136625985Y-75149519D01*
X136744519Y-75030985D01*
X136883900Y-74937853D01*
X137038772Y-74873703D01*
X137203184Y-74841000D01*
X137370816Y-74841000D01*
X137535228Y-74873703D01*
G37*
G36*
X122295228Y-74873703D02*
G01*
X122450100Y-74937853D01*
X122589481Y-75030985D01*
X122708015Y-75149519D01*
X122801147Y-75288900D01*
X122865297Y-75443772D01*
X122898000Y-75608184D01*
X122898000Y-75775816D01*
X122865297Y-75940228D01*
X122801147Y-76095100D01*
X122708015Y-76234481D01*
X122589481Y-76353015D01*
X122450100Y-76446147D01*
X122295228Y-76510297D01*
X122130816Y-76543000D01*
X121963184Y-76543000D01*
X121798772Y-76510297D01*
X121643900Y-76446147D01*
X121504519Y-76353015D01*
X121385985Y-76234481D01*
X121292853Y-76095100D01*
X121228703Y-75940228D01*
X121196000Y-75775816D01*
X121196000Y-75608184D01*
X121228703Y-75443772D01*
X121292853Y-75288900D01*
X121385985Y-75149519D01*
X121504519Y-75030985D01*
X121643900Y-74937853D01*
X121798772Y-74873703D01*
X121963184Y-74841000D01*
X122130816Y-74841000D01*
X122295228Y-74873703D01*
G37*
G36*
X135114512Y-72255927D02*
G01*
X135263812Y-72285624D01*
X135427784Y-72353544D01*
X135575354Y-72452147D01*
X135700853Y-72577646D01*
X135799456Y-72725216D01*
X135867376Y-72889188D01*
X135902000Y-73063259D01*
X135902000Y-73240741D01*
X135867376Y-73414812D01*
X135799456Y-73578784D01*
X135700853Y-73726354D01*
X135575354Y-73851853D01*
X135427784Y-73950456D01*
X135263812Y-74018376D01*
X135114512Y-74048073D01*
X135089742Y-74053000D01*
X134912258Y-74053000D01*
X134887488Y-74048073D01*
X134738188Y-74018376D01*
X134574216Y-73950456D01*
X134426646Y-73851853D01*
X134301147Y-73726354D01*
X134202544Y-73578784D01*
X134134624Y-73414812D01*
X134100000Y-73240741D01*
X134100000Y-73063259D01*
X134134624Y-72889188D01*
X134202544Y-72725216D01*
X134301147Y-72577646D01*
X134426646Y-72452147D01*
X134574216Y-72353544D01*
X134738188Y-72285624D01*
X134887488Y-72255927D01*
X134912258Y-72251000D01*
X135089742Y-72251000D01*
X135114512Y-72255927D01*
G37*
G36*
X132574512Y-72255927D02*
G01*
X132723812Y-72285624D01*
X132887784Y-72353544D01*
X133035354Y-72452147D01*
X133160853Y-72577646D01*
X133259456Y-72725216D01*
X133327376Y-72889188D01*
X133362000Y-73063259D01*
X133362000Y-73240741D01*
X133327376Y-73414812D01*
X133259456Y-73578784D01*
X133160853Y-73726354D01*
X133035354Y-73851853D01*
X132887784Y-73950456D01*
X132723812Y-74018376D01*
X132574512Y-74048073D01*
X132549742Y-74053000D01*
X132372258Y-74053000D01*
X132347488Y-74048073D01*
X132198188Y-74018376D01*
X132034216Y-73950456D01*
X131886646Y-73851853D01*
X131761147Y-73726354D01*
X131662544Y-73578784D01*
X131594624Y-73414812D01*
X131560000Y-73240741D01*
X131560000Y-73063259D01*
X131594624Y-72889188D01*
X131662544Y-72725216D01*
X131761147Y-72577646D01*
X131886646Y-72452147D01*
X132034216Y-72353544D01*
X132198188Y-72285624D01*
X132347488Y-72255927D01*
X132372258Y-72251000D01*
X132549742Y-72251000D01*
X132574512Y-72255927D01*
G37*
G36*
X124446512Y-72255927D02*
G01*
X124595812Y-72285624D01*
X124759784Y-72353544D01*
X124907354Y-72452147D01*
X125032853Y-72577646D01*
X125131456Y-72725216D01*
X125199376Y-72889188D01*
X125234000Y-73063259D01*
X125234000Y-73240741D01*
X125199376Y-73414812D01*
X125131456Y-73578784D01*
X125032853Y-73726354D01*
X124907354Y-73851853D01*
X124759784Y-73950456D01*
X124595812Y-74018376D01*
X124446512Y-74048073D01*
X124421742Y-74053000D01*
X124244258Y-74053000D01*
X124219488Y-74048073D01*
X124070188Y-74018376D01*
X123906216Y-73950456D01*
X123758646Y-73851853D01*
X123633147Y-73726354D01*
X123534544Y-73578784D01*
X123466624Y-73414812D01*
X123432000Y-73240741D01*
X123432000Y-73063259D01*
X123466624Y-72889188D01*
X123534544Y-72725216D01*
X123633147Y-72577646D01*
X123758646Y-72452147D01*
X123906216Y-72353544D01*
X124070188Y-72285624D01*
X124219488Y-72255927D01*
X124244258Y-72251000D01*
X124421742Y-72251000D01*
X124446512Y-72255927D01*
G37*
G36*
X126986512Y-72255927D02*
G01*
X127135812Y-72285624D01*
X127299784Y-72353544D01*
X127447354Y-72452147D01*
X127572853Y-72577646D01*
X127671456Y-72725216D01*
X127739376Y-72889188D01*
X127774000Y-73063259D01*
X127774000Y-73240741D01*
X127739376Y-73414812D01*
X127671456Y-73578784D01*
X127572853Y-73726354D01*
X127447354Y-73851853D01*
X127299784Y-73950456D01*
X127135812Y-74018376D01*
X126986512Y-74048073D01*
X126961742Y-74053000D01*
X126784258Y-74053000D01*
X126759488Y-74048073D01*
X126610188Y-74018376D01*
X126446216Y-73950456D01*
X126298646Y-73851853D01*
X126173147Y-73726354D01*
X126074544Y-73578784D01*
X126006624Y-73414812D01*
X125972000Y-73240741D01*
X125972000Y-73063259D01*
X126006624Y-72889188D01*
X126074544Y-72725216D01*
X126173147Y-72577646D01*
X126298646Y-72452147D01*
X126446216Y-72353544D01*
X126610188Y-72285624D01*
X126759488Y-72255927D01*
X126784258Y-72251000D01*
X126961742Y-72251000D01*
X126986512Y-72255927D01*
G37*
G36*
X122295228Y-72333703D02*
G01*
X122450100Y-72397853D01*
X122589481Y-72490985D01*
X122708015Y-72609519D01*
X122801147Y-72748900D01*
X122865297Y-72903772D01*
X122898000Y-73068184D01*
X122898000Y-73235816D01*
X122865297Y-73400228D01*
X122801147Y-73555100D01*
X122708015Y-73694481D01*
X122589481Y-73813015D01*
X122450100Y-73906147D01*
X122295228Y-73970297D01*
X122130816Y-74003000D01*
X121963184Y-74003000D01*
X121798772Y-73970297D01*
X121643900Y-73906147D01*
X121504519Y-73813015D01*
X121385985Y-73694481D01*
X121292853Y-73555100D01*
X121228703Y-73400228D01*
X121196000Y-73235816D01*
X121196000Y-73068184D01*
X121228703Y-72903772D01*
X121292853Y-72748900D01*
X121385985Y-72609519D01*
X121504519Y-72490985D01*
X121643900Y-72397853D01*
X121798772Y-72333703D01*
X121963184Y-72301000D01*
X122130816Y-72301000D01*
X122295228Y-72333703D01*
G37*
G36*
X137535228Y-72333703D02*
G01*
X137690100Y-72397853D01*
X137829481Y-72490985D01*
X137948015Y-72609519D01*
X138041147Y-72748900D01*
X138105297Y-72903772D01*
X138138000Y-73068184D01*
X138138000Y-73235816D01*
X138105297Y-73400228D01*
X138041147Y-73555100D01*
X137948015Y-73694481D01*
X137829481Y-73813015D01*
X137690100Y-73906147D01*
X137535228Y-73970297D01*
X137370816Y-74003000D01*
X137203184Y-74003000D01*
X137038772Y-73970297D01*
X136883900Y-73906147D01*
X136744519Y-73813015D01*
X136625985Y-73694481D01*
X136532853Y-73555100D01*
X136468703Y-73400228D01*
X136436000Y-73235816D01*
X136436000Y-73068184D01*
X136468703Y-72903772D01*
X136532853Y-72748900D01*
X136625985Y-72609519D01*
X136744519Y-72490985D01*
X136883900Y-72397853D01*
X137038772Y-72333703D01*
X137203184Y-72301000D01*
X137370816Y-72301000D01*
X137535228Y-72333703D01*
G37*
G36*
X124446512Y-69715927D02*
G01*
X124595812Y-69745624D01*
X124759784Y-69813544D01*
X124907354Y-69912147D01*
X125032853Y-70037646D01*
X125131456Y-70185216D01*
X125199376Y-70349188D01*
X125234000Y-70523259D01*
X125234000Y-70700741D01*
X125199376Y-70874812D01*
X125131456Y-71038784D01*
X125032853Y-71186354D01*
X124907354Y-71311853D01*
X124759784Y-71410456D01*
X124595812Y-71478376D01*
X124446512Y-71508073D01*
X124421742Y-71513000D01*
X124244258Y-71513000D01*
X124219488Y-71508073D01*
X124070188Y-71478376D01*
X123906216Y-71410456D01*
X123758646Y-71311853D01*
X123633147Y-71186354D01*
X123534544Y-71038784D01*
X123466624Y-70874812D01*
X123432000Y-70700741D01*
X123432000Y-70523259D01*
X123466624Y-70349188D01*
X123534544Y-70185216D01*
X123633147Y-70037646D01*
X123758646Y-69912147D01*
X123906216Y-69813544D01*
X124070188Y-69745624D01*
X124219488Y-69715927D01*
X124244258Y-69711000D01*
X124421742Y-69711000D01*
X124446512Y-69715927D01*
G37*
G36*
X126986512Y-69715927D02*
G01*
X127135812Y-69745624D01*
X127299784Y-69813544D01*
X127447354Y-69912147D01*
X127572853Y-70037646D01*
X127671456Y-70185216D01*
X127739376Y-70349188D01*
X127774000Y-70523259D01*
X127774000Y-70700741D01*
X127739376Y-70874812D01*
X127671456Y-71038784D01*
X127572853Y-71186354D01*
X127447354Y-71311853D01*
X127299784Y-71410456D01*
X127135812Y-71478376D01*
X126986512Y-71508073D01*
X126961742Y-71513000D01*
X126784258Y-71513000D01*
X126759488Y-71508073D01*
X126610188Y-71478376D01*
X126446216Y-71410456D01*
X126298646Y-71311853D01*
X126173147Y-71186354D01*
X126074544Y-71038784D01*
X126006624Y-70874812D01*
X125972000Y-70700741D01*
X125972000Y-70523259D01*
X126006624Y-70349188D01*
X126074544Y-70185216D01*
X126173147Y-70037646D01*
X126298646Y-69912147D01*
X126446216Y-69813544D01*
X126610188Y-69745624D01*
X126759488Y-69715927D01*
X126784258Y-69711000D01*
X126961742Y-69711000D01*
X126986512Y-69715927D01*
G37*
G36*
X135114512Y-69715927D02*
G01*
X135263812Y-69745624D01*
X135427784Y-69813544D01*
X135575354Y-69912147D01*
X135700853Y-70037646D01*
X135799456Y-70185216D01*
X135867376Y-70349188D01*
X135902000Y-70523259D01*
X135902000Y-70700741D01*
X135867376Y-70874812D01*
X135799456Y-71038784D01*
X135700853Y-71186354D01*
X135575354Y-71311853D01*
X135427784Y-71410456D01*
X135263812Y-71478376D01*
X135114512Y-71508073D01*
X135089742Y-71513000D01*
X134912258Y-71513000D01*
X134887488Y-71508073D01*
X134738188Y-71478376D01*
X134574216Y-71410456D01*
X134426646Y-71311853D01*
X134301147Y-71186354D01*
X134202544Y-71038784D01*
X134134624Y-70874812D01*
X134100000Y-70700741D01*
X134100000Y-70523259D01*
X134134624Y-70349188D01*
X134202544Y-70185216D01*
X134301147Y-70037646D01*
X134426646Y-69912147D01*
X134574216Y-69813544D01*
X134738188Y-69745624D01*
X134887488Y-69715927D01*
X134912258Y-69711000D01*
X135089742Y-69711000D01*
X135114512Y-69715927D01*
G37*
G36*
X132574512Y-69715927D02*
G01*
X132723812Y-69745624D01*
X132887784Y-69813544D01*
X133035354Y-69912147D01*
X133160853Y-70037646D01*
X133259456Y-70185216D01*
X133327376Y-70349188D01*
X133362000Y-70523259D01*
X133362000Y-70700741D01*
X133327376Y-70874812D01*
X133259456Y-71038784D01*
X133160853Y-71186354D01*
X133035354Y-71311853D01*
X132887784Y-71410456D01*
X132723812Y-71478376D01*
X132574512Y-71508073D01*
X132549742Y-71513000D01*
X132372258Y-71513000D01*
X132347488Y-71508073D01*
X132198188Y-71478376D01*
X132034216Y-71410456D01*
X131886646Y-71311853D01*
X131761147Y-71186354D01*
X131662544Y-71038784D01*
X131594624Y-70874812D01*
X131560000Y-70700741D01*
X131560000Y-70523259D01*
X131594624Y-70349188D01*
X131662544Y-70185216D01*
X131761147Y-70037646D01*
X131886646Y-69912147D01*
X132034216Y-69813544D01*
X132198188Y-69745624D01*
X132347488Y-69715927D01*
X132372258Y-69711000D01*
X132549742Y-69711000D01*
X132574512Y-69715927D01*
G37*
G36*
X122295228Y-69793703D02*
G01*
X122450100Y-69857853D01*
X122589481Y-69950985D01*
X122708015Y-70069519D01*
X122801147Y-70208900D01*
X122865297Y-70363772D01*
X122898000Y-70528184D01*
X122898000Y-70695816D01*
X122865297Y-70860228D01*
X122801147Y-71015100D01*
X122708015Y-71154481D01*
X122589481Y-71273015D01*
X122450100Y-71366147D01*
X122295228Y-71430297D01*
X122130816Y-71463000D01*
X121963184Y-71463000D01*
X121798772Y-71430297D01*
X121643900Y-71366147D01*
X121504519Y-71273015D01*
X121385985Y-71154481D01*
X121292853Y-71015100D01*
X121228703Y-70860228D01*
X121196000Y-70695816D01*
X121196000Y-70528184D01*
X121228703Y-70363772D01*
X121292853Y-70208900D01*
X121385985Y-70069519D01*
X121504519Y-69950985D01*
X121643900Y-69857853D01*
X121798772Y-69793703D01*
X121963184Y-69761000D01*
X122130816Y-69761000D01*
X122295228Y-69793703D01*
G37*
G36*
X137535228Y-69793703D02*
G01*
X137690100Y-69857853D01*
X137829481Y-69950985D01*
X137948015Y-70069519D01*
X138041147Y-70208900D01*
X138105297Y-70363772D01*
X138138000Y-70528184D01*
X138138000Y-70695816D01*
X138105297Y-70860228D01*
X138041147Y-71015100D01*
X137948015Y-71154481D01*
X137829481Y-71273015D01*
X137690100Y-71366147D01*
X137535228Y-71430297D01*
X137370816Y-71463000D01*
X137203184Y-71463000D01*
X137038772Y-71430297D01*
X136883900Y-71366147D01*
X136744519Y-71273015D01*
X136625985Y-71154481D01*
X136532853Y-71015100D01*
X136468703Y-70860228D01*
X136436000Y-70695816D01*
X136436000Y-70528184D01*
X136468703Y-70363772D01*
X136532853Y-70208900D01*
X136625985Y-70069519D01*
X136744519Y-69950985D01*
X136883900Y-69857853D01*
X137038772Y-69793703D01*
X137203184Y-69761000D01*
X137370816Y-69761000D01*
X137535228Y-69793703D01*
G37*
G36*
X124446512Y-67175927D02*
G01*
X124595812Y-67205624D01*
X124759784Y-67273544D01*
X124907354Y-67372147D01*
X125032853Y-67497646D01*
X125131456Y-67645216D01*
X125199376Y-67809188D01*
X125234000Y-67983259D01*
X125234000Y-68160741D01*
X125199376Y-68334812D01*
X125131456Y-68498784D01*
X125032853Y-68646354D01*
X124907354Y-68771853D01*
X124759784Y-68870456D01*
X124595812Y-68938376D01*
X124446512Y-68968073D01*
X124421742Y-68973000D01*
X124244258Y-68973000D01*
X124219488Y-68968073D01*
X124070188Y-68938376D01*
X123906216Y-68870456D01*
X123758646Y-68771853D01*
X123633147Y-68646354D01*
X123534544Y-68498784D01*
X123466624Y-68334812D01*
X123432000Y-68160741D01*
X123432000Y-67983259D01*
X123466624Y-67809188D01*
X123534544Y-67645216D01*
X123633147Y-67497646D01*
X123758646Y-67372147D01*
X123906216Y-67273544D01*
X124070188Y-67205624D01*
X124219488Y-67175927D01*
X124244258Y-67171000D01*
X124421742Y-67171000D01*
X124446512Y-67175927D01*
G37*
G36*
X135114512Y-67175927D02*
G01*
X135263812Y-67205624D01*
X135427784Y-67273544D01*
X135575354Y-67372147D01*
X135700853Y-67497646D01*
X135799456Y-67645216D01*
X135867376Y-67809188D01*
X135902000Y-67983259D01*
X135902000Y-68160741D01*
X135867376Y-68334812D01*
X135799456Y-68498784D01*
X135700853Y-68646354D01*
X135575354Y-68771853D01*
X135427784Y-68870456D01*
X135263812Y-68938376D01*
X135114512Y-68968073D01*
X135089742Y-68973000D01*
X134912258Y-68973000D01*
X134887488Y-68968073D01*
X134738188Y-68938376D01*
X134574216Y-68870456D01*
X134426646Y-68771853D01*
X134301147Y-68646354D01*
X134202544Y-68498784D01*
X134134624Y-68334812D01*
X134100000Y-68160741D01*
X134100000Y-67983259D01*
X134134624Y-67809188D01*
X134202544Y-67645216D01*
X134301147Y-67497646D01*
X134426646Y-67372147D01*
X134574216Y-67273544D01*
X134738188Y-67205624D01*
X134887488Y-67175927D01*
X134912258Y-67171000D01*
X135089742Y-67171000D01*
X135114512Y-67175927D01*
G37*
G36*
X126986512Y-67175927D02*
G01*
X127135812Y-67205624D01*
X127299784Y-67273544D01*
X127447354Y-67372147D01*
X127572853Y-67497646D01*
X127671456Y-67645216D01*
X127739376Y-67809188D01*
X127774000Y-67983259D01*
X127774000Y-68160741D01*
X127739376Y-68334812D01*
X127671456Y-68498784D01*
X127572853Y-68646354D01*
X127447354Y-68771853D01*
X127299784Y-68870456D01*
X127135812Y-68938376D01*
X126986512Y-68968073D01*
X126961742Y-68973000D01*
X126784258Y-68973000D01*
X126759488Y-68968073D01*
X126610188Y-68938376D01*
X126446216Y-68870456D01*
X126298646Y-68771853D01*
X126173147Y-68646354D01*
X126074544Y-68498784D01*
X126006624Y-68334812D01*
X125972000Y-68160741D01*
X125972000Y-67983259D01*
X126006624Y-67809188D01*
X126074544Y-67645216D01*
X126173147Y-67497646D01*
X126298646Y-67372147D01*
X126446216Y-67273544D01*
X126610188Y-67205624D01*
X126759488Y-67175927D01*
X126784258Y-67171000D01*
X126961742Y-67171000D01*
X126986512Y-67175927D01*
G37*
G36*
X132574512Y-67175927D02*
G01*
X132723812Y-67205624D01*
X132887784Y-67273544D01*
X133035354Y-67372147D01*
X133160853Y-67497646D01*
X133259456Y-67645216D01*
X133327376Y-67809188D01*
X133362000Y-67983259D01*
X133362000Y-68160741D01*
X133327376Y-68334812D01*
X133259456Y-68498784D01*
X133160853Y-68646354D01*
X133035354Y-68771853D01*
X132887784Y-68870456D01*
X132723812Y-68938376D01*
X132574512Y-68968073D01*
X132549742Y-68973000D01*
X132372258Y-68973000D01*
X132347488Y-68968073D01*
X132198188Y-68938376D01*
X132034216Y-68870456D01*
X131886646Y-68771853D01*
X131761147Y-68646354D01*
X131662544Y-68498784D01*
X131594624Y-68334812D01*
X131560000Y-68160741D01*
X131560000Y-67983259D01*
X131594624Y-67809188D01*
X131662544Y-67645216D01*
X131761147Y-67497646D01*
X131886646Y-67372147D01*
X132034216Y-67273544D01*
X132198188Y-67205624D01*
X132347488Y-67175927D01*
X132372258Y-67171000D01*
X132549742Y-67171000D01*
X132574512Y-67175927D01*
G37*
G36*
X122295228Y-67253703D02*
G01*
X122450100Y-67317853D01*
X122589481Y-67410985D01*
X122708015Y-67529519D01*
X122801147Y-67668900D01*
X122865297Y-67823772D01*
X122898000Y-67988184D01*
X122898000Y-68155816D01*
X122865297Y-68320228D01*
X122801147Y-68475100D01*
X122708015Y-68614481D01*
X122589481Y-68733015D01*
X122450100Y-68826147D01*
X122295228Y-68890297D01*
X122130816Y-68923000D01*
X121963184Y-68923000D01*
X121798772Y-68890297D01*
X121643900Y-68826147D01*
X121504519Y-68733015D01*
X121385985Y-68614481D01*
X121292853Y-68475100D01*
X121228703Y-68320228D01*
X121196000Y-68155816D01*
X121196000Y-67988184D01*
X121228703Y-67823772D01*
X121292853Y-67668900D01*
X121385985Y-67529519D01*
X121504519Y-67410985D01*
X121643900Y-67317853D01*
X121798772Y-67253703D01*
X121963184Y-67221000D01*
X122130816Y-67221000D01*
X122295228Y-67253703D01*
G37*
G36*
X137535228Y-67253703D02*
G01*
X137690100Y-67317853D01*
X137829481Y-67410985D01*
X137948015Y-67529519D01*
X138041147Y-67668900D01*
X138105297Y-67823772D01*
X138138000Y-67988184D01*
X138138000Y-68155816D01*
X138105297Y-68320228D01*
X138041147Y-68475100D01*
X137948015Y-68614481D01*
X137829481Y-68733015D01*
X137690100Y-68826147D01*
X137535228Y-68890297D01*
X137370816Y-68923000D01*
X137203184Y-68923000D01*
X137038772Y-68890297D01*
X136883900Y-68826147D01*
X136744519Y-68733015D01*
X136625985Y-68614481D01*
X136532853Y-68475100D01*
X136468703Y-68320228D01*
X136436000Y-68155816D01*
X136436000Y-67988184D01*
X136468703Y-67823772D01*
X136532853Y-67668900D01*
X136625985Y-67529519D01*
X136744519Y-67410985D01*
X136883900Y-67317853D01*
X137038772Y-67253703D01*
X137203184Y-67221000D01*
X137370816Y-67221000D01*
X137535228Y-67253703D01*
G37*
G36*
X132574512Y-64635927D02*
G01*
X132723812Y-64665624D01*
X132887784Y-64733544D01*
X133035354Y-64832147D01*
X133160853Y-64957646D01*
X133259456Y-65105216D01*
X133327376Y-65269188D01*
X133362000Y-65443259D01*
X133362000Y-65620741D01*
X133327376Y-65794812D01*
X133259456Y-65958784D01*
X133160853Y-66106354D01*
X133035354Y-66231853D01*
X132887784Y-66330456D01*
X132723812Y-66398376D01*
X132574512Y-66428073D01*
X132549742Y-66433000D01*
X132372258Y-66433000D01*
X132347488Y-66428073D01*
X132198188Y-66398376D01*
X132034216Y-66330456D01*
X131886646Y-66231853D01*
X131761147Y-66106354D01*
X131662544Y-65958784D01*
X131594624Y-65794812D01*
X131560000Y-65620741D01*
X131560000Y-65443259D01*
X131594624Y-65269188D01*
X131662544Y-65105216D01*
X131761147Y-64957646D01*
X131886646Y-64832147D01*
X132034216Y-64733544D01*
X132198188Y-64665624D01*
X132347488Y-64635927D01*
X132372258Y-64631000D01*
X132549742Y-64631000D01*
X132574512Y-64635927D01*
G37*
G36*
X135114512Y-64635927D02*
G01*
X135263812Y-64665624D01*
X135427784Y-64733544D01*
X135575354Y-64832147D01*
X135700853Y-64957646D01*
X135799456Y-65105216D01*
X135867376Y-65269188D01*
X135902000Y-65443259D01*
X135902000Y-65620741D01*
X135867376Y-65794812D01*
X135799456Y-65958784D01*
X135700853Y-66106354D01*
X135575354Y-66231853D01*
X135427784Y-66330456D01*
X135263812Y-66398376D01*
X135114512Y-66428073D01*
X135089742Y-66433000D01*
X134912258Y-66433000D01*
X134887488Y-66428073D01*
X134738188Y-66398376D01*
X134574216Y-66330456D01*
X134426646Y-66231853D01*
X134301147Y-66106354D01*
X134202544Y-65958784D01*
X134134624Y-65794812D01*
X134100000Y-65620741D01*
X134100000Y-65443259D01*
X134134624Y-65269188D01*
X134202544Y-65105216D01*
X134301147Y-64957646D01*
X134426646Y-64832147D01*
X134574216Y-64733544D01*
X134738188Y-64665624D01*
X134887488Y-64635927D01*
X134912258Y-64631000D01*
X135089742Y-64631000D01*
X135114512Y-64635927D01*
G37*
G36*
X124446512Y-64635927D02*
G01*
X124595812Y-64665624D01*
X124759784Y-64733544D01*
X124907354Y-64832147D01*
X125032853Y-64957646D01*
X125131456Y-65105216D01*
X125199376Y-65269188D01*
X125234000Y-65443259D01*
X125234000Y-65620741D01*
X125199376Y-65794812D01*
X125131456Y-65958784D01*
X125032853Y-66106354D01*
X124907354Y-66231853D01*
X124759784Y-66330456D01*
X124595812Y-66398376D01*
X124446512Y-66428073D01*
X124421742Y-66433000D01*
X124244258Y-66433000D01*
X124219488Y-66428073D01*
X124070188Y-66398376D01*
X123906216Y-66330456D01*
X123758646Y-66231853D01*
X123633147Y-66106354D01*
X123534544Y-65958784D01*
X123466624Y-65794812D01*
X123432000Y-65620741D01*
X123432000Y-65443259D01*
X123466624Y-65269188D01*
X123534544Y-65105216D01*
X123633147Y-64957646D01*
X123758646Y-64832147D01*
X123906216Y-64733544D01*
X124070188Y-64665624D01*
X124219488Y-64635927D01*
X124244258Y-64631000D01*
X124421742Y-64631000D01*
X124446512Y-64635927D01*
G37*
G36*
X126986512Y-64635927D02*
G01*
X127135812Y-64665624D01*
X127299784Y-64733544D01*
X127447354Y-64832147D01*
X127572853Y-64957646D01*
X127671456Y-65105216D01*
X127739376Y-65269188D01*
X127774000Y-65443259D01*
X127774000Y-65620741D01*
X127739376Y-65794812D01*
X127671456Y-65958784D01*
X127572853Y-66106354D01*
X127447354Y-66231853D01*
X127299784Y-66330456D01*
X127135812Y-66398376D01*
X126986512Y-66428073D01*
X126961742Y-66433000D01*
X126784258Y-66433000D01*
X126759488Y-66428073D01*
X126610188Y-66398376D01*
X126446216Y-66330456D01*
X126298646Y-66231853D01*
X126173147Y-66106354D01*
X126074544Y-65958784D01*
X126006624Y-65794812D01*
X125972000Y-65620741D01*
X125972000Y-65443259D01*
X126006624Y-65269188D01*
X126074544Y-65105216D01*
X126173147Y-64957646D01*
X126298646Y-64832147D01*
X126446216Y-64733544D01*
X126610188Y-64665624D01*
X126759488Y-64635927D01*
X126784258Y-64631000D01*
X126961742Y-64631000D01*
X126986512Y-64635927D01*
G37*
G36*
X137535228Y-64713703D02*
G01*
X137690100Y-64777853D01*
X137829481Y-64870985D01*
X137948015Y-64989519D01*
X138041147Y-65128900D01*
X138105297Y-65283772D01*
X138138000Y-65448184D01*
X138138000Y-65615816D01*
X138105297Y-65780228D01*
X138041147Y-65935100D01*
X137948015Y-66074481D01*
X137829481Y-66193015D01*
X137690100Y-66286147D01*
X137535228Y-66350297D01*
X137370816Y-66383000D01*
X137203184Y-66383000D01*
X137038772Y-66350297D01*
X136883900Y-66286147D01*
X136744519Y-66193015D01*
X136625985Y-66074481D01*
X136532853Y-65935100D01*
X136468703Y-65780228D01*
X136436000Y-65615816D01*
X136436000Y-65448184D01*
X136468703Y-65283772D01*
X136532853Y-65128900D01*
X136625985Y-64989519D01*
X136744519Y-64870985D01*
X136883900Y-64777853D01*
X137038772Y-64713703D01*
X137203184Y-64681000D01*
X137370816Y-64681000D01*
X137535228Y-64713703D01*
G37*
G36*
X122295228Y-64713703D02*
G01*
X122450100Y-64777853D01*
X122589481Y-64870985D01*
X122708015Y-64989519D01*
X122801147Y-65128900D01*
X122865297Y-65283772D01*
X122898000Y-65448184D01*
X122898000Y-65615816D01*
X122865297Y-65780228D01*
X122801147Y-65935100D01*
X122708015Y-66074481D01*
X122589481Y-66193015D01*
X122450100Y-66286147D01*
X122295228Y-66350297D01*
X122130816Y-66383000D01*
X121963184Y-66383000D01*
X121798772Y-66350297D01*
X121643900Y-66286147D01*
X121504519Y-66193015D01*
X121385985Y-66074481D01*
X121292853Y-65935100D01*
X121228703Y-65780228D01*
X121196000Y-65615816D01*
X121196000Y-65448184D01*
X121228703Y-65283772D01*
X121292853Y-65128900D01*
X121385985Y-64989519D01*
X121504519Y-64870985D01*
X121643900Y-64777853D01*
X121798772Y-64713703D01*
X121963184Y-64681000D01*
X122130816Y-64681000D01*
X122295228Y-64713703D01*
G37*
G36*
X135114512Y-62095927D02*
G01*
X135263812Y-62125624D01*
X135427784Y-62193544D01*
X135575354Y-62292147D01*
X135700853Y-62417646D01*
X135799456Y-62565216D01*
X135867376Y-62729188D01*
X135902000Y-62903259D01*
X135902000Y-63080741D01*
X135867376Y-63254812D01*
X135799456Y-63418784D01*
X135700853Y-63566354D01*
X135575354Y-63691853D01*
X135427784Y-63790456D01*
X135263812Y-63858376D01*
X135114512Y-63888073D01*
X135089742Y-63893000D01*
X134912258Y-63893000D01*
X134887488Y-63888073D01*
X134738188Y-63858376D01*
X134574216Y-63790456D01*
X134426646Y-63691853D01*
X134301147Y-63566354D01*
X134202544Y-63418784D01*
X134134624Y-63254812D01*
X134100000Y-63080741D01*
X134100000Y-62903259D01*
X134134624Y-62729188D01*
X134202544Y-62565216D01*
X134301147Y-62417646D01*
X134426646Y-62292147D01*
X134574216Y-62193544D01*
X134738188Y-62125624D01*
X134887488Y-62095927D01*
X134912258Y-62091000D01*
X135089742Y-62091000D01*
X135114512Y-62095927D01*
G37*
G36*
X132574512Y-62095927D02*
G01*
X132723812Y-62125624D01*
X132887784Y-62193544D01*
X133035354Y-62292147D01*
X133160853Y-62417646D01*
X133259456Y-62565216D01*
X133327376Y-62729188D01*
X133362000Y-62903259D01*
X133362000Y-63080741D01*
X133327376Y-63254812D01*
X133259456Y-63418784D01*
X133160853Y-63566354D01*
X133035354Y-63691853D01*
X132887784Y-63790456D01*
X132723812Y-63858376D01*
X132574512Y-63888073D01*
X132549742Y-63893000D01*
X132372258Y-63893000D01*
X132347488Y-63888073D01*
X132198188Y-63858376D01*
X132034216Y-63790456D01*
X131886646Y-63691853D01*
X131761147Y-63566354D01*
X131662544Y-63418784D01*
X131594624Y-63254812D01*
X131560000Y-63080741D01*
X131560000Y-62903259D01*
X131594624Y-62729188D01*
X131662544Y-62565216D01*
X131761147Y-62417646D01*
X131886646Y-62292147D01*
X132034216Y-62193544D01*
X132198188Y-62125624D01*
X132347488Y-62095927D01*
X132372258Y-62091000D01*
X132549742Y-62091000D01*
X132574512Y-62095927D01*
G37*
G36*
X126986512Y-62095927D02*
G01*
X127135812Y-62125624D01*
X127299784Y-62193544D01*
X127447354Y-62292147D01*
X127572853Y-62417646D01*
X127671456Y-62565216D01*
X127739376Y-62729188D01*
X127774000Y-62903259D01*
X127774000Y-63080741D01*
X127739376Y-63254812D01*
X127671456Y-63418784D01*
X127572853Y-63566354D01*
X127447354Y-63691853D01*
X127299784Y-63790456D01*
X127135812Y-63858376D01*
X126986512Y-63888073D01*
X126961742Y-63893000D01*
X126784258Y-63893000D01*
X126759488Y-63888073D01*
X126610188Y-63858376D01*
X126446216Y-63790456D01*
X126298646Y-63691853D01*
X126173147Y-63566354D01*
X126074544Y-63418784D01*
X126006624Y-63254812D01*
X125972000Y-63080741D01*
X125972000Y-62903259D01*
X126006624Y-62729188D01*
X126074544Y-62565216D01*
X126173147Y-62417646D01*
X126298646Y-62292147D01*
X126446216Y-62193544D01*
X126610188Y-62125624D01*
X126759488Y-62095927D01*
X126784258Y-62091000D01*
X126961742Y-62091000D01*
X126986512Y-62095927D01*
G37*
G36*
X124446512Y-62095927D02*
G01*
X124595812Y-62125624D01*
X124759784Y-62193544D01*
X124907354Y-62292147D01*
X125032853Y-62417646D01*
X125131456Y-62565216D01*
X125199376Y-62729188D01*
X125234000Y-62903259D01*
X125234000Y-63080741D01*
X125199376Y-63254812D01*
X125131456Y-63418784D01*
X125032853Y-63566354D01*
X124907354Y-63691853D01*
X124759784Y-63790456D01*
X124595812Y-63858376D01*
X124446512Y-63888073D01*
X124421742Y-63893000D01*
X124244258Y-63893000D01*
X124219488Y-63888073D01*
X124070188Y-63858376D01*
X123906216Y-63790456D01*
X123758646Y-63691853D01*
X123633147Y-63566354D01*
X123534544Y-63418784D01*
X123466624Y-63254812D01*
X123432000Y-63080741D01*
X123432000Y-62903259D01*
X123466624Y-62729188D01*
X123534544Y-62565216D01*
X123633147Y-62417646D01*
X123758646Y-62292147D01*
X123906216Y-62193544D01*
X124070188Y-62125624D01*
X124219488Y-62095927D01*
X124244258Y-62091000D01*
X124421742Y-62091000D01*
X124446512Y-62095927D01*
G37*
G36*
X137535228Y-62173703D02*
G01*
X137690100Y-62237853D01*
X137829481Y-62330985D01*
X137948015Y-62449519D01*
X138041147Y-62588900D01*
X138105297Y-62743772D01*
X138138000Y-62908184D01*
X138138000Y-63075816D01*
X138105297Y-63240228D01*
X138041147Y-63395100D01*
X137948015Y-63534481D01*
X137829481Y-63653015D01*
X137690100Y-63746147D01*
X137535228Y-63810297D01*
X137370816Y-63843000D01*
X137203184Y-63843000D01*
X137038772Y-63810297D01*
X136883900Y-63746147D01*
X136744519Y-63653015D01*
X136625985Y-63534481D01*
X136532853Y-63395100D01*
X136468703Y-63240228D01*
X136436000Y-63075816D01*
X136436000Y-62908184D01*
X136468703Y-62743772D01*
X136532853Y-62588900D01*
X136625985Y-62449519D01*
X136744519Y-62330985D01*
X136883900Y-62237853D01*
X137038772Y-62173703D01*
X137203184Y-62141000D01*
X137370816Y-62141000D01*
X137535228Y-62173703D01*
G37*
G36*
X122295228Y-62173703D02*
G01*
X122450100Y-62237853D01*
X122589481Y-62330985D01*
X122708015Y-62449519D01*
X122801147Y-62588900D01*
X122865297Y-62743772D01*
X122898000Y-62908184D01*
X122898000Y-63075816D01*
X122865297Y-63240228D01*
X122801147Y-63395100D01*
X122708015Y-63534481D01*
X122589481Y-63653015D01*
X122450100Y-63746147D01*
X122295228Y-63810297D01*
X122130816Y-63843000D01*
X121963184Y-63843000D01*
X121798772Y-63810297D01*
X121643900Y-63746147D01*
X121504519Y-63653015D01*
X121385985Y-63534481D01*
X121292853Y-63395100D01*
X121228703Y-63240228D01*
X121196000Y-63075816D01*
X121196000Y-62908184D01*
X121228703Y-62743772D01*
X121292853Y-62588900D01*
X121385985Y-62449519D01*
X121504519Y-62330985D01*
X121643900Y-62237853D01*
X121798772Y-62173703D01*
X121963184Y-62141000D01*
X122130816Y-62141000D01*
X122295228Y-62173703D01*
G37*
G36*
X135114512Y-59555927D02*
G01*
X135263812Y-59585624D01*
X135427784Y-59653544D01*
X135575354Y-59752147D01*
X135700853Y-59877646D01*
X135799456Y-60025216D01*
X135867376Y-60189188D01*
X135902000Y-60363259D01*
X135902000Y-60540741D01*
X135867376Y-60714812D01*
X135799456Y-60878784D01*
X135700853Y-61026354D01*
X135575354Y-61151853D01*
X135427784Y-61250456D01*
X135263812Y-61318376D01*
X135114512Y-61348073D01*
X135089742Y-61353000D01*
X134912258Y-61353000D01*
X134887488Y-61348073D01*
X134738188Y-61318376D01*
X134574216Y-61250456D01*
X134426646Y-61151853D01*
X134301147Y-61026354D01*
X134202544Y-60878784D01*
X134134624Y-60714812D01*
X134100000Y-60540741D01*
X134100000Y-60363259D01*
X134134624Y-60189188D01*
X134202544Y-60025216D01*
X134301147Y-59877646D01*
X134426646Y-59752147D01*
X134574216Y-59653544D01*
X134738188Y-59585624D01*
X134887488Y-59555927D01*
X134912258Y-59551000D01*
X135089742Y-59551000D01*
X135114512Y-59555927D01*
G37*
G36*
X132574512Y-59555927D02*
G01*
X132723812Y-59585624D01*
X132887784Y-59653544D01*
X133035354Y-59752147D01*
X133160853Y-59877646D01*
X133259456Y-60025216D01*
X133327376Y-60189188D01*
X133362000Y-60363259D01*
X133362000Y-60540741D01*
X133327376Y-60714812D01*
X133259456Y-60878784D01*
X133160853Y-61026354D01*
X133035354Y-61151853D01*
X132887784Y-61250456D01*
X132723812Y-61318376D01*
X132574512Y-61348073D01*
X132549742Y-61353000D01*
X132372258Y-61353000D01*
X132347488Y-61348073D01*
X132198188Y-61318376D01*
X132034216Y-61250456D01*
X131886646Y-61151853D01*
X131761147Y-61026354D01*
X131662544Y-60878784D01*
X131594624Y-60714812D01*
X131560000Y-60540741D01*
X131560000Y-60363259D01*
X131594624Y-60189188D01*
X131662544Y-60025216D01*
X131761147Y-59877646D01*
X131886646Y-59752147D01*
X132034216Y-59653544D01*
X132198188Y-59585624D01*
X132347488Y-59555927D01*
X132372258Y-59551000D01*
X132549742Y-59551000D01*
X132574512Y-59555927D01*
G37*
G36*
X126986512Y-59555927D02*
G01*
X127135812Y-59585624D01*
X127299784Y-59653544D01*
X127447354Y-59752147D01*
X127572853Y-59877646D01*
X127671456Y-60025216D01*
X127739376Y-60189188D01*
X127774000Y-60363259D01*
X127774000Y-60540741D01*
X127739376Y-60714812D01*
X127671456Y-60878784D01*
X127572853Y-61026354D01*
X127447354Y-61151853D01*
X127299784Y-61250456D01*
X127135812Y-61318376D01*
X126986512Y-61348073D01*
X126961742Y-61353000D01*
X126784258Y-61353000D01*
X126759488Y-61348073D01*
X126610188Y-61318376D01*
X126446216Y-61250456D01*
X126298646Y-61151853D01*
X126173147Y-61026354D01*
X126074544Y-60878784D01*
X126006624Y-60714812D01*
X125972000Y-60540741D01*
X125972000Y-60363259D01*
X126006624Y-60189188D01*
X126074544Y-60025216D01*
X126173147Y-59877646D01*
X126298646Y-59752147D01*
X126446216Y-59653544D01*
X126610188Y-59585624D01*
X126759488Y-59555927D01*
X126784258Y-59551000D01*
X126961742Y-59551000D01*
X126986512Y-59555927D01*
G37*
G36*
X124446512Y-59555927D02*
G01*
X124595812Y-59585624D01*
X124759784Y-59653544D01*
X124907354Y-59752147D01*
X125032853Y-59877646D01*
X125131456Y-60025216D01*
X125199376Y-60189188D01*
X125234000Y-60363259D01*
X125234000Y-60540741D01*
X125199376Y-60714812D01*
X125131456Y-60878784D01*
X125032853Y-61026354D01*
X124907354Y-61151853D01*
X124759784Y-61250456D01*
X124595812Y-61318376D01*
X124446512Y-61348073D01*
X124421742Y-61353000D01*
X124244258Y-61353000D01*
X124219488Y-61348073D01*
X124070188Y-61318376D01*
X123906216Y-61250456D01*
X123758646Y-61151853D01*
X123633147Y-61026354D01*
X123534544Y-60878784D01*
X123466624Y-60714812D01*
X123432000Y-60540741D01*
X123432000Y-60363259D01*
X123466624Y-60189188D01*
X123534544Y-60025216D01*
X123633147Y-59877646D01*
X123758646Y-59752147D01*
X123906216Y-59653544D01*
X124070188Y-59585624D01*
X124219488Y-59555927D01*
X124244258Y-59551000D01*
X124421742Y-59551000D01*
X124446512Y-59555927D01*
G37*
G36*
X137535228Y-59633703D02*
G01*
X137690100Y-59697853D01*
X137829481Y-59790985D01*
X137948015Y-59909519D01*
X138041147Y-60048900D01*
X138105297Y-60203772D01*
X138138000Y-60368184D01*
X138138000Y-60535816D01*
X138105297Y-60700228D01*
X138041147Y-60855100D01*
X137948015Y-60994481D01*
X137829481Y-61113015D01*
X137690100Y-61206147D01*
X137535228Y-61270297D01*
X137370816Y-61303000D01*
X137203184Y-61303000D01*
X137038772Y-61270297D01*
X136883900Y-61206147D01*
X136744519Y-61113015D01*
X136625985Y-60994481D01*
X136532853Y-60855100D01*
X136468703Y-60700228D01*
X136436000Y-60535816D01*
X136436000Y-60368184D01*
X136468703Y-60203772D01*
X136532853Y-60048900D01*
X136625985Y-59909519D01*
X136744519Y-59790985D01*
X136883900Y-59697853D01*
X137038772Y-59633703D01*
X137203184Y-59601000D01*
X137370816Y-59601000D01*
X137535228Y-59633703D01*
G37*
G36*
X122295228Y-59633703D02*
G01*
X122450100Y-59697853D01*
X122589481Y-59790985D01*
X122708015Y-59909519D01*
X122801147Y-60048900D01*
X122865297Y-60203772D01*
X122898000Y-60368184D01*
X122898000Y-60535816D01*
X122865297Y-60700228D01*
X122801147Y-60855100D01*
X122708015Y-60994481D01*
X122589481Y-61113015D01*
X122450100Y-61206147D01*
X122295228Y-61270297D01*
X122130816Y-61303000D01*
X121963184Y-61303000D01*
X121798772Y-61270297D01*
X121643900Y-61206147D01*
X121504519Y-61113015D01*
X121385985Y-60994481D01*
X121292853Y-60855100D01*
X121228703Y-60700228D01*
X121196000Y-60535816D01*
X121196000Y-60368184D01*
X121228703Y-60203772D01*
X121292853Y-60048900D01*
X121385985Y-59909519D01*
X121504519Y-59790985D01*
X121643900Y-59697853D01*
X121798772Y-59633703D01*
X121963184Y-59601000D01*
X122130816Y-59601000D01*
X122295228Y-59633703D01*
G37*
G36*
X124446512Y-57015927D02*
G01*
X124595812Y-57045624D01*
X124759784Y-57113544D01*
X124907354Y-57212147D01*
X125032853Y-57337646D01*
X125131456Y-57485216D01*
X125199376Y-57649188D01*
X125234000Y-57823259D01*
X125234000Y-58000741D01*
X125199376Y-58174812D01*
X125131456Y-58338784D01*
X125032853Y-58486354D01*
X124907354Y-58611853D01*
X124759784Y-58710456D01*
X124595812Y-58778376D01*
X124446512Y-58808073D01*
X124421742Y-58813000D01*
X124244258Y-58813000D01*
X124219488Y-58808073D01*
X124070188Y-58778376D01*
X123906216Y-58710456D01*
X123758646Y-58611853D01*
X123633147Y-58486354D01*
X123534544Y-58338784D01*
X123466624Y-58174812D01*
X123432000Y-58000741D01*
X123432000Y-57823259D01*
X123466624Y-57649188D01*
X123534544Y-57485216D01*
X123633147Y-57337646D01*
X123758646Y-57212147D01*
X123906216Y-57113544D01*
X124070188Y-57045624D01*
X124219488Y-57015927D01*
X124244258Y-57011000D01*
X124421742Y-57011000D01*
X124446512Y-57015927D01*
G37*
G36*
X127774000Y-58813000D02*
G01*
X125972000Y-58813000D01*
X125972000Y-57011000D01*
X127774000Y-57011000D01*
X127774000Y-58813000D01*
G37*
G36*
X135902000Y-58813000D02*
G01*
X134100000Y-58813000D01*
X134100000Y-57011000D01*
X135902000Y-57011000D01*
X135902000Y-58813000D01*
G37*
G36*
X132574512Y-57015927D02*
G01*
X132723812Y-57045624D01*
X132887784Y-57113544D01*
X133035354Y-57212147D01*
X133160853Y-57337646D01*
X133259456Y-57485216D01*
X133327376Y-57649188D01*
X133362000Y-57823259D01*
X133362000Y-58000741D01*
X133327376Y-58174812D01*
X133259456Y-58338784D01*
X133160853Y-58486354D01*
X133035354Y-58611853D01*
X132887784Y-58710456D01*
X132723812Y-58778376D01*
X132574512Y-58808073D01*
X132549742Y-58813000D01*
X132372258Y-58813000D01*
X132347488Y-58808073D01*
X132198188Y-58778376D01*
X132034216Y-58710456D01*
X131886646Y-58611853D01*
X131761147Y-58486354D01*
X131662544Y-58338784D01*
X131594624Y-58174812D01*
X131560000Y-58000741D01*
X131560000Y-57823259D01*
X131594624Y-57649188D01*
X131662544Y-57485216D01*
X131761147Y-57337646D01*
X131886646Y-57212147D01*
X132034216Y-57113544D01*
X132198188Y-57045624D01*
X132347488Y-57015927D01*
X132372258Y-57011000D01*
X132549742Y-57011000D01*
X132574512Y-57015927D01*
G37*
G36*
X122898000Y-58763000D02*
G01*
X121196000Y-58763000D01*
X121196000Y-57061000D01*
X122898000Y-57061000D01*
X122898000Y-58763000D01*
G37*
G36*
X137535228Y-57093703D02*
G01*
X137690100Y-57157853D01*
X137829481Y-57250985D01*
X137948015Y-57369519D01*
X138041147Y-57508900D01*
X138105297Y-57663772D01*
X138138000Y-57828184D01*
X138138000Y-57995816D01*
X138105297Y-58160228D01*
X138041147Y-58315100D01*
X137948015Y-58454481D01*
X137829481Y-58573015D01*
X137690100Y-58666147D01*
X137535228Y-58730297D01*
X137370816Y-58763000D01*
X137203184Y-58763000D01*
X137038772Y-58730297D01*
X136883900Y-58666147D01*
X136744519Y-58573015D01*
X136625985Y-58454481D01*
X136532853Y-58315100D01*
X136468703Y-58160228D01*
X136436000Y-57995816D01*
X136436000Y-57828184D01*
X136468703Y-57663772D01*
X136532853Y-57508900D01*
X136625985Y-57369519D01*
X136744519Y-57250985D01*
X136883900Y-57157853D01*
X137038772Y-57093703D01*
X137203184Y-57061000D01*
X137370816Y-57061000D01*
X137535228Y-57093703D01*
G37*
M02*
