G04 #@! TF.GenerationSoftware,KiCad,Pcbnew,7.0.2-0*
G04 #@! TF.CreationDate,2023-10-04T23:29:07+02:00*
G04 #@! TF.ProjectId,Z80 UUT Cable Header,5a383020-5555-4542-9043-61626c652048,rev?*
G04 #@! TF.SameCoordinates,Original*
G04 #@! TF.FileFunction,Copper,L1,Top*
G04 #@! TF.FilePolarity,Positive*
%FSLAX46Y46*%
G04 Gerber Fmt 4.6, Leading zero omitted, Abs format (unit mm)*
G04 Created by KiCad (PCBNEW 7.0.2-0) date 2023-10-04 23:29:07*
%MOMM*%
%LPD*%
G01*
G04 APERTURE LIST*
G04 #@! TA.AperFunction,ComponentPad*
%ADD10R,1.700000X1.700000*%
G04 #@! TD*
G04 #@! TA.AperFunction,ComponentPad*
%ADD11O,1.700000X1.700000*%
G04 #@! TD*
G04 #@! TA.AperFunction,ComponentPad*
%ADD12R,1.600000X1.600000*%
G04 #@! TD*
G04 #@! TA.AperFunction,ComponentPad*
%ADD13O,1.600000X1.600000*%
G04 #@! TD*
G04 APERTURE END LIST*
D10*
X126873000Y-57912000D03*
D11*
X124333000Y-57912000D03*
X126873000Y-60452000D03*
X124333000Y-60452000D03*
X126873000Y-62992000D03*
X124333000Y-62992000D03*
X126873000Y-65532000D03*
X124333000Y-65532000D03*
X126873000Y-68072000D03*
X124333000Y-68072000D03*
X126873000Y-70612000D03*
X124333000Y-70612000D03*
X126873000Y-73152000D03*
X124333000Y-73152000D03*
X126873000Y-75692000D03*
X124333000Y-75692000D03*
X126873000Y-78232000D03*
X124333000Y-78232000D03*
X126873000Y-80772000D03*
X124333000Y-80772000D03*
X126873000Y-83312000D03*
X124333000Y-83312000D03*
X126873000Y-85852000D03*
X124333000Y-85852000D03*
X126873000Y-88392000D03*
X124333000Y-88392000D03*
X126873000Y-90932000D03*
X124333000Y-90932000D03*
X126873000Y-93472000D03*
X124333000Y-93472000D03*
X126873000Y-96012000D03*
X124333000Y-96012000D03*
X126873000Y-98552000D03*
X124333000Y-98552000D03*
X126873000Y-101092000D03*
X124333000Y-101092000D03*
X126873000Y-103632000D03*
X124333000Y-103632000D03*
X126873000Y-106172000D03*
X124333000Y-106172000D03*
D10*
X135001000Y-57912000D03*
D11*
X132461000Y-57912000D03*
X135001000Y-60452000D03*
X132461000Y-60452000D03*
X135001000Y-62992000D03*
X132461000Y-62992000D03*
X135001000Y-65532000D03*
X132461000Y-65532000D03*
X135001000Y-68072000D03*
X132461000Y-68072000D03*
X135001000Y-70612000D03*
X132461000Y-70612000D03*
X135001000Y-73152000D03*
X132461000Y-73152000D03*
X135001000Y-75692000D03*
X132461000Y-75692000D03*
X135001000Y-78232000D03*
X132461000Y-78232000D03*
X135001000Y-80772000D03*
X132461000Y-80772000D03*
X135001000Y-83312000D03*
X132461000Y-83312000D03*
X135001000Y-85852000D03*
X132461000Y-85852000D03*
X135001000Y-88392000D03*
X132461000Y-88392000D03*
X135001000Y-90932000D03*
X132461000Y-90932000D03*
X135001000Y-93472000D03*
X132461000Y-93472000D03*
X135001000Y-96012000D03*
X132461000Y-96012000D03*
X135001000Y-98552000D03*
X132461000Y-98552000D03*
X135001000Y-101092000D03*
X132461000Y-101092000D03*
X135001000Y-103632000D03*
X132461000Y-103632000D03*
X135001000Y-106172000D03*
X132461000Y-106172000D03*
D12*
X122047000Y-57912000D03*
D13*
X122047000Y-60452000D03*
X122047000Y-62992000D03*
X122047000Y-65532000D03*
X122047000Y-68072000D03*
X122047000Y-70612000D03*
X122047000Y-73152000D03*
X122047000Y-75692000D03*
X122047000Y-78232000D03*
X122047000Y-80772000D03*
X122047000Y-83312000D03*
X122047000Y-85852000D03*
X122047000Y-88392000D03*
X122047000Y-90932000D03*
X122047000Y-93472000D03*
X122047000Y-96012000D03*
X122047000Y-98552000D03*
X122047000Y-101092000D03*
X122047000Y-103632000D03*
X122047000Y-106172000D03*
X137287000Y-106172000D03*
X137287000Y-103632000D03*
X137287000Y-101092000D03*
X137287000Y-98552000D03*
X137287000Y-96012000D03*
X137287000Y-93472000D03*
X137287000Y-90932000D03*
X137287000Y-88392000D03*
X137287000Y-85852000D03*
X137287000Y-83312000D03*
X137287000Y-80772000D03*
X137287000Y-78232000D03*
X137287000Y-75692000D03*
X137287000Y-73152000D03*
X137287000Y-70612000D03*
X137287000Y-68072000D03*
X137287000Y-65532000D03*
X137287000Y-62992000D03*
X137287000Y-60452000D03*
X137287000Y-57912000D03*
G04 #@! TA.AperFunction,Conductor*
G36*
X126466488Y-53893502D02*
G01*
X126511065Y-53943151D01*
X127228790Y-55378603D01*
X127232497Y-55386725D01*
X127234482Y-55391517D01*
X127239089Y-55396124D01*
X127245270Y-55398183D01*
X127245272Y-55398185D01*
X127250449Y-55397816D01*
X127259383Y-55397500D01*
X132328618Y-55397500D01*
X132337551Y-55397817D01*
X132342728Y-55398185D01*
X132342729Y-55398183D01*
X132348911Y-55396123D01*
X132353517Y-55391517D01*
X132355501Y-55386727D01*
X132359210Y-55378596D01*
X133076934Y-53943149D01*
X133125289Y-53891167D01*
X133189632Y-53873500D01*
X137360857Y-53873500D01*
X137428978Y-53893502D01*
X137439566Y-53901109D01*
X138611212Y-54838426D01*
X138651910Y-54896598D01*
X138658500Y-54936814D01*
X138658500Y-57189783D01*
X138638498Y-57257904D01*
X138584842Y-57304397D01*
X138514568Y-57314501D01*
X138449988Y-57285007D01*
X138429287Y-57262054D01*
X138293195Y-57067696D01*
X138131303Y-56905804D01*
X137943750Y-56774477D01*
X137736243Y-56677715D01*
X137515087Y-56618457D01*
X137436185Y-56611554D01*
X137287000Y-56598502D01*
X137286999Y-56598502D01*
X137058912Y-56618457D01*
X136837756Y-56677715D01*
X136630249Y-56774477D01*
X136490655Y-56872223D01*
X136423381Y-56894911D01*
X136354520Y-56877626D01*
X136305936Y-56825856D01*
X136301911Y-56816659D01*
X136213904Y-56699095D01*
X136096962Y-56611554D01*
X135960093Y-56560505D01*
X135902936Y-56554359D01*
X135896223Y-56554000D01*
X135255000Y-56554000D01*
X135255000Y-57478325D01*
X135143315Y-57427320D01*
X135036763Y-57412000D01*
X134965237Y-57412000D01*
X134858685Y-57427320D01*
X134747000Y-57478325D01*
X134747000Y-56554000D01*
X134105777Y-56554000D01*
X134099063Y-56554359D01*
X134041906Y-56560505D01*
X133905037Y-56611554D01*
X133788095Y-56699095D01*
X133700554Y-56816036D01*
X133656381Y-56934470D01*
X133613834Y-56991305D01*
X133547313Y-57016116D01*
X133477939Y-57001024D01*
X133445624Y-56975774D01*
X133384240Y-56909093D01*
X133206578Y-56770812D01*
X133008573Y-56663657D01*
X132856800Y-56611554D01*
X132795635Y-56590556D01*
X132573569Y-56553500D01*
X132348431Y-56553500D01*
X132126365Y-56590556D01*
X132126362Y-56590556D01*
X132126362Y-56590557D01*
X131913426Y-56663657D01*
X131715421Y-56770812D01*
X131537762Y-56909091D01*
X131385278Y-57074731D01*
X131262139Y-57263209D01*
X131171702Y-57469388D01*
X131117378Y-57683913D01*
X131116436Y-57687632D01*
X131097844Y-57912000D01*
X131116436Y-58136368D01*
X131116436Y-58136371D01*
X131116437Y-58136372D01*
X131171702Y-58354611D01*
X131262139Y-58560790D01*
X131262140Y-58560791D01*
X131385278Y-58749268D01*
X131469638Y-58840907D01*
X131537762Y-58914908D01*
X131715418Y-59053185D01*
X131715420Y-59053186D01*
X131715424Y-59053189D01*
X131748682Y-59071187D01*
X131799071Y-59121200D01*
X131814423Y-59190517D01*
X131789862Y-59257130D01*
X131748683Y-59292812D01*
X131738868Y-59298124D01*
X131715418Y-59310814D01*
X131537762Y-59449091D01*
X131385278Y-59614731D01*
X131262139Y-59803209D01*
X131171702Y-60009388D01*
X131117378Y-60223913D01*
X131116436Y-60227632D01*
X131097844Y-60452000D01*
X131116436Y-60676368D01*
X131116436Y-60676371D01*
X131116437Y-60676372D01*
X131171702Y-60894611D01*
X131262139Y-61100790D01*
X131385278Y-61289268D01*
X131537762Y-61454908D01*
X131715418Y-61593185D01*
X131715420Y-61593186D01*
X131715424Y-61593189D01*
X131748682Y-61611187D01*
X131799071Y-61661200D01*
X131814423Y-61730517D01*
X131789862Y-61797130D01*
X131748683Y-61832812D01*
X131723794Y-61846281D01*
X131715418Y-61850814D01*
X131537762Y-61989091D01*
X131385278Y-62154731D01*
X131262139Y-62343209D01*
X131171702Y-62549388D01*
X131117378Y-62763913D01*
X131116436Y-62767632D01*
X131097844Y-62992000D01*
X131116436Y-63216368D01*
X131116436Y-63216371D01*
X131116437Y-63216372D01*
X131171702Y-63434611D01*
X131262139Y-63640790D01*
X131385278Y-63829268D01*
X131537762Y-63994908D01*
X131715418Y-64133185D01*
X131715420Y-64133186D01*
X131715424Y-64133189D01*
X131748682Y-64151187D01*
X131799071Y-64201200D01*
X131814423Y-64270517D01*
X131789862Y-64337130D01*
X131748683Y-64372812D01*
X131723794Y-64386281D01*
X131715418Y-64390814D01*
X131537762Y-64529091D01*
X131385278Y-64694731D01*
X131262139Y-64883209D01*
X131171702Y-65089388D01*
X131117378Y-65303913D01*
X131116436Y-65307632D01*
X131097844Y-65532000D01*
X131116436Y-65756368D01*
X131116436Y-65756371D01*
X131116437Y-65756372D01*
X131171702Y-65974611D01*
X131262139Y-66180790D01*
X131385278Y-66369268D01*
X131537762Y-66534908D01*
X131715418Y-66673185D01*
X131715420Y-66673186D01*
X131715424Y-66673189D01*
X131748682Y-66691187D01*
X131799071Y-66741200D01*
X131814423Y-66810517D01*
X131789862Y-66877130D01*
X131748683Y-66912812D01*
X131723794Y-66926281D01*
X131715418Y-66930814D01*
X131537762Y-67069091D01*
X131385278Y-67234731D01*
X131262139Y-67423209D01*
X131171702Y-67629388D01*
X131117378Y-67843913D01*
X131116436Y-67847632D01*
X131097844Y-68072000D01*
X131116436Y-68296368D01*
X131116436Y-68296371D01*
X131116437Y-68296372D01*
X131171702Y-68514611D01*
X131262139Y-68720790D01*
X131385278Y-68909268D01*
X131537762Y-69074908D01*
X131715418Y-69213185D01*
X131715420Y-69213186D01*
X131715424Y-69213189D01*
X131748682Y-69231187D01*
X131799071Y-69281200D01*
X131814423Y-69350517D01*
X131789862Y-69417130D01*
X131748683Y-69452812D01*
X131723794Y-69466281D01*
X131715418Y-69470814D01*
X131537762Y-69609091D01*
X131385278Y-69774731D01*
X131262139Y-69963209D01*
X131171702Y-70169388D01*
X131117378Y-70383913D01*
X131116436Y-70387632D01*
X131097844Y-70612000D01*
X131116436Y-70836368D01*
X131116436Y-70836371D01*
X131116437Y-70836372D01*
X131171702Y-71054611D01*
X131262139Y-71260790D01*
X131385278Y-71449268D01*
X131537762Y-71614908D01*
X131639611Y-71694181D01*
X131715424Y-71753189D01*
X131748682Y-71771187D01*
X131799070Y-71821197D01*
X131814423Y-71890513D01*
X131789863Y-71957127D01*
X131748683Y-71992811D01*
X131715423Y-72010810D01*
X131537762Y-72149091D01*
X131385278Y-72314731D01*
X131262139Y-72503209D01*
X131171702Y-72709388D01*
X131117378Y-72923913D01*
X131116436Y-72927632D01*
X131097844Y-73152000D01*
X131116436Y-73376368D01*
X131116436Y-73376371D01*
X131116437Y-73376372D01*
X131171702Y-73594611D01*
X131262139Y-73800790D01*
X131385278Y-73989268D01*
X131537762Y-74154908D01*
X131715418Y-74293185D01*
X131715420Y-74293186D01*
X131715424Y-74293189D01*
X131748682Y-74311187D01*
X131799071Y-74361200D01*
X131814423Y-74430517D01*
X131789862Y-74497130D01*
X131748683Y-74532812D01*
X131723794Y-74546281D01*
X131715418Y-74550814D01*
X131537762Y-74689091D01*
X131385278Y-74854731D01*
X131262139Y-75043209D01*
X131171702Y-75249388D01*
X131117378Y-75463913D01*
X131116436Y-75467632D01*
X131097844Y-75692000D01*
X131116436Y-75916368D01*
X131116436Y-75916371D01*
X131116437Y-75916372D01*
X131171702Y-76134611D01*
X131262139Y-76340790D01*
X131385278Y-76529268D01*
X131537762Y-76694908D01*
X131715418Y-76833185D01*
X131715420Y-76833186D01*
X131715424Y-76833189D01*
X131748682Y-76851187D01*
X131799071Y-76901200D01*
X131814423Y-76970517D01*
X131789862Y-77037130D01*
X131748683Y-77072812D01*
X131723794Y-77086281D01*
X131715418Y-77090814D01*
X131537762Y-77229091D01*
X131385278Y-77394731D01*
X131262139Y-77583209D01*
X131171702Y-77789388D01*
X131117378Y-78003913D01*
X131116436Y-78007632D01*
X131097844Y-78232000D01*
X131116436Y-78456368D01*
X131116436Y-78456371D01*
X131116437Y-78456372D01*
X131171702Y-78674611D01*
X131262139Y-78880790D01*
X131385278Y-79069268D01*
X131537762Y-79234908D01*
X131715418Y-79373185D01*
X131715420Y-79373186D01*
X131715424Y-79373189D01*
X131748682Y-79391187D01*
X131799071Y-79441200D01*
X131814423Y-79510517D01*
X131789862Y-79577130D01*
X131748683Y-79612812D01*
X131723794Y-79626281D01*
X131715418Y-79630814D01*
X131537762Y-79769091D01*
X131385278Y-79934731D01*
X131262139Y-80123209D01*
X131171702Y-80329388D01*
X131117378Y-80543913D01*
X131116436Y-80547632D01*
X131097844Y-80772000D01*
X131116436Y-80996368D01*
X131116436Y-80996371D01*
X131116437Y-80996372D01*
X131171702Y-81214611D01*
X131262139Y-81420790D01*
X131385278Y-81609268D01*
X131537762Y-81774908D01*
X131715418Y-81913185D01*
X131715420Y-81913186D01*
X131715424Y-81913189D01*
X131748682Y-81931187D01*
X131799071Y-81981200D01*
X131814423Y-82050517D01*
X131789862Y-82117130D01*
X131748683Y-82152812D01*
X131723794Y-82166281D01*
X131715418Y-82170814D01*
X131537762Y-82309091D01*
X131385278Y-82474731D01*
X131262139Y-82663209D01*
X131171702Y-82869388D01*
X131117378Y-83083913D01*
X131116436Y-83087632D01*
X131097844Y-83312000D01*
X131116436Y-83536368D01*
X131116436Y-83536371D01*
X131116437Y-83536372D01*
X131171702Y-83754611D01*
X131262139Y-83960790D01*
X131385278Y-84149268D01*
X131537762Y-84314908D01*
X131715422Y-84453188D01*
X131715424Y-84453189D01*
X131749205Y-84471470D01*
X131799596Y-84521482D01*
X131814949Y-84590799D01*
X131790389Y-84657413D01*
X131749209Y-84693096D01*
X131715702Y-84711229D01*
X131538096Y-84849466D01*
X131385678Y-85015037D01*
X131262580Y-85203451D01*
X131172177Y-85409548D01*
X131124455Y-85597999D01*
X131124456Y-85598000D01*
X132029884Y-85598000D01*
X132001507Y-85642156D01*
X131961000Y-85780111D01*
X131961000Y-85923889D01*
X132001507Y-86061844D01*
X132029884Y-86106000D01*
X131124455Y-86106000D01*
X131172177Y-86294451D01*
X131262580Y-86500548D01*
X131385678Y-86688962D01*
X131538096Y-86854533D01*
X131715702Y-86992769D01*
X131749207Y-87010902D01*
X131799597Y-87060915D01*
X131814949Y-87130232D01*
X131790388Y-87196845D01*
X131749207Y-87232528D01*
X131715423Y-87250811D01*
X131537762Y-87389091D01*
X131385278Y-87554731D01*
X131262139Y-87743209D01*
X131171702Y-87949388D01*
X131117378Y-88163913D01*
X131116436Y-88167632D01*
X131097844Y-88392000D01*
X131116436Y-88616368D01*
X131116436Y-88616371D01*
X131116437Y-88616372D01*
X131171702Y-88834611D01*
X131262139Y-89040790D01*
X131385278Y-89229268D01*
X131537762Y-89394908D01*
X131715418Y-89533185D01*
X131715420Y-89533186D01*
X131715424Y-89533189D01*
X131748682Y-89551187D01*
X131799071Y-89601200D01*
X131814423Y-89670517D01*
X131789862Y-89737130D01*
X131748683Y-89772812D01*
X131723794Y-89786281D01*
X131715418Y-89790814D01*
X131537762Y-89929091D01*
X131385278Y-90094731D01*
X131262139Y-90283209D01*
X131171702Y-90489388D01*
X131117378Y-90703913D01*
X131116436Y-90707632D01*
X131097844Y-90932000D01*
X131116436Y-91156368D01*
X131116436Y-91156371D01*
X131116437Y-91156372D01*
X131171702Y-91374611D01*
X131262139Y-91580790D01*
X131385278Y-91769268D01*
X131537762Y-91934908D01*
X131715418Y-92073185D01*
X131715420Y-92073186D01*
X131715424Y-92073189D01*
X131748682Y-92091187D01*
X131799071Y-92141200D01*
X131814423Y-92210517D01*
X131789862Y-92277130D01*
X131748683Y-92312812D01*
X131723794Y-92326281D01*
X131715418Y-92330814D01*
X131537762Y-92469091D01*
X131385278Y-92634731D01*
X131262139Y-92823209D01*
X131171702Y-93029388D01*
X131117378Y-93243913D01*
X131116436Y-93247632D01*
X131097844Y-93472000D01*
X131116436Y-93696368D01*
X131116436Y-93696371D01*
X131116437Y-93696372D01*
X131171702Y-93914611D01*
X131262139Y-94120790D01*
X131385278Y-94309268D01*
X131537762Y-94474908D01*
X131715418Y-94613185D01*
X131715420Y-94613186D01*
X131715424Y-94613189D01*
X131748682Y-94631187D01*
X131799071Y-94681200D01*
X131814423Y-94750517D01*
X131789862Y-94817130D01*
X131748683Y-94852812D01*
X131723794Y-94866281D01*
X131715418Y-94870814D01*
X131537762Y-95009091D01*
X131385278Y-95174731D01*
X131262139Y-95363209D01*
X131171702Y-95569388D01*
X131117378Y-95783913D01*
X131116436Y-95787632D01*
X131097844Y-96012000D01*
X131116436Y-96236368D01*
X131116436Y-96236371D01*
X131116437Y-96236372D01*
X131171702Y-96454611D01*
X131262139Y-96660790D01*
X131385278Y-96849268D01*
X131537762Y-97014908D01*
X131715418Y-97153185D01*
X131715420Y-97153186D01*
X131715424Y-97153189D01*
X131748682Y-97171187D01*
X131799071Y-97221200D01*
X131814423Y-97290517D01*
X131789862Y-97357130D01*
X131748683Y-97392812D01*
X131723794Y-97406281D01*
X131715418Y-97410814D01*
X131537762Y-97549091D01*
X131385278Y-97714731D01*
X131262139Y-97903209D01*
X131171702Y-98109388D01*
X131117378Y-98323913D01*
X131116436Y-98327632D01*
X131097844Y-98552000D01*
X131116436Y-98776368D01*
X131116436Y-98776371D01*
X131116437Y-98776372D01*
X131171702Y-98994611D01*
X131262139Y-99200790D01*
X131385278Y-99389268D01*
X131537762Y-99554908D01*
X131715418Y-99693185D01*
X131715420Y-99693186D01*
X131715424Y-99693189D01*
X131748682Y-99711187D01*
X131799071Y-99761200D01*
X131814423Y-99830517D01*
X131789862Y-99897130D01*
X131748683Y-99932812D01*
X131723794Y-99946281D01*
X131715418Y-99950814D01*
X131537762Y-100089091D01*
X131385278Y-100254731D01*
X131262139Y-100443209D01*
X131171702Y-100649388D01*
X131117378Y-100863913D01*
X131116436Y-100867632D01*
X131097844Y-101092000D01*
X131116436Y-101316368D01*
X131116436Y-101316371D01*
X131116437Y-101316372D01*
X131171702Y-101534611D01*
X131262139Y-101740790D01*
X131385278Y-101929268D01*
X131537762Y-102094908D01*
X131639611Y-102174181D01*
X131715424Y-102233189D01*
X131748682Y-102251187D01*
X131799070Y-102301197D01*
X131814423Y-102370513D01*
X131789863Y-102437127D01*
X131748683Y-102472811D01*
X131715423Y-102490810D01*
X131537762Y-102629091D01*
X131385278Y-102794731D01*
X131262139Y-102983209D01*
X131171702Y-103189388D01*
X131117378Y-103403913D01*
X131116436Y-103407632D01*
X131097844Y-103632000D01*
X131116436Y-103856368D01*
X131116436Y-103856371D01*
X131116437Y-103856372D01*
X131171702Y-104074611D01*
X131262139Y-104280790D01*
X131385278Y-104469268D01*
X131537762Y-104634908D01*
X131715418Y-104773185D01*
X131715420Y-104773186D01*
X131715424Y-104773189D01*
X131748682Y-104791187D01*
X131799071Y-104841200D01*
X131814423Y-104910517D01*
X131789862Y-104977130D01*
X131748683Y-105012812D01*
X131723794Y-105026281D01*
X131715418Y-105030814D01*
X131537762Y-105169091D01*
X131385278Y-105334731D01*
X131262139Y-105523209D01*
X131171702Y-105729388D01*
X131117378Y-105943913D01*
X131116436Y-105947632D01*
X131097844Y-106172000D01*
X131116436Y-106396368D01*
X131116436Y-106396371D01*
X131116437Y-106396372D01*
X131171702Y-106614611D01*
X131262139Y-106820790D01*
X131385278Y-107009268D01*
X131537762Y-107174908D01*
X131715421Y-107313187D01*
X131715424Y-107313189D01*
X131913426Y-107420342D01*
X132126365Y-107493444D01*
X132348431Y-107530500D01*
X132348434Y-107530500D01*
X132573566Y-107530500D01*
X132573569Y-107530500D01*
X132795635Y-107493444D01*
X133008574Y-107420342D01*
X133206576Y-107313189D01*
X133384240Y-107174906D01*
X133536722Y-107009268D01*
X133625817Y-106872896D01*
X133679819Y-106826809D01*
X133750167Y-106817234D01*
X133814524Y-106847211D01*
X133836782Y-106872897D01*
X133925678Y-107008962D01*
X134078096Y-107174533D01*
X134255697Y-107312766D01*
X134453631Y-107419883D01*
X134666485Y-107492955D01*
X134747000Y-107506391D01*
X134747000Y-106605674D01*
X134858685Y-106656680D01*
X134965237Y-106672000D01*
X135036763Y-106672000D01*
X135143315Y-106656680D01*
X135255000Y-106605674D01*
X135255000Y-107506390D01*
X135335514Y-107492955D01*
X135548368Y-107419883D01*
X135746302Y-107312766D01*
X135923903Y-107174533D01*
X136083397Y-107001278D01*
X136086548Y-107004178D01*
X136123958Y-106971845D01*
X136194245Y-106961830D01*
X136258788Y-106991405D01*
X136279367Y-107014251D01*
X136280803Y-107016302D01*
X136442696Y-107178195D01*
X136630249Y-107309522D01*
X136837756Y-107406284D01*
X136888509Y-107419883D01*
X137058913Y-107465543D01*
X137287000Y-107485498D01*
X137515087Y-107465543D01*
X137736243Y-107406284D01*
X137943749Y-107309523D01*
X138131300Y-107178198D01*
X138293198Y-107016300D01*
X138424523Y-106828749D01*
X138424523Y-106828747D01*
X138429287Y-106821945D01*
X138484744Y-106777617D01*
X138555364Y-106770308D01*
X138618724Y-106802339D01*
X138654709Y-106863540D01*
X138658500Y-106894216D01*
X138658500Y-109147184D01*
X138638498Y-109215305D01*
X138611212Y-109245573D01*
X137439569Y-110182889D01*
X137373880Y-110209825D01*
X137360857Y-110210500D01*
X132681632Y-110210500D01*
X132613511Y-110190498D01*
X132568934Y-110140849D01*
X132121296Y-109245573D01*
X131851207Y-108705394D01*
X131847498Y-108697267D01*
X131845516Y-108692481D01*
X131840911Y-108687876D01*
X131834728Y-108685815D01*
X131834727Y-108685815D01*
X131831704Y-108686029D01*
X131829550Y-108686183D01*
X131820618Y-108686500D01*
X127259383Y-108686500D01*
X127250450Y-108686183D01*
X127245272Y-108685815D01*
X127239090Y-108687874D01*
X127234481Y-108692484D01*
X127232497Y-108697274D01*
X127228791Y-108705394D01*
X126511065Y-110140849D01*
X126462710Y-110192833D01*
X126398367Y-110210500D01*
X121973143Y-110210500D01*
X121905022Y-110190498D01*
X121894431Y-110182889D01*
X120722788Y-109245573D01*
X120682090Y-109187400D01*
X120675500Y-109147184D01*
X120675500Y-106894216D01*
X120695502Y-106826095D01*
X120749158Y-106779602D01*
X120819432Y-106769498D01*
X120884012Y-106798992D01*
X120904713Y-106821945D01*
X121040804Y-107016303D01*
X121202696Y-107178195D01*
X121390249Y-107309522D01*
X121597756Y-107406284D01*
X121648509Y-107419883D01*
X121818913Y-107465543D01*
X122047000Y-107485498D01*
X122275087Y-107465543D01*
X122496243Y-107406284D01*
X122703749Y-107309523D01*
X122891300Y-107178198D01*
X123053198Y-107016300D01*
X123054324Y-107014691D01*
X123056724Y-107012772D01*
X123060992Y-107008505D01*
X123061467Y-107008980D01*
X123109775Y-106970363D01*
X123180394Y-106963049D01*
X123243757Y-106995077D01*
X123250239Y-107001621D01*
X123257276Y-107009265D01*
X123257278Y-107009268D01*
X123409417Y-107174533D01*
X123409762Y-107174908D01*
X123587421Y-107313187D01*
X123587424Y-107313189D01*
X123785426Y-107420342D01*
X123998365Y-107493444D01*
X124220431Y-107530500D01*
X124220434Y-107530500D01*
X124445566Y-107530500D01*
X124445569Y-107530500D01*
X124667635Y-107493444D01*
X124880574Y-107420342D01*
X125078576Y-107313189D01*
X125256240Y-107174906D01*
X125408722Y-107009268D01*
X125497817Y-106872896D01*
X125551819Y-106826809D01*
X125622167Y-106817234D01*
X125686524Y-106847211D01*
X125708782Y-106872897D01*
X125797678Y-107008962D01*
X125950096Y-107174533D01*
X126127697Y-107312766D01*
X126325631Y-107419883D01*
X126538485Y-107492955D01*
X126619000Y-107506391D01*
X126619000Y-106605674D01*
X126730685Y-106656680D01*
X126837237Y-106672000D01*
X126908763Y-106672000D01*
X127015315Y-106656680D01*
X127127000Y-106605674D01*
X127127000Y-107506391D01*
X127207514Y-107492955D01*
X127420368Y-107419883D01*
X127618302Y-107312766D01*
X127795903Y-107174533D01*
X127948321Y-107008962D01*
X128071419Y-106820548D01*
X128161822Y-106614451D01*
X128209544Y-106426000D01*
X127304116Y-106426000D01*
X127332493Y-106381844D01*
X127373000Y-106243889D01*
X127373000Y-106100111D01*
X127332493Y-105962156D01*
X127304116Y-105918000D01*
X128209544Y-105918000D01*
X128209544Y-105917999D01*
X128161822Y-105729548D01*
X128071419Y-105523451D01*
X127948321Y-105335037D01*
X127795903Y-105169466D01*
X127618300Y-105031232D01*
X127584266Y-105012814D01*
X127533876Y-104962801D01*
X127518523Y-104893485D01*
X127543083Y-104826871D01*
X127584266Y-104791186D01*
X127618300Y-104772767D01*
X127795903Y-104634533D01*
X127948321Y-104468962D01*
X128071419Y-104280548D01*
X128161822Y-104074451D01*
X128209544Y-103886000D01*
X127304116Y-103886000D01*
X127332493Y-103841844D01*
X127373000Y-103703889D01*
X127373000Y-103560111D01*
X127332493Y-103422156D01*
X127304116Y-103378000D01*
X128209544Y-103378000D01*
X128209544Y-103377999D01*
X128161822Y-103189548D01*
X128071419Y-102983451D01*
X127948321Y-102795037D01*
X127795903Y-102629466D01*
X127618300Y-102491232D01*
X127584266Y-102472814D01*
X127533876Y-102422801D01*
X127518523Y-102353485D01*
X127543083Y-102286871D01*
X127584266Y-102251186D01*
X127618300Y-102232767D01*
X127795903Y-102094533D01*
X127948321Y-101928962D01*
X128071419Y-101740548D01*
X128161822Y-101534451D01*
X128209544Y-101346000D01*
X127304116Y-101346000D01*
X127332493Y-101301844D01*
X127373000Y-101163889D01*
X127373000Y-101020111D01*
X127332493Y-100882156D01*
X127304116Y-100838000D01*
X128209544Y-100838000D01*
X128209544Y-100837999D01*
X128161822Y-100649548D01*
X128071419Y-100443451D01*
X127948321Y-100255037D01*
X127795903Y-100089466D01*
X127618300Y-99951232D01*
X127584266Y-99932814D01*
X127533876Y-99882801D01*
X127518523Y-99813485D01*
X127543083Y-99746871D01*
X127584266Y-99711186D01*
X127618300Y-99692767D01*
X127795903Y-99554533D01*
X127948321Y-99388962D01*
X128071419Y-99200548D01*
X128161822Y-98994451D01*
X128209544Y-98806000D01*
X127304116Y-98806000D01*
X127332493Y-98761844D01*
X127373000Y-98623889D01*
X127373000Y-98480111D01*
X127332493Y-98342156D01*
X127304116Y-98298000D01*
X128209544Y-98298000D01*
X128209544Y-98297999D01*
X128161822Y-98109548D01*
X128071419Y-97903451D01*
X127948321Y-97715037D01*
X127795903Y-97549466D01*
X127618300Y-97411232D01*
X127584266Y-97392814D01*
X127533876Y-97342801D01*
X127518523Y-97273485D01*
X127543083Y-97206871D01*
X127584266Y-97171186D01*
X127618300Y-97152767D01*
X127795903Y-97014533D01*
X127948321Y-96848962D01*
X128071419Y-96660548D01*
X128161822Y-96454451D01*
X128209544Y-96266000D01*
X127304116Y-96266000D01*
X127332493Y-96221844D01*
X127373000Y-96083889D01*
X127373000Y-95940111D01*
X127332493Y-95802156D01*
X127304116Y-95758000D01*
X128209544Y-95758000D01*
X128209544Y-95757999D01*
X128161822Y-95569548D01*
X128071419Y-95363451D01*
X127948321Y-95175037D01*
X127795903Y-95009466D01*
X127618300Y-94871232D01*
X127584266Y-94852814D01*
X127533876Y-94802801D01*
X127518523Y-94733485D01*
X127543083Y-94666871D01*
X127584266Y-94631186D01*
X127618300Y-94612767D01*
X127795903Y-94474533D01*
X127948321Y-94308962D01*
X128071419Y-94120548D01*
X128161822Y-93914451D01*
X128209544Y-93726000D01*
X127304116Y-93726000D01*
X127332493Y-93681844D01*
X127373000Y-93543889D01*
X127373000Y-93400111D01*
X127332493Y-93262156D01*
X127304116Y-93218000D01*
X128209544Y-93218000D01*
X128209544Y-93217999D01*
X128161822Y-93029548D01*
X128071419Y-92823451D01*
X127948321Y-92635037D01*
X127795903Y-92469466D01*
X127618300Y-92331232D01*
X127584266Y-92312814D01*
X127533876Y-92262801D01*
X127518523Y-92193485D01*
X127543083Y-92126871D01*
X127584266Y-92091186D01*
X127618300Y-92072767D01*
X127795903Y-91934533D01*
X127948321Y-91768962D01*
X128071419Y-91580548D01*
X128161822Y-91374451D01*
X128209544Y-91186000D01*
X127304116Y-91186000D01*
X127332493Y-91141844D01*
X127373000Y-91003889D01*
X127373000Y-90860111D01*
X127332493Y-90722156D01*
X127304116Y-90678000D01*
X128209544Y-90678000D01*
X128209544Y-90677999D01*
X128161822Y-90489548D01*
X128071419Y-90283451D01*
X127948321Y-90095037D01*
X127795903Y-89929466D01*
X127618300Y-89791232D01*
X127584266Y-89772814D01*
X127533876Y-89722801D01*
X127518523Y-89653485D01*
X127543083Y-89586871D01*
X127584266Y-89551186D01*
X127618300Y-89532767D01*
X127795903Y-89394533D01*
X127948321Y-89228962D01*
X128071419Y-89040548D01*
X128161822Y-88834451D01*
X128209544Y-88646000D01*
X127304116Y-88646000D01*
X127332493Y-88601844D01*
X127373000Y-88463889D01*
X127373000Y-88320111D01*
X127332493Y-88182156D01*
X127304116Y-88138000D01*
X128209544Y-88138000D01*
X128209544Y-88137999D01*
X128161822Y-87949548D01*
X128071419Y-87743451D01*
X127948321Y-87555037D01*
X127795903Y-87389466D01*
X127618300Y-87251232D01*
X127584266Y-87232814D01*
X127533876Y-87182801D01*
X127518523Y-87113485D01*
X127543083Y-87046871D01*
X127584266Y-87011186D01*
X127618300Y-86992767D01*
X127795903Y-86854533D01*
X127948321Y-86688962D01*
X128071419Y-86500548D01*
X128161822Y-86294451D01*
X128209544Y-86106000D01*
X127304116Y-86106000D01*
X127332493Y-86061844D01*
X127373000Y-85923889D01*
X127373000Y-85780111D01*
X127332493Y-85642156D01*
X127304116Y-85598000D01*
X128209544Y-85598000D01*
X128209544Y-85597999D01*
X128161822Y-85409548D01*
X128071419Y-85203451D01*
X127948321Y-85015037D01*
X127795903Y-84849466D01*
X127618300Y-84711232D01*
X127584266Y-84692814D01*
X127533876Y-84642801D01*
X127518523Y-84573485D01*
X127543083Y-84506871D01*
X127584266Y-84471186D01*
X127618300Y-84452767D01*
X127795903Y-84314533D01*
X127948321Y-84148962D01*
X128071419Y-83960548D01*
X128161822Y-83754451D01*
X128209544Y-83566000D01*
X127304116Y-83566000D01*
X127332493Y-83521844D01*
X127373000Y-83383889D01*
X127373000Y-83240111D01*
X127332493Y-83102156D01*
X127304116Y-83058000D01*
X128209544Y-83058000D01*
X128209544Y-83057999D01*
X128161822Y-82869548D01*
X128071419Y-82663451D01*
X127948321Y-82475037D01*
X127795903Y-82309466D01*
X127618300Y-82171232D01*
X127584266Y-82152814D01*
X127533876Y-82102801D01*
X127518523Y-82033485D01*
X127543083Y-81966871D01*
X127584266Y-81931186D01*
X127618300Y-81912767D01*
X127795903Y-81774533D01*
X127948321Y-81608962D01*
X128071419Y-81420548D01*
X128161822Y-81214451D01*
X128209544Y-81026000D01*
X127304116Y-81026000D01*
X127332493Y-80981844D01*
X127373000Y-80843889D01*
X127373000Y-80700111D01*
X127332493Y-80562156D01*
X127304116Y-80518000D01*
X128209544Y-80518000D01*
X128209544Y-80517999D01*
X128161822Y-80329548D01*
X128071419Y-80123451D01*
X127948321Y-79935037D01*
X127795903Y-79769466D01*
X127618300Y-79631232D01*
X127584266Y-79612814D01*
X127533876Y-79562801D01*
X127518523Y-79493485D01*
X127543083Y-79426871D01*
X127584266Y-79391186D01*
X127618300Y-79372767D01*
X127795903Y-79234533D01*
X127948321Y-79068962D01*
X128071419Y-78880548D01*
X128161822Y-78674451D01*
X128209544Y-78486000D01*
X127304116Y-78486000D01*
X127332493Y-78441844D01*
X127373000Y-78303889D01*
X127373000Y-78160111D01*
X127332493Y-78022156D01*
X127304116Y-77978000D01*
X128209544Y-77978000D01*
X128209544Y-77977999D01*
X128161822Y-77789548D01*
X128071419Y-77583451D01*
X127948321Y-77395037D01*
X127795903Y-77229466D01*
X127618300Y-77091232D01*
X127584266Y-77072814D01*
X127533876Y-77022801D01*
X127518523Y-76953485D01*
X127543083Y-76886871D01*
X127584266Y-76851186D01*
X127618300Y-76832767D01*
X127795903Y-76694533D01*
X127948321Y-76528962D01*
X128071419Y-76340548D01*
X128161822Y-76134451D01*
X128209544Y-75946000D01*
X127304116Y-75946000D01*
X127332493Y-75901844D01*
X127373000Y-75763889D01*
X127373000Y-75620111D01*
X127332493Y-75482156D01*
X127304116Y-75438000D01*
X128209544Y-75438000D01*
X128209544Y-75437999D01*
X128161822Y-75249548D01*
X128071419Y-75043451D01*
X127948321Y-74855037D01*
X127795903Y-74689466D01*
X127618300Y-74551232D01*
X127584266Y-74532814D01*
X127533876Y-74482801D01*
X127518523Y-74413485D01*
X127543083Y-74346871D01*
X127584266Y-74311186D01*
X127618300Y-74292767D01*
X127795903Y-74154533D01*
X127948321Y-73988962D01*
X128071419Y-73800548D01*
X128161822Y-73594451D01*
X128209544Y-73406000D01*
X127304116Y-73406000D01*
X127332493Y-73361844D01*
X127373000Y-73223889D01*
X127373000Y-73080111D01*
X127332493Y-72942156D01*
X127304116Y-72898000D01*
X128209544Y-72898000D01*
X128209544Y-72897999D01*
X128161822Y-72709548D01*
X128071419Y-72503451D01*
X127948321Y-72315037D01*
X127795903Y-72149466D01*
X127618300Y-72011232D01*
X127584266Y-71992814D01*
X127533876Y-71942801D01*
X127518523Y-71873485D01*
X127543083Y-71806871D01*
X127584266Y-71771186D01*
X127618300Y-71752767D01*
X127795903Y-71614533D01*
X127948321Y-71448962D01*
X128071419Y-71260548D01*
X128161822Y-71054451D01*
X128209544Y-70866000D01*
X127304116Y-70866000D01*
X127332493Y-70821844D01*
X127373000Y-70683889D01*
X127373000Y-70540111D01*
X127332493Y-70402156D01*
X127304116Y-70358000D01*
X128209544Y-70358000D01*
X128209544Y-70357999D01*
X128161822Y-70169548D01*
X128071419Y-69963451D01*
X127948321Y-69775037D01*
X127795903Y-69609466D01*
X127618300Y-69471232D01*
X127584266Y-69452814D01*
X127533876Y-69402801D01*
X127518523Y-69333485D01*
X127543083Y-69266871D01*
X127584266Y-69231186D01*
X127618300Y-69212767D01*
X127795903Y-69074533D01*
X127948321Y-68908962D01*
X128071419Y-68720548D01*
X128161822Y-68514451D01*
X128209544Y-68326000D01*
X127304116Y-68326000D01*
X127332493Y-68281844D01*
X127373000Y-68143889D01*
X127373000Y-68000111D01*
X127332493Y-67862156D01*
X127304116Y-67818000D01*
X128209544Y-67818000D01*
X128209544Y-67817999D01*
X128161822Y-67629548D01*
X128071419Y-67423451D01*
X127948321Y-67235037D01*
X127795903Y-67069466D01*
X127618299Y-66931231D01*
X127584264Y-66912812D01*
X127533875Y-66862798D01*
X127518523Y-66793481D01*
X127543085Y-66726869D01*
X127584268Y-66691184D01*
X127618300Y-66672767D01*
X127795903Y-66534533D01*
X127948321Y-66368962D01*
X128071419Y-66180548D01*
X128161822Y-65974451D01*
X128209544Y-65786000D01*
X127304116Y-65786000D01*
X127332493Y-65741844D01*
X127373000Y-65603889D01*
X127373000Y-65460111D01*
X127332493Y-65322156D01*
X127304116Y-65278000D01*
X128209544Y-65278000D01*
X128209544Y-65277999D01*
X128161822Y-65089548D01*
X128071419Y-64883451D01*
X127948321Y-64695037D01*
X127795903Y-64529466D01*
X127618300Y-64391232D01*
X127584266Y-64372814D01*
X127533876Y-64322801D01*
X127518523Y-64253485D01*
X127543083Y-64186871D01*
X127584266Y-64151186D01*
X127618300Y-64132767D01*
X127795903Y-63994533D01*
X127948321Y-63828962D01*
X128071419Y-63640548D01*
X128161822Y-63434451D01*
X128209544Y-63246000D01*
X127304116Y-63246000D01*
X127332493Y-63201844D01*
X127373000Y-63063889D01*
X127373000Y-62920111D01*
X127332493Y-62782156D01*
X127304116Y-62738000D01*
X128209544Y-62738000D01*
X128209544Y-62737999D01*
X128161822Y-62549548D01*
X128071419Y-62343451D01*
X127948321Y-62155037D01*
X127795903Y-61989466D01*
X127618299Y-61851231D01*
X127584264Y-61832812D01*
X127533875Y-61782798D01*
X127518523Y-61713481D01*
X127543085Y-61646869D01*
X127584268Y-61611184D01*
X127618300Y-61592767D01*
X127795903Y-61454533D01*
X127948321Y-61288962D01*
X128071419Y-61100548D01*
X128161822Y-60894451D01*
X128209544Y-60706000D01*
X127304116Y-60706000D01*
X127332493Y-60661844D01*
X127373000Y-60523889D01*
X127373000Y-60380111D01*
X127332493Y-60242156D01*
X127304116Y-60198000D01*
X128209544Y-60198000D01*
X128209544Y-60197999D01*
X128161822Y-60009548D01*
X128071419Y-59803451D01*
X127948321Y-59615037D01*
X127804652Y-59458970D01*
X127773231Y-59395305D01*
X127781218Y-59324759D01*
X127826077Y-59269730D01*
X127853321Y-59255577D01*
X127968962Y-59212445D01*
X128085904Y-59124904D01*
X128173445Y-59007962D01*
X128224494Y-58871093D01*
X128230640Y-58813936D01*
X128231000Y-58807222D01*
X128231000Y-58166000D01*
X127304116Y-58166000D01*
X127332493Y-58121844D01*
X127373000Y-57983889D01*
X127373000Y-57840111D01*
X127332493Y-57702156D01*
X127304116Y-57658000D01*
X128231000Y-57658000D01*
X128231000Y-57016777D01*
X128230640Y-57010063D01*
X128224494Y-56952906D01*
X128173445Y-56816037D01*
X128085904Y-56699095D01*
X127968962Y-56611554D01*
X127832093Y-56560505D01*
X127774936Y-56554359D01*
X127768223Y-56554000D01*
X127127000Y-56554000D01*
X127127000Y-57478325D01*
X127015315Y-57427320D01*
X126908763Y-57412000D01*
X126837237Y-57412000D01*
X126730685Y-57427320D01*
X126619000Y-57478325D01*
X126619000Y-56554000D01*
X125977777Y-56554000D01*
X125971063Y-56554359D01*
X125913906Y-56560505D01*
X125777037Y-56611554D01*
X125660095Y-56699095D01*
X125572554Y-56816036D01*
X125528381Y-56934470D01*
X125485834Y-56991305D01*
X125419313Y-57016116D01*
X125349939Y-57001024D01*
X125317624Y-56975774D01*
X125256240Y-56909093D01*
X125078578Y-56770812D01*
X124880573Y-56663657D01*
X124728800Y-56611554D01*
X124667635Y-56590556D01*
X124445569Y-56553500D01*
X124220431Y-56553500D01*
X123998365Y-56590556D01*
X123998362Y-56590556D01*
X123998362Y-56590557D01*
X123785426Y-56663657D01*
X123587421Y-56770812D01*
X123460872Y-56869311D01*
X123394830Y-56895368D01*
X123325185Y-56881583D01*
X123282613Y-56845389D01*
X123210261Y-56748738D01*
X123093205Y-56661111D01*
X122978845Y-56618457D01*
X122956201Y-56610011D01*
X122895638Y-56603500D01*
X121198362Y-56603500D01*
X121195013Y-56603859D01*
X121195013Y-56603860D01*
X121137799Y-56610011D01*
X121000794Y-56661111D01*
X120877009Y-56753776D01*
X120810489Y-56778587D01*
X120741115Y-56763496D01*
X120690912Y-56713293D01*
X120675500Y-56652908D01*
X120675500Y-54936814D01*
X120695502Y-54868693D01*
X120722786Y-54838427D01*
X121894431Y-53901110D01*
X121960120Y-53874175D01*
X121973143Y-53873500D01*
X126398367Y-53873500D01*
X126466488Y-53893502D01*
G37*
G04 #@! TD.AperFunction*
G04 #@! TA.AperFunction,Conductor*
G36*
X127127000Y-105738325D02*
G01*
X127015315Y-105687320D01*
X126908763Y-105672000D01*
X126837237Y-105672000D01*
X126730685Y-105687320D01*
X126619000Y-105738325D01*
X126619000Y-104065674D01*
X126730685Y-104116680D01*
X126837237Y-104132000D01*
X126908763Y-104132000D01*
X127015315Y-104116680D01*
X127127000Y-104065674D01*
X127127000Y-105738325D01*
G37*
G04 #@! TD.AperFunction*
G04 #@! TA.AperFunction,Conductor*
G36*
X135255000Y-105738325D02*
G01*
X135143315Y-105687320D01*
X135036763Y-105672000D01*
X134965237Y-105672000D01*
X134858685Y-105687320D01*
X134747000Y-105738325D01*
X134747000Y-104065674D01*
X134858685Y-104116680D01*
X134965237Y-104132000D01*
X135036763Y-104132000D01*
X135143315Y-104116680D01*
X135255000Y-104065674D01*
X135255000Y-105738325D01*
G37*
G04 #@! TD.AperFunction*
G04 #@! TA.AperFunction,Conductor*
G36*
X127127000Y-103198325D02*
G01*
X127015315Y-103147320D01*
X126908763Y-103132000D01*
X126837237Y-103132000D01*
X126730685Y-103147320D01*
X126619000Y-103198325D01*
X126619000Y-101525674D01*
X126730685Y-101576680D01*
X126837237Y-101592000D01*
X126908763Y-101592000D01*
X127015315Y-101576680D01*
X127127000Y-101525674D01*
X127127000Y-103198325D01*
G37*
G04 #@! TD.AperFunction*
G04 #@! TA.AperFunction,Conductor*
G36*
X135255000Y-103198325D02*
G01*
X135143315Y-103147320D01*
X135036763Y-103132000D01*
X134965237Y-103132000D01*
X134858685Y-103147320D01*
X134747000Y-103198325D01*
X134747000Y-101525674D01*
X134858685Y-101576680D01*
X134965237Y-101592000D01*
X135036763Y-101592000D01*
X135143315Y-101576680D01*
X135255000Y-101525674D01*
X135255000Y-103198325D01*
G37*
G04 #@! TD.AperFunction*
G04 #@! TA.AperFunction,Conductor*
G36*
X127127000Y-100658325D02*
G01*
X127015315Y-100607320D01*
X126908763Y-100592000D01*
X126837237Y-100592000D01*
X126730685Y-100607320D01*
X126619000Y-100658325D01*
X126619000Y-98985674D01*
X126730685Y-99036680D01*
X126837237Y-99052000D01*
X126908763Y-99052000D01*
X127015315Y-99036680D01*
X127127000Y-98985674D01*
X127127000Y-100658325D01*
G37*
G04 #@! TD.AperFunction*
G04 #@! TA.AperFunction,Conductor*
G36*
X135255000Y-100658325D02*
G01*
X135143315Y-100607320D01*
X135036763Y-100592000D01*
X134965237Y-100592000D01*
X134858685Y-100607320D01*
X134747000Y-100658325D01*
X134747000Y-98985674D01*
X134858685Y-99036680D01*
X134965237Y-99052000D01*
X135036763Y-99052000D01*
X135143315Y-99036680D01*
X135255000Y-98985674D01*
X135255000Y-100658325D01*
G37*
G04 #@! TD.AperFunction*
G04 #@! TA.AperFunction,Conductor*
G36*
X127127000Y-98118325D02*
G01*
X127015315Y-98067320D01*
X126908763Y-98052000D01*
X126837237Y-98052000D01*
X126730685Y-98067320D01*
X126619000Y-98118325D01*
X126619000Y-96445674D01*
X126730685Y-96496680D01*
X126837237Y-96512000D01*
X126908763Y-96512000D01*
X127015315Y-96496680D01*
X127127000Y-96445674D01*
X127127000Y-98118325D01*
G37*
G04 #@! TD.AperFunction*
G04 #@! TA.AperFunction,Conductor*
G36*
X135255000Y-98118325D02*
G01*
X135143315Y-98067320D01*
X135036763Y-98052000D01*
X134965237Y-98052000D01*
X134858685Y-98067320D01*
X134747000Y-98118325D01*
X134747000Y-96445674D01*
X134858685Y-96496680D01*
X134965237Y-96512000D01*
X135036763Y-96512000D01*
X135143315Y-96496680D01*
X135255000Y-96445674D01*
X135255000Y-98118325D01*
G37*
G04 #@! TD.AperFunction*
G04 #@! TA.AperFunction,Conductor*
G36*
X127127000Y-95578325D02*
G01*
X127015315Y-95527320D01*
X126908763Y-95512000D01*
X126837237Y-95512000D01*
X126730685Y-95527320D01*
X126619000Y-95578325D01*
X126619000Y-93905674D01*
X126730685Y-93956680D01*
X126837237Y-93972000D01*
X126908763Y-93972000D01*
X127015315Y-93956680D01*
X127127000Y-93905674D01*
X127127000Y-95578325D01*
G37*
G04 #@! TD.AperFunction*
G04 #@! TA.AperFunction,Conductor*
G36*
X135255000Y-95578325D02*
G01*
X135143315Y-95527320D01*
X135036763Y-95512000D01*
X134965237Y-95512000D01*
X134858685Y-95527320D01*
X134747000Y-95578325D01*
X134747000Y-93905674D01*
X134858685Y-93956680D01*
X134965237Y-93972000D01*
X135036763Y-93972000D01*
X135143315Y-93956680D01*
X135255000Y-93905674D01*
X135255000Y-95578325D01*
G37*
G04 #@! TD.AperFunction*
G04 #@! TA.AperFunction,Conductor*
G36*
X127127000Y-93038325D02*
G01*
X127015315Y-92987320D01*
X126908763Y-92972000D01*
X126837237Y-92972000D01*
X126730685Y-92987320D01*
X126619000Y-93038325D01*
X126619000Y-91365674D01*
X126730685Y-91416680D01*
X126837237Y-91432000D01*
X126908763Y-91432000D01*
X127015315Y-91416680D01*
X127127000Y-91365674D01*
X127127000Y-93038325D01*
G37*
G04 #@! TD.AperFunction*
G04 #@! TA.AperFunction,Conductor*
G36*
X135255000Y-93038325D02*
G01*
X135143315Y-92987320D01*
X135036763Y-92972000D01*
X134965237Y-92972000D01*
X134858685Y-92987320D01*
X134747000Y-93038325D01*
X134747000Y-91365674D01*
X134858685Y-91416680D01*
X134965237Y-91432000D01*
X135036763Y-91432000D01*
X135143315Y-91416680D01*
X135255000Y-91365674D01*
X135255000Y-93038325D01*
G37*
G04 #@! TD.AperFunction*
G04 #@! TA.AperFunction,Conductor*
G36*
X127127000Y-90498325D02*
G01*
X127015315Y-90447320D01*
X126908763Y-90432000D01*
X126837237Y-90432000D01*
X126730685Y-90447320D01*
X126619000Y-90498325D01*
X126619000Y-88825674D01*
X126730685Y-88876680D01*
X126837237Y-88892000D01*
X126908763Y-88892000D01*
X127015315Y-88876680D01*
X127127000Y-88825674D01*
X127127000Y-90498325D01*
G37*
G04 #@! TD.AperFunction*
G04 #@! TA.AperFunction,Conductor*
G36*
X135255000Y-90498325D02*
G01*
X135143315Y-90447320D01*
X135036763Y-90432000D01*
X134965237Y-90432000D01*
X134858685Y-90447320D01*
X134747000Y-90498325D01*
X134747000Y-88825674D01*
X134858685Y-88876680D01*
X134965237Y-88892000D01*
X135036763Y-88892000D01*
X135143315Y-88876680D01*
X135255000Y-88825674D01*
X135255000Y-90498325D01*
G37*
G04 #@! TD.AperFunction*
G04 #@! TA.AperFunction,Conductor*
G36*
X127127000Y-87958325D02*
G01*
X127015315Y-87907320D01*
X126908763Y-87892000D01*
X126837237Y-87892000D01*
X126730685Y-87907320D01*
X126619000Y-87958325D01*
X126619000Y-86285674D01*
X126730685Y-86336680D01*
X126837237Y-86352000D01*
X126908763Y-86352000D01*
X127015315Y-86336680D01*
X127127000Y-86285674D01*
X127127000Y-87958325D01*
G37*
G04 #@! TD.AperFunction*
G04 #@! TA.AperFunction,Conductor*
G36*
X135255000Y-87958325D02*
G01*
X135143315Y-87907320D01*
X135036763Y-87892000D01*
X134965237Y-87892000D01*
X134858685Y-87907320D01*
X134747000Y-87958325D01*
X134747000Y-86285674D01*
X134858685Y-86336680D01*
X134965237Y-86352000D01*
X135036763Y-86352000D01*
X135143315Y-86336680D01*
X135255000Y-86285674D01*
X135255000Y-87958325D01*
G37*
G04 #@! TD.AperFunction*
G04 #@! TA.AperFunction,Conductor*
G36*
X134541507Y-85642156D02*
G01*
X134501000Y-85780111D01*
X134501000Y-85923889D01*
X134541507Y-86061844D01*
X134569884Y-86106000D01*
X132892116Y-86106000D01*
X132920493Y-86061844D01*
X132961000Y-85923889D01*
X132961000Y-85780111D01*
X132920493Y-85642156D01*
X132892116Y-85598000D01*
X134569884Y-85598000D01*
X134541507Y-85642156D01*
G37*
G04 #@! TD.AperFunction*
G04 #@! TA.AperFunction,Conductor*
G36*
X136959359Y-85613955D02*
G01*
X136901835Y-85726852D01*
X136882014Y-85852000D01*
X136901835Y-85977148D01*
X136959359Y-86090045D01*
X136975314Y-86106000D01*
X135432116Y-86106000D01*
X135460493Y-86061844D01*
X135501000Y-85923889D01*
X135501000Y-85780111D01*
X135460493Y-85642156D01*
X135432116Y-85598000D01*
X136975314Y-85598000D01*
X136959359Y-85613955D01*
G37*
G04 #@! TD.AperFunction*
G04 #@! TA.AperFunction,Conductor*
G36*
X127127000Y-85418325D02*
G01*
X127015315Y-85367320D01*
X126908763Y-85352000D01*
X126837237Y-85352000D01*
X126730685Y-85367320D01*
X126619000Y-85418325D01*
X126619000Y-83745674D01*
X126730685Y-83796680D01*
X126837237Y-83812000D01*
X126908763Y-83812000D01*
X127015315Y-83796680D01*
X127127000Y-83745674D01*
X127127000Y-85418325D01*
G37*
G04 #@! TD.AperFunction*
G04 #@! TA.AperFunction,Conductor*
G36*
X135255000Y-85418325D02*
G01*
X135143315Y-85367320D01*
X135036763Y-85352000D01*
X134965237Y-85352000D01*
X134858685Y-85367320D01*
X134747000Y-85418325D01*
X134747000Y-83745674D01*
X134858685Y-83796680D01*
X134965237Y-83812000D01*
X135036763Y-83812000D01*
X135143315Y-83796680D01*
X135255000Y-83745674D01*
X135255000Y-85418325D01*
G37*
G04 #@! TD.AperFunction*
G04 #@! TA.AperFunction,Conductor*
G36*
X127127000Y-82878325D02*
G01*
X127015315Y-82827320D01*
X126908763Y-82812000D01*
X126837237Y-82812000D01*
X126730685Y-82827320D01*
X126619000Y-82878325D01*
X126619000Y-81205674D01*
X126730685Y-81256680D01*
X126837237Y-81272000D01*
X126908763Y-81272000D01*
X127015315Y-81256680D01*
X127127000Y-81205674D01*
X127127000Y-82878325D01*
G37*
G04 #@! TD.AperFunction*
G04 #@! TA.AperFunction,Conductor*
G36*
X135255000Y-82878325D02*
G01*
X135143315Y-82827320D01*
X135036763Y-82812000D01*
X134965237Y-82812000D01*
X134858685Y-82827320D01*
X134747000Y-82878325D01*
X134747000Y-81205674D01*
X134858685Y-81256680D01*
X134965237Y-81272000D01*
X135036763Y-81272000D01*
X135143315Y-81256680D01*
X135255000Y-81205674D01*
X135255000Y-82878325D01*
G37*
G04 #@! TD.AperFunction*
G04 #@! TA.AperFunction,Conductor*
G36*
X127127000Y-80338325D02*
G01*
X127015315Y-80287320D01*
X126908763Y-80272000D01*
X126837237Y-80272000D01*
X126730685Y-80287320D01*
X126619000Y-80338325D01*
X126619000Y-78665674D01*
X126730685Y-78716680D01*
X126837237Y-78732000D01*
X126908763Y-78732000D01*
X127015315Y-78716680D01*
X127127000Y-78665674D01*
X127127000Y-80338325D01*
G37*
G04 #@! TD.AperFunction*
G04 #@! TA.AperFunction,Conductor*
G36*
X135255000Y-80338325D02*
G01*
X135143315Y-80287320D01*
X135036763Y-80272000D01*
X134965237Y-80272000D01*
X134858685Y-80287320D01*
X134747000Y-80338325D01*
X134747000Y-78665674D01*
X134858685Y-78716680D01*
X134965237Y-78732000D01*
X135036763Y-78732000D01*
X135143315Y-78716680D01*
X135255000Y-78665674D01*
X135255000Y-80338325D01*
G37*
G04 #@! TD.AperFunction*
G04 #@! TA.AperFunction,Conductor*
G36*
X127127000Y-77798325D02*
G01*
X127015315Y-77747320D01*
X126908763Y-77732000D01*
X126837237Y-77732000D01*
X126730685Y-77747320D01*
X126619000Y-77798325D01*
X126619000Y-76125674D01*
X126730685Y-76176680D01*
X126837237Y-76192000D01*
X126908763Y-76192000D01*
X127015315Y-76176680D01*
X127127000Y-76125674D01*
X127127000Y-77798325D01*
G37*
G04 #@! TD.AperFunction*
G04 #@! TA.AperFunction,Conductor*
G36*
X135255000Y-77798325D02*
G01*
X135143315Y-77747320D01*
X135036763Y-77732000D01*
X134965237Y-77732000D01*
X134858685Y-77747320D01*
X134747000Y-77798325D01*
X134747000Y-76125674D01*
X134858685Y-76176680D01*
X134965237Y-76192000D01*
X135036763Y-76192000D01*
X135143315Y-76176680D01*
X135255000Y-76125674D01*
X135255000Y-77798325D01*
G37*
G04 #@! TD.AperFunction*
G04 #@! TA.AperFunction,Conductor*
G36*
X127127000Y-75258325D02*
G01*
X127015315Y-75207320D01*
X126908763Y-75192000D01*
X126837237Y-75192000D01*
X126730685Y-75207320D01*
X126619000Y-75258325D01*
X126619000Y-73585674D01*
X126730685Y-73636680D01*
X126837237Y-73652000D01*
X126908763Y-73652000D01*
X127015315Y-73636680D01*
X127127000Y-73585674D01*
X127127000Y-75258325D01*
G37*
G04 #@! TD.AperFunction*
G04 #@! TA.AperFunction,Conductor*
G36*
X135255000Y-75258325D02*
G01*
X135143315Y-75207320D01*
X135036763Y-75192000D01*
X134965237Y-75192000D01*
X134858685Y-75207320D01*
X134747000Y-75258325D01*
X134747000Y-73585674D01*
X134858685Y-73636680D01*
X134965237Y-73652000D01*
X135036763Y-73652000D01*
X135143315Y-73636680D01*
X135255000Y-73585674D01*
X135255000Y-75258325D01*
G37*
G04 #@! TD.AperFunction*
G04 #@! TA.AperFunction,Conductor*
G36*
X127127000Y-72718325D02*
G01*
X127015315Y-72667320D01*
X126908763Y-72652000D01*
X126837237Y-72652000D01*
X126730685Y-72667320D01*
X126619000Y-72718325D01*
X126619000Y-71045674D01*
X126730685Y-71096680D01*
X126837237Y-71112000D01*
X126908763Y-71112000D01*
X127015315Y-71096680D01*
X127127000Y-71045674D01*
X127127000Y-72718325D01*
G37*
G04 #@! TD.AperFunction*
G04 #@! TA.AperFunction,Conductor*
G36*
X135255000Y-72718325D02*
G01*
X135143315Y-72667320D01*
X135036763Y-72652000D01*
X134965237Y-72652000D01*
X134858685Y-72667320D01*
X134747000Y-72718325D01*
X134747000Y-71045674D01*
X134858685Y-71096680D01*
X134965237Y-71112000D01*
X135036763Y-71112000D01*
X135143315Y-71096680D01*
X135255000Y-71045674D01*
X135255000Y-72718325D01*
G37*
G04 #@! TD.AperFunction*
G04 #@! TA.AperFunction,Conductor*
G36*
X127127000Y-70178325D02*
G01*
X127015315Y-70127320D01*
X126908763Y-70112000D01*
X126837237Y-70112000D01*
X126730685Y-70127320D01*
X126619000Y-70178325D01*
X126619000Y-68505674D01*
X126730685Y-68556680D01*
X126837237Y-68572000D01*
X126908763Y-68572000D01*
X127015315Y-68556680D01*
X127127000Y-68505674D01*
X127127000Y-70178325D01*
G37*
G04 #@! TD.AperFunction*
G04 #@! TA.AperFunction,Conductor*
G36*
X135255000Y-70178325D02*
G01*
X135143315Y-70127320D01*
X135036763Y-70112000D01*
X134965237Y-70112000D01*
X134858685Y-70127320D01*
X134747000Y-70178325D01*
X134747000Y-68505674D01*
X134858685Y-68556680D01*
X134965237Y-68572000D01*
X135036763Y-68572000D01*
X135143315Y-68556680D01*
X135255000Y-68505674D01*
X135255000Y-70178325D01*
G37*
G04 #@! TD.AperFunction*
G04 #@! TA.AperFunction,Conductor*
G36*
X127127000Y-67638325D02*
G01*
X127015315Y-67587320D01*
X126908763Y-67572000D01*
X126837237Y-67572000D01*
X126730685Y-67587320D01*
X126619000Y-67638325D01*
X126619000Y-65965674D01*
X126730685Y-66016680D01*
X126837237Y-66032000D01*
X126908763Y-66032000D01*
X127015315Y-66016680D01*
X127127000Y-65965674D01*
X127127000Y-67638325D01*
G37*
G04 #@! TD.AperFunction*
G04 #@! TA.AperFunction,Conductor*
G36*
X135255000Y-67638325D02*
G01*
X135143315Y-67587320D01*
X135036763Y-67572000D01*
X134965237Y-67572000D01*
X134858685Y-67587320D01*
X134747000Y-67638325D01*
X134747000Y-65965674D01*
X134858685Y-66016680D01*
X134965237Y-66032000D01*
X135036763Y-66032000D01*
X135143315Y-66016680D01*
X135255000Y-65965674D01*
X135255000Y-67638325D01*
G37*
G04 #@! TD.AperFunction*
G04 #@! TA.AperFunction,Conductor*
G36*
X127127000Y-65098325D02*
G01*
X127015315Y-65047320D01*
X126908763Y-65032000D01*
X126837237Y-65032000D01*
X126730685Y-65047320D01*
X126619000Y-65098325D01*
X126619000Y-63425674D01*
X126730685Y-63476680D01*
X126837237Y-63492000D01*
X126908763Y-63492000D01*
X127015315Y-63476680D01*
X127127000Y-63425674D01*
X127127000Y-65098325D01*
G37*
G04 #@! TD.AperFunction*
G04 #@! TA.AperFunction,Conductor*
G36*
X135255000Y-65098325D02*
G01*
X135143315Y-65047320D01*
X135036763Y-65032000D01*
X134965237Y-65032000D01*
X134858685Y-65047320D01*
X134747000Y-65098325D01*
X134747000Y-63425674D01*
X134858685Y-63476680D01*
X134965237Y-63492000D01*
X135036763Y-63492000D01*
X135143315Y-63476680D01*
X135255000Y-63425674D01*
X135255000Y-65098325D01*
G37*
G04 #@! TD.AperFunction*
G04 #@! TA.AperFunction,Conductor*
G36*
X127127000Y-62558325D02*
G01*
X127015315Y-62507320D01*
X126908763Y-62492000D01*
X126837237Y-62492000D01*
X126730685Y-62507320D01*
X126619000Y-62558325D01*
X126619000Y-60885674D01*
X126730685Y-60936680D01*
X126837237Y-60952000D01*
X126908763Y-60952000D01*
X127015315Y-60936680D01*
X127127000Y-60885674D01*
X127127000Y-62558325D01*
G37*
G04 #@! TD.AperFunction*
G04 #@! TA.AperFunction,Conductor*
G36*
X135255000Y-62558325D02*
G01*
X135143315Y-62507320D01*
X135036763Y-62492000D01*
X134965237Y-62492000D01*
X134858685Y-62507320D01*
X134747000Y-62558325D01*
X134747000Y-60885674D01*
X134858685Y-60936680D01*
X134965237Y-60952000D01*
X135036763Y-60952000D01*
X135143315Y-60936680D01*
X135255000Y-60885674D01*
X135255000Y-62558325D01*
G37*
G04 #@! TD.AperFunction*
G04 #@! TA.AperFunction,Conductor*
G36*
X127127000Y-60018325D02*
G01*
X127015315Y-59967320D01*
X126908763Y-59952000D01*
X126837237Y-59952000D01*
X126730685Y-59967320D01*
X126619000Y-60018325D01*
X126619000Y-58345674D01*
X126730685Y-58396680D01*
X126837237Y-58412000D01*
X126908763Y-58412000D01*
X127015315Y-58396680D01*
X127127000Y-58345674D01*
X127127000Y-60018325D01*
G37*
G04 #@! TD.AperFunction*
G04 #@! TA.AperFunction,Conductor*
G36*
X135255000Y-60018325D02*
G01*
X135143315Y-59967320D01*
X135036763Y-59952000D01*
X134965237Y-59952000D01*
X134858685Y-59967320D01*
X134747000Y-60018325D01*
X134747000Y-58345674D01*
X134858685Y-58396680D01*
X134965237Y-58412000D01*
X135036763Y-58412000D01*
X135143315Y-58396680D01*
X135255000Y-58345674D01*
X135255000Y-60018325D01*
G37*
G04 #@! TD.AperFunction*
M02*
