G04 #@! TF.GenerationSoftware,KiCad,Pcbnew,7.0.2-0*
G04 #@! TF.CreationDate,2023-10-04T23:29:07+02:00*
G04 #@! TF.ProjectId,Z80 UUT Cable Header,5a383020-5555-4542-9043-61626c652048,rev?*
G04 #@! TF.SameCoordinates,Original*
G04 #@! TF.FileFunction,Copper,L2,Bot*
G04 #@! TF.FilePolarity,Positive*
%FSLAX46Y46*%
G04 Gerber Fmt 4.6, Leading zero omitted, Abs format (unit mm)*
G04 Created by KiCad (PCBNEW 7.0.2-0) date 2023-10-04 23:29:07*
%MOMM*%
%LPD*%
G01*
G04 APERTURE LIST*
G04 #@! TA.AperFunction,ComponentPad*
%ADD10R,1.700000X1.700000*%
G04 #@! TD*
G04 #@! TA.AperFunction,ComponentPad*
%ADD11O,1.700000X1.700000*%
G04 #@! TD*
G04 #@! TA.AperFunction,ComponentPad*
%ADD12R,1.600000X1.600000*%
G04 #@! TD*
G04 #@! TA.AperFunction,ComponentPad*
%ADD13O,1.600000X1.600000*%
G04 #@! TD*
G04 #@! TA.AperFunction,Conductor*
%ADD14C,0.250000*%
G04 #@! TD*
G04 APERTURE END LIST*
D10*
X126873000Y-57912000D03*
D11*
X124333000Y-57912000D03*
X126873000Y-60452000D03*
X124333000Y-60452000D03*
X126873000Y-62992000D03*
X124333000Y-62992000D03*
X126873000Y-65532000D03*
X124333000Y-65532000D03*
X126873000Y-68072000D03*
X124333000Y-68072000D03*
X126873000Y-70612000D03*
X124333000Y-70612000D03*
X126873000Y-73152000D03*
X124333000Y-73152000D03*
X126873000Y-75692000D03*
X124333000Y-75692000D03*
X126873000Y-78232000D03*
X124333000Y-78232000D03*
X126873000Y-80772000D03*
X124333000Y-80772000D03*
X126873000Y-83312000D03*
X124333000Y-83312000D03*
X126873000Y-85852000D03*
X124333000Y-85852000D03*
X126873000Y-88392000D03*
X124333000Y-88392000D03*
X126873000Y-90932000D03*
X124333000Y-90932000D03*
X126873000Y-93472000D03*
X124333000Y-93472000D03*
X126873000Y-96012000D03*
X124333000Y-96012000D03*
X126873000Y-98552000D03*
X124333000Y-98552000D03*
X126873000Y-101092000D03*
X124333000Y-101092000D03*
X126873000Y-103632000D03*
X124333000Y-103632000D03*
X126873000Y-106172000D03*
X124333000Y-106172000D03*
D10*
X135001000Y-57912000D03*
D11*
X132461000Y-57912000D03*
X135001000Y-60452000D03*
X132461000Y-60452000D03*
X135001000Y-62992000D03*
X132461000Y-62992000D03*
X135001000Y-65532000D03*
X132461000Y-65532000D03*
X135001000Y-68072000D03*
X132461000Y-68072000D03*
X135001000Y-70612000D03*
X132461000Y-70612000D03*
X135001000Y-73152000D03*
X132461000Y-73152000D03*
X135001000Y-75692000D03*
X132461000Y-75692000D03*
X135001000Y-78232000D03*
X132461000Y-78232000D03*
X135001000Y-80772000D03*
X132461000Y-80772000D03*
X135001000Y-83312000D03*
X132461000Y-83312000D03*
X135001000Y-85852000D03*
X132461000Y-85852000D03*
X135001000Y-88392000D03*
X132461000Y-88392000D03*
X135001000Y-90932000D03*
X132461000Y-90932000D03*
X135001000Y-93472000D03*
X132461000Y-93472000D03*
X135001000Y-96012000D03*
X132461000Y-96012000D03*
X135001000Y-98552000D03*
X132461000Y-98552000D03*
X135001000Y-101092000D03*
X132461000Y-101092000D03*
X135001000Y-103632000D03*
X132461000Y-103632000D03*
X135001000Y-106172000D03*
X132461000Y-106172000D03*
D12*
X122047000Y-57912000D03*
D13*
X122047000Y-60452000D03*
X122047000Y-62992000D03*
X122047000Y-65532000D03*
X122047000Y-68072000D03*
X122047000Y-70612000D03*
X122047000Y-73152000D03*
X122047000Y-75692000D03*
X122047000Y-78232000D03*
X122047000Y-80772000D03*
X122047000Y-83312000D03*
X122047000Y-85852000D03*
X122047000Y-88392000D03*
X122047000Y-90932000D03*
X122047000Y-93472000D03*
X122047000Y-96012000D03*
X122047000Y-98552000D03*
X122047000Y-101092000D03*
X122047000Y-103632000D03*
X122047000Y-106172000D03*
X137287000Y-106172000D03*
X137287000Y-103632000D03*
X137287000Y-101092000D03*
X137287000Y-98552000D03*
X137287000Y-96012000D03*
X137287000Y-93472000D03*
X137287000Y-90932000D03*
X137287000Y-88392000D03*
X137287000Y-85852000D03*
X137287000Y-83312000D03*
X137287000Y-80772000D03*
X137287000Y-78232000D03*
X137287000Y-75692000D03*
X137287000Y-73152000D03*
X137287000Y-70612000D03*
X137287000Y-68072000D03*
X137287000Y-65532000D03*
X137287000Y-62992000D03*
X137287000Y-60452000D03*
X137287000Y-57912000D03*
D14*
X122047000Y-57912000D02*
X124333000Y-57912000D01*
X122047000Y-60452000D02*
X124333000Y-60452000D01*
X122047000Y-62992000D02*
X124333000Y-62992000D01*
X122047000Y-65532000D02*
X124333000Y-65532000D01*
X122047000Y-68072000D02*
X124333000Y-68072000D01*
X122047000Y-70612000D02*
X124333000Y-70612000D01*
X122047000Y-73152000D02*
X124333000Y-73152000D01*
X122047000Y-75692000D02*
X124333000Y-75692000D01*
X122047000Y-78232000D02*
X124333000Y-78232000D01*
X122047000Y-80772000D02*
X124333000Y-80772000D01*
X122047000Y-83312000D02*
X124333000Y-83312000D01*
X122047000Y-85852000D02*
X124333000Y-85852000D01*
X122047000Y-88392000D02*
X124333000Y-88392000D01*
X122047000Y-90932000D02*
X124333000Y-90932000D01*
X122047000Y-93472000D02*
X124333000Y-93472000D01*
X122047000Y-96012000D02*
X124333000Y-96012000D01*
X122047000Y-98552000D02*
X124333000Y-98552000D01*
X122047000Y-101092000D02*
X124333000Y-101092000D01*
X122047000Y-103632000D02*
X124333000Y-103632000D01*
X124333000Y-106172000D02*
X122047000Y-106172000D01*
X133858000Y-56515000D02*
X135890000Y-56515000D01*
X135890000Y-56515000D02*
X137287000Y-57912000D01*
X132461000Y-57912000D02*
X133858000Y-56515000D01*
X133731000Y-59182000D02*
X136017000Y-59182000D01*
X132461000Y-60452000D02*
X133731000Y-59182000D01*
X136017000Y-59182000D02*
X137287000Y-60452000D01*
X132461000Y-62992000D02*
X133731000Y-61722000D01*
X136017000Y-61722000D02*
X137287000Y-62992000D01*
X133731000Y-61722000D02*
X136017000Y-61722000D01*
X132461000Y-65532000D02*
X133731000Y-64262000D01*
X133731000Y-64262000D02*
X136017000Y-64262000D01*
X136017000Y-64262000D02*
X137287000Y-65532000D01*
X133731000Y-66802000D02*
X136017000Y-66802000D01*
X132461000Y-68072000D02*
X133731000Y-66802000D01*
X136017000Y-66802000D02*
X137287000Y-68072000D01*
X136017000Y-69342000D02*
X137287000Y-70612000D01*
X133731000Y-69342000D02*
X136017000Y-69342000D01*
X132461000Y-70612000D02*
X133731000Y-69342000D01*
X133731000Y-71882000D02*
X136017000Y-71882000D01*
X132461000Y-73152000D02*
X133731000Y-71882000D01*
X136017000Y-71882000D02*
X137287000Y-73152000D01*
X133731000Y-74422000D02*
X136017000Y-74422000D01*
X136017000Y-74422000D02*
X137287000Y-75692000D01*
X132461000Y-75692000D02*
X133731000Y-74422000D01*
X136017000Y-76962000D02*
X137287000Y-78232000D01*
X133731000Y-76962000D02*
X136017000Y-76962000D01*
X132461000Y-78232000D02*
X133731000Y-76962000D01*
X132461000Y-80772000D02*
X133731000Y-79502000D01*
X136017000Y-79502000D02*
X137287000Y-80772000D01*
X133731000Y-79502000D02*
X136017000Y-79502000D01*
X136017000Y-82042000D02*
X137287000Y-83312000D01*
X133731000Y-82042000D02*
X136017000Y-82042000D01*
X132461000Y-83312000D02*
X133731000Y-82042000D01*
X132461000Y-88392000D02*
X133731000Y-87122000D01*
X136017000Y-87122000D02*
X137287000Y-88392000D01*
X133731000Y-87122000D02*
X136017000Y-87122000D01*
X136017000Y-89662000D02*
X137287000Y-90932000D01*
X133731000Y-89662000D02*
X136017000Y-89662000D01*
X132461000Y-90932000D02*
X133731000Y-89662000D01*
X132461000Y-93472000D02*
X133731000Y-92202000D01*
X133731000Y-92202000D02*
X136017000Y-92202000D01*
X136017000Y-92202000D02*
X137287000Y-93472000D01*
X136017000Y-94742000D02*
X137287000Y-96012000D01*
X132461000Y-96012000D02*
X133731000Y-94742000D01*
X133731000Y-94742000D02*
X136017000Y-94742000D01*
X133636001Y-97376999D02*
X136111999Y-97376999D01*
X136111999Y-97376999D02*
X137287000Y-98552000D01*
X132461000Y-98552000D02*
X133636001Y-97376999D01*
X132461000Y-101092000D02*
X133731000Y-99822000D01*
X133731000Y-99822000D02*
X136017000Y-99822000D01*
X136017000Y-99822000D02*
X137287000Y-101092000D01*
X132461000Y-103632000D02*
X133731000Y-102362000D01*
X133731000Y-102362000D02*
X136017000Y-102362000D01*
X136017000Y-102362000D02*
X137287000Y-103632000D01*
X132461000Y-106172000D02*
X133731000Y-104902000D01*
X136017000Y-104902000D02*
X137287000Y-106172000D01*
X133731000Y-104902000D02*
X136017000Y-104902000D01*
M02*
