G04 #@! TF.GenerationSoftware,KiCad,Pcbnew,7.0.2-0*
G04 #@! TF.CreationDate,2023-10-04T23:29:07+02:00*
G04 #@! TF.ProjectId,Z80 UUT Cable Header,5a383020-5555-4542-9043-61626c652048,rev?*
G04 #@! TF.SameCoordinates,Original*
G04 #@! TF.FileFunction,Legend,Top*
G04 #@! TF.FilePolarity,Positive*
%FSLAX46Y46*%
G04 Gerber Fmt 4.6, Leading zero omitted, Abs format (unit mm)*
G04 Created by KiCad (PCBNEW 7.0.2-0) date 2023-10-04 23:29:07*
%MOMM*%
%LPD*%
G01*
G04 APERTURE LIST*
%ADD10C,0.200000*%
%ADD11C,0.120000*%
G04 APERTURE END LIST*
D10*
X122409143Y-54453619D02*
X123209143Y-54453619D01*
X123209143Y-54453619D02*
X122409143Y-55453619D01*
X122409143Y-55453619D02*
X123209143Y-55453619D01*
X123837714Y-54882190D02*
X123723429Y-54834571D01*
X123723429Y-54834571D02*
X123666286Y-54786952D01*
X123666286Y-54786952D02*
X123609143Y-54691714D01*
X123609143Y-54691714D02*
X123609143Y-54644095D01*
X123609143Y-54644095D02*
X123666286Y-54548857D01*
X123666286Y-54548857D02*
X123723429Y-54501238D01*
X123723429Y-54501238D02*
X123837714Y-54453619D01*
X123837714Y-54453619D02*
X124066286Y-54453619D01*
X124066286Y-54453619D02*
X124180572Y-54501238D01*
X124180572Y-54501238D02*
X124237714Y-54548857D01*
X124237714Y-54548857D02*
X124294857Y-54644095D01*
X124294857Y-54644095D02*
X124294857Y-54691714D01*
X124294857Y-54691714D02*
X124237714Y-54786952D01*
X124237714Y-54786952D02*
X124180572Y-54834571D01*
X124180572Y-54834571D02*
X124066286Y-54882190D01*
X124066286Y-54882190D02*
X123837714Y-54882190D01*
X123837714Y-54882190D02*
X123723429Y-54929809D01*
X123723429Y-54929809D02*
X123666286Y-54977428D01*
X123666286Y-54977428D02*
X123609143Y-55072666D01*
X123609143Y-55072666D02*
X123609143Y-55263142D01*
X123609143Y-55263142D02*
X123666286Y-55358380D01*
X123666286Y-55358380D02*
X123723429Y-55406000D01*
X123723429Y-55406000D02*
X123837714Y-55453619D01*
X123837714Y-55453619D02*
X124066286Y-55453619D01*
X124066286Y-55453619D02*
X124180572Y-55406000D01*
X124180572Y-55406000D02*
X124237714Y-55358380D01*
X124237714Y-55358380D02*
X124294857Y-55263142D01*
X124294857Y-55263142D02*
X124294857Y-55072666D01*
X124294857Y-55072666D02*
X124237714Y-54977428D01*
X124237714Y-54977428D02*
X124180572Y-54929809D01*
X124180572Y-54929809D02*
X124066286Y-54882190D01*
X125037714Y-54453619D02*
X125152000Y-54453619D01*
X125152000Y-54453619D02*
X125266286Y-54501238D01*
X125266286Y-54501238D02*
X125323429Y-54548857D01*
X125323429Y-54548857D02*
X125380571Y-54644095D01*
X125380571Y-54644095D02*
X125437714Y-54834571D01*
X125437714Y-54834571D02*
X125437714Y-55072666D01*
X125437714Y-55072666D02*
X125380571Y-55263142D01*
X125380571Y-55263142D02*
X125323429Y-55358380D01*
X125323429Y-55358380D02*
X125266286Y-55406000D01*
X125266286Y-55406000D02*
X125152000Y-55453619D01*
X125152000Y-55453619D02*
X125037714Y-55453619D01*
X125037714Y-55453619D02*
X124923429Y-55406000D01*
X124923429Y-55406000D02*
X124866286Y-55358380D01*
X124866286Y-55358380D02*
X124809143Y-55263142D01*
X124809143Y-55263142D02*
X124752000Y-55072666D01*
X124752000Y-55072666D02*
X124752000Y-54834571D01*
X124752000Y-54834571D02*
X124809143Y-54644095D01*
X124809143Y-54644095D02*
X124866286Y-54548857D01*
X124866286Y-54548857D02*
X124923429Y-54501238D01*
X124923429Y-54501238D02*
X125037714Y-54453619D01*
D11*
X123003000Y-56582000D02*
X123003000Y-107502000D01*
X123003000Y-56582000D02*
X125603000Y-56582000D01*
X123003000Y-107502000D02*
X128203000Y-107502000D01*
X125603000Y-56582000D02*
X125603000Y-59182000D01*
X125603000Y-59182000D02*
X128203000Y-59182000D01*
X126873000Y-56582000D02*
X128203000Y-56582000D01*
X128203000Y-56582000D02*
X128203000Y-57912000D01*
X128203000Y-59182000D02*
X128203000Y-107502000D01*
X131131000Y-56582000D02*
X131131000Y-107502000D01*
X131131000Y-56582000D02*
X133731000Y-56582000D01*
X131131000Y-107502000D02*
X136331000Y-107502000D01*
X133731000Y-56582000D02*
X133731000Y-59182000D01*
X133731000Y-59182000D02*
X136331000Y-59182000D01*
X135001000Y-56582000D02*
X136331000Y-56582000D01*
X136331000Y-56582000D02*
X136331000Y-57912000D01*
X136331000Y-59182000D02*
X136331000Y-107502000D01*
X123207000Y-56582000D02*
X123207000Y-107502000D01*
X123207000Y-107502000D02*
X136127000Y-107502000D01*
X128667000Y-56582000D02*
X123207000Y-56582000D01*
X136127000Y-56582000D02*
X130667000Y-56582000D01*
X136127000Y-107502000D02*
X136127000Y-56582000D01*
X128667000Y-56582000D02*
G75*
G03*
X130667000Y-56582000I1000000J0D01*
G01*
M02*
