G04 #@! TF.GenerationSoftware,KiCad,Pcbnew,8.0.4*
G04 #@! TF.CreationDate,2024-11-26T14:33:15+01:00*
G04 #@! TF.ProjectId,6502 2x40 Pin Cable Header,36353032-2032-4783-9430-2050696e2043,rev?*
G04 #@! TF.SameCoordinates,Original*
G04 #@! TF.FileFunction,Copper,L1,Top*
G04 #@! TF.FilePolarity,Positive*
%FSLAX46Y46*%
G04 Gerber Fmt 4.6, Leading zero omitted, Abs format (unit mm)*
G04 Created by KiCad (PCBNEW 8.0.4) date 2024-11-26 14:33:15*
%MOMM*%
%LPD*%
G01*
G04 APERTURE LIST*
G04 #@! TA.AperFunction,ComponentPad*
%ADD10R,1.700000X1.700000*%
G04 #@! TD*
G04 #@! TA.AperFunction,ComponentPad*
%ADD11O,1.700000X1.700000*%
G04 #@! TD*
G04 #@! TA.AperFunction,ComponentPad*
%ADD12R,1.600000X1.600000*%
G04 #@! TD*
G04 #@! TA.AperFunction,ComponentPad*
%ADD13O,1.600000X1.600000*%
G04 #@! TD*
G04 APERTURE END LIST*
D10*
X126873000Y-57912000D03*
D11*
X124333000Y-57912000D03*
X126873000Y-60452000D03*
X124333000Y-60452000D03*
X126873000Y-62992000D03*
X124333000Y-62992000D03*
X126873000Y-65532000D03*
X124333000Y-65532000D03*
X126873000Y-68072000D03*
X124333000Y-68072000D03*
X126873000Y-70612000D03*
X124333000Y-70612000D03*
X126873000Y-73152000D03*
X124333000Y-73152000D03*
X126873000Y-75692000D03*
X124333000Y-75692000D03*
X126873000Y-78232000D03*
X124333000Y-78232000D03*
X126873000Y-80772000D03*
X124333000Y-80772000D03*
X126873000Y-83312000D03*
X124333000Y-83312000D03*
X126873000Y-85852000D03*
X124333000Y-85852000D03*
X126873000Y-88392000D03*
X124333000Y-88392000D03*
X126873000Y-90932000D03*
X124333000Y-90932000D03*
X126873000Y-93472000D03*
X124333000Y-93472000D03*
X126873000Y-96012000D03*
X124333000Y-96012000D03*
X126873000Y-98552000D03*
X124333000Y-98552000D03*
X126873000Y-101092000D03*
X124333000Y-101092000D03*
X126873000Y-103632000D03*
X124333000Y-103632000D03*
X126873000Y-106172000D03*
X124333000Y-106172000D03*
D10*
X135001000Y-57912000D03*
D11*
X132461000Y-57912000D03*
X135001000Y-60452000D03*
X132461000Y-60452000D03*
X135001000Y-62992000D03*
X132461000Y-62992000D03*
X135001000Y-65532000D03*
X132461000Y-65532000D03*
X135001000Y-68072000D03*
X132461000Y-68072000D03*
X135001000Y-70612000D03*
X132461000Y-70612000D03*
X135001000Y-73152000D03*
X132461000Y-73152000D03*
X135001000Y-75692000D03*
X132461000Y-75692000D03*
X135001000Y-78232000D03*
X132461000Y-78232000D03*
X135001000Y-80772000D03*
X132461000Y-80772000D03*
X135001000Y-83312000D03*
X132461000Y-83312000D03*
X135001000Y-85852000D03*
X132461000Y-85852000D03*
X135001000Y-88392000D03*
X132461000Y-88392000D03*
X135001000Y-90932000D03*
X132461000Y-90932000D03*
X135001000Y-93472000D03*
X132461000Y-93472000D03*
X135001000Y-96012000D03*
X132461000Y-96012000D03*
X135001000Y-98552000D03*
X132461000Y-98552000D03*
X135001000Y-101092000D03*
X132461000Y-101092000D03*
X135001000Y-103632000D03*
X132461000Y-103632000D03*
X135001000Y-106172000D03*
X132461000Y-106172000D03*
D12*
X122047000Y-57912000D03*
D13*
X122047000Y-60452000D03*
X122047000Y-62992000D03*
X122047000Y-65532000D03*
X122047000Y-68072000D03*
X122047000Y-70612000D03*
X122047000Y-73152000D03*
X122047000Y-75692000D03*
X122047000Y-78232000D03*
X122047000Y-80772000D03*
X122047000Y-83312000D03*
X122047000Y-85852000D03*
X122047000Y-88392000D03*
X122047000Y-90932000D03*
X122047000Y-93472000D03*
X122047000Y-96012000D03*
X122047000Y-98552000D03*
X122047000Y-101092000D03*
X122047000Y-103632000D03*
X122047000Y-106172000D03*
X137287000Y-106172000D03*
X137287000Y-103632000D03*
X137287000Y-101092000D03*
X137287000Y-98552000D03*
X137287000Y-96012000D03*
X137287000Y-93472000D03*
X137287000Y-90932000D03*
X137287000Y-88392000D03*
X137287000Y-85852000D03*
X137287000Y-83312000D03*
X137287000Y-80772000D03*
X137287000Y-78232000D03*
X137287000Y-75692000D03*
X137287000Y-73152000D03*
X137287000Y-70612000D03*
X137287000Y-68072000D03*
X137287000Y-65532000D03*
X137287000Y-62992000D03*
X137287000Y-60452000D03*
X137287000Y-57912000D03*
G04 #@! TA.AperFunction,Conductor*
G36*
X126466489Y-53893502D02*
G01*
X126511066Y-53943151D01*
X127215533Y-55352086D01*
X127219244Y-55360216D01*
X127230993Y-55388582D01*
X127239301Y-55395787D01*
X127249457Y-55399993D01*
X127255955Y-55399531D01*
X127255957Y-55399532D01*
X127255958Y-55399531D01*
X127280100Y-55397817D01*
X127289028Y-55397500D01*
X132298997Y-55397500D01*
X132307930Y-55397817D01*
X132332041Y-55399530D01*
X132332043Y-55399531D01*
X132332045Y-55399530D01*
X132338543Y-55399992D01*
X132344559Y-55397500D01*
X132344562Y-55397500D01*
X132344564Y-55397497D01*
X132348699Y-55395785D01*
X132352081Y-55392851D01*
X132352084Y-55392851D01*
X132352085Y-55392848D01*
X132357007Y-55388580D01*
X132368755Y-55360218D01*
X132372460Y-55352097D01*
X133076935Y-53943149D01*
X133125289Y-53891167D01*
X133189632Y-53873500D01*
X137360858Y-53873500D01*
X137428979Y-53893502D01*
X137439567Y-53901109D01*
X138611212Y-54838425D01*
X138651910Y-54896597D01*
X138658500Y-54936813D01*
X138658500Y-57190272D01*
X138638498Y-57258393D01*
X138584842Y-57304886D01*
X138514568Y-57314990D01*
X138449988Y-57285496D01*
X138428348Y-57259289D01*
X138427679Y-57259758D01*
X138293200Y-57067703D01*
X138293195Y-57067697D01*
X138131302Y-56905804D01*
X138131296Y-56905799D01*
X137943749Y-56774477D01*
X137736246Y-56677717D01*
X137736240Y-56677715D01*
X137642771Y-56652670D01*
X137515087Y-56618457D01*
X137287000Y-56598502D01*
X137058913Y-56618457D01*
X136837759Y-56677715D01*
X136837753Y-56677717D01*
X136630250Y-56774477D01*
X136490655Y-56872223D01*
X136423381Y-56894911D01*
X136354520Y-56877626D01*
X136305936Y-56825856D01*
X136302418Y-56817818D01*
X136301444Y-56816034D01*
X136213904Y-56699095D01*
X136096965Y-56611555D01*
X135960093Y-56560505D01*
X135899597Y-56554000D01*
X135255000Y-56554000D01*
X135255000Y-57481297D01*
X135193993Y-57446075D01*
X135066826Y-57412000D01*
X134935174Y-57412000D01*
X134808007Y-57446075D01*
X134747000Y-57481297D01*
X134747000Y-56554000D01*
X134102402Y-56554000D01*
X134041906Y-56560505D01*
X133905035Y-56611555D01*
X133905034Y-56611555D01*
X133788095Y-56699095D01*
X133700555Y-56816034D01*
X133700553Y-56816039D01*
X133656380Y-56934470D01*
X133613833Y-56991306D01*
X133547313Y-57016116D01*
X133477939Y-57001024D01*
X133445626Y-56975777D01*
X133384240Y-56909094D01*
X133384239Y-56909093D01*
X133384237Y-56909091D01*
X133264679Y-56816035D01*
X133206576Y-56770811D01*
X133008574Y-56663658D01*
X133008572Y-56663657D01*
X133008571Y-56663656D01*
X132795639Y-56590557D01*
X132795630Y-56590555D01*
X132718029Y-56577606D01*
X132573569Y-56553500D01*
X132348431Y-56553500D01*
X132203971Y-56577606D01*
X132126369Y-56590555D01*
X132126360Y-56590557D01*
X131913428Y-56663656D01*
X131913426Y-56663658D01*
X131715426Y-56770810D01*
X131715424Y-56770811D01*
X131537762Y-56909091D01*
X131385279Y-57074729D01*
X131385275Y-57074734D01*
X131262141Y-57263206D01*
X131171703Y-57469386D01*
X131171702Y-57469387D01*
X131116437Y-57687624D01*
X131116436Y-57687630D01*
X131116436Y-57687632D01*
X131097844Y-57912000D01*
X131113836Y-58104993D01*
X131116437Y-58136375D01*
X131171702Y-58354612D01*
X131171703Y-58354613D01*
X131262141Y-58560793D01*
X131385275Y-58749265D01*
X131385279Y-58749270D01*
X131537762Y-58914908D01*
X131541992Y-58918200D01*
X131715424Y-59053189D01*
X131748153Y-59070901D01*
X131748680Y-59071186D01*
X131799071Y-59121200D01*
X131814423Y-59190516D01*
X131789862Y-59257129D01*
X131748680Y-59292813D01*
X131715426Y-59310810D01*
X131715424Y-59310811D01*
X131537762Y-59449091D01*
X131385279Y-59614729D01*
X131385275Y-59614734D01*
X131262141Y-59803206D01*
X131171703Y-60009386D01*
X131171702Y-60009387D01*
X131116437Y-60227624D01*
X131116436Y-60227630D01*
X131116436Y-60227632D01*
X131097844Y-60452000D01*
X131113836Y-60644993D01*
X131116437Y-60676375D01*
X131171702Y-60894612D01*
X131171703Y-60894613D01*
X131171704Y-60894616D01*
X131262140Y-61100791D01*
X131262141Y-61100793D01*
X131385275Y-61289265D01*
X131385279Y-61289270D01*
X131537762Y-61454908D01*
X131541992Y-61458200D01*
X131715424Y-61593189D01*
X131748680Y-61611186D01*
X131799071Y-61661200D01*
X131814423Y-61730516D01*
X131789862Y-61797129D01*
X131748680Y-61832813D01*
X131715426Y-61850810D01*
X131715424Y-61850811D01*
X131537762Y-61989091D01*
X131385279Y-62154729D01*
X131385275Y-62154734D01*
X131262141Y-62343206D01*
X131171703Y-62549386D01*
X131171702Y-62549387D01*
X131116437Y-62767624D01*
X131116436Y-62767630D01*
X131116436Y-62767632D01*
X131097844Y-62992000D01*
X131113836Y-63184993D01*
X131116437Y-63216375D01*
X131171702Y-63434612D01*
X131171703Y-63434613D01*
X131171704Y-63434616D01*
X131262140Y-63640791D01*
X131262141Y-63640793D01*
X131385275Y-63829265D01*
X131385279Y-63829270D01*
X131537762Y-63994908D01*
X131541992Y-63998200D01*
X131715424Y-64133189D01*
X131748680Y-64151186D01*
X131799071Y-64201200D01*
X131814423Y-64270516D01*
X131789862Y-64337129D01*
X131748680Y-64372813D01*
X131715426Y-64390810D01*
X131715424Y-64390811D01*
X131537762Y-64529091D01*
X131385279Y-64694729D01*
X131385275Y-64694734D01*
X131262141Y-64883206D01*
X131171703Y-65089386D01*
X131171702Y-65089387D01*
X131116437Y-65307624D01*
X131116436Y-65307630D01*
X131116436Y-65307632D01*
X131097844Y-65532000D01*
X131113836Y-65724993D01*
X131116437Y-65756375D01*
X131171702Y-65974612D01*
X131171703Y-65974613D01*
X131171704Y-65974616D01*
X131262140Y-66180791D01*
X131262141Y-66180793D01*
X131385275Y-66369265D01*
X131385279Y-66369270D01*
X131537762Y-66534908D01*
X131541992Y-66538200D01*
X131715424Y-66673189D01*
X131748680Y-66691186D01*
X131799071Y-66741200D01*
X131814423Y-66810516D01*
X131789862Y-66877129D01*
X131748680Y-66912813D01*
X131715426Y-66930810D01*
X131715424Y-66930811D01*
X131537762Y-67069091D01*
X131385279Y-67234729D01*
X131385275Y-67234734D01*
X131262141Y-67423206D01*
X131171703Y-67629386D01*
X131171702Y-67629387D01*
X131116437Y-67847624D01*
X131116436Y-67847630D01*
X131116436Y-67847632D01*
X131097844Y-68072000D01*
X131113836Y-68264993D01*
X131116437Y-68296375D01*
X131171702Y-68514612D01*
X131171703Y-68514613D01*
X131171704Y-68514616D01*
X131262140Y-68720791D01*
X131262141Y-68720793D01*
X131385275Y-68909265D01*
X131385279Y-68909270D01*
X131537762Y-69074908D01*
X131541992Y-69078200D01*
X131715424Y-69213189D01*
X131748680Y-69231186D01*
X131799071Y-69281200D01*
X131814423Y-69350516D01*
X131789862Y-69417129D01*
X131748680Y-69452813D01*
X131715426Y-69470810D01*
X131715424Y-69470811D01*
X131537762Y-69609091D01*
X131385279Y-69774729D01*
X131385275Y-69774734D01*
X131262141Y-69963206D01*
X131171703Y-70169386D01*
X131171702Y-70169387D01*
X131116437Y-70387624D01*
X131116436Y-70387630D01*
X131116436Y-70387632D01*
X131097844Y-70612000D01*
X131113836Y-70804993D01*
X131116437Y-70836375D01*
X131171702Y-71054612D01*
X131171703Y-71054613D01*
X131171704Y-71054616D01*
X131262140Y-71260791D01*
X131262141Y-71260793D01*
X131385275Y-71449265D01*
X131385279Y-71449270D01*
X131537762Y-71614908D01*
X131541992Y-71618200D01*
X131715424Y-71753189D01*
X131748680Y-71771186D01*
X131799071Y-71821200D01*
X131814423Y-71890516D01*
X131789862Y-71957129D01*
X131748680Y-71992813D01*
X131715426Y-72010810D01*
X131715424Y-72010811D01*
X131537762Y-72149091D01*
X131385279Y-72314729D01*
X131385275Y-72314734D01*
X131262141Y-72503206D01*
X131171703Y-72709386D01*
X131171702Y-72709387D01*
X131116437Y-72927624D01*
X131116436Y-72927630D01*
X131116436Y-72927632D01*
X131097844Y-73152000D01*
X131113836Y-73344993D01*
X131116437Y-73376375D01*
X131171702Y-73594612D01*
X131171703Y-73594613D01*
X131171704Y-73594616D01*
X131262140Y-73800791D01*
X131262141Y-73800793D01*
X131385275Y-73989265D01*
X131385279Y-73989270D01*
X131537762Y-74154908D01*
X131541992Y-74158200D01*
X131715424Y-74293189D01*
X131748680Y-74311186D01*
X131799071Y-74361200D01*
X131814423Y-74430516D01*
X131789862Y-74497129D01*
X131748680Y-74532813D01*
X131715426Y-74550810D01*
X131715424Y-74550811D01*
X131537762Y-74689091D01*
X131385279Y-74854729D01*
X131385275Y-74854734D01*
X131262141Y-75043206D01*
X131171703Y-75249386D01*
X131171702Y-75249387D01*
X131116437Y-75467624D01*
X131116436Y-75467630D01*
X131116436Y-75467632D01*
X131097844Y-75692000D01*
X131113836Y-75884993D01*
X131116437Y-75916375D01*
X131171702Y-76134612D01*
X131171703Y-76134613D01*
X131171704Y-76134616D01*
X131262140Y-76340791D01*
X131262141Y-76340793D01*
X131385275Y-76529265D01*
X131385279Y-76529270D01*
X131537762Y-76694908D01*
X131541992Y-76698200D01*
X131715424Y-76833189D01*
X131748680Y-76851186D01*
X131799071Y-76901200D01*
X131814423Y-76970516D01*
X131789862Y-77037129D01*
X131748680Y-77072813D01*
X131715426Y-77090810D01*
X131715424Y-77090811D01*
X131537762Y-77229091D01*
X131385279Y-77394729D01*
X131385275Y-77394734D01*
X131262141Y-77583206D01*
X131171703Y-77789386D01*
X131171702Y-77789387D01*
X131116437Y-78007624D01*
X131116436Y-78007630D01*
X131116436Y-78007632D01*
X131097844Y-78232000D01*
X131113836Y-78424993D01*
X131116437Y-78456375D01*
X131171702Y-78674612D01*
X131171703Y-78674613D01*
X131171704Y-78674616D01*
X131262140Y-78880791D01*
X131262141Y-78880793D01*
X131385275Y-79069265D01*
X131385279Y-79069270D01*
X131537762Y-79234908D01*
X131541992Y-79238200D01*
X131715424Y-79373189D01*
X131748680Y-79391186D01*
X131799071Y-79441200D01*
X131814423Y-79510516D01*
X131789862Y-79577129D01*
X131748680Y-79612813D01*
X131715426Y-79630810D01*
X131715424Y-79630811D01*
X131537762Y-79769091D01*
X131385279Y-79934729D01*
X131385275Y-79934734D01*
X131262141Y-80123206D01*
X131171703Y-80329386D01*
X131171702Y-80329387D01*
X131116437Y-80547624D01*
X131116436Y-80547630D01*
X131116436Y-80547632D01*
X131097844Y-80772000D01*
X131113836Y-80964993D01*
X131116437Y-80996375D01*
X131171702Y-81214612D01*
X131171703Y-81214613D01*
X131171704Y-81214616D01*
X131262140Y-81420791D01*
X131262141Y-81420793D01*
X131385275Y-81609265D01*
X131385279Y-81609270D01*
X131537762Y-81774908D01*
X131541992Y-81778200D01*
X131715424Y-81913189D01*
X131748680Y-81931186D01*
X131799071Y-81981200D01*
X131814423Y-82050516D01*
X131789862Y-82117129D01*
X131748680Y-82152813D01*
X131715426Y-82170810D01*
X131715424Y-82170811D01*
X131537762Y-82309091D01*
X131385279Y-82474729D01*
X131385275Y-82474734D01*
X131262141Y-82663206D01*
X131171703Y-82869386D01*
X131171702Y-82869387D01*
X131116437Y-83087624D01*
X131116436Y-83087630D01*
X131116436Y-83087632D01*
X131097844Y-83312000D01*
X131113836Y-83504993D01*
X131116437Y-83536375D01*
X131171702Y-83754612D01*
X131171703Y-83754613D01*
X131171704Y-83754616D01*
X131262140Y-83960791D01*
X131262141Y-83960793D01*
X131385275Y-84149265D01*
X131385279Y-84149270D01*
X131537762Y-84314908D01*
X131541992Y-84318200D01*
X131715424Y-84453189D01*
X131748680Y-84471186D01*
X131799071Y-84521200D01*
X131814423Y-84590516D01*
X131789862Y-84657129D01*
X131748680Y-84692813D01*
X131715426Y-84710810D01*
X131715424Y-84710811D01*
X131537762Y-84849091D01*
X131385279Y-85014729D01*
X131385275Y-85014734D01*
X131262141Y-85203206D01*
X131171703Y-85409386D01*
X131171702Y-85409387D01*
X131116437Y-85627624D01*
X131116436Y-85627630D01*
X131116436Y-85627632D01*
X131097844Y-85852000D01*
X131113836Y-86044993D01*
X131116437Y-86076375D01*
X131171702Y-86294612D01*
X131171703Y-86294613D01*
X131171704Y-86294616D01*
X131262140Y-86500791D01*
X131262141Y-86500793D01*
X131385275Y-86689265D01*
X131385279Y-86689270D01*
X131537762Y-86854908D01*
X131541992Y-86858200D01*
X131715424Y-86993189D01*
X131748680Y-87011186D01*
X131799071Y-87061200D01*
X131814423Y-87130516D01*
X131789862Y-87197129D01*
X131748680Y-87232813D01*
X131715426Y-87250810D01*
X131715424Y-87250811D01*
X131537762Y-87389091D01*
X131385279Y-87554729D01*
X131385275Y-87554734D01*
X131262141Y-87743206D01*
X131171703Y-87949386D01*
X131171702Y-87949387D01*
X131116437Y-88167624D01*
X131116436Y-88167630D01*
X131116436Y-88167632D01*
X131097844Y-88392000D01*
X131113836Y-88584993D01*
X131116437Y-88616375D01*
X131171702Y-88834612D01*
X131171703Y-88834613D01*
X131171704Y-88834616D01*
X131262140Y-89040791D01*
X131262141Y-89040793D01*
X131385275Y-89229265D01*
X131385279Y-89229270D01*
X131537762Y-89394908D01*
X131541992Y-89398200D01*
X131715424Y-89533189D01*
X131748680Y-89551186D01*
X131799071Y-89601200D01*
X131814423Y-89670516D01*
X131789862Y-89737129D01*
X131748680Y-89772813D01*
X131715426Y-89790810D01*
X131715424Y-89790811D01*
X131537762Y-89929091D01*
X131385279Y-90094729D01*
X131385275Y-90094734D01*
X131262141Y-90283206D01*
X131171703Y-90489386D01*
X131171702Y-90489387D01*
X131116437Y-90707624D01*
X131116436Y-90707630D01*
X131116436Y-90707632D01*
X131097844Y-90932000D01*
X131113836Y-91124993D01*
X131116437Y-91156375D01*
X131171702Y-91374612D01*
X131171703Y-91374613D01*
X131171704Y-91374616D01*
X131262140Y-91580791D01*
X131262141Y-91580793D01*
X131385275Y-91769265D01*
X131385279Y-91769270D01*
X131537762Y-91934908D01*
X131541992Y-91938200D01*
X131715424Y-92073189D01*
X131748680Y-92091186D01*
X131799071Y-92141200D01*
X131814423Y-92210516D01*
X131789862Y-92277129D01*
X131748680Y-92312813D01*
X131715426Y-92330810D01*
X131715424Y-92330811D01*
X131537762Y-92469091D01*
X131385279Y-92634729D01*
X131385275Y-92634734D01*
X131262141Y-92823206D01*
X131171703Y-93029386D01*
X131171702Y-93029387D01*
X131116437Y-93247624D01*
X131116436Y-93247630D01*
X131116436Y-93247632D01*
X131097844Y-93472000D01*
X131113836Y-93664993D01*
X131116437Y-93696375D01*
X131171702Y-93914612D01*
X131171703Y-93914613D01*
X131171704Y-93914616D01*
X131262140Y-94120791D01*
X131262141Y-94120793D01*
X131385275Y-94309265D01*
X131385279Y-94309270D01*
X131537762Y-94474908D01*
X131541992Y-94478200D01*
X131715424Y-94613189D01*
X131748680Y-94631186D01*
X131799071Y-94681200D01*
X131814423Y-94750516D01*
X131789862Y-94817129D01*
X131748680Y-94852813D01*
X131715426Y-94870810D01*
X131715424Y-94870811D01*
X131537762Y-95009091D01*
X131385279Y-95174729D01*
X131385275Y-95174734D01*
X131262141Y-95363206D01*
X131171703Y-95569386D01*
X131171702Y-95569387D01*
X131116437Y-95787624D01*
X131116436Y-95787630D01*
X131116436Y-95787632D01*
X131097844Y-96012000D01*
X131113836Y-96204993D01*
X131116437Y-96236375D01*
X131171702Y-96454612D01*
X131171703Y-96454613D01*
X131171704Y-96454616D01*
X131262140Y-96660791D01*
X131262141Y-96660793D01*
X131385275Y-96849265D01*
X131385279Y-96849270D01*
X131537762Y-97014908D01*
X131541992Y-97018200D01*
X131715424Y-97153189D01*
X131748680Y-97171186D01*
X131799071Y-97221200D01*
X131814423Y-97290516D01*
X131789862Y-97357129D01*
X131748680Y-97392813D01*
X131715426Y-97410810D01*
X131715424Y-97410811D01*
X131537762Y-97549091D01*
X131385279Y-97714729D01*
X131385275Y-97714734D01*
X131262141Y-97903206D01*
X131171703Y-98109386D01*
X131171702Y-98109387D01*
X131116437Y-98327624D01*
X131116436Y-98327630D01*
X131116436Y-98327632D01*
X131097844Y-98552000D01*
X131113836Y-98744993D01*
X131116437Y-98776375D01*
X131171702Y-98994612D01*
X131171703Y-98994613D01*
X131171704Y-98994616D01*
X131262140Y-99200791D01*
X131262141Y-99200793D01*
X131385275Y-99389265D01*
X131385279Y-99389270D01*
X131537762Y-99554908D01*
X131541992Y-99558200D01*
X131715424Y-99693189D01*
X131748680Y-99711186D01*
X131799071Y-99761200D01*
X131814423Y-99830516D01*
X131789862Y-99897129D01*
X131748680Y-99932813D01*
X131715426Y-99950810D01*
X131715424Y-99950811D01*
X131537762Y-100089091D01*
X131385279Y-100254729D01*
X131385275Y-100254734D01*
X131262141Y-100443206D01*
X131171703Y-100649386D01*
X131171702Y-100649387D01*
X131116437Y-100867624D01*
X131116436Y-100867630D01*
X131116436Y-100867632D01*
X131097844Y-101092000D01*
X131113836Y-101284993D01*
X131116437Y-101316375D01*
X131171702Y-101534612D01*
X131171703Y-101534613D01*
X131171704Y-101534616D01*
X131262140Y-101740791D01*
X131262141Y-101740793D01*
X131385275Y-101929265D01*
X131385279Y-101929270D01*
X131537762Y-102094908D01*
X131541992Y-102098200D01*
X131715424Y-102233189D01*
X131748680Y-102251186D01*
X131799071Y-102301200D01*
X131814423Y-102370516D01*
X131789862Y-102437129D01*
X131748680Y-102472813D01*
X131715426Y-102490810D01*
X131715424Y-102490811D01*
X131537762Y-102629091D01*
X131385279Y-102794729D01*
X131385275Y-102794734D01*
X131262141Y-102983206D01*
X131171703Y-103189386D01*
X131171702Y-103189387D01*
X131116437Y-103407624D01*
X131116436Y-103407630D01*
X131116436Y-103407632D01*
X131097844Y-103632000D01*
X131113836Y-103824993D01*
X131116437Y-103856375D01*
X131171702Y-104074612D01*
X131171703Y-104074613D01*
X131171704Y-104074616D01*
X131262140Y-104280791D01*
X131262141Y-104280793D01*
X131385275Y-104469265D01*
X131385279Y-104469270D01*
X131537762Y-104634908D01*
X131541992Y-104638200D01*
X131715424Y-104773189D01*
X131749205Y-104791470D01*
X131799596Y-104841482D01*
X131814949Y-104910799D01*
X131790389Y-104977412D01*
X131749209Y-105013096D01*
X131715704Y-105031228D01*
X131715698Y-105031232D01*
X131538097Y-105169465D01*
X131385674Y-105335041D01*
X131262580Y-105523451D01*
X131172179Y-105729543D01*
X131172176Y-105729550D01*
X131124455Y-105917999D01*
X131124456Y-105918000D01*
X132030297Y-105918000D01*
X131995075Y-105979007D01*
X131961000Y-106106174D01*
X131961000Y-106237826D01*
X131995075Y-106364993D01*
X132030297Y-106426000D01*
X131124455Y-106426000D01*
X131172176Y-106614449D01*
X131172179Y-106614456D01*
X131262580Y-106820548D01*
X131385674Y-107008958D01*
X131538097Y-107174534D01*
X131715698Y-107312767D01*
X131715699Y-107312768D01*
X131913628Y-107419882D01*
X131913630Y-107419883D01*
X132126483Y-107492955D01*
X132126492Y-107492957D01*
X132207000Y-107506391D01*
X132207000Y-106602702D01*
X132268007Y-106637925D01*
X132395174Y-106672000D01*
X132526826Y-106672000D01*
X132653993Y-106637925D01*
X132715000Y-106602702D01*
X132715000Y-107506390D01*
X132795507Y-107492957D01*
X132795516Y-107492955D01*
X133008369Y-107419883D01*
X133008371Y-107419882D01*
X133206300Y-107312768D01*
X133206301Y-107312767D01*
X133383902Y-107174534D01*
X133536327Y-107008955D01*
X133625517Y-106872441D01*
X133679521Y-106826352D01*
X133749868Y-106816777D01*
X133814226Y-106846754D01*
X133836483Y-106872441D01*
X133925672Y-107008955D01*
X134078097Y-107174534D01*
X134255698Y-107312767D01*
X134255699Y-107312768D01*
X134453628Y-107419882D01*
X134453630Y-107419883D01*
X134666483Y-107492955D01*
X134666492Y-107492957D01*
X134747000Y-107506391D01*
X134747000Y-106602702D01*
X134808007Y-106637925D01*
X134935174Y-106672000D01*
X135066826Y-106672000D01*
X135193993Y-106637925D01*
X135255000Y-106602702D01*
X135255000Y-107506390D01*
X135335507Y-107492957D01*
X135335516Y-107492955D01*
X135548369Y-107419883D01*
X135548371Y-107419882D01*
X135746300Y-107312768D01*
X135746301Y-107312767D01*
X135923902Y-107174534D01*
X136076318Y-107008965D01*
X136076778Y-107008375D01*
X136077027Y-107008195D01*
X136079854Y-107005125D01*
X136080485Y-107005706D01*
X136134396Y-106966894D01*
X136205294Y-106963149D01*
X136266962Y-106998328D01*
X136279434Y-107013475D01*
X136281183Y-107015973D01*
X136281189Y-107015980D01*
X136443019Y-107177810D01*
X136443025Y-107177815D01*
X136630501Y-107309087D01*
X136837926Y-107405811D01*
X136837931Y-107405813D01*
X137033000Y-107458081D01*
X137033000Y-106483686D01*
X137041394Y-106492080D01*
X137132606Y-106544741D01*
X137234339Y-106572000D01*
X137339661Y-106572000D01*
X137441394Y-106544741D01*
X137532606Y-106492080D01*
X137541000Y-106483686D01*
X137541000Y-107458081D01*
X137736068Y-107405813D01*
X137736073Y-107405811D01*
X137943498Y-107309087D01*
X138130974Y-107177815D01*
X138130980Y-107177810D01*
X138292810Y-107015980D01*
X138292815Y-107015974D01*
X138427244Y-106823991D01*
X138428484Y-106824859D01*
X138474758Y-106780733D01*
X138544471Y-106767293D01*
X138610383Y-106793676D01*
X138651568Y-106851506D01*
X138658500Y-106892723D01*
X138658500Y-109147185D01*
X138638498Y-109215306D01*
X138611212Y-109245574D01*
X137439569Y-110182889D01*
X137373880Y-110209825D01*
X137360857Y-110210500D01*
X132681632Y-110210500D01*
X132613511Y-110190498D01*
X132568934Y-110140849D01*
X131864466Y-108731913D01*
X131860755Y-108723781D01*
X131849007Y-108695419D01*
X131840699Y-108688213D01*
X131830544Y-108684006D01*
X131799930Y-108686183D01*
X131790997Y-108686500D01*
X127289028Y-108686500D01*
X127280100Y-108686183D01*
X127249458Y-108684006D01*
X127239300Y-108688213D01*
X127230992Y-108695419D01*
X127219243Y-108723784D01*
X127215533Y-108731913D01*
X126511066Y-110140849D01*
X126462711Y-110192833D01*
X126398368Y-110210500D01*
X121973143Y-110210500D01*
X121905022Y-110190498D01*
X121894431Y-110182889D01*
X120722788Y-109245574D01*
X120682090Y-109187401D01*
X120675500Y-109147185D01*
X120675500Y-106893727D01*
X120695502Y-106825606D01*
X120749158Y-106779113D01*
X120819432Y-106769009D01*
X120884012Y-106798503D01*
X120905649Y-106824712D01*
X120906321Y-106824242D01*
X121037850Y-107012085D01*
X121040802Y-107016300D01*
X121202700Y-107178198D01*
X121390251Y-107309523D01*
X121597757Y-107406284D01*
X121818913Y-107465543D01*
X122047000Y-107485498D01*
X122275087Y-107465543D01*
X122496243Y-107406284D01*
X122703749Y-107309523D01*
X122891300Y-107178198D01*
X123053198Y-107016300D01*
X123054575Y-107014333D01*
X123055405Y-107013669D01*
X123056735Y-107012085D01*
X123057053Y-107012351D01*
X123110025Y-106969999D01*
X123180644Y-106962682D01*
X123244008Y-106994705D01*
X123257234Y-107009212D01*
X123257277Y-107009268D01*
X123409762Y-107174908D01*
X123413992Y-107178200D01*
X123587424Y-107313189D01*
X123785426Y-107420342D01*
X123785427Y-107420342D01*
X123785428Y-107420343D01*
X123895356Y-107458081D01*
X123998365Y-107493444D01*
X124220431Y-107530500D01*
X124220435Y-107530500D01*
X124445565Y-107530500D01*
X124445569Y-107530500D01*
X124667635Y-107493444D01*
X124880574Y-107420342D01*
X125078576Y-107313189D01*
X125256240Y-107174906D01*
X125408722Y-107009268D01*
X125408927Y-107008955D01*
X125439158Y-106962682D01*
X125497816Y-106872898D01*
X125551819Y-106826810D01*
X125622167Y-106817235D01*
X125686524Y-106847212D01*
X125708782Y-106872898D01*
X125797674Y-107008958D01*
X125950097Y-107174534D01*
X126127698Y-107312767D01*
X126127699Y-107312768D01*
X126325628Y-107419882D01*
X126325630Y-107419883D01*
X126538483Y-107492955D01*
X126538492Y-107492957D01*
X126619000Y-107506391D01*
X126619000Y-106602702D01*
X126680007Y-106637925D01*
X126807174Y-106672000D01*
X126938826Y-106672000D01*
X127065993Y-106637925D01*
X127127000Y-106602702D01*
X127127000Y-107506390D01*
X127207507Y-107492957D01*
X127207516Y-107492955D01*
X127420369Y-107419883D01*
X127420371Y-107419882D01*
X127618300Y-107312768D01*
X127618301Y-107312767D01*
X127795902Y-107174534D01*
X127948325Y-107008958D01*
X128071419Y-106820548D01*
X128161820Y-106614456D01*
X128161823Y-106614449D01*
X128209544Y-106426000D01*
X127303703Y-106426000D01*
X127338925Y-106364993D01*
X127373000Y-106237826D01*
X127373000Y-106106174D01*
X127338925Y-105979007D01*
X127303703Y-105918000D01*
X128209544Y-105918000D01*
X128209544Y-105917999D01*
X128161823Y-105729550D01*
X128161820Y-105729543D01*
X128071419Y-105523451D01*
X127948325Y-105335041D01*
X127795902Y-105169465D01*
X127618301Y-105031232D01*
X127618300Y-105031231D01*
X127584267Y-105012814D01*
X127533876Y-104962801D01*
X127518524Y-104893484D01*
X127543085Y-104826871D01*
X127584267Y-104791186D01*
X127618300Y-104772768D01*
X127618301Y-104772767D01*
X127795902Y-104634534D01*
X127948325Y-104468958D01*
X128071419Y-104280548D01*
X128161820Y-104074456D01*
X128161823Y-104074449D01*
X128209544Y-103886000D01*
X127303703Y-103886000D01*
X127338925Y-103824993D01*
X127373000Y-103697826D01*
X127373000Y-103566174D01*
X127338925Y-103439007D01*
X127303703Y-103378000D01*
X128209544Y-103378000D01*
X128209544Y-103377999D01*
X128161823Y-103189550D01*
X128161820Y-103189543D01*
X128071419Y-102983451D01*
X127948325Y-102795041D01*
X127795902Y-102629465D01*
X127618301Y-102491232D01*
X127618300Y-102491231D01*
X127584267Y-102472814D01*
X127533876Y-102422801D01*
X127518524Y-102353484D01*
X127543085Y-102286871D01*
X127584267Y-102251186D01*
X127618300Y-102232768D01*
X127618301Y-102232767D01*
X127795902Y-102094534D01*
X127948325Y-101928958D01*
X128071419Y-101740548D01*
X128161820Y-101534456D01*
X128161823Y-101534449D01*
X128209544Y-101346000D01*
X127303703Y-101346000D01*
X127338925Y-101284993D01*
X127373000Y-101157826D01*
X127373000Y-101026174D01*
X127338925Y-100899007D01*
X127303703Y-100838000D01*
X128209544Y-100838000D01*
X128209544Y-100837999D01*
X128161823Y-100649550D01*
X128161820Y-100649543D01*
X128071419Y-100443451D01*
X127948325Y-100255041D01*
X127795902Y-100089465D01*
X127618301Y-99951232D01*
X127618300Y-99951231D01*
X127584267Y-99932814D01*
X127533876Y-99882801D01*
X127518524Y-99813484D01*
X127543085Y-99746871D01*
X127584267Y-99711186D01*
X127618300Y-99692768D01*
X127618301Y-99692767D01*
X127795902Y-99554534D01*
X127948325Y-99388958D01*
X128071419Y-99200548D01*
X128161820Y-98994456D01*
X128161823Y-98994449D01*
X128209544Y-98806000D01*
X127303703Y-98806000D01*
X127338925Y-98744993D01*
X127373000Y-98617826D01*
X127373000Y-98486174D01*
X127338925Y-98359007D01*
X127303703Y-98298000D01*
X128209544Y-98298000D01*
X128209544Y-98297999D01*
X128161823Y-98109550D01*
X128161820Y-98109543D01*
X128071419Y-97903451D01*
X127948325Y-97715041D01*
X127795902Y-97549465D01*
X127618301Y-97411232D01*
X127618300Y-97411231D01*
X127584267Y-97392814D01*
X127533876Y-97342801D01*
X127518524Y-97273484D01*
X127543085Y-97206871D01*
X127584267Y-97171186D01*
X127618300Y-97152768D01*
X127618301Y-97152767D01*
X127795902Y-97014534D01*
X127948325Y-96848958D01*
X128071419Y-96660548D01*
X128161820Y-96454456D01*
X128161823Y-96454449D01*
X128209544Y-96266000D01*
X127303703Y-96266000D01*
X127338925Y-96204993D01*
X127373000Y-96077826D01*
X127373000Y-95946174D01*
X127338925Y-95819007D01*
X127303703Y-95758000D01*
X128209544Y-95758000D01*
X128209544Y-95757999D01*
X128161823Y-95569550D01*
X128161820Y-95569543D01*
X128071419Y-95363451D01*
X127948325Y-95175041D01*
X127795902Y-95009465D01*
X127618301Y-94871232D01*
X127618300Y-94871231D01*
X127584267Y-94852814D01*
X127533876Y-94802801D01*
X127518524Y-94733484D01*
X127543085Y-94666871D01*
X127584267Y-94631186D01*
X127618300Y-94612768D01*
X127618301Y-94612767D01*
X127795902Y-94474534D01*
X127948325Y-94308958D01*
X128071419Y-94120548D01*
X128161820Y-93914456D01*
X128161823Y-93914449D01*
X128209544Y-93726000D01*
X127303703Y-93726000D01*
X127338925Y-93664993D01*
X127373000Y-93537826D01*
X127373000Y-93406174D01*
X127338925Y-93279007D01*
X127303703Y-93218000D01*
X128209544Y-93218000D01*
X128209544Y-93217999D01*
X128161823Y-93029550D01*
X128161820Y-93029543D01*
X128071419Y-92823451D01*
X127948325Y-92635041D01*
X127795902Y-92469465D01*
X127618301Y-92331232D01*
X127618300Y-92331231D01*
X127584267Y-92312814D01*
X127533876Y-92262801D01*
X127518524Y-92193484D01*
X127543085Y-92126871D01*
X127584267Y-92091186D01*
X127618300Y-92072768D01*
X127618301Y-92072767D01*
X127795902Y-91934534D01*
X127948325Y-91768958D01*
X128071419Y-91580548D01*
X128161820Y-91374456D01*
X128161823Y-91374449D01*
X128209544Y-91186000D01*
X127303703Y-91186000D01*
X127338925Y-91124993D01*
X127373000Y-90997826D01*
X127373000Y-90866174D01*
X127338925Y-90739007D01*
X127303703Y-90678000D01*
X128209544Y-90678000D01*
X128209544Y-90677999D01*
X128161823Y-90489550D01*
X128161820Y-90489543D01*
X128071419Y-90283451D01*
X127948325Y-90095041D01*
X127795902Y-89929465D01*
X127618301Y-89791232D01*
X127618300Y-89791231D01*
X127584267Y-89772814D01*
X127533876Y-89722801D01*
X127518524Y-89653484D01*
X127543085Y-89586871D01*
X127584267Y-89551186D01*
X127618300Y-89532768D01*
X127618301Y-89532767D01*
X127795902Y-89394534D01*
X127948325Y-89228958D01*
X128071419Y-89040548D01*
X128161820Y-88834456D01*
X128161823Y-88834449D01*
X128209544Y-88646000D01*
X127303703Y-88646000D01*
X127338925Y-88584993D01*
X127373000Y-88457826D01*
X127373000Y-88326174D01*
X127338925Y-88199007D01*
X127303703Y-88138000D01*
X128209544Y-88138000D01*
X128209544Y-88137999D01*
X128161823Y-87949550D01*
X128161820Y-87949543D01*
X128071419Y-87743451D01*
X127948325Y-87555041D01*
X127795902Y-87389465D01*
X127618301Y-87251232D01*
X127618300Y-87251231D01*
X127584267Y-87232814D01*
X127533876Y-87182801D01*
X127518524Y-87113484D01*
X127543085Y-87046871D01*
X127584267Y-87011186D01*
X127618300Y-86992768D01*
X127618301Y-86992767D01*
X127795902Y-86854534D01*
X127948325Y-86688958D01*
X128071419Y-86500548D01*
X128161820Y-86294456D01*
X128161823Y-86294449D01*
X128209544Y-86106000D01*
X127303703Y-86106000D01*
X127338925Y-86044993D01*
X127373000Y-85917826D01*
X127373000Y-85786174D01*
X127338925Y-85659007D01*
X127303703Y-85598000D01*
X128209544Y-85598000D01*
X128209544Y-85597999D01*
X128161823Y-85409550D01*
X128161820Y-85409543D01*
X128071419Y-85203451D01*
X127948325Y-85015041D01*
X127795902Y-84849465D01*
X127618301Y-84711232D01*
X127618300Y-84711231D01*
X127584267Y-84692814D01*
X127533876Y-84642801D01*
X127518524Y-84573484D01*
X127543085Y-84506871D01*
X127584267Y-84471186D01*
X127618300Y-84452768D01*
X127618301Y-84452767D01*
X127795902Y-84314534D01*
X127948325Y-84148958D01*
X128071419Y-83960548D01*
X128161820Y-83754456D01*
X128161823Y-83754449D01*
X128209544Y-83566000D01*
X127303703Y-83566000D01*
X127338925Y-83504993D01*
X127373000Y-83377826D01*
X127373000Y-83246174D01*
X127338925Y-83119007D01*
X127303703Y-83058000D01*
X128209544Y-83058000D01*
X128209544Y-83057999D01*
X128161823Y-82869550D01*
X128161820Y-82869543D01*
X128071419Y-82663451D01*
X127948325Y-82475041D01*
X127795902Y-82309465D01*
X127618301Y-82171232D01*
X127618300Y-82171231D01*
X127584267Y-82152814D01*
X127533876Y-82102801D01*
X127518524Y-82033484D01*
X127543085Y-81966871D01*
X127584267Y-81931186D01*
X127618300Y-81912768D01*
X127618301Y-81912767D01*
X127795902Y-81774534D01*
X127948325Y-81608958D01*
X128071419Y-81420548D01*
X128161820Y-81214456D01*
X128161823Y-81214449D01*
X128209544Y-81026000D01*
X127303703Y-81026000D01*
X127338925Y-80964993D01*
X127373000Y-80837826D01*
X127373000Y-80706174D01*
X127338925Y-80579007D01*
X127303703Y-80518000D01*
X128209544Y-80518000D01*
X128209544Y-80517999D01*
X128161823Y-80329550D01*
X128161820Y-80329543D01*
X128071419Y-80123451D01*
X127948325Y-79935041D01*
X127795902Y-79769465D01*
X127618301Y-79631232D01*
X127618300Y-79631231D01*
X127584267Y-79612814D01*
X127533876Y-79562801D01*
X127518524Y-79493484D01*
X127543085Y-79426871D01*
X127584267Y-79391186D01*
X127618300Y-79372768D01*
X127618301Y-79372767D01*
X127795902Y-79234534D01*
X127948325Y-79068958D01*
X128071419Y-78880548D01*
X128161820Y-78674456D01*
X128161823Y-78674449D01*
X128209544Y-78486000D01*
X127303703Y-78486000D01*
X127338925Y-78424993D01*
X127373000Y-78297826D01*
X127373000Y-78166174D01*
X127338925Y-78039007D01*
X127303703Y-77978000D01*
X128209544Y-77978000D01*
X128209544Y-77977999D01*
X128161823Y-77789550D01*
X128161820Y-77789543D01*
X128071419Y-77583451D01*
X127948325Y-77395041D01*
X127795902Y-77229465D01*
X127618301Y-77091232D01*
X127618300Y-77091231D01*
X127584267Y-77072814D01*
X127533876Y-77022801D01*
X127518524Y-76953484D01*
X127543085Y-76886871D01*
X127584267Y-76851186D01*
X127618300Y-76832768D01*
X127618301Y-76832767D01*
X127795902Y-76694534D01*
X127948325Y-76528958D01*
X128071419Y-76340548D01*
X128161820Y-76134456D01*
X128161823Y-76134449D01*
X128209544Y-75946000D01*
X127303703Y-75946000D01*
X127338925Y-75884993D01*
X127373000Y-75757826D01*
X127373000Y-75626174D01*
X127338925Y-75499007D01*
X127303703Y-75438000D01*
X128209544Y-75438000D01*
X128209544Y-75437999D01*
X128161823Y-75249550D01*
X128161820Y-75249543D01*
X128071419Y-75043451D01*
X127948325Y-74855041D01*
X127795902Y-74689465D01*
X127618301Y-74551232D01*
X127618300Y-74551231D01*
X127584267Y-74532814D01*
X127533876Y-74482801D01*
X127518524Y-74413484D01*
X127543085Y-74346871D01*
X127584267Y-74311186D01*
X127618300Y-74292768D01*
X127618301Y-74292767D01*
X127795902Y-74154534D01*
X127948325Y-73988958D01*
X128071419Y-73800548D01*
X128161820Y-73594456D01*
X128161823Y-73594449D01*
X128209544Y-73406000D01*
X127303703Y-73406000D01*
X127338925Y-73344993D01*
X127373000Y-73217826D01*
X127373000Y-73086174D01*
X127338925Y-72959007D01*
X127303703Y-72898000D01*
X128209544Y-72898000D01*
X128209544Y-72897999D01*
X128161823Y-72709550D01*
X128161820Y-72709543D01*
X128071419Y-72503451D01*
X127948325Y-72315041D01*
X127795902Y-72149465D01*
X127618301Y-72011232D01*
X127618300Y-72011231D01*
X127584267Y-71992814D01*
X127533876Y-71942801D01*
X127518524Y-71873484D01*
X127543085Y-71806871D01*
X127584267Y-71771186D01*
X127618300Y-71752768D01*
X127618301Y-71752767D01*
X127795902Y-71614534D01*
X127948325Y-71448958D01*
X128071419Y-71260548D01*
X128161820Y-71054456D01*
X128161823Y-71054449D01*
X128209544Y-70866000D01*
X127303703Y-70866000D01*
X127338925Y-70804993D01*
X127373000Y-70677826D01*
X127373000Y-70546174D01*
X127338925Y-70419007D01*
X127303703Y-70358000D01*
X128209544Y-70358000D01*
X128209544Y-70357999D01*
X128161823Y-70169550D01*
X128161820Y-70169543D01*
X128071419Y-69963451D01*
X127948325Y-69775041D01*
X127795902Y-69609465D01*
X127618301Y-69471232D01*
X127618300Y-69471231D01*
X127584267Y-69452814D01*
X127533876Y-69402801D01*
X127518524Y-69333484D01*
X127543085Y-69266871D01*
X127584267Y-69231186D01*
X127618300Y-69212768D01*
X127618301Y-69212767D01*
X127795902Y-69074534D01*
X127948325Y-68908958D01*
X128071419Y-68720548D01*
X128161820Y-68514456D01*
X128161823Y-68514449D01*
X128209544Y-68326000D01*
X127303703Y-68326000D01*
X127338925Y-68264993D01*
X127373000Y-68137826D01*
X127373000Y-68006174D01*
X127338925Y-67879007D01*
X127303703Y-67818000D01*
X128209544Y-67818000D01*
X128209544Y-67817999D01*
X128161823Y-67629550D01*
X128161820Y-67629543D01*
X128071419Y-67423451D01*
X127948325Y-67235041D01*
X127795902Y-67069465D01*
X127618301Y-66931232D01*
X127618300Y-66931231D01*
X127584267Y-66912814D01*
X127533876Y-66862801D01*
X127518524Y-66793484D01*
X127543085Y-66726871D01*
X127584267Y-66691186D01*
X127618300Y-66672768D01*
X127618301Y-66672767D01*
X127795902Y-66534534D01*
X127948325Y-66368958D01*
X128071419Y-66180548D01*
X128161820Y-65974456D01*
X128161823Y-65974449D01*
X128209544Y-65786000D01*
X127303703Y-65786000D01*
X127338925Y-65724993D01*
X127373000Y-65597826D01*
X127373000Y-65466174D01*
X127338925Y-65339007D01*
X127303703Y-65278000D01*
X128209544Y-65278000D01*
X128209544Y-65277999D01*
X128161823Y-65089550D01*
X128161820Y-65089543D01*
X128071419Y-64883451D01*
X127948325Y-64695041D01*
X127795902Y-64529465D01*
X127618301Y-64391232D01*
X127618300Y-64391231D01*
X127584267Y-64372814D01*
X127533876Y-64322801D01*
X127518524Y-64253484D01*
X127543085Y-64186871D01*
X127584267Y-64151186D01*
X127618300Y-64132768D01*
X127618301Y-64132767D01*
X127795902Y-63994534D01*
X127948325Y-63828958D01*
X128071419Y-63640548D01*
X128161820Y-63434456D01*
X128161823Y-63434449D01*
X128209544Y-63246000D01*
X127303703Y-63246000D01*
X127338925Y-63184993D01*
X127373000Y-63057826D01*
X127373000Y-62926174D01*
X127338925Y-62799007D01*
X127303703Y-62738000D01*
X128209544Y-62738000D01*
X128209544Y-62737999D01*
X128161823Y-62549550D01*
X128161820Y-62549543D01*
X128071419Y-62343451D01*
X127948325Y-62155041D01*
X127795902Y-61989465D01*
X127618301Y-61851232D01*
X127618300Y-61851231D01*
X127584267Y-61832814D01*
X127533876Y-61782801D01*
X127518524Y-61713484D01*
X127543085Y-61646871D01*
X127584267Y-61611186D01*
X127618300Y-61592768D01*
X127618301Y-61592767D01*
X127795902Y-61454534D01*
X127948325Y-61288958D01*
X128071419Y-61100548D01*
X128161820Y-60894456D01*
X128161823Y-60894449D01*
X128209544Y-60706000D01*
X127303703Y-60706000D01*
X127338925Y-60644993D01*
X127373000Y-60517826D01*
X127373000Y-60386174D01*
X127338925Y-60259007D01*
X127303703Y-60198000D01*
X128209544Y-60198000D01*
X128209544Y-60197999D01*
X128161823Y-60009550D01*
X128161820Y-60009543D01*
X128071419Y-59803451D01*
X127948325Y-59615041D01*
X127804652Y-59458969D01*
X127773232Y-59395304D01*
X127781219Y-59324758D01*
X127826079Y-59269729D01*
X127853322Y-59255576D01*
X127968965Y-59212444D01*
X128085904Y-59124904D01*
X128173444Y-59007965D01*
X128173444Y-59007964D01*
X128224494Y-58871093D01*
X128230999Y-58810597D01*
X128231000Y-58810585D01*
X128231000Y-58166000D01*
X127303703Y-58166000D01*
X127338925Y-58104993D01*
X127373000Y-57977826D01*
X127373000Y-57846174D01*
X127338925Y-57719007D01*
X127303703Y-57658000D01*
X128231000Y-57658000D01*
X128231000Y-57013414D01*
X128230999Y-57013402D01*
X128224494Y-56952906D01*
X128173444Y-56816035D01*
X128173444Y-56816034D01*
X128085904Y-56699095D01*
X127968965Y-56611555D01*
X127832093Y-56560505D01*
X127771597Y-56554000D01*
X127127000Y-56554000D01*
X127127000Y-57481297D01*
X127065993Y-57446075D01*
X126938826Y-57412000D01*
X126807174Y-57412000D01*
X126680007Y-57446075D01*
X126619000Y-57481297D01*
X126619000Y-56554000D01*
X125974402Y-56554000D01*
X125913906Y-56560505D01*
X125777035Y-56611555D01*
X125777034Y-56611555D01*
X125660095Y-56699095D01*
X125572555Y-56816034D01*
X125572553Y-56816039D01*
X125528184Y-56934996D01*
X125485637Y-56991832D01*
X125419117Y-57016642D01*
X125349743Y-57001550D01*
X125317427Y-56976300D01*
X125255902Y-56909465D01*
X125078301Y-56771232D01*
X125078300Y-56771231D01*
X124880371Y-56664117D01*
X124880369Y-56664116D01*
X124667512Y-56591043D01*
X124667501Y-56591040D01*
X124587000Y-56577606D01*
X124587000Y-57481297D01*
X124525993Y-57446075D01*
X124398826Y-57412000D01*
X124267174Y-57412000D01*
X124140007Y-57446075D01*
X124079000Y-57481297D01*
X124079000Y-56577607D01*
X124078999Y-56577606D01*
X123998498Y-56591040D01*
X123998487Y-56591043D01*
X123785630Y-56664116D01*
X123785628Y-56664117D01*
X123587699Y-56771231D01*
X123587698Y-56771232D01*
X123460777Y-56870019D01*
X123394734Y-56896075D01*
X123325089Y-56882289D01*
X123282518Y-56846096D01*
X123209904Y-56749095D01*
X123092965Y-56661555D01*
X122956093Y-56610505D01*
X122895597Y-56604000D01*
X122301000Y-56604000D01*
X122301000Y-57600314D01*
X122292606Y-57591920D01*
X122201394Y-57539259D01*
X122099661Y-57512000D01*
X121994339Y-57512000D01*
X121892606Y-57539259D01*
X121801394Y-57591920D01*
X121793000Y-57600314D01*
X121793000Y-56604000D01*
X121198402Y-56604000D01*
X121137906Y-56610505D01*
X121001035Y-56661555D01*
X121001034Y-56661555D01*
X120877009Y-56754400D01*
X120810489Y-56779211D01*
X120741114Y-56764119D01*
X120690912Y-56713917D01*
X120675500Y-56653532D01*
X120675500Y-54936814D01*
X120695502Y-54868693D01*
X120722785Y-54838426D01*
X121894432Y-53901109D01*
X121960121Y-53874175D01*
X121973144Y-53873500D01*
X126398368Y-53873500D01*
X126466489Y-53893502D01*
G37*
G04 #@! TD.AperFunction*
G04 #@! TA.AperFunction,Conductor*
G36*
X134535075Y-105979007D02*
G01*
X134501000Y-106106174D01*
X134501000Y-106237826D01*
X134535075Y-106364993D01*
X134570297Y-106426000D01*
X132891703Y-106426000D01*
X132926925Y-106364993D01*
X132961000Y-106237826D01*
X132961000Y-106106174D01*
X132926925Y-105979007D01*
X132891703Y-105918000D01*
X134570297Y-105918000D01*
X134535075Y-105979007D01*
G37*
G04 #@! TD.AperFunction*
G04 #@! TA.AperFunction,Conductor*
G36*
X136966920Y-105926394D02*
G01*
X136914259Y-106017606D01*
X136887000Y-106119339D01*
X136887000Y-106224661D01*
X136914259Y-106326394D01*
X136966920Y-106417606D01*
X136975314Y-106426000D01*
X135431703Y-106426000D01*
X135466925Y-106364993D01*
X135501000Y-106237826D01*
X135501000Y-106106174D01*
X135466925Y-105979007D01*
X135431703Y-105918000D01*
X136975314Y-105918000D01*
X136966920Y-105926394D01*
G37*
G04 #@! TD.AperFunction*
G04 #@! TA.AperFunction,Conductor*
G36*
X127127000Y-105741297D02*
G01*
X127065993Y-105706075D01*
X126938826Y-105672000D01*
X126807174Y-105672000D01*
X126680007Y-105706075D01*
X126619000Y-105741297D01*
X126619000Y-104062702D01*
X126680007Y-104097925D01*
X126807174Y-104132000D01*
X126938826Y-104132000D01*
X127065993Y-104097925D01*
X127127000Y-104062702D01*
X127127000Y-105741297D01*
G37*
G04 #@! TD.AperFunction*
G04 #@! TA.AperFunction,Conductor*
G36*
X135255000Y-105741297D02*
G01*
X135193993Y-105706075D01*
X135066826Y-105672000D01*
X134935174Y-105672000D01*
X134808007Y-105706075D01*
X134747000Y-105741297D01*
X134747000Y-104062702D01*
X134808007Y-104097925D01*
X134935174Y-104132000D01*
X135066826Y-104132000D01*
X135193993Y-104097925D01*
X135255000Y-104062702D01*
X135255000Y-105741297D01*
G37*
G04 #@! TD.AperFunction*
G04 #@! TA.AperFunction,Conductor*
G36*
X127127000Y-103201297D02*
G01*
X127065993Y-103166075D01*
X126938826Y-103132000D01*
X126807174Y-103132000D01*
X126680007Y-103166075D01*
X126619000Y-103201297D01*
X126619000Y-101522702D01*
X126680007Y-101557925D01*
X126807174Y-101592000D01*
X126938826Y-101592000D01*
X127065993Y-101557925D01*
X127127000Y-101522702D01*
X127127000Y-103201297D01*
G37*
G04 #@! TD.AperFunction*
G04 #@! TA.AperFunction,Conductor*
G36*
X135255000Y-103201297D02*
G01*
X135193993Y-103166075D01*
X135066826Y-103132000D01*
X134935174Y-103132000D01*
X134808007Y-103166075D01*
X134747000Y-103201297D01*
X134747000Y-101522702D01*
X134808007Y-101557925D01*
X134935174Y-101592000D01*
X135066826Y-101592000D01*
X135193993Y-101557925D01*
X135255000Y-101522702D01*
X135255000Y-103201297D01*
G37*
G04 #@! TD.AperFunction*
G04 #@! TA.AperFunction,Conductor*
G36*
X127127000Y-100661297D02*
G01*
X127065993Y-100626075D01*
X126938826Y-100592000D01*
X126807174Y-100592000D01*
X126680007Y-100626075D01*
X126619000Y-100661297D01*
X126619000Y-98982702D01*
X126680007Y-99017925D01*
X126807174Y-99052000D01*
X126938826Y-99052000D01*
X127065993Y-99017925D01*
X127127000Y-98982702D01*
X127127000Y-100661297D01*
G37*
G04 #@! TD.AperFunction*
G04 #@! TA.AperFunction,Conductor*
G36*
X135255000Y-100661297D02*
G01*
X135193993Y-100626075D01*
X135066826Y-100592000D01*
X134935174Y-100592000D01*
X134808007Y-100626075D01*
X134747000Y-100661297D01*
X134747000Y-98982702D01*
X134808007Y-99017925D01*
X134935174Y-99052000D01*
X135066826Y-99052000D01*
X135193993Y-99017925D01*
X135255000Y-98982702D01*
X135255000Y-100661297D01*
G37*
G04 #@! TD.AperFunction*
G04 #@! TA.AperFunction,Conductor*
G36*
X127127000Y-98121297D02*
G01*
X127065993Y-98086075D01*
X126938826Y-98052000D01*
X126807174Y-98052000D01*
X126680007Y-98086075D01*
X126619000Y-98121297D01*
X126619000Y-96442702D01*
X126680007Y-96477925D01*
X126807174Y-96512000D01*
X126938826Y-96512000D01*
X127065993Y-96477925D01*
X127127000Y-96442702D01*
X127127000Y-98121297D01*
G37*
G04 #@! TD.AperFunction*
G04 #@! TA.AperFunction,Conductor*
G36*
X135255000Y-98121297D02*
G01*
X135193993Y-98086075D01*
X135066826Y-98052000D01*
X134935174Y-98052000D01*
X134808007Y-98086075D01*
X134747000Y-98121297D01*
X134747000Y-96442702D01*
X134808007Y-96477925D01*
X134935174Y-96512000D01*
X135066826Y-96512000D01*
X135193993Y-96477925D01*
X135255000Y-96442702D01*
X135255000Y-98121297D01*
G37*
G04 #@! TD.AperFunction*
G04 #@! TA.AperFunction,Conductor*
G36*
X127127000Y-95581297D02*
G01*
X127065993Y-95546075D01*
X126938826Y-95512000D01*
X126807174Y-95512000D01*
X126680007Y-95546075D01*
X126619000Y-95581297D01*
X126619000Y-93902702D01*
X126680007Y-93937925D01*
X126807174Y-93972000D01*
X126938826Y-93972000D01*
X127065993Y-93937925D01*
X127127000Y-93902702D01*
X127127000Y-95581297D01*
G37*
G04 #@! TD.AperFunction*
G04 #@! TA.AperFunction,Conductor*
G36*
X135255000Y-95581297D02*
G01*
X135193993Y-95546075D01*
X135066826Y-95512000D01*
X134935174Y-95512000D01*
X134808007Y-95546075D01*
X134747000Y-95581297D01*
X134747000Y-93902702D01*
X134808007Y-93937925D01*
X134935174Y-93972000D01*
X135066826Y-93972000D01*
X135193993Y-93937925D01*
X135255000Y-93902702D01*
X135255000Y-95581297D01*
G37*
G04 #@! TD.AperFunction*
G04 #@! TA.AperFunction,Conductor*
G36*
X127127000Y-93041297D02*
G01*
X127065993Y-93006075D01*
X126938826Y-92972000D01*
X126807174Y-92972000D01*
X126680007Y-93006075D01*
X126619000Y-93041297D01*
X126619000Y-91362702D01*
X126680007Y-91397925D01*
X126807174Y-91432000D01*
X126938826Y-91432000D01*
X127065993Y-91397925D01*
X127127000Y-91362702D01*
X127127000Y-93041297D01*
G37*
G04 #@! TD.AperFunction*
G04 #@! TA.AperFunction,Conductor*
G36*
X135255000Y-93041297D02*
G01*
X135193993Y-93006075D01*
X135066826Y-92972000D01*
X134935174Y-92972000D01*
X134808007Y-93006075D01*
X134747000Y-93041297D01*
X134747000Y-91362702D01*
X134808007Y-91397925D01*
X134935174Y-91432000D01*
X135066826Y-91432000D01*
X135193993Y-91397925D01*
X135255000Y-91362702D01*
X135255000Y-93041297D01*
G37*
G04 #@! TD.AperFunction*
G04 #@! TA.AperFunction,Conductor*
G36*
X127127000Y-90501297D02*
G01*
X127065993Y-90466075D01*
X126938826Y-90432000D01*
X126807174Y-90432000D01*
X126680007Y-90466075D01*
X126619000Y-90501297D01*
X126619000Y-88822702D01*
X126680007Y-88857925D01*
X126807174Y-88892000D01*
X126938826Y-88892000D01*
X127065993Y-88857925D01*
X127127000Y-88822702D01*
X127127000Y-90501297D01*
G37*
G04 #@! TD.AperFunction*
G04 #@! TA.AperFunction,Conductor*
G36*
X135255000Y-90501297D02*
G01*
X135193993Y-90466075D01*
X135066826Y-90432000D01*
X134935174Y-90432000D01*
X134808007Y-90466075D01*
X134747000Y-90501297D01*
X134747000Y-88822702D01*
X134808007Y-88857925D01*
X134935174Y-88892000D01*
X135066826Y-88892000D01*
X135193993Y-88857925D01*
X135255000Y-88822702D01*
X135255000Y-90501297D01*
G37*
G04 #@! TD.AperFunction*
G04 #@! TA.AperFunction,Conductor*
G36*
X127127000Y-87961297D02*
G01*
X127065993Y-87926075D01*
X126938826Y-87892000D01*
X126807174Y-87892000D01*
X126680007Y-87926075D01*
X126619000Y-87961297D01*
X126619000Y-86282702D01*
X126680007Y-86317925D01*
X126807174Y-86352000D01*
X126938826Y-86352000D01*
X127065993Y-86317925D01*
X127127000Y-86282702D01*
X127127000Y-87961297D01*
G37*
G04 #@! TD.AperFunction*
G04 #@! TA.AperFunction,Conductor*
G36*
X135255000Y-87961297D02*
G01*
X135193993Y-87926075D01*
X135066826Y-87892000D01*
X134935174Y-87892000D01*
X134808007Y-87926075D01*
X134747000Y-87961297D01*
X134747000Y-86282702D01*
X134808007Y-86317925D01*
X134935174Y-86352000D01*
X135066826Y-86352000D01*
X135193993Y-86317925D01*
X135255000Y-86282702D01*
X135255000Y-87961297D01*
G37*
G04 #@! TD.AperFunction*
G04 #@! TA.AperFunction,Conductor*
G36*
X127127000Y-85421297D02*
G01*
X127065993Y-85386075D01*
X126938826Y-85352000D01*
X126807174Y-85352000D01*
X126680007Y-85386075D01*
X126619000Y-85421297D01*
X126619000Y-83742702D01*
X126680007Y-83777925D01*
X126807174Y-83812000D01*
X126938826Y-83812000D01*
X127065993Y-83777925D01*
X127127000Y-83742702D01*
X127127000Y-85421297D01*
G37*
G04 #@! TD.AperFunction*
G04 #@! TA.AperFunction,Conductor*
G36*
X135255000Y-85421297D02*
G01*
X135193993Y-85386075D01*
X135066826Y-85352000D01*
X134935174Y-85352000D01*
X134808007Y-85386075D01*
X134747000Y-85421297D01*
X134747000Y-83742702D01*
X134808007Y-83777925D01*
X134935174Y-83812000D01*
X135066826Y-83812000D01*
X135193993Y-83777925D01*
X135255000Y-83742702D01*
X135255000Y-85421297D01*
G37*
G04 #@! TD.AperFunction*
G04 #@! TA.AperFunction,Conductor*
G36*
X127127000Y-82881297D02*
G01*
X127065993Y-82846075D01*
X126938826Y-82812000D01*
X126807174Y-82812000D01*
X126680007Y-82846075D01*
X126619000Y-82881297D01*
X126619000Y-81202702D01*
X126680007Y-81237925D01*
X126807174Y-81272000D01*
X126938826Y-81272000D01*
X127065993Y-81237925D01*
X127127000Y-81202702D01*
X127127000Y-82881297D01*
G37*
G04 #@! TD.AperFunction*
G04 #@! TA.AperFunction,Conductor*
G36*
X135255000Y-82881297D02*
G01*
X135193993Y-82846075D01*
X135066826Y-82812000D01*
X134935174Y-82812000D01*
X134808007Y-82846075D01*
X134747000Y-82881297D01*
X134747000Y-81202702D01*
X134808007Y-81237925D01*
X134935174Y-81272000D01*
X135066826Y-81272000D01*
X135193993Y-81237925D01*
X135255000Y-81202702D01*
X135255000Y-82881297D01*
G37*
G04 #@! TD.AperFunction*
G04 #@! TA.AperFunction,Conductor*
G36*
X127127000Y-80341297D02*
G01*
X127065993Y-80306075D01*
X126938826Y-80272000D01*
X126807174Y-80272000D01*
X126680007Y-80306075D01*
X126619000Y-80341297D01*
X126619000Y-78662702D01*
X126680007Y-78697925D01*
X126807174Y-78732000D01*
X126938826Y-78732000D01*
X127065993Y-78697925D01*
X127127000Y-78662702D01*
X127127000Y-80341297D01*
G37*
G04 #@! TD.AperFunction*
G04 #@! TA.AperFunction,Conductor*
G36*
X135255000Y-80341297D02*
G01*
X135193993Y-80306075D01*
X135066826Y-80272000D01*
X134935174Y-80272000D01*
X134808007Y-80306075D01*
X134747000Y-80341297D01*
X134747000Y-78662702D01*
X134808007Y-78697925D01*
X134935174Y-78732000D01*
X135066826Y-78732000D01*
X135193993Y-78697925D01*
X135255000Y-78662702D01*
X135255000Y-80341297D01*
G37*
G04 #@! TD.AperFunction*
G04 #@! TA.AperFunction,Conductor*
G36*
X127127000Y-77801297D02*
G01*
X127065993Y-77766075D01*
X126938826Y-77732000D01*
X126807174Y-77732000D01*
X126680007Y-77766075D01*
X126619000Y-77801297D01*
X126619000Y-76122702D01*
X126680007Y-76157925D01*
X126807174Y-76192000D01*
X126938826Y-76192000D01*
X127065993Y-76157925D01*
X127127000Y-76122702D01*
X127127000Y-77801297D01*
G37*
G04 #@! TD.AperFunction*
G04 #@! TA.AperFunction,Conductor*
G36*
X135255000Y-77801297D02*
G01*
X135193993Y-77766075D01*
X135066826Y-77732000D01*
X134935174Y-77732000D01*
X134808007Y-77766075D01*
X134747000Y-77801297D01*
X134747000Y-76122702D01*
X134808007Y-76157925D01*
X134935174Y-76192000D01*
X135066826Y-76192000D01*
X135193993Y-76157925D01*
X135255000Y-76122702D01*
X135255000Y-77801297D01*
G37*
G04 #@! TD.AperFunction*
G04 #@! TA.AperFunction,Conductor*
G36*
X127127000Y-75261297D02*
G01*
X127065993Y-75226075D01*
X126938826Y-75192000D01*
X126807174Y-75192000D01*
X126680007Y-75226075D01*
X126619000Y-75261297D01*
X126619000Y-73582702D01*
X126680007Y-73617925D01*
X126807174Y-73652000D01*
X126938826Y-73652000D01*
X127065993Y-73617925D01*
X127127000Y-73582702D01*
X127127000Y-75261297D01*
G37*
G04 #@! TD.AperFunction*
G04 #@! TA.AperFunction,Conductor*
G36*
X135255000Y-75261297D02*
G01*
X135193993Y-75226075D01*
X135066826Y-75192000D01*
X134935174Y-75192000D01*
X134808007Y-75226075D01*
X134747000Y-75261297D01*
X134747000Y-73582702D01*
X134808007Y-73617925D01*
X134935174Y-73652000D01*
X135066826Y-73652000D01*
X135193993Y-73617925D01*
X135255000Y-73582702D01*
X135255000Y-75261297D01*
G37*
G04 #@! TD.AperFunction*
G04 #@! TA.AperFunction,Conductor*
G36*
X127127000Y-72721297D02*
G01*
X127065993Y-72686075D01*
X126938826Y-72652000D01*
X126807174Y-72652000D01*
X126680007Y-72686075D01*
X126619000Y-72721297D01*
X126619000Y-71042702D01*
X126680007Y-71077925D01*
X126807174Y-71112000D01*
X126938826Y-71112000D01*
X127065993Y-71077925D01*
X127127000Y-71042702D01*
X127127000Y-72721297D01*
G37*
G04 #@! TD.AperFunction*
G04 #@! TA.AperFunction,Conductor*
G36*
X135255000Y-72721297D02*
G01*
X135193993Y-72686075D01*
X135066826Y-72652000D01*
X134935174Y-72652000D01*
X134808007Y-72686075D01*
X134747000Y-72721297D01*
X134747000Y-71042702D01*
X134808007Y-71077925D01*
X134935174Y-71112000D01*
X135066826Y-71112000D01*
X135193993Y-71077925D01*
X135255000Y-71042702D01*
X135255000Y-72721297D01*
G37*
G04 #@! TD.AperFunction*
G04 #@! TA.AperFunction,Conductor*
G36*
X127127000Y-70181297D02*
G01*
X127065993Y-70146075D01*
X126938826Y-70112000D01*
X126807174Y-70112000D01*
X126680007Y-70146075D01*
X126619000Y-70181297D01*
X126619000Y-68502702D01*
X126680007Y-68537925D01*
X126807174Y-68572000D01*
X126938826Y-68572000D01*
X127065993Y-68537925D01*
X127127000Y-68502702D01*
X127127000Y-70181297D01*
G37*
G04 #@! TD.AperFunction*
G04 #@! TA.AperFunction,Conductor*
G36*
X135255000Y-70181297D02*
G01*
X135193993Y-70146075D01*
X135066826Y-70112000D01*
X134935174Y-70112000D01*
X134808007Y-70146075D01*
X134747000Y-70181297D01*
X134747000Y-68502702D01*
X134808007Y-68537925D01*
X134935174Y-68572000D01*
X135066826Y-68572000D01*
X135193993Y-68537925D01*
X135255000Y-68502702D01*
X135255000Y-70181297D01*
G37*
G04 #@! TD.AperFunction*
G04 #@! TA.AperFunction,Conductor*
G36*
X127127000Y-67641297D02*
G01*
X127065993Y-67606075D01*
X126938826Y-67572000D01*
X126807174Y-67572000D01*
X126680007Y-67606075D01*
X126619000Y-67641297D01*
X126619000Y-65962702D01*
X126680007Y-65997925D01*
X126807174Y-66032000D01*
X126938826Y-66032000D01*
X127065993Y-65997925D01*
X127127000Y-65962702D01*
X127127000Y-67641297D01*
G37*
G04 #@! TD.AperFunction*
G04 #@! TA.AperFunction,Conductor*
G36*
X135255000Y-67641297D02*
G01*
X135193993Y-67606075D01*
X135066826Y-67572000D01*
X134935174Y-67572000D01*
X134808007Y-67606075D01*
X134747000Y-67641297D01*
X134747000Y-65962702D01*
X134808007Y-65997925D01*
X134935174Y-66032000D01*
X135066826Y-66032000D01*
X135193993Y-65997925D01*
X135255000Y-65962702D01*
X135255000Y-67641297D01*
G37*
G04 #@! TD.AperFunction*
G04 #@! TA.AperFunction,Conductor*
G36*
X127127000Y-65101297D02*
G01*
X127065993Y-65066075D01*
X126938826Y-65032000D01*
X126807174Y-65032000D01*
X126680007Y-65066075D01*
X126619000Y-65101297D01*
X126619000Y-63422702D01*
X126680007Y-63457925D01*
X126807174Y-63492000D01*
X126938826Y-63492000D01*
X127065993Y-63457925D01*
X127127000Y-63422702D01*
X127127000Y-65101297D01*
G37*
G04 #@! TD.AperFunction*
G04 #@! TA.AperFunction,Conductor*
G36*
X135255000Y-65101297D02*
G01*
X135193993Y-65066075D01*
X135066826Y-65032000D01*
X134935174Y-65032000D01*
X134808007Y-65066075D01*
X134747000Y-65101297D01*
X134747000Y-63422702D01*
X134808007Y-63457925D01*
X134935174Y-63492000D01*
X135066826Y-63492000D01*
X135193993Y-63457925D01*
X135255000Y-63422702D01*
X135255000Y-65101297D01*
G37*
G04 #@! TD.AperFunction*
G04 #@! TA.AperFunction,Conductor*
G36*
X127127000Y-62561297D02*
G01*
X127065993Y-62526075D01*
X126938826Y-62492000D01*
X126807174Y-62492000D01*
X126680007Y-62526075D01*
X126619000Y-62561297D01*
X126619000Y-60882702D01*
X126680007Y-60917925D01*
X126807174Y-60952000D01*
X126938826Y-60952000D01*
X127065993Y-60917925D01*
X127127000Y-60882702D01*
X127127000Y-62561297D01*
G37*
G04 #@! TD.AperFunction*
G04 #@! TA.AperFunction,Conductor*
G36*
X135255000Y-62561297D02*
G01*
X135193993Y-62526075D01*
X135066826Y-62492000D01*
X134935174Y-62492000D01*
X134808007Y-62526075D01*
X134747000Y-62561297D01*
X134747000Y-60882702D01*
X134808007Y-60917925D01*
X134935174Y-60952000D01*
X135066826Y-60952000D01*
X135193993Y-60917925D01*
X135255000Y-60882702D01*
X135255000Y-62561297D01*
G37*
G04 #@! TD.AperFunction*
G04 #@! TA.AperFunction,Conductor*
G36*
X127127000Y-60021297D02*
G01*
X127065993Y-59986075D01*
X126938826Y-59952000D01*
X126807174Y-59952000D01*
X126680007Y-59986075D01*
X126619000Y-60021297D01*
X126619000Y-58342702D01*
X126680007Y-58377925D01*
X126807174Y-58412000D01*
X126938826Y-58412000D01*
X127065993Y-58377925D01*
X127127000Y-58342702D01*
X127127000Y-60021297D01*
G37*
G04 #@! TD.AperFunction*
G04 #@! TA.AperFunction,Conductor*
G36*
X135255000Y-60021297D02*
G01*
X135193993Y-59986075D01*
X135066826Y-59952000D01*
X134935174Y-59952000D01*
X134808007Y-59986075D01*
X134747000Y-60021297D01*
X134747000Y-58342702D01*
X134808007Y-58377925D01*
X134935174Y-58412000D01*
X135066826Y-58412000D01*
X135193993Y-58377925D01*
X135255000Y-58342702D01*
X135255000Y-60021297D01*
G37*
G04 #@! TD.AperFunction*
G04 #@! TA.AperFunction,Conductor*
G36*
X123867075Y-57719007D02*
G01*
X123833000Y-57846174D01*
X123833000Y-57977826D01*
X123867075Y-58104993D01*
X123902297Y-58166000D01*
X122358686Y-58166000D01*
X122367080Y-58157606D01*
X122419741Y-58066394D01*
X122447000Y-57964661D01*
X122447000Y-57859339D01*
X122419741Y-57757606D01*
X122367080Y-57666394D01*
X122358686Y-57658000D01*
X123902297Y-57658000D01*
X123867075Y-57719007D01*
G37*
G04 #@! TD.AperFunction*
G04 #@! TA.AperFunction,Conductor*
G36*
X126407075Y-57719007D02*
G01*
X126373000Y-57846174D01*
X126373000Y-57977826D01*
X126407075Y-58104993D01*
X126442297Y-58166000D01*
X124763703Y-58166000D01*
X124798925Y-58104993D01*
X124833000Y-57977826D01*
X124833000Y-57846174D01*
X124798925Y-57719007D01*
X124763703Y-57658000D01*
X126442297Y-57658000D01*
X126407075Y-57719007D01*
G37*
G04 #@! TD.AperFunction*
M02*
