%TF.GenerationSoftware,KiCad,Pcbnew,8.0.4*%
%TF.CreationDate,2024-11-26T14:31:27+01:00*%
%TF.ProjectId,6502 Pod 2x40 Pin Cable Adapter,36353032-2050-46f6-9420-327834302050,rev?*%
%TF.SameCoordinates,Original*%
%TF.FileFunction,Copper,L1,Top*%
%TF.FilePolarity,Positive*%
%FSLAX46Y46*%
G04 Gerber Fmt 4.6, Leading zero omitted, Abs format (unit mm)*
G04 Created by KiCad (PCBNEW 8.0.4) date 2024-11-26 14:31:27*
%MOMM*%
%LPD*%
G01*
G04 APERTURE LIST*
%TA.AperFunction,ComponentPad*%
%ADD10R,1.700000X1.700000*%
%TD*%
%TA.AperFunction,ComponentPad*%
%ADD11O,1.700000X1.700000*%
%TD*%
%TA.AperFunction,ComponentPad*%
%ADD12R,0.850000X0.850000*%
%TD*%
%TA.AperFunction,Conductor*%
%ADD13C,0.250000*%
%TD*%
G04 APERTURE END LIST*
D10*
%TO.P,J2,1,Pin_1*%
%TO.N,~{URESET}*%
X79350000Y-71500000D03*
D11*
%TO.P,J2,2,Pin_2*%
%TO.N,GND*%
X81890000Y-71500000D03*
%TO.P,J2,3,Pin_3*%
%TO.N,UTSC*%
X79350000Y-74040000D03*
%TO.P,J2,4,Pin_4*%
%TO.N,GND*%
X81890000Y-74040000D03*
%TO.P,J2,5,Pin_5*%
%TO.N,USO*%
X79350000Y-76580000D03*
%TO.P,J2,6,Pin_6*%
%TO.N,GND*%
X81890000Y-76580000D03*
%TO.P,J2,7,Pin_7*%
%TO.N,CK2*%
X79350000Y-79120000D03*
%TO.P,J2,8,Pin_8*%
%TO.N,GND*%
X81890000Y-79120000D03*
%TO.P,J2,9,Pin_9*%
%TO.N,UDBE*%
X79350000Y-81660000D03*
%TO.P,J2,10,Pin_10*%
%TO.N,GND*%
X81890000Y-81660000D03*
%TO.P,J2,11,Pin_11*%
%TO.N,unconnected-(J2-Pin_11-Pad11)*%
X79350000Y-84200000D03*
%TO.P,J2,12,Pin_12*%
%TO.N,GND*%
X81890000Y-84200000D03*
%TO.P,J2,13,Pin_13*%
%TO.N,UR{slash}~{W}*%
X79350000Y-86740000D03*
%TO.P,J2,14,Pin_14*%
%TO.N,GND*%
X81890000Y-86740000D03*
%TO.P,J2,15,Pin_15*%
%TO.N,UD0*%
X79350000Y-89280000D03*
%TO.P,J2,16,Pin_16*%
%TO.N,GND*%
X81890000Y-89280000D03*
%TO.P,J2,17,Pin_17*%
%TO.N,UD1*%
X79350000Y-91820000D03*
%TO.P,J2,18,Pin_18*%
%TO.N,GND*%
X81890000Y-91820000D03*
%TO.P,J2,19,Pin_19*%
%TO.N,UD2*%
X79350000Y-94360000D03*
%TO.P,J2,20,Pin_20*%
%TO.N,GND*%
X81890000Y-94360000D03*
%TO.P,J2,21,Pin_21*%
%TO.N,UD3*%
X79350000Y-96900000D03*
%TO.P,J2,22,Pin_22*%
%TO.N,GND*%
X81890000Y-96900000D03*
%TO.P,J2,23,Pin_23*%
%TO.N,UD4*%
X79350000Y-99440000D03*
%TO.P,J2,24,Pin_24*%
%TO.N,GND*%
X81890000Y-99440000D03*
%TO.P,J2,25,Pin_25*%
%TO.N,UD5*%
X79350000Y-101980000D03*
%TO.P,J2,26,Pin_26*%
%TO.N,GND*%
X81890000Y-101980000D03*
%TO.P,J2,27,Pin_27*%
%TO.N,UD6*%
X79350000Y-104520000D03*
%TO.P,J2,28,Pin_28*%
%TO.N,GND*%
X81890000Y-104520000D03*
%TO.P,J2,29,Pin_29*%
%TO.N,UD7*%
X79350000Y-107060000D03*
%TO.P,J2,30,Pin_30*%
%TO.N,GND*%
X81890000Y-107060000D03*
%TO.P,J2,31,Pin_31*%
%TO.N,UA15*%
X79350000Y-109600000D03*
%TO.P,J2,32,Pin_32*%
%TO.N,GND*%
X81890000Y-109600000D03*
%TO.P,J2,33,Pin_33*%
%TO.N,UA14*%
X79350000Y-112140000D03*
%TO.P,J2,34,Pin_34*%
%TO.N,GND*%
X81890000Y-112140000D03*
%TO.P,J2,35,Pin_35*%
%TO.N,UA13*%
X79350000Y-114680000D03*
%TO.P,J2,36,Pin_36*%
%TO.N,GND*%
X81890000Y-114680000D03*
%TO.P,J2,37,Pin_37*%
%TO.N,UA12*%
X79350000Y-117220000D03*
%TO.P,J2,38,Pin_38*%
%TO.N,GND*%
X81890000Y-117220000D03*
%TO.P,J2,39,Pin_39*%
X79350000Y-119760000D03*
%TO.P,J2,40,Pin_40*%
X81890000Y-119760000D03*
%TD*%
D12*
%TO.P,TP1,1,1*%
%TO.N,GND*%
X78750000Y-60500000D03*
%TD*%
D10*
%TO.P,J1,1,~{URESET}*%
%TO.N,~{URESET}*%
X71300000Y-71500000D03*
D11*
%TO.P,J1,2,UVSS*%
%TO.N,GND*%
X73840000Y-71500000D03*
%TO.P,J1,3,UTSC(UCK2out)*%
%TO.N,UTSC*%
X71300000Y-74040000D03*
%TO.P,J1,4,~{UHALT}(URDY)*%
%TO.N,~{UHALT}*%
X73840000Y-74040000D03*
%TO.P,J1,5,USO*%
%TO.N,USO*%
X71300000Y-76580000D03*
%TO.P,J1,6,CK1(MR)*%
%TO.N,CK1*%
X73840000Y-76580000D03*
%TO.P,J1,7,CK2(CK0in)*%
%TO.N,CK2*%
X71300000Y-79120000D03*
%TO.P,J1,8,~{UIRQ}*%
%TO.N,~{UIRQ}*%
X73840000Y-79120000D03*
%TO.P,J1,9,UDBE*%
%TO.N,UDBE*%
X71300000Y-81660000D03*
%TO.P,J1,10,UVMA*%
%TO.N,UVMA*%
X73840000Y-81660000D03*
%TO.P,J1,11,nc*%
%TO.N,unconnected-(J1-nc-Pad11)*%
X71300000Y-84200000D03*
%TO.P,J1,12,~{UNMI}*%
%TO.N,~{UNMI}*%
X73840000Y-84200000D03*
%TO.P,J1,13,UR/~{W}*%
%TO.N,UR{slash}~{W}*%
X71300000Y-86740000D03*
%TO.P,J1,14,UBA(SYNC)*%
%TO.N,UBA(SYNC)*%
X73840000Y-86740000D03*
%TO.P,J1,15,UD0*%
%TO.N,UD0*%
X71300000Y-89280000D03*
%TO.P,J1,16,U+5V*%
%TO.N,U+5V*%
X73840000Y-89280000D03*
%TO.P,J1,17,UD1*%
%TO.N,UD1*%
X71300000Y-91820000D03*
%TO.P,J1,18,UA0*%
%TO.N,UA0*%
X73840000Y-91820000D03*
%TO.P,J1,19,UD2*%
%TO.N,UD2*%
X71300000Y-94360000D03*
%TO.P,J1,20,UA1*%
%TO.N,UA1*%
X73840000Y-94360000D03*
%TO.P,J1,21,UD3*%
%TO.N,UD3*%
X71300000Y-96900000D03*
%TO.P,J1,22,UA2*%
%TO.N,UA2*%
X73840000Y-96900000D03*
%TO.P,J1,23,UD4*%
%TO.N,UD4*%
X71300000Y-99440000D03*
%TO.P,J1,24,UA3*%
%TO.N,UA3*%
X73840000Y-99440000D03*
%TO.P,J1,25,UD5*%
%TO.N,UD5*%
X71300000Y-101980000D03*
%TO.P,J1,26,UA4*%
%TO.N,UA4*%
X73840000Y-101980000D03*
%TO.P,J1,27,UD6*%
%TO.N,UD6*%
X71300000Y-104520000D03*
%TO.P,J1,28,UA5*%
%TO.N,UA5*%
X73840000Y-104520000D03*
%TO.P,J1,29,UD7*%
%TO.N,UD7*%
X71300000Y-107060000D03*
%TO.P,J1,30,UA6*%
%TO.N,UA6*%
X73840000Y-107060000D03*
%TO.P,J1,31,UA15*%
%TO.N,UA15*%
X71300000Y-109600000D03*
%TO.P,J1,32,UA7*%
%TO.N,UA7*%
X73840000Y-109600000D03*
%TO.P,J1,33,UA14*%
%TO.N,UA14*%
X71300000Y-112140000D03*
%TO.P,J1,34,UA8*%
%TO.N,UA8*%
X73840000Y-112140000D03*
%TO.P,J1,35,UA13*%
%TO.N,UA13*%
X71300000Y-114680000D03*
%TO.P,J1,36,UA9*%
%TO.N,UA9*%
X73840000Y-114680000D03*
%TO.P,J1,37,UA12*%
%TO.N,UA12*%
X71300000Y-117220000D03*
%TO.P,J1,38,UA10*%
%TO.N,UA10*%
X73840000Y-117220000D03*
%TO.P,J1,39,UVSS*%
%TO.N,GND*%
X71300000Y-119760000D03*
%TO.P,J1,40,UA11*%
%TO.N,UA11*%
X73840000Y-119760000D03*
%TD*%
D12*
%TO.P,TP2,1,1*%
%TO.N,GND*%
X78500000Y-132250000D03*
%TD*%
D10*
%TO.P,J3,1,Pin_1*%
%TO.N,GND*%
X87350000Y-71500000D03*
D11*
%TO.P,J3,2,Pin_2*%
X89890000Y-71500000D03*
%TO.P,J3,3,Pin_3*%
%TO.N,~{UHALT}*%
X87350000Y-74040000D03*
%TO.P,J3,4,Pin_4*%
%TO.N,GND*%
X89890000Y-74040000D03*
%TO.P,J3,5,Pin_5*%
%TO.N,CK1*%
X87350000Y-76580000D03*
%TO.P,J3,6,Pin_6*%
%TO.N,GND*%
X89890000Y-76580000D03*
%TO.P,J3,7,Pin_7*%
%TO.N,~{UIRQ}*%
X87350000Y-79120000D03*
%TO.P,J3,8,Pin_8*%
%TO.N,GND*%
X89890000Y-79120000D03*
%TO.P,J3,9,Pin_9*%
%TO.N,UVMA*%
X87350000Y-81660000D03*
%TO.P,J3,10,Pin_10*%
%TO.N,GND*%
X89890000Y-81660000D03*
%TO.P,J3,11,Pin_11*%
%TO.N,~{UNMI}*%
X87350000Y-84200000D03*
%TO.P,J3,12,Pin_12*%
%TO.N,GND*%
X89890000Y-84200000D03*
%TO.P,J3,13,Pin_13*%
%TO.N,UBA(SYNC)*%
X87350000Y-86740000D03*
%TO.P,J3,14,Pin_14*%
%TO.N,GND*%
X89890000Y-86740000D03*
%TO.P,J3,15,Pin_15*%
%TO.N,U+5V*%
X87350000Y-89280000D03*
%TO.P,J3,16,Pin_16*%
%TO.N,GND*%
X89890000Y-89280000D03*
%TO.P,J3,17,Pin_17*%
%TO.N,UA0*%
X87350000Y-91820000D03*
%TO.P,J3,18,Pin_18*%
%TO.N,GND*%
X89890000Y-91820000D03*
%TO.P,J3,19,Pin_19*%
%TO.N,UA1*%
X87350000Y-94360000D03*
%TO.P,J3,20,Pin_20*%
%TO.N,GND*%
X89890000Y-94360000D03*
%TO.P,J3,21,Pin_21*%
%TO.N,UA2*%
X87350000Y-96900000D03*
%TO.P,J3,22,Pin_22*%
%TO.N,GND*%
X89890000Y-96900000D03*
%TO.P,J3,23,Pin_23*%
%TO.N,UA3*%
X87350000Y-99440000D03*
%TO.P,J3,24,Pin_24*%
%TO.N,GND*%
X89890000Y-99440000D03*
%TO.P,J3,25,Pin_25*%
%TO.N,UA4*%
X87350000Y-101980000D03*
%TO.P,J3,26,Pin_26*%
%TO.N,GND*%
X89890000Y-101980000D03*
%TO.P,J3,27,Pin_27*%
%TO.N,UA5*%
X87350000Y-104520000D03*
%TO.P,J3,28,Pin_28*%
%TO.N,GND*%
X89890000Y-104520000D03*
%TO.P,J3,29,Pin_29*%
%TO.N,UA6*%
X87350000Y-107060000D03*
%TO.P,J3,30,Pin_30*%
%TO.N,GND*%
X89890000Y-107060000D03*
%TO.P,J3,31,Pin_31*%
%TO.N,UA7*%
X87350000Y-109600000D03*
%TO.P,J3,32,Pin_32*%
%TO.N,GND*%
X89890000Y-109600000D03*
%TO.P,J3,33,Pin_33*%
%TO.N,UA8*%
X87350000Y-112140000D03*
%TO.P,J3,34,Pin_34*%
%TO.N,GND*%
X89890000Y-112140000D03*
%TO.P,J3,35,Pin_35*%
%TO.N,UA9*%
X87350000Y-114680000D03*
%TO.P,J3,36,Pin_36*%
%TO.N,GND*%
X89890000Y-114680000D03*
%TO.P,J3,37,Pin_37*%
%TO.N,UA10*%
X87350000Y-117220000D03*
%TO.P,J3,38,Pin_38*%
%TO.N,GND*%
X89890000Y-117220000D03*
%TO.P,J3,39,Pin_39*%
%TO.N,UA11*%
X87350000Y-119760000D03*
%TO.P,J3,40,Pin_40*%
%TO.N,GND*%
X89890000Y-119760000D03*
%TD*%
D13*
%TO.N,UA10*%
X76080000Y-117220000D02*
X77300000Y-116000000D01*
X77300000Y-116000000D02*
X86130000Y-116000000D01*
X86130000Y-116000000D02*
X87350000Y-117220000D01*
X73840000Y-117220000D02*
X76080000Y-117220000D01*
%TO.N,UA11*%
X76040000Y-119760000D02*
X77300000Y-118500000D01*
X73840000Y-119760000D02*
X76040000Y-119760000D01*
X77300000Y-118500000D02*
X86090000Y-118500000D01*
X86090000Y-118500000D02*
X87350000Y-119760000D01*
%TO.N,UA9*%
X77295000Y-113505000D02*
X86175000Y-113505000D01*
X73840000Y-114680000D02*
X76120000Y-114680000D01*
X76120000Y-114680000D02*
X77295000Y-113505000D01*
X86175000Y-113505000D02*
X87350000Y-114680000D01*
%TO.N,UA12*%
X71300000Y-117220000D02*
X72580000Y-118500000D01*
X77280000Y-117220000D02*
X79350000Y-117220000D01*
X72580000Y-118500000D02*
X76000000Y-118500000D01*
X76000000Y-118500000D02*
X77280000Y-117220000D01*
%TO.N,UA8*%
X73840000Y-112140000D02*
X75960000Y-112140000D01*
X77200000Y-110900000D02*
X86110000Y-110900000D01*
X86110000Y-110900000D02*
X87350000Y-112140000D01*
X75960000Y-112140000D02*
X77200000Y-110900000D01*
%TO.N,UA13*%
X72520000Y-115900000D02*
X76100000Y-115900000D01*
X71300000Y-114680000D02*
X72520000Y-115900000D01*
X76100000Y-115900000D02*
X77320000Y-114680000D01*
X77320000Y-114680000D02*
X79350000Y-114680000D01*
%TO.N,UA7*%
X77000000Y-108300000D02*
X86050000Y-108300000D01*
X75700000Y-109600000D02*
X77000000Y-108300000D01*
X86050000Y-108300000D02*
X87350000Y-109600000D01*
X73840000Y-109600000D02*
X75700000Y-109600000D01*
%TO.N,UA14*%
X71300000Y-112140000D02*
X72560000Y-113400000D01*
X75900000Y-113400000D02*
X77160000Y-112140000D01*
X77160000Y-112140000D02*
X79350000Y-112140000D01*
X72560000Y-113400000D02*
X75900000Y-113400000D01*
%TO.N,UA6*%
X86090000Y-105800000D02*
X87350000Y-107060000D01*
X76040000Y-107060000D02*
X77300000Y-105800000D01*
X77300000Y-105800000D02*
X86090000Y-105800000D01*
X73840000Y-107060000D02*
X76040000Y-107060000D01*
%TO.N,UA15*%
X71300000Y-109600000D02*
X72500000Y-110800000D01*
X72500000Y-110800000D02*
X75800000Y-110800000D01*
X75800000Y-110800000D02*
X77000000Y-109600000D01*
X77000000Y-109600000D02*
X79350000Y-109600000D01*
%TO.N,UA5*%
X77100000Y-103200000D02*
X86030000Y-103200000D01*
X75780000Y-104520000D02*
X77100000Y-103200000D01*
X86030000Y-103200000D02*
X87350000Y-104520000D01*
X73840000Y-104520000D02*
X75780000Y-104520000D01*
%TO.N,UBA(SYNC)*%
X73840000Y-86740000D02*
X75960000Y-86740000D01*
X75960000Y-86740000D02*
X77135000Y-85565000D01*
X86175000Y-85565000D02*
X87350000Y-86740000D01*
X77135000Y-85565000D02*
X86175000Y-85565000D01*
%TO.N,UA4*%
X77400000Y-100700000D02*
X86070000Y-100700000D01*
X73840000Y-101980000D02*
X76120000Y-101980000D01*
X76120000Y-101980000D02*
X77400000Y-100700000D01*
X86070000Y-100700000D02*
X87350000Y-101980000D01*
%TO.N,UD4*%
X71300000Y-99440000D02*
X72540000Y-100680000D01*
X72540000Y-100680000D02*
X76180000Y-100680000D01*
X76180000Y-100680000D02*
X77420000Y-99440000D01*
X77420000Y-99440000D02*
X79350000Y-99440000D01*
%TO.N,UA3*%
X77200000Y-98200000D02*
X86110000Y-98200000D01*
X75960000Y-99440000D02*
X77200000Y-98200000D01*
X86110000Y-98200000D02*
X87350000Y-99440000D01*
X73840000Y-99440000D02*
X75960000Y-99440000D01*
%TO.N,UD3*%
X76075000Y-98200000D02*
X77375000Y-96900000D01*
X72600000Y-98200000D02*
X76075000Y-98200000D01*
X77375000Y-96900000D02*
X79350000Y-96900000D01*
X71300000Y-96900000D02*
X72600000Y-98200000D01*
%TO.N,UA2*%
X77275000Y-95725000D02*
X86175000Y-95725000D01*
X86175000Y-95725000D02*
X87350000Y-96900000D01*
X73840000Y-96900000D02*
X76100000Y-96900000D01*
X76100000Y-96900000D02*
X77275000Y-95725000D01*
%TO.N,UD5*%
X71300000Y-101980000D02*
X72520000Y-103200000D01*
X77220000Y-101980000D02*
X79350000Y-101980000D01*
X76000000Y-103200000D02*
X77220000Y-101980000D01*
X72520000Y-103200000D02*
X76000000Y-103200000D01*
%TO.N,UA1*%
X86175000Y-93185000D02*
X87350000Y-94360000D01*
X75940000Y-94360000D02*
X77115000Y-93185000D01*
X77115000Y-93185000D02*
X86175000Y-93185000D01*
X73840000Y-94360000D02*
X75940000Y-94360000D01*
%TO.N,UD6*%
X77180000Y-104520000D02*
X79350000Y-104520000D01*
X71300000Y-104520000D02*
X72580000Y-105800000D01*
X75900000Y-105800000D02*
X77180000Y-104520000D01*
X72580000Y-105800000D02*
X75900000Y-105800000D01*
%TO.N,UA0*%
X77155000Y-90645000D02*
X86175000Y-90645000D01*
X75980000Y-91820000D02*
X77155000Y-90645000D01*
X86175000Y-90645000D02*
X87350000Y-91820000D01*
X73840000Y-91820000D02*
X75980000Y-91820000D01*
%TO.N,U+5V*%
X86070000Y-88000000D02*
X87350000Y-89280000D01*
X76020000Y-89280000D02*
X77300000Y-88000000D01*
X77300000Y-88000000D02*
X86070000Y-88000000D01*
X73840000Y-89280000D02*
X76020000Y-89280000D01*
%TO.N,UD2*%
X71300000Y-94360000D02*
X72540000Y-95600000D01*
X76000000Y-95600000D02*
X77240000Y-94360000D01*
X77240000Y-94360000D02*
X79350000Y-94360000D01*
X72540000Y-95600000D02*
X76000000Y-95600000D01*
%TO.N,CK1*%
X77459150Y-75300000D02*
X86070000Y-75300000D01*
X86070000Y-75300000D02*
X87350000Y-76580000D01*
X76179150Y-76580000D02*
X77459150Y-75300000D01*
X73840000Y-76580000D02*
X76179150Y-76580000D01*
%TO.N,UD7*%
X71300000Y-107060000D02*
X72540000Y-108300000D01*
X72540000Y-108300000D02*
X75900000Y-108300000D01*
X75900000Y-108300000D02*
X77140000Y-107060000D01*
X77140000Y-107060000D02*
X79350000Y-107060000D01*
%TO.N,USO*%
X71300000Y-76580000D02*
X72520000Y-77800000D01*
X76000000Y-77800000D02*
X77220000Y-76580000D01*
X77220000Y-76580000D02*
X79350000Y-76580000D01*
X72520000Y-77800000D02*
X76000000Y-77800000D01*
%TO.N,UD0*%
X71300000Y-89280000D02*
X72520000Y-90500000D01*
X77320000Y-89280000D02*
X79350000Y-89280000D01*
X72520000Y-90500000D02*
X76100000Y-90500000D01*
X76100000Y-90500000D02*
X77320000Y-89280000D01*
%TO.N,~{URESET}*%
X71300000Y-71500000D02*
X72550000Y-72750000D01*
X76000000Y-72750000D02*
X77250000Y-71500000D01*
X77250000Y-71500000D02*
X79350000Y-71500000D01*
X72550000Y-72750000D02*
X76000000Y-72750000D01*
%TO.N,UD1*%
X71300000Y-91820000D02*
X72580000Y-93100000D01*
X72580000Y-93100000D02*
X76000000Y-93100000D01*
X77280000Y-91820000D02*
X79350000Y-91820000D01*
X76000000Y-93100000D02*
X77280000Y-91820000D01*
%TO.N,UTSC*%
X77405000Y-74040000D02*
X79350000Y-74040000D01*
X71300000Y-74040000D02*
X72560000Y-75300000D01*
X76145000Y-75300000D02*
X77405000Y-74040000D01*
X72560000Y-75300000D02*
X76145000Y-75300000D01*
%TO.N,UR{slash}~{W}*%
X77060000Y-86740000D02*
X79350000Y-86740000D01*
X72560000Y-88000000D02*
X75800000Y-88000000D01*
X71300000Y-86740000D02*
X72560000Y-88000000D01*
X75800000Y-88000000D02*
X77060000Y-86740000D01*
%TO.N,~{UNMI}*%
X76100000Y-84200000D02*
X77400000Y-82900000D01*
X73840000Y-84200000D02*
X76100000Y-84200000D01*
X77400000Y-82900000D02*
X86050000Y-82900000D01*
X86050000Y-82900000D02*
X87350000Y-84200000D01*
%TO.N,~{UIRQ}*%
X77200000Y-77800000D02*
X86030000Y-77800000D01*
X75880000Y-79120000D02*
X77200000Y-77800000D01*
X73840000Y-79120000D02*
X75880000Y-79120000D01*
X86030000Y-77800000D02*
X87350000Y-79120000D01*
%TO.N,~{UHALT}*%
X77250000Y-72750000D02*
X86060000Y-72750000D01*
X75960000Y-74040000D02*
X77250000Y-72750000D01*
X86060000Y-72750000D02*
X87350000Y-74040000D01*
X73840000Y-74040000D02*
X75960000Y-74040000D01*
%TO.N,UVMA*%
X76040000Y-81660000D02*
X77300000Y-80400000D01*
X73840000Y-81660000D02*
X76040000Y-81660000D01*
X77300000Y-80400000D02*
X86090000Y-80400000D01*
X86090000Y-80400000D02*
X87350000Y-81660000D01*
%TO.N,UDBE*%
X72540000Y-82900000D02*
X76105000Y-82900000D01*
X76105000Y-82900000D02*
X77345000Y-81660000D01*
X77345000Y-81660000D02*
X79350000Y-81660000D01*
X71300000Y-81660000D02*
X72540000Y-82900000D01*
%TO.N,CK2*%
X77180000Y-79120000D02*
X79350000Y-79120000D01*
X71300000Y-79120000D02*
X72580000Y-80400000D01*
X72580000Y-80400000D02*
X75900000Y-80400000D01*
X75900000Y-80400000D02*
X77180000Y-79120000D01*
%TD*%
M02*
