%TF.GenerationSoftware,KiCad,Pcbnew,8.0.4*%
%TF.CreationDate,2024-11-26T14:31:27+01:00*%
%TF.ProjectId,6502 Pod 2x40 Pin Cable Adapter,36353032-2050-46f6-9420-327834302050,rev?*%
%TF.SameCoordinates,Original*%
%TF.FileFunction,Legend,Top*%
%TF.FilePolarity,Positive*%
%FSLAX46Y46*%
G04 Gerber Fmt 4.6, Leading zero omitted, Abs format (unit mm)*
G04 Created by KiCad (PCBNEW 8.0.4) date 2024-11-26 14:31:27*
%MOMM*%
%LPD*%
G01*
G04 APERTURE LIST*
%ADD10C,0.100000*%
%ADD11C,0.150000*%
%ADD12C,0.120000*%
G04 APERTURE END LIST*
D10*
X71399122Y-136308940D02*
X71246741Y-136308940D01*
X71246741Y-136308940D02*
X71170550Y-136347035D01*
X71170550Y-136347035D02*
X71132455Y-136385130D01*
X71132455Y-136385130D02*
X71056265Y-136499416D01*
X71056265Y-136499416D02*
X71018169Y-136651797D01*
X71018169Y-136651797D02*
X71018169Y-136956559D01*
X71018169Y-136956559D02*
X71056265Y-137032749D01*
X71056265Y-137032749D02*
X71094360Y-137070845D01*
X71094360Y-137070845D02*
X71170550Y-137108940D01*
X71170550Y-137108940D02*
X71322931Y-137108940D01*
X71322931Y-137108940D02*
X71399122Y-137070845D01*
X71399122Y-137070845D02*
X71437217Y-137032749D01*
X71437217Y-137032749D02*
X71475312Y-136956559D01*
X71475312Y-136956559D02*
X71475312Y-136766083D01*
X71475312Y-136766083D02*
X71437217Y-136689892D01*
X71437217Y-136689892D02*
X71399122Y-136651797D01*
X71399122Y-136651797D02*
X71322931Y-136613702D01*
X71322931Y-136613702D02*
X71170550Y-136613702D01*
X71170550Y-136613702D02*
X71094360Y-136651797D01*
X71094360Y-136651797D02*
X71056265Y-136689892D01*
X71056265Y-136689892D02*
X71018169Y-136766083D01*
X72199122Y-136308940D02*
X71818170Y-136308940D01*
X71818170Y-136308940D02*
X71780074Y-136689892D01*
X71780074Y-136689892D02*
X71818170Y-136651797D01*
X71818170Y-136651797D02*
X71894360Y-136613702D01*
X71894360Y-136613702D02*
X72084836Y-136613702D01*
X72084836Y-136613702D02*
X72161027Y-136651797D01*
X72161027Y-136651797D02*
X72199122Y-136689892D01*
X72199122Y-136689892D02*
X72237217Y-136766083D01*
X72237217Y-136766083D02*
X72237217Y-136956559D01*
X72237217Y-136956559D02*
X72199122Y-137032749D01*
X72199122Y-137032749D02*
X72161027Y-137070845D01*
X72161027Y-137070845D02*
X72084836Y-137108940D01*
X72084836Y-137108940D02*
X71894360Y-137108940D01*
X71894360Y-137108940D02*
X71818170Y-137070845D01*
X71818170Y-137070845D02*
X71780074Y-137032749D01*
X72732456Y-136308940D02*
X72808646Y-136308940D01*
X72808646Y-136308940D02*
X72884837Y-136347035D01*
X72884837Y-136347035D02*
X72922932Y-136385130D01*
X72922932Y-136385130D02*
X72961027Y-136461321D01*
X72961027Y-136461321D02*
X72999122Y-136613702D01*
X72999122Y-136613702D02*
X72999122Y-136804178D01*
X72999122Y-136804178D02*
X72961027Y-136956559D01*
X72961027Y-136956559D02*
X72922932Y-137032749D01*
X72922932Y-137032749D02*
X72884837Y-137070845D01*
X72884837Y-137070845D02*
X72808646Y-137108940D01*
X72808646Y-137108940D02*
X72732456Y-137108940D01*
X72732456Y-137108940D02*
X72656265Y-137070845D01*
X72656265Y-137070845D02*
X72618170Y-137032749D01*
X72618170Y-137032749D02*
X72580075Y-136956559D01*
X72580075Y-136956559D02*
X72541979Y-136804178D01*
X72541979Y-136804178D02*
X72541979Y-136613702D01*
X72541979Y-136613702D02*
X72580075Y-136461321D01*
X72580075Y-136461321D02*
X72618170Y-136385130D01*
X72618170Y-136385130D02*
X72656265Y-136347035D01*
X72656265Y-136347035D02*
X72732456Y-136308940D01*
X73303884Y-136385130D02*
X73341980Y-136347035D01*
X73341980Y-136347035D02*
X73418170Y-136308940D01*
X73418170Y-136308940D02*
X73608646Y-136308940D01*
X73608646Y-136308940D02*
X73684837Y-136347035D01*
X73684837Y-136347035D02*
X73722932Y-136385130D01*
X73722932Y-136385130D02*
X73761027Y-136461321D01*
X73761027Y-136461321D02*
X73761027Y-136537511D01*
X73761027Y-136537511D02*
X73722932Y-136651797D01*
X73722932Y-136651797D02*
X73265789Y-137108940D01*
X73265789Y-137108940D02*
X73761027Y-137108940D01*
X74675313Y-136385130D02*
X74713409Y-136347035D01*
X74713409Y-136347035D02*
X74789599Y-136308940D01*
X74789599Y-136308940D02*
X74980075Y-136308940D01*
X74980075Y-136308940D02*
X75056266Y-136347035D01*
X75056266Y-136347035D02*
X75094361Y-136385130D01*
X75094361Y-136385130D02*
X75132456Y-136461321D01*
X75132456Y-136461321D02*
X75132456Y-136537511D01*
X75132456Y-136537511D02*
X75094361Y-136651797D01*
X75094361Y-136651797D02*
X74637218Y-137108940D01*
X74637218Y-137108940D02*
X75132456Y-137108940D01*
X75399123Y-137108940D02*
X75818171Y-136575606D01*
X75399123Y-136575606D02*
X75818171Y-137108940D01*
X76465790Y-136575606D02*
X76465790Y-137108940D01*
X76275314Y-136270845D02*
X76084837Y-136842273D01*
X76084837Y-136842273D02*
X76580076Y-136842273D01*
X77037219Y-136308940D02*
X77113409Y-136308940D01*
X77113409Y-136308940D02*
X77189600Y-136347035D01*
X77189600Y-136347035D02*
X77227695Y-136385130D01*
X77227695Y-136385130D02*
X77265790Y-136461321D01*
X77265790Y-136461321D02*
X77303885Y-136613702D01*
X77303885Y-136613702D02*
X77303885Y-136804178D01*
X77303885Y-136804178D02*
X77265790Y-136956559D01*
X77265790Y-136956559D02*
X77227695Y-137032749D01*
X77227695Y-137032749D02*
X77189600Y-137070845D01*
X77189600Y-137070845D02*
X77113409Y-137108940D01*
X77113409Y-137108940D02*
X77037219Y-137108940D01*
X77037219Y-137108940D02*
X76961028Y-137070845D01*
X76961028Y-137070845D02*
X76922933Y-137032749D01*
X76922933Y-137032749D02*
X76884838Y-136956559D01*
X76884838Y-136956559D02*
X76846742Y-136804178D01*
X76846742Y-136804178D02*
X76846742Y-136613702D01*
X76846742Y-136613702D02*
X76884838Y-136461321D01*
X76884838Y-136461321D02*
X76922933Y-136385130D01*
X76922933Y-136385130D02*
X76961028Y-136347035D01*
X76961028Y-136347035D02*
X77037219Y-136308940D01*
X78256267Y-137108940D02*
X78256267Y-136308940D01*
X78256267Y-136308940D02*
X78561029Y-136308940D01*
X78561029Y-136308940D02*
X78637219Y-136347035D01*
X78637219Y-136347035D02*
X78675314Y-136385130D01*
X78675314Y-136385130D02*
X78713410Y-136461321D01*
X78713410Y-136461321D02*
X78713410Y-136575606D01*
X78713410Y-136575606D02*
X78675314Y-136651797D01*
X78675314Y-136651797D02*
X78637219Y-136689892D01*
X78637219Y-136689892D02*
X78561029Y-136727987D01*
X78561029Y-136727987D02*
X78256267Y-136727987D01*
X79056267Y-137108940D02*
X79056267Y-136575606D01*
X79056267Y-136308940D02*
X79018171Y-136347035D01*
X79018171Y-136347035D02*
X79056267Y-136385130D01*
X79056267Y-136385130D02*
X79094362Y-136347035D01*
X79094362Y-136347035D02*
X79056267Y-136308940D01*
X79056267Y-136308940D02*
X79056267Y-136385130D01*
X79437219Y-136575606D02*
X79437219Y-137108940D01*
X79437219Y-136651797D02*
X79475314Y-136613702D01*
X79475314Y-136613702D02*
X79551504Y-136575606D01*
X79551504Y-136575606D02*
X79665790Y-136575606D01*
X79665790Y-136575606D02*
X79741981Y-136613702D01*
X79741981Y-136613702D02*
X79780076Y-136689892D01*
X79780076Y-136689892D02*
X79780076Y-137108940D01*
X81227696Y-137032749D02*
X81189600Y-137070845D01*
X81189600Y-137070845D02*
X81075315Y-137108940D01*
X81075315Y-137108940D02*
X80999124Y-137108940D01*
X80999124Y-137108940D02*
X80884838Y-137070845D01*
X80884838Y-137070845D02*
X80808648Y-136994654D01*
X80808648Y-136994654D02*
X80770553Y-136918464D01*
X80770553Y-136918464D02*
X80732457Y-136766083D01*
X80732457Y-136766083D02*
X80732457Y-136651797D01*
X80732457Y-136651797D02*
X80770553Y-136499416D01*
X80770553Y-136499416D02*
X80808648Y-136423225D01*
X80808648Y-136423225D02*
X80884838Y-136347035D01*
X80884838Y-136347035D02*
X80999124Y-136308940D01*
X80999124Y-136308940D02*
X81075315Y-136308940D01*
X81075315Y-136308940D02*
X81189600Y-136347035D01*
X81189600Y-136347035D02*
X81227696Y-136385130D01*
X81913410Y-137108940D02*
X81913410Y-136689892D01*
X81913410Y-136689892D02*
X81875315Y-136613702D01*
X81875315Y-136613702D02*
X81799124Y-136575606D01*
X81799124Y-136575606D02*
X81646743Y-136575606D01*
X81646743Y-136575606D02*
X81570553Y-136613702D01*
X81913410Y-137070845D02*
X81837219Y-137108940D01*
X81837219Y-137108940D02*
X81646743Y-137108940D01*
X81646743Y-137108940D02*
X81570553Y-137070845D01*
X81570553Y-137070845D02*
X81532457Y-136994654D01*
X81532457Y-136994654D02*
X81532457Y-136918464D01*
X81532457Y-136918464D02*
X81570553Y-136842273D01*
X81570553Y-136842273D02*
X81646743Y-136804178D01*
X81646743Y-136804178D02*
X81837219Y-136804178D01*
X81837219Y-136804178D02*
X81913410Y-136766083D01*
X82294363Y-137108940D02*
X82294363Y-136308940D01*
X82294363Y-136613702D02*
X82370553Y-136575606D01*
X82370553Y-136575606D02*
X82522934Y-136575606D01*
X82522934Y-136575606D02*
X82599125Y-136613702D01*
X82599125Y-136613702D02*
X82637220Y-136651797D01*
X82637220Y-136651797D02*
X82675315Y-136727987D01*
X82675315Y-136727987D02*
X82675315Y-136956559D01*
X82675315Y-136956559D02*
X82637220Y-137032749D01*
X82637220Y-137032749D02*
X82599125Y-137070845D01*
X82599125Y-137070845D02*
X82522934Y-137108940D01*
X82522934Y-137108940D02*
X82370553Y-137108940D01*
X82370553Y-137108940D02*
X82294363Y-137070845D01*
X83132458Y-137108940D02*
X83056268Y-137070845D01*
X83056268Y-137070845D02*
X83018173Y-136994654D01*
X83018173Y-136994654D02*
X83018173Y-136308940D01*
X83741983Y-137070845D02*
X83665792Y-137108940D01*
X83665792Y-137108940D02*
X83513411Y-137108940D01*
X83513411Y-137108940D02*
X83437221Y-137070845D01*
X83437221Y-137070845D02*
X83399125Y-136994654D01*
X83399125Y-136994654D02*
X83399125Y-136689892D01*
X83399125Y-136689892D02*
X83437221Y-136613702D01*
X83437221Y-136613702D02*
X83513411Y-136575606D01*
X83513411Y-136575606D02*
X83665792Y-136575606D01*
X83665792Y-136575606D02*
X83741983Y-136613702D01*
X83741983Y-136613702D02*
X83780078Y-136689892D01*
X83780078Y-136689892D02*
X83780078Y-136766083D01*
X83780078Y-136766083D02*
X83399125Y-136842273D01*
X84694363Y-136880368D02*
X85075316Y-136880368D01*
X84618173Y-137108940D02*
X84884840Y-136308940D01*
X84884840Y-136308940D02*
X85151506Y-137108940D01*
X85761030Y-137108940D02*
X85761030Y-136308940D01*
X85761030Y-137070845D02*
X85684839Y-137108940D01*
X85684839Y-137108940D02*
X85532458Y-137108940D01*
X85532458Y-137108940D02*
X85456268Y-137070845D01*
X85456268Y-137070845D02*
X85418173Y-137032749D01*
X85418173Y-137032749D02*
X85380077Y-136956559D01*
X85380077Y-136956559D02*
X85380077Y-136727987D01*
X85380077Y-136727987D02*
X85418173Y-136651797D01*
X85418173Y-136651797D02*
X85456268Y-136613702D01*
X85456268Y-136613702D02*
X85532458Y-136575606D01*
X85532458Y-136575606D02*
X85684839Y-136575606D01*
X85684839Y-136575606D02*
X85761030Y-136613702D01*
X86484840Y-137108940D02*
X86484840Y-136689892D01*
X86484840Y-136689892D02*
X86446745Y-136613702D01*
X86446745Y-136613702D02*
X86370554Y-136575606D01*
X86370554Y-136575606D02*
X86218173Y-136575606D01*
X86218173Y-136575606D02*
X86141983Y-136613702D01*
X86484840Y-137070845D02*
X86408649Y-137108940D01*
X86408649Y-137108940D02*
X86218173Y-137108940D01*
X86218173Y-137108940D02*
X86141983Y-137070845D01*
X86141983Y-137070845D02*
X86103887Y-136994654D01*
X86103887Y-136994654D02*
X86103887Y-136918464D01*
X86103887Y-136918464D02*
X86141983Y-136842273D01*
X86141983Y-136842273D02*
X86218173Y-136804178D01*
X86218173Y-136804178D02*
X86408649Y-136804178D01*
X86408649Y-136804178D02*
X86484840Y-136766083D01*
X86865793Y-136575606D02*
X86865793Y-137375606D01*
X86865793Y-136613702D02*
X86941983Y-136575606D01*
X86941983Y-136575606D02*
X87094364Y-136575606D01*
X87094364Y-136575606D02*
X87170555Y-136613702D01*
X87170555Y-136613702D02*
X87208650Y-136651797D01*
X87208650Y-136651797D02*
X87246745Y-136727987D01*
X87246745Y-136727987D02*
X87246745Y-136956559D01*
X87246745Y-136956559D02*
X87208650Y-137032749D01*
X87208650Y-137032749D02*
X87170555Y-137070845D01*
X87170555Y-137070845D02*
X87094364Y-137108940D01*
X87094364Y-137108940D02*
X86941983Y-137108940D01*
X86941983Y-137108940D02*
X86865793Y-137070845D01*
X87475317Y-136575606D02*
X87780079Y-136575606D01*
X87589603Y-136308940D02*
X87589603Y-136994654D01*
X87589603Y-136994654D02*
X87627698Y-137070845D01*
X87627698Y-137070845D02*
X87703888Y-137108940D01*
X87703888Y-137108940D02*
X87780079Y-137108940D01*
X88351508Y-137070845D02*
X88275317Y-137108940D01*
X88275317Y-137108940D02*
X88122936Y-137108940D01*
X88122936Y-137108940D02*
X88046746Y-137070845D01*
X88046746Y-137070845D02*
X88008650Y-136994654D01*
X88008650Y-136994654D02*
X88008650Y-136689892D01*
X88008650Y-136689892D02*
X88046746Y-136613702D01*
X88046746Y-136613702D02*
X88122936Y-136575606D01*
X88122936Y-136575606D02*
X88275317Y-136575606D01*
X88275317Y-136575606D02*
X88351508Y-136613702D01*
X88351508Y-136613702D02*
X88389603Y-136689892D01*
X88389603Y-136689892D02*
X88389603Y-136766083D01*
X88389603Y-136766083D02*
X88008650Y-136842273D01*
X88732460Y-137108940D02*
X88732460Y-136575606D01*
X88732460Y-136727987D02*
X88770555Y-136651797D01*
X88770555Y-136651797D02*
X88808650Y-136613702D01*
X88808650Y-136613702D02*
X88884841Y-136575606D01*
X88884841Y-136575606D02*
X88961031Y-136575606D01*
X89722936Y-136308940D02*
X89989603Y-137108940D01*
X89989603Y-137108940D02*
X90256269Y-136308940D01*
X90675317Y-136308940D02*
X90751507Y-136308940D01*
X90751507Y-136308940D02*
X90827698Y-136347035D01*
X90827698Y-136347035D02*
X90865793Y-136385130D01*
X90865793Y-136385130D02*
X90903888Y-136461321D01*
X90903888Y-136461321D02*
X90941983Y-136613702D01*
X90941983Y-136613702D02*
X90941983Y-136804178D01*
X90941983Y-136804178D02*
X90903888Y-136956559D01*
X90903888Y-136956559D02*
X90865793Y-137032749D01*
X90865793Y-137032749D02*
X90827698Y-137070845D01*
X90827698Y-137070845D02*
X90751507Y-137108940D01*
X90751507Y-137108940D02*
X90675317Y-137108940D01*
X90675317Y-137108940D02*
X90599126Y-137070845D01*
X90599126Y-137070845D02*
X90561031Y-137032749D01*
X90561031Y-137032749D02*
X90522936Y-136956559D01*
X90522936Y-136956559D02*
X90484840Y-136804178D01*
X90484840Y-136804178D02*
X90484840Y-136613702D01*
X90484840Y-136613702D02*
X90522936Y-136461321D01*
X90522936Y-136461321D02*
X90561031Y-136385130D01*
X90561031Y-136385130D02*
X90599126Y-136347035D01*
X90599126Y-136347035D02*
X90675317Y-136308940D01*
X91284841Y-137032749D02*
X91322936Y-137070845D01*
X91322936Y-137070845D02*
X91284841Y-137108940D01*
X91284841Y-137108940D02*
X91246745Y-137070845D01*
X91246745Y-137070845D02*
X91284841Y-137032749D01*
X91284841Y-137032749D02*
X91284841Y-137108940D01*
X91780078Y-136651797D02*
X91703888Y-136613702D01*
X91703888Y-136613702D02*
X91665793Y-136575606D01*
X91665793Y-136575606D02*
X91627697Y-136499416D01*
X91627697Y-136499416D02*
X91627697Y-136461321D01*
X91627697Y-136461321D02*
X91665793Y-136385130D01*
X91665793Y-136385130D02*
X91703888Y-136347035D01*
X91703888Y-136347035D02*
X91780078Y-136308940D01*
X91780078Y-136308940D02*
X91932459Y-136308940D01*
X91932459Y-136308940D02*
X92008650Y-136347035D01*
X92008650Y-136347035D02*
X92046745Y-136385130D01*
X92046745Y-136385130D02*
X92084840Y-136461321D01*
X92084840Y-136461321D02*
X92084840Y-136499416D01*
X92084840Y-136499416D02*
X92046745Y-136575606D01*
X92046745Y-136575606D02*
X92008650Y-136613702D01*
X92008650Y-136613702D02*
X91932459Y-136651797D01*
X91932459Y-136651797D02*
X91780078Y-136651797D01*
X91780078Y-136651797D02*
X91703888Y-136689892D01*
X91703888Y-136689892D02*
X91665793Y-136727987D01*
X91665793Y-136727987D02*
X91627697Y-136804178D01*
X91627697Y-136804178D02*
X91627697Y-136956559D01*
X91627697Y-136956559D02*
X91665793Y-137032749D01*
X91665793Y-137032749D02*
X91703888Y-137070845D01*
X91703888Y-137070845D02*
X91780078Y-137108940D01*
X91780078Y-137108940D02*
X91932459Y-137108940D01*
X91932459Y-137108940D02*
X92008650Y-137070845D01*
X92008650Y-137070845D02*
X92046745Y-137032749D01*
X92046745Y-137032749D02*
X92084840Y-136956559D01*
X92084840Y-136956559D02*
X92084840Y-136804178D01*
X92084840Y-136804178D02*
X92046745Y-136727987D01*
X92046745Y-136727987D02*
X92008650Y-136689892D01*
X92008650Y-136689892D02*
X91932459Y-136651797D01*
X71056265Y-138396895D02*
X71056265Y-137596895D01*
X71056265Y-137596895D02*
X71322931Y-138168323D01*
X71322931Y-138168323D02*
X71589598Y-137596895D01*
X71589598Y-137596895D02*
X71589598Y-138396895D01*
X71970551Y-138396895D02*
X71970551Y-137863561D01*
X71970551Y-137596895D02*
X71932455Y-137634990D01*
X71932455Y-137634990D02*
X71970551Y-137673085D01*
X71970551Y-137673085D02*
X72008646Y-137634990D01*
X72008646Y-137634990D02*
X71970551Y-137596895D01*
X71970551Y-137596895D02*
X71970551Y-137673085D01*
X72351503Y-138396895D02*
X72351503Y-137863561D01*
X72351503Y-138015942D02*
X72389598Y-137939752D01*
X72389598Y-137939752D02*
X72427693Y-137901657D01*
X72427693Y-137901657D02*
X72503884Y-137863561D01*
X72503884Y-137863561D02*
X72580074Y-137863561D01*
X72846741Y-138396895D02*
X72846741Y-137596895D01*
X72922931Y-138092133D02*
X73151503Y-138396895D01*
X73151503Y-137863561D02*
X72846741Y-138168323D01*
X73608645Y-138396895D02*
X73532455Y-138358800D01*
X73532455Y-138358800D02*
X73494360Y-138320704D01*
X73494360Y-138320704D02*
X73456264Y-138244514D01*
X73456264Y-138244514D02*
X73456264Y-138015942D01*
X73456264Y-138015942D02*
X73494360Y-137939752D01*
X73494360Y-137939752D02*
X73532455Y-137901657D01*
X73532455Y-137901657D02*
X73608645Y-137863561D01*
X73608645Y-137863561D02*
X73722931Y-137863561D01*
X73722931Y-137863561D02*
X73799122Y-137901657D01*
X73799122Y-137901657D02*
X73837217Y-137939752D01*
X73837217Y-137939752D02*
X73875312Y-138015942D01*
X73875312Y-138015942D02*
X73875312Y-138244514D01*
X73875312Y-138244514D02*
X73837217Y-138320704D01*
X73837217Y-138320704D02*
X73799122Y-138358800D01*
X73799122Y-138358800D02*
X73722931Y-138396895D01*
X73722931Y-138396895D02*
X73608645Y-138396895D01*
X75056265Y-138701657D02*
X75018170Y-138663561D01*
X75018170Y-138663561D02*
X74941979Y-138549276D01*
X74941979Y-138549276D02*
X74903884Y-138473085D01*
X74903884Y-138473085D02*
X74865789Y-138358800D01*
X74865789Y-138358800D02*
X74827694Y-138168323D01*
X74827694Y-138168323D02*
X74827694Y-138015942D01*
X74827694Y-138015942D02*
X74865789Y-137825466D01*
X74865789Y-137825466D02*
X74903884Y-137711180D01*
X74903884Y-137711180D02*
X74941979Y-137634990D01*
X74941979Y-137634990D02*
X75018170Y-137520704D01*
X75018170Y-137520704D02*
X75056265Y-137482609D01*
X75361027Y-138396895D02*
X75361027Y-137596895D01*
X75361027Y-137596895D02*
X75818170Y-138396895D01*
X75818170Y-138396895D02*
X75818170Y-137596895D01*
X76313407Y-138396895D02*
X76237217Y-138358800D01*
X76237217Y-138358800D02*
X76199122Y-138320704D01*
X76199122Y-138320704D02*
X76161026Y-138244514D01*
X76161026Y-138244514D02*
X76161026Y-138015942D01*
X76161026Y-138015942D02*
X76199122Y-137939752D01*
X76199122Y-137939752D02*
X76237217Y-137901657D01*
X76237217Y-137901657D02*
X76313407Y-137863561D01*
X76313407Y-137863561D02*
X76427693Y-137863561D01*
X76427693Y-137863561D02*
X76503884Y-137901657D01*
X76503884Y-137901657D02*
X76541979Y-137939752D01*
X76541979Y-137939752D02*
X76580074Y-138015942D01*
X76580074Y-138015942D02*
X76580074Y-138244514D01*
X76580074Y-138244514D02*
X76541979Y-138320704D01*
X76541979Y-138320704D02*
X76503884Y-138358800D01*
X76503884Y-138358800D02*
X76427693Y-138396895D01*
X76427693Y-138396895D02*
X76313407Y-138396895D01*
X76846741Y-137863561D02*
X77037217Y-138396895D01*
X77037217Y-138396895D02*
X77227694Y-137863561D01*
X77532456Y-138396895D02*
X77532456Y-137863561D01*
X77532456Y-137596895D02*
X77494360Y-137634990D01*
X77494360Y-137634990D02*
X77532456Y-137673085D01*
X77532456Y-137673085D02*
X77570551Y-137634990D01*
X77570551Y-137634990D02*
X77532456Y-137596895D01*
X77532456Y-137596895D02*
X77532456Y-137673085D01*
X77913408Y-137863561D02*
X77913408Y-138396895D01*
X77913408Y-137939752D02*
X77951503Y-137901657D01*
X77951503Y-137901657D02*
X78027693Y-137863561D01*
X78027693Y-137863561D02*
X78141979Y-137863561D01*
X78141979Y-137863561D02*
X78218170Y-137901657D01*
X78218170Y-137901657D02*
X78256265Y-137977847D01*
X78256265Y-137977847D02*
X78256265Y-138396895D01*
X78522932Y-137863561D02*
X78827694Y-137863561D01*
X78637218Y-137596895D02*
X78637218Y-138282609D01*
X78637218Y-138282609D02*
X78675313Y-138358800D01*
X78675313Y-138358800D02*
X78751503Y-138396895D01*
X78751503Y-138396895D02*
X78827694Y-138396895D01*
X79094361Y-138396895D02*
X79094361Y-137863561D01*
X79094361Y-137596895D02*
X79056265Y-137634990D01*
X79056265Y-137634990D02*
X79094361Y-137673085D01*
X79094361Y-137673085D02*
X79132456Y-137634990D01*
X79132456Y-137634990D02*
X79094361Y-137596895D01*
X79094361Y-137596895D02*
X79094361Y-137673085D01*
X79818170Y-138358800D02*
X79741979Y-138396895D01*
X79741979Y-138396895D02*
X79589598Y-138396895D01*
X79589598Y-138396895D02*
X79513408Y-138358800D01*
X79513408Y-138358800D02*
X79475313Y-138320704D01*
X79475313Y-138320704D02*
X79437217Y-138244514D01*
X79437217Y-138244514D02*
X79437217Y-138015942D01*
X79437217Y-138015942D02*
X79475313Y-137939752D01*
X79475313Y-137939752D02*
X79513408Y-137901657D01*
X79513408Y-137901657D02*
X79589598Y-137863561D01*
X79589598Y-137863561D02*
X79741979Y-137863561D01*
X79741979Y-137863561D02*
X79818170Y-137901657D01*
X80084836Y-138701657D02*
X80122931Y-138663561D01*
X80122931Y-138663561D02*
X80199122Y-138549276D01*
X80199122Y-138549276D02*
X80237217Y-138473085D01*
X80237217Y-138473085D02*
X80275312Y-138358800D01*
X80275312Y-138358800D02*
X80313408Y-138168323D01*
X80313408Y-138168323D02*
X80313408Y-138015942D01*
X80313408Y-138015942D02*
X80275312Y-137825466D01*
X80275312Y-137825466D02*
X80237217Y-137711180D01*
X80237217Y-137711180D02*
X80199122Y-137634990D01*
X80199122Y-137634990D02*
X80122931Y-137520704D01*
X80122931Y-137520704D02*
X80084836Y-137482609D01*
D11*
X80286666Y-68624819D02*
X80286666Y-69339104D01*
X80286666Y-69339104D02*
X80239047Y-69481961D01*
X80239047Y-69481961D02*
X80143809Y-69577200D01*
X80143809Y-69577200D02*
X80000952Y-69624819D01*
X80000952Y-69624819D02*
X79905714Y-69624819D01*
X80715238Y-68720057D02*
X80762857Y-68672438D01*
X80762857Y-68672438D02*
X80858095Y-68624819D01*
X80858095Y-68624819D02*
X81096190Y-68624819D01*
X81096190Y-68624819D02*
X81191428Y-68672438D01*
X81191428Y-68672438D02*
X81239047Y-68720057D01*
X81239047Y-68720057D02*
X81286666Y-68815295D01*
X81286666Y-68815295D02*
X81286666Y-68910533D01*
X81286666Y-68910533D02*
X81239047Y-69053390D01*
X81239047Y-69053390D02*
X80667619Y-69624819D01*
X80667619Y-69624819D02*
X81286666Y-69624819D01*
X69966666Y-68254819D02*
X69966666Y-68969104D01*
X69966666Y-68969104D02*
X69919047Y-69111961D01*
X69919047Y-69111961D02*
X69823809Y-69207200D01*
X69823809Y-69207200D02*
X69680952Y-69254819D01*
X69680952Y-69254819D02*
X69585714Y-69254819D01*
X70966666Y-69254819D02*
X70395238Y-69254819D01*
X70680952Y-69254819D02*
X70680952Y-68254819D01*
X70680952Y-68254819D02*
X70585714Y-68397676D01*
X70585714Y-68397676D02*
X70490476Y-68492914D01*
X70490476Y-68492914D02*
X70395238Y-68540533D01*
X88286666Y-68624819D02*
X88286666Y-69339104D01*
X88286666Y-69339104D02*
X88239047Y-69481961D01*
X88239047Y-69481961D02*
X88143809Y-69577200D01*
X88143809Y-69577200D02*
X88000952Y-69624819D01*
X88000952Y-69624819D02*
X87905714Y-69624819D01*
X88667619Y-68624819D02*
X89286666Y-68624819D01*
X89286666Y-68624819D02*
X88953333Y-69005771D01*
X88953333Y-69005771D02*
X89096190Y-69005771D01*
X89096190Y-69005771D02*
X89191428Y-69053390D01*
X89191428Y-69053390D02*
X89239047Y-69101009D01*
X89239047Y-69101009D02*
X89286666Y-69196247D01*
X89286666Y-69196247D02*
X89286666Y-69434342D01*
X89286666Y-69434342D02*
X89239047Y-69529580D01*
X89239047Y-69529580D02*
X89191428Y-69577200D01*
X89191428Y-69577200D02*
X89096190Y-69624819D01*
X89096190Y-69624819D02*
X88810476Y-69624819D01*
X88810476Y-69624819D02*
X88715238Y-69577200D01*
X88715238Y-69577200D02*
X88667619Y-69529580D01*
D12*
%TO.C,J2*%
X78020000Y-70170000D02*
X79350000Y-70170000D01*
X78020000Y-71500000D02*
X78020000Y-70170000D01*
X78020000Y-72770000D02*
X78020000Y-121090000D01*
X78020000Y-72770000D02*
X80620000Y-72770000D01*
X78020000Y-121090000D02*
X83220000Y-121090000D01*
X80620000Y-70170000D02*
X83220000Y-70170000D01*
X80620000Y-72770000D02*
X80620000Y-70170000D01*
X83220000Y-70170000D02*
X83220000Y-121090000D01*
%TO.C,TP1*%
X78055000Y-59815000D02*
X78750000Y-59815000D01*
X78055000Y-60500000D02*
X78055000Y-59815000D01*
X78055000Y-61185000D02*
X78055000Y-61060000D01*
X78055000Y-61185000D02*
X78141724Y-61185000D01*
X78055000Y-61185000D02*
X79445000Y-61185000D01*
X79358276Y-61185000D02*
X79445000Y-61185000D01*
X79445000Y-61185000D02*
X79445000Y-61060000D01*
%TO.C,J1*%
X69970000Y-70170000D02*
X71300000Y-70170000D01*
X69970000Y-71500000D02*
X69970000Y-70170000D01*
X69970000Y-72770000D02*
X69970000Y-121090000D01*
X69970000Y-72770000D02*
X72570000Y-72770000D01*
X69970000Y-121090000D02*
X75170000Y-121090000D01*
X72570000Y-70170000D02*
X75170000Y-70170000D01*
X72570000Y-72770000D02*
X72570000Y-70170000D01*
X75170000Y-70170000D02*
X75170000Y-121090000D01*
%TO.C,TP2*%
X77805000Y-131565000D02*
X78500000Y-131565000D01*
X77805000Y-132250000D02*
X77805000Y-131565000D01*
X77805000Y-132935000D02*
X77805000Y-132810000D01*
X77805000Y-132935000D02*
X77891724Y-132935000D01*
X77805000Y-132935000D02*
X79195000Y-132935000D01*
X79108276Y-132935000D02*
X79195000Y-132935000D01*
X79195000Y-132935000D02*
X79195000Y-132810000D01*
%TO.C,J3*%
X86020000Y-70170000D02*
X87350000Y-70170000D01*
X86020000Y-71500000D02*
X86020000Y-70170000D01*
X86020000Y-72770000D02*
X86020000Y-121090000D01*
X86020000Y-72770000D02*
X88620000Y-72770000D01*
X86020000Y-121090000D02*
X91220000Y-121090000D01*
X88620000Y-70170000D02*
X91220000Y-70170000D01*
X88620000Y-72770000D02*
X88620000Y-70170000D01*
X91220000Y-70170000D02*
X91220000Y-121090000D01*
%TD*%
M02*
