%TF.GenerationSoftware,KiCad,Pcbnew,8.0.4*%
%TF.CreationDate,2024-11-26T14:31:27+01:00*%
%TF.ProjectId,6502 Pod 2x40 Pin Cable Adapter,36353032-2050-46f6-9420-327834302050,rev?*%
%TF.SameCoordinates,Original*%
%TF.FileFunction,Soldermask,Top*%
%TF.FilePolarity,Negative*%
%FSLAX46Y46*%
G04 Gerber Fmt 4.6, Leading zero omitted, Abs format (unit mm)*
G04 Created by KiCad (PCBNEW 8.0.4) date 2024-11-26 14:31:27*
%MOMM*%
%LPD*%
G01*
G04 APERTURE LIST*
%ADD10R,1.700000X1.700000*%
%ADD11O,1.700000X1.700000*%
%ADD12R,0.850000X0.850000*%
G04 APERTURE END LIST*
D10*
%TO.C,J2*%
X79350000Y-71500000D03*
D11*
X81890000Y-71500000D03*
X79350000Y-74040000D03*
X81890000Y-74040000D03*
X79350000Y-76580000D03*
X81890000Y-76580000D03*
X79350000Y-79120000D03*
X81890000Y-79120000D03*
X79350000Y-81660000D03*
X81890000Y-81660000D03*
X79350000Y-84200000D03*
X81890000Y-84200000D03*
X79350000Y-86740000D03*
X81890000Y-86740000D03*
X79350000Y-89280000D03*
X81890000Y-89280000D03*
X79350000Y-91820000D03*
X81890000Y-91820000D03*
X79350000Y-94360000D03*
X81890000Y-94360000D03*
X79350000Y-96900000D03*
X81890000Y-96900000D03*
X79350000Y-99440000D03*
X81890000Y-99440000D03*
X79350000Y-101980000D03*
X81890000Y-101980000D03*
X79350000Y-104520000D03*
X81890000Y-104520000D03*
X79350000Y-107060000D03*
X81890000Y-107060000D03*
X79350000Y-109600000D03*
X81890000Y-109600000D03*
X79350000Y-112140000D03*
X81890000Y-112140000D03*
X79350000Y-114680000D03*
X81890000Y-114680000D03*
X79350000Y-117220000D03*
X81890000Y-117220000D03*
X79350000Y-119760000D03*
X81890000Y-119760000D03*
%TD*%
D12*
%TO.C,TP1*%
X78750000Y-60500000D03*
%TD*%
D10*
%TO.C,J1*%
X71300000Y-71500000D03*
D11*
X73840000Y-71500000D03*
X71300000Y-74040000D03*
X73840000Y-74040000D03*
X71300000Y-76580000D03*
X73840000Y-76580000D03*
X71300000Y-79120000D03*
X73840000Y-79120000D03*
X71300000Y-81660000D03*
X73840000Y-81660000D03*
X71300000Y-84200000D03*
X73840000Y-84200000D03*
X71300000Y-86740000D03*
X73840000Y-86740000D03*
X71300000Y-89280000D03*
X73840000Y-89280000D03*
X71300000Y-91820000D03*
X73840000Y-91820000D03*
X71300000Y-94360000D03*
X73840000Y-94360000D03*
X71300000Y-96900000D03*
X73840000Y-96900000D03*
X71300000Y-99440000D03*
X73840000Y-99440000D03*
X71300000Y-101980000D03*
X73840000Y-101980000D03*
X71300000Y-104520000D03*
X73840000Y-104520000D03*
X71300000Y-107060000D03*
X73840000Y-107060000D03*
X71300000Y-109600000D03*
X73840000Y-109600000D03*
X71300000Y-112140000D03*
X73840000Y-112140000D03*
X71300000Y-114680000D03*
X73840000Y-114680000D03*
X71300000Y-117220000D03*
X73840000Y-117220000D03*
X71300000Y-119760000D03*
X73840000Y-119760000D03*
%TD*%
D12*
%TO.C,TP2*%
X78500000Y-132250000D03*
%TD*%
D10*
%TO.C,J3*%
X87350000Y-71500000D03*
D11*
X89890000Y-71500000D03*
X87350000Y-74040000D03*
X89890000Y-74040000D03*
X87350000Y-76580000D03*
X89890000Y-76580000D03*
X87350000Y-79120000D03*
X89890000Y-79120000D03*
X87350000Y-81660000D03*
X89890000Y-81660000D03*
X87350000Y-84200000D03*
X89890000Y-84200000D03*
X87350000Y-86740000D03*
X89890000Y-86740000D03*
X87350000Y-89280000D03*
X89890000Y-89280000D03*
X87350000Y-91820000D03*
X89890000Y-91820000D03*
X87350000Y-94360000D03*
X89890000Y-94360000D03*
X87350000Y-96900000D03*
X89890000Y-96900000D03*
X87350000Y-99440000D03*
X89890000Y-99440000D03*
X87350000Y-101980000D03*
X89890000Y-101980000D03*
X87350000Y-104520000D03*
X89890000Y-104520000D03*
X87350000Y-107060000D03*
X89890000Y-107060000D03*
X87350000Y-109600000D03*
X89890000Y-109600000D03*
X87350000Y-112140000D03*
X89890000Y-112140000D03*
X87350000Y-114680000D03*
X89890000Y-114680000D03*
X87350000Y-117220000D03*
X89890000Y-117220000D03*
X87350000Y-119760000D03*
X89890000Y-119760000D03*
%TD*%
M02*
